<svg width="566" height="183" viewBox="0 0 566 183" fill="none" xmlns="http://www.w3.org/2000/svg">
<path opacity="0.4" d="M564.396 92.689V95.8079C532.947 95.8079 493.571 96.3277 485.319 98.342C430.414 111.337 431.388 139.927 411.83 139.927C396.691 139.927 367.451 97.3673 341.33 97.3673C315.21 97.3673 308.062 112.117 290.194 112.117C272.325 112.117 267.842 97.3673 226.971 97.3673C186.101 97.3673 174.99 124.918 151.533 124.918C128.077 124.918 103.061 95.8079 74.211 95.8079H0.527344V92.689H74.5359C103.386 92.689 128.142 63.5794 151.858 63.5794C175.575 63.5794 186.361 91.1295 227.296 91.1295C268.232 91.1295 272.78 76.4448 290.519 76.4448C308.257 76.4448 315.6 91.1295 341.655 91.1295C367.711 91.1295 397.015 48.6348 412.155 48.6348C431.648 48.6348 430.738 77.0296 485.644 90.2199C493.571 92.1692 532.947 92.689 564.396 92.689Z" fill="white"/>
<path opacity="0.6" d="M564.388 92.6883V95.8071C523.453 95.8071 513.836 147.399 479.918 147.399C455.487 147.399 430.666 103.994 399.087 103.994C368.938 103.994 366.989 122.773 348.47 122.773C329.952 122.773 319.426 96.0671 289.991 96.0671C255.359 96.0671 246.912 156.56 217.022 156.56C187.133 156.56 174.008 100.226 145.548 100.226C117.088 100.226 115.464 109.387 91.3573 109.387C67.2509 109.387 45.3538 95.8071 20.6627 95.8071H0V92.6883H20.6627C45.3538 92.6883 67.2509 79.1731 91.3573 79.1731C115.464 79.1731 117.348 88.2699 145.548 88.2699C173.748 88.2699 186.808 32 217.022 32C247.237 32 255.359 92.4933 289.991 92.4933C319.166 92.4933 328.977 65.723 348.47 65.723C367.963 65.723 368.938 84.5012 399.087 84.5012C430.666 84.5012 455.487 41.1617 479.918 41.1617C513.836 41.2267 523.453 92.6883 564.388 92.6883Z" fill="white"/>
<path d="M0.527344 95.1489V93.1995C6.83589 93.1665 13.1102 92.2702 19.1756 90.5355C25.2226 88.7349 31.0105 86.1577 36.3945 82.8683C47.1157 76.3706 56.8622 67.9885 68.8829 63.83C74.9258 61.7072 81.3343 60.8233 87.7261 61.231C94.0474 61.8762 100.217 63.567 105.985 66.2342C117.615 71.2374 128.467 77.865 140.162 82.4134C151.7 87.2853 164.352 88.9033 176.744 87.0917C182.905 86.2751 188.869 84.3605 194.353 81.4388C199.782 77.9773 205.826 75.5947 212.157 74.4213C218.621 73.6308 225.178 74.6897 231.065 77.4752C236.913 80.0742 242.241 83.453 247.959 85.9871C259.16 91.4635 271.818 93.2165 284.086 90.9904C296.127 87.6759 307.113 81.3214 315.99 72.537C320.806 68.3075 326.185 64.765 331.974 62.0107C337.958 59.3925 344.505 58.3201 351.012 58.8918C357.499 59.3974 363.776 61.423 369.335 64.8047C374.704 68.254 379.808 72.0982 384.605 76.3055C389.231 80.3904 394.5 83.6835 400.199 86.0521C405.967 88.0876 412.123 88.7767 418.198 88.0664C424.36 87.5541 430.419 86.176 436.197 83.9728C442.044 81.7636 447.632 78.9047 453.675 76.6955C459.753 74.4423 466.168 73.2339 472.648 73.1217C479.117 73.1751 485.539 74.2271 491.687 76.2406C503.902 79.9443 515.208 85.7922 527.164 89.236C539.12 92.6797 551.66 91.3802 564.331 91.7051H565.955V96.5784H564.331C551.66 96.5784 538.99 95.2788 527.164 99.0474C515.338 102.816 503.902 108.144 491.687 112.043C485.539 114.056 479.117 115.108 472.648 115.162C466.167 115.11 459.746 113.923 453.675 111.653C447.632 109.444 442.044 106.52 436.197 104.376C430.422 102.152 424.363 100.752 418.198 100.217C412.118 99.5276 405.962 100.239 400.199 102.296C394.5 104.665 389.231 107.958 384.605 112.043C379.823 116.249 374.717 120.073 369.335 123.479C363.794 126.908 357.51 128.958 351.012 129.457C344.505 130.028 337.958 128.956 331.974 126.338C326.213 123.536 320.84 119.997 315.99 115.811C307.133 106.987 296.141 100.607 284.086 97.2931C271.818 95.0943 259.168 96.8461 247.959 102.296C242.241 104.895 236.913 108.209 231.065 110.808C225.183 113.613 218.627 114.694 212.157 113.927C205.835 112.725 199.795 110.344 194.353 106.91C188.857 104.002 182.9 102.067 176.744 101.192C164.346 99.4039 151.695 101.044 140.162 105.935C128.467 110.418 117.615 117.046 105.985 122.049C100.217 124.716 94.0474 126.407 87.7261 127.052C81.3608 127.455 74.9788 126.594 68.9479 124.518C56.7972 120.36 47.0507 111.848 36.4595 105.415C31.0617 102.152 25.2773 99.5763 19.2407 97.7479C13.1454 96.0573 6.85264 95.1833 0.527344 95.1489ZM0.527344 95.1489C6.84324 95.1311 13.1344 95.9393 19.2407 97.553C25.3096 99.3478 31.1359 101.879 36.5895 105.09C47.4406 111.588 57.2521 119.775 69.0778 123.739C75.0112 125.742 81.2856 126.538 87.5312 126.078C93.7535 125.379 99.815 123.644 105.465 120.945C116.901 115.876 127.687 109.119 139.513 104.44C151.304 99.4099 164.247 97.7022 176.939 99.5023C183.296 100.347 189.455 102.305 195.133 105.285C200.401 108.49 206.217 110.693 212.287 111.783C218.426 112.489 224.641 111.453 230.22 108.794C235.873 106.26 241.266 102.881 247.049 100.217C258.652 94.5411 271.758 92.6981 284.476 94.9539C296.86 98.3005 308.18 104.766 317.354 113.732C322.032 117.819 327.259 121.231 332.884 123.869C338.498 126.33 344.65 127.315 350.752 126.728C356.878 126.232 362.801 124.295 368.036 121.075C373.279 117.694 378.254 113.914 382.916 109.769C387.844 105.552 393.416 102.152 399.42 99.6972C405.656 97.4518 412.327 96.6736 418.913 97.423C425.322 97.9158 431.626 99.3386 437.626 101.647C443.669 103.856 449.257 106.715 455.105 108.859C466.794 112.986 479.543 112.986 491.232 108.859C503.123 105.155 514.429 99.3074 526.774 95.8636C532.982 94.0702 539.415 93.1731 545.877 93.1995H564.786L563.161 94.824V93.1995L564.786 94.824H545.877C539.415 94.8504 532.982 93.9533 526.774 92.1599C514.429 88.6511 503.123 82.8032 491.232 79.1645C479.554 74.9736 466.783 74.9736 455.105 79.1645C449.257 81.2438 443.669 84.1028 437.626 86.312C431.626 88.6199 425.322 90.0426 418.913 90.5355C412.332 91.3392 405.654 90.5825 399.42 88.3263C393.483 85.8097 387.996 82.3421 383.175 78.0599C378.497 73.9347 373.524 70.156 368.296 66.754C363.061 63.5335 357.138 61.5965 351.012 61.101C344.91 60.5453 338.767 61.5283 333.143 63.96C327.546 66.6449 322.325 70.0527 317.614 74.0964C308.461 83.1053 297.136 89.5963 284.736 92.9397C272.018 95.1955 258.912 93.3524 247.309 87.6765C241.461 85.0124 236.133 81.6337 230.415 79.0996C224.869 76.4069 218.672 75.3477 212.547 76.0457C206.447 77.2108 200.626 79.5262 195.393 82.8683C189.714 85.8485 183.556 87.806 177.199 88.6512C164.501 90.4612 151.549 88.7298 139.772 83.6479C127.947 78.9696 117.161 72.2121 105.725 67.1439C100.075 64.4447 94.0134 62.7097 87.7911 62.0107C81.5464 61.5835 75.2783 62.378 69.3377 64.3498C57.382 68.3134 47.5705 76.6955 36.8493 83.0632C31.4129 86.2918 25.5816 88.8034 19.5005 90.5355C13.4034 92.2022 7.10801 93.0329 0.787207 93.0046L0.527344 95.1489Z" fill="white"/>
<g filter="url(#filter0_d_3454_101486)">
<circle cx="289.5" cy="87.5" r="61.5" fill="url(#paint0_linear_3454_101486)"/>
<circle cx="289.5" cy="87.5" r="60" stroke="white" stroke-width="3"/>
</g>
<path d="M279.256 72.1254C279.256 69.6788 280.228 67.3324 281.958 65.6023C283.688 63.8723 286.034 62.9004 288.481 62.9004C290.927 62.9004 293.274 63.8723 295.004 65.6023C296.734 67.3324 297.706 69.6788 297.706 72.1254V87.5005C297.706 89.9471 296.734 92.2935 295.004 94.0236C293.274 95.7536 290.927 96.7255 288.481 96.7255C286.034 96.7255 283.688 95.7536 281.958 94.0236C280.228 92.2935 279.256 89.9471 279.256 87.5005V72.1254Z" fill="url(#paint1_linear_3454_101486)"/>
<path d="M274.637 82.8867C275.045 82.8867 275.436 83.0487 275.724 83.337C276.013 83.6254 276.175 84.0165 276.175 84.4242V87.4992C276.175 90.7614 277.47 93.89 279.777 96.1967C282.084 98.5034 285.212 99.7993 288.475 99.7993C291.737 99.7993 294.865 98.5034 297.172 96.1967C299.479 93.89 300.775 90.7614 300.775 87.4992V84.4242C300.775 84.0165 300.937 83.6254 301.225 83.337C301.513 83.0487 301.904 82.8867 302.312 82.8867C302.72 82.8867 303.111 83.0487 303.399 83.337C303.688 83.6254 303.85 84.0165 303.85 84.4242V87.4992C303.85 91.3108 302.434 94.9865 299.877 97.8133C297.32 100.64 293.805 102.416 290.012 102.797V109.024H299.237C299.645 109.024 300.036 109.186 300.324 109.475C300.613 109.763 300.775 110.154 300.775 110.562C300.775 110.97 300.613 111.361 300.324 111.649C300.036 111.937 299.645 112.099 299.237 112.099H277.712C277.304 112.099 276.913 111.937 276.625 111.649C276.337 111.361 276.175 110.97 276.175 110.562C276.175 110.154 276.337 109.763 276.625 109.475C276.913 109.186 277.304 109.024 277.712 109.024H286.937V102.797C283.145 102.416 279.629 100.64 277.072 97.8133C274.515 94.9865 273.1 91.3108 273.1 87.4992V84.4242C273.1 84.0165 273.262 83.6254 273.55 83.337C273.838 83.0487 274.229 82.8867 274.637 82.8867Z" fill="url(#paint2_linear_3454_101486)"/>
<defs>
<filter id="filter0_d_3454_101486" x="198" y="0" width="183" height="183" filterUnits="userSpaceOnUse" color-interpolation-filters="sRGB">
<feFlood flood-opacity="0" result="BackgroundImageFix"/>
<feColorMatrix in="SourceAlpha" type="matrix" values="0 0 0 0 0 0 0 0 0 0 0 0 0 0 0 0 0 0 127 0" result="hardAlpha"/>
<feOffset dy="4"/>
<feGaussianBlur stdDeviation="15"/>
<feComposite in2="hardAlpha" operator="out"/>
<feColorMatrix type="matrix" values="0 0 0 0 0 0 0 0 0 0 0 0 0 0 0 0 0 0 0.15 0"/>
<feBlend mode="normal" in2="BackgroundImageFix" result="effect1_dropShadow_3454_101486"/>
<feBlend mode="normal" in="SourceGraphic" in2="effect1_dropShadow_3454_101486" result="shape"/>
</filter>
<linearGradient id="paint0_linear_3454_101486" x1="244.4" y1="47.525" x2="343.825" y2="139.775" gradientUnits="userSpaceOnUse">
<stop stop-color="#E7E4FF"/>
<stop offset="1" stop-color="#D3E8FF"/>
</linearGradient>
<linearGradient id="paint1_linear_3454_101486" x1="281.562" y1="66.1425" x2="305.54" y2="79.1402" gradientUnits="userSpaceOnUse">
<stop stop-color="#2E6DCC"/>
<stop offset="1" stop-color="#4938CF"/>
</linearGradient>
<linearGradient id="paint2_linear_3454_101486" x1="276.943" y1="85.6868" x2="301.632" y2="111.514" gradientUnits="userSpaceOnUse">
<stop stop-color="#2E6DCC"/>
<stop offset="1" stop-color="#4938CF"/>
</linearGradient>
</defs>
</svg>
