<svg width="449" height="42" viewBox="0 0 449 42" fill="none" xmlns="http://www.w3.org/2000/svg">
<rect x="0.5" y="0.5" width="448" height="41" rx="20.5" fill="#AAC2D4" fill-opacity="0.06"/>
<rect x="0.5" y="0.5" width="448" height="41" rx="20.5" stroke="#E5E8EC"/>
<circle cx="21" cy="21" r="16" fill="#3C77EF"/>
<path d="M28 20.5L16.75 26.9952L16.75 14.0048L28 20.5Z" fill="white"/>
<path d="M42 16V23.2727" stroke="#34334B" stroke-opacity="0.2" stroke-width="2" stroke-linecap="round"/>
<path d="M46 15V25.1818" stroke="#34334B" stroke-opacity="0.2" stroke-width="2" stroke-linecap="round"/>
<path d="M50 14V26.3636" stroke="#34334B" stroke-opacity="0.2" stroke-width="2" stroke-linecap="round"/>
<path d="M54 12V28" stroke="#34334B" stroke-opacity="0.2" stroke-width="2" stroke-linecap="round"/>
<path d="M58 13V26.8182" stroke="#34334B" stroke-opacity="0.2" stroke-width="2" stroke-linecap="round"/>
<path d="M62 15V25.9091" stroke="#34334B" stroke-opacity="0.2" stroke-width="2" stroke-linecap="round"/>
<path d="M66 12V27.6364" stroke="#34334B" stroke-opacity="0.2" stroke-width="2" stroke-linecap="round"/>
<path d="M70 15V24.8182" stroke="#34334B" stroke-opacity="0.2" stroke-width="2" stroke-linecap="round"/>
<path d="M74 12L74 27.2727" stroke="#34334B" stroke-opacity="0.2" stroke-width="2" stroke-linecap="round"/>
<path d="M78 15V24.8182" stroke="#34334B" stroke-opacity="0.2" stroke-width="2" stroke-linecap="round"/>
<path d="M82 12V27.6364" stroke="#34334B" stroke-opacity="0.2" stroke-width="2" stroke-linecap="round"/>
<path d="M86 15V24.8182" stroke="#34334B" stroke-opacity="0.2" stroke-width="2" stroke-linecap="round"/>
<path d="M90 12V27.6364" stroke="#34334B" stroke-opacity="0.2" stroke-width="2" stroke-linecap="round"/>
<path d="M94 15V24.8182" stroke="#34334B" stroke-opacity="0.2" stroke-width="2" stroke-linecap="round"/>
<path d="M98 12V27.6364" stroke="#34334B" stroke-opacity="0.2" stroke-width="2" stroke-linecap="round"/>
<path d="M102 18V23" stroke="#34334B" stroke-opacity="0.2" stroke-width="2" stroke-linecap="round"/>
<path d="M106 19V21" stroke="#34334B" stroke-opacity="0.2" stroke-width="2" stroke-linecap="round"/>
<path d="M110 13V26.8182" stroke="#34334B" stroke-opacity="0.2" stroke-width="2" stroke-linecap="round"/>
<path d="M114 16V24.7273" stroke="#34334B" stroke-opacity="0.2" stroke-width="2" stroke-linecap="round"/>
<path d="M118 13V27.5455" stroke="#34334B" stroke-opacity="0.2" stroke-width="2" stroke-linecap="round"/>
<path d="M122 13V27.5455" stroke="#34334B" stroke-opacity="0.2" stroke-width="2" stroke-linecap="round"/>
<path d="M126 19V21.5" stroke="#34334B" stroke-opacity="0.2" stroke-width="2" stroke-linecap="round"/>
<path d="M130 13V27.5455" stroke="#34334B" stroke-opacity="0.2" stroke-width="2" stroke-linecap="round"/>
<path d="M134 14V25.2727" stroke="#34334B" stroke-opacity="0.2" stroke-width="2" stroke-linecap="round"/>
<path d="M138 19V20.5" stroke="#34334B" stroke-opacity="0.2" stroke-width="2" stroke-linecap="round"/>
<path d="M142 16V24.7273" stroke="#34334B" stroke-opacity="0.2" stroke-width="2" stroke-linecap="round"/>
<path d="M146 19V21" stroke="#34334B" stroke-opacity="0.2" stroke-width="2" stroke-linecap="round"/>
<path d="M149 16V23.2727" stroke="#34334B" stroke-opacity="0.2" stroke-width="2" stroke-linecap="round"/>
<path d="M153 15V25.1818" stroke="#34334B" stroke-opacity="0.2" stroke-width="2" stroke-linecap="round"/>
<path d="M157 14V26.3636" stroke="#34334B" stroke-opacity="0.2" stroke-width="2" stroke-linecap="round"/>
<path d="M161 12V28" stroke="#34334B" stroke-opacity="0.2" stroke-width="2" stroke-linecap="round"/>
<path d="M165 13V26.8182" stroke="#34334B" stroke-opacity="0.2" stroke-width="2" stroke-linecap="round"/>
<path d="M169 15V25.9091" stroke="#34334B" stroke-opacity="0.2" stroke-width="2" stroke-linecap="round"/>
<path d="M173 12V27.6364" stroke="#34334B" stroke-opacity="0.2" stroke-width="2" stroke-linecap="round"/>
<path d="M177 15V24.8182" stroke="#34334B" stroke-opacity="0.2" stroke-width="2" stroke-linecap="round"/>
<path d="M181 12L181 27.2727" stroke="#34334B" stroke-opacity="0.2" stroke-width="2" stroke-linecap="round"/>
<path d="M185 15V24.8182" stroke="#34334B" stroke-opacity="0.2" stroke-width="2" stroke-linecap="round"/>
<path d="M189 12V27.6364" stroke="#34334B" stroke-opacity="0.2" stroke-width="2" stroke-linecap="round"/>
<path d="M193 15V24.8182" stroke="#34334B" stroke-opacity="0.2" stroke-width="2" stroke-linecap="round"/>
<path d="M197 12V27.6364" stroke="#34334B" stroke-opacity="0.2" stroke-width="2" stroke-linecap="round"/>
<path d="M201 15V24.8182" stroke="#34334B" stroke-opacity="0.2" stroke-width="2" stroke-linecap="round"/>
<path d="M205 12V27.6364" stroke="#34334B" stroke-opacity="0.2" stroke-width="2" stroke-linecap="round"/>
<path d="M209 18V23" stroke="#34334B" stroke-opacity="0.2" stroke-width="2" stroke-linecap="round"/>
<path d="M213 19V21" stroke="#34334B" stroke-opacity="0.2" stroke-width="2" stroke-linecap="round"/>
<path d="M217 13V26.8182" stroke="#34334B" stroke-opacity="0.2" stroke-width="2" stroke-linecap="round"/>
<path d="M221 16V24.7273" stroke="#34334B" stroke-opacity="0.2" stroke-width="2" stroke-linecap="round"/>
<path d="M225 13V27.5455" stroke="#34334B" stroke-opacity="0.2" stroke-width="2" stroke-linecap="round"/>
<path d="M229 13V27.5455" stroke="#34334B" stroke-opacity="0.2" stroke-width="2" stroke-linecap="round"/>
<path d="M233 19V21.5" stroke="#34334B" stroke-opacity="0.2" stroke-width="2" stroke-linecap="round"/>
<path d="M237 13V27.5455" stroke="#34334B" stroke-opacity="0.2" stroke-width="2" stroke-linecap="round"/>
<path d="M241 14V25.2727" stroke="#34334B" stroke-opacity="0.2" stroke-width="2" stroke-linecap="round"/>
<path d="M245 19V20.5" stroke="#34334B" stroke-opacity="0.2" stroke-width="2" stroke-linecap="round"/>
<path d="M249 16V24.7273" stroke="#34334B" stroke-opacity="0.2" stroke-width="2" stroke-linecap="round"/>
<path d="M253 19V21" stroke="#34334B" stroke-opacity="0.2" stroke-width="2" stroke-linecap="round"/>
<path d="M257.004 16V23.2727" stroke="#34334B" stroke-opacity="0.2" stroke-width="2" stroke-linecap="round"/>
<path d="M261.004 15V25.1818" stroke="#34334B" stroke-opacity="0.2" stroke-width="2" stroke-linecap="round"/>
<path d="M265.004 14V26.3636" stroke="#34334B" stroke-opacity="0.2" stroke-width="2" stroke-linecap="round"/>
<path d="M269.004 12V28" stroke="#34334B" stroke-opacity="0.2" stroke-width="2" stroke-linecap="round"/>
<path d="M273.004 13V26.8182" stroke="#34334B" stroke-opacity="0.2" stroke-width="2" stroke-linecap="round"/>
<path d="M277.004 15V25.9091" stroke="#34334B" stroke-opacity="0.2" stroke-width="2" stroke-linecap="round"/>
<path d="M281.004 12V27.6364" stroke="#34334B" stroke-opacity="0.2" stroke-width="2" stroke-linecap="round"/>
<path d="M285.004 15V24.8182" stroke="#34334B" stroke-opacity="0.2" stroke-width="2" stroke-linecap="round"/>
<path d="M289.004 12L289.004 27.2727" stroke="#34334B" stroke-opacity="0.2" stroke-width="2" stroke-linecap="round"/>
<path d="M293.004 15V24.8182" stroke="#34334B" stroke-opacity="0.2" stroke-width="2" stroke-linecap="round"/>
<path d="M297 20V21.5" stroke="#34334B" stroke-opacity="0.2" stroke-width="2" stroke-linecap="round"/>
<path d="M301 20V21.5" stroke="#34334B" stroke-opacity="0.2" stroke-width="2" stroke-linecap="round"/>
<path d="M42 16V23.2727" stroke="#3C77EF" stroke-width="2" stroke-linecap="round"/>
<path d="M46 15V25.1818" stroke="#3C77EF" stroke-width="2" stroke-linecap="round"/>
<path d="M50 14V26.3636" stroke="#3C77EF" stroke-width="2" stroke-linecap="round"/>
<path d="M54 12V28" stroke="#3C77EF" stroke-width="2" stroke-linecap="round"/>
<path d="M58 13V26.8182" stroke="#3C77EF" stroke-width="2" stroke-linecap="round"/>
<path d="M62 15V25.9091" stroke="#3C77EF" stroke-width="2" stroke-linecap="round"/>
<path d="M66 12V27.6364" stroke="#3C77EF" stroke-width="2" stroke-linecap="round"/>
<path d="M70 15V24.8182" stroke="#3C77EF" stroke-width="2" stroke-linecap="round"/>
<path d="M74 12L74 27.2727" stroke="#3C77EF" stroke-width="2" stroke-linecap="round"/>
<path d="M78 15V24.8182" stroke="#3C77EF" stroke-width="2" stroke-linecap="round"/>
<path d="M82 12V27.6364" stroke="#3C77EF" stroke-width="2" stroke-linecap="round"/>
<path d="M318.459 23.0625V24H313.693V23.1943L316.008 20.6699C316.262 20.3835 316.462 20.1361 316.608 19.9277C316.755 19.7194 316.857 19.5322 316.916 19.3662C316.978 19.1969 317.009 19.0326 317.009 18.873C317.009 18.6484 316.966 18.4515 316.882 18.2822C316.8 18.1097 316.68 17.9746 316.521 17.877C316.361 17.776 316.167 17.7256 315.939 17.7256C315.676 17.7256 315.454 17.7826 315.275 17.8965C315.096 18.0104 314.961 18.1683 314.87 18.3701C314.779 18.5687 314.733 18.7965 314.733 19.0537H313.557C313.557 18.6403 313.651 18.2627 313.84 17.9209C314.029 17.5758 314.302 17.3024 314.66 17.1006C315.018 16.8955 315.45 16.793 315.954 16.793C316.429 16.793 316.833 16.8727 317.165 17.0322C317.497 17.1917 317.749 17.418 317.922 17.7109C318.098 18.0039 318.186 18.3506 318.186 18.751C318.186 18.9723 318.15 19.1921 318.078 19.4102C318.007 19.6283 317.904 19.8464 317.771 20.0645C317.64 20.2793 317.486 20.4958 317.307 20.7139C317.128 20.9287 316.931 21.1468 316.716 21.3682L315.178 23.0625H318.459ZM319.46 23.4141C319.46 23.2318 319.522 23.0788 319.646 22.9551C319.769 22.8281 319.937 22.7646 320.148 22.7646C320.363 22.7646 320.531 22.8281 320.651 22.9551C320.775 23.0788 320.837 23.2318 320.837 23.4141C320.837 23.5964 320.775 23.7493 320.651 23.873C320.531 23.9967 320.363 24.0586 320.148 24.0586C319.937 24.0586 319.769 23.9967 319.646 23.873C319.522 23.7493 319.46 23.5964 319.46 23.4141ZM319.465 19.2539C319.465 19.0716 319.527 18.9186 319.65 18.7949C319.774 18.668 319.942 18.6045 320.153 18.6045C320.368 18.6045 320.536 18.668 320.656 18.7949C320.78 18.9186 320.842 19.0716 320.842 19.2539C320.842 19.4362 320.78 19.5892 320.656 19.7129C320.536 19.8366 320.368 19.8984 320.153 19.8984C319.942 19.8984 319.774 19.8366 319.65 19.7129C319.527 19.5892 319.465 19.4362 319.465 19.2539ZM326.647 19.8496V21.0117C326.647 21.5684 326.592 22.0436 326.481 22.4375C326.374 22.8281 326.218 23.1455 326.013 23.3896C325.808 23.6338 325.562 23.8128 325.275 23.9268C324.992 24.0407 324.675 24.0977 324.323 24.0977C324.043 24.0977 323.783 24.0618 323.542 23.9902C323.304 23.9186 323.09 23.8063 322.897 23.6533C322.705 23.5003 322.541 23.3034 322.404 23.0625C322.271 22.8184 322.167 22.527 322.092 22.1885C322.02 21.8499 321.984 21.4577 321.984 21.0117V19.8496C321.984 19.2897 322.04 18.8177 322.15 18.4336C322.261 18.0462 322.419 17.7321 322.624 17.4912C322.829 17.2471 323.073 17.0697 323.356 16.959C323.643 16.8483 323.962 16.793 324.313 16.793C324.597 16.793 324.857 16.8288 325.095 16.9004C325.336 16.9688 325.55 17.0778 325.739 17.2275C325.931 17.3773 326.094 17.5726 326.228 17.8135C326.364 18.0511 326.468 18.3392 326.54 18.6777C326.612 19.013 326.647 19.4036 326.647 19.8496ZM325.471 21.1777V19.6738C325.471 19.3906 325.454 19.1416 325.422 18.9268C325.389 18.7087 325.34 18.5247 325.275 18.375C325.214 18.222 325.135 18.0983 325.041 18.0039C324.947 17.9062 324.839 17.8363 324.719 17.7939C324.598 17.7484 324.463 17.7256 324.313 17.7256C324.131 17.7256 323.968 17.7614 323.825 17.833C323.682 17.9014 323.562 18.012 323.464 18.165C323.366 18.318 323.291 18.5199 323.239 18.7705C323.19 19.0179 323.166 19.319 323.166 19.6738V21.1777C323.166 21.4642 323.182 21.7165 323.215 21.9346C323.247 22.1527 323.296 22.3398 323.361 22.4961C323.426 22.6491 323.505 22.776 323.596 22.877C323.69 22.9746 323.798 23.0462 323.918 23.0918C324.042 23.1374 324.177 23.1602 324.323 23.1602C324.509 23.1602 324.673 23.1243 324.816 23.0527C324.96 22.9811 325.08 22.8672 325.178 22.7109C325.275 22.5514 325.349 22.3447 325.397 22.0908C325.446 21.8369 325.471 21.5326 325.471 21.1777ZM328.933 20.6943L327.995 20.4648L328.381 16.8906H332.214V17.8867H329.357L329.162 19.6299C329.273 19.5648 329.426 19.5013 329.621 19.4395C329.816 19.3743 330.039 19.3418 330.29 19.3418C330.625 19.3418 330.925 19.3971 331.188 19.5078C331.455 19.6152 331.682 19.7731 331.867 19.9814C332.053 20.1865 332.194 20.4372 332.292 20.7334C332.39 21.0264 332.438 21.3568 332.438 21.7246C332.438 22.0534 332.39 22.361 332.292 22.6475C332.198 22.9339 332.054 23.1862 331.862 23.4043C331.67 23.6224 331.428 23.7933 331.135 23.917C330.845 24.0374 330.502 24.0977 330.104 24.0977C329.808 24.0977 329.523 24.0553 329.25 23.9707C328.98 23.8828 328.737 23.7542 328.522 23.585C328.308 23.4124 328.135 23.2008 328.005 22.9502C327.875 22.6963 327.8 22.4049 327.78 22.0762H328.933C328.962 22.3073 329.025 22.5042 329.123 22.667C329.224 22.8265 329.357 22.9486 329.523 23.0332C329.689 23.1178 329.882 23.1602 330.1 23.1602C330.298 23.1602 330.469 23.126 330.612 23.0576C330.756 22.986 330.874 22.8851 330.969 22.7549C331.066 22.6214 331.138 22.4652 331.184 22.2861C331.232 22.1071 331.257 21.9085 331.257 21.6904C331.257 21.4821 331.229 21.2917 331.174 21.1191C331.122 20.9466 331.042 20.7969 330.935 20.6699C330.83 20.543 330.699 20.4453 330.539 20.377C330.38 20.3053 330.196 20.2695 329.987 20.2695C329.707 20.2695 329.493 20.3102 329.343 20.3916C329.196 20.473 329.06 20.5739 328.933 20.6943Z" fill="#3C77EF"/>
</svg>
