<svg width="800" height="800" viewBox="0 0 800 800" fill="none" xmlns="http://www.w3.org/2000/svg">
<g clip-path="url(#clip0_2939_61257)">
<path d="M800 400.009C800 620.941 620.928 800.006 400.006 800C179.072 800.006 5.0098e-07 620.941 5.0098e-07 400.009C-0.010937 179.078 179.072 0 400.006 0C620.928 0 800 179.084 800 400.009Z" fill="#23AD78"/>
<path d="M799.895 404.032C799.12 403.249 599.889 204.015 599.103 203.241C548.291 151.826 477.827 119.871 399.998 119.871C245.537 119.871 119.867 245.54 119.867 400.001C119.867 477.824 151.82 548.285 203.234 599.101C204.008 599.885 204.784 600.66 205.569 601.435C206.344 602.22 400.914 796.788 401.698 797.566C402.472 798.348 403.245 799.12 404.03 799.896C621.744 797.748 797.741 621.752 799.895 404.032Z" fill="#1A9256"/>
<path d="M508.755 309.765L341.927 465.48L291.534 415.087C286.974 410.527 279.588 410.527 275.029 415.087C270.47 419.646 270.47 427.032 275.029 431.591L333.388 489.958C335.668 492.232 338.655 493.379 341.641 493.379C344.502 493.379 347.363 492.335 349.61 490.238L524.693 326.829C529.401 322.429 529.651 315.043 525.263 310.335C520.86 305.616 513.485 305.354 508.755 309.765Z" fill="#F4F6F9"/>
<path d="M400.001 119.871C245.54 119.871 119.871 245.54 119.871 400.001C119.871 554.462 245.54 680.13 400.001 680.13C554.462 680.13 680.13 554.462 680.13 400.001C680.13 245.54 554.462 119.871 400.001 119.871ZM400.001 656.785C258.409 656.785 143.216 541.591 143.216 400.001C143.216 258.41 258.409 143.216 400.001 143.216C541.593 143.216 656.785 258.409 656.785 400.001C656.785 541.593 541.593 656.785 400.001 656.785Z" fill="#F4F6F9"/>
</g>
<defs>
<clipPath id="clip0_2939_61257">
<rect width="800" height="800" fill="white"/>
</clipPath>
</defs>
</svg>
