<svg width="421" height="323" viewBox="0 0 421 323" fill="none" xmlns="http://www.w3.org/2000/svg">
<path d="M151.847 231.737C196.241 231.737 232.229 195.749 232.229 151.355C232.229 106.961 196.241 70.9727 151.847 70.9727C107.453 70.9727 71.4648 106.961 71.4648 151.355C71.4648 195.749 107.453 231.737 151.847 231.737Z" fill="#F0F0F6"/>
<path d="M316.458 231.741C360.512 231.741 396.225 196.028 396.225 151.974C396.225 107.92 360.512 72.207 316.458 72.207C272.404 72.207 236.691 107.92 236.691 151.974C236.691 196.028 272.404 231.741 316.458 231.741Z" fill="#F0F0F6"/>
<path d="M234.463 231.738C295.382 231.738 344.767 182.353 344.767 121.433C344.767 60.514 295.382 11.1289 234.463 11.1289C173.543 11.1289 124.158 60.514 124.158 121.433C124.158 182.353 173.543 231.738 234.463 231.738Z" fill="#F0F0F6"/>
<path d="M318.38 184.742H149.924V231.664H318.38V184.742Z" fill="#F0F0F6"/>
<path d="M305.906 72.3785L317.199 70.2812L319.619 87.4627L306.148 89.8019L305.906 72.3785Z" fill="#44B4C3"/>
<path d="M259.201 152.231C256.781 146.665 245.407 135.13 232.905 130.452C220.402 125.773 209.754 123.354 206.608 122.628C206.608 117.304 206.124 114.158 204.592 114.158C203.059 114.158 201.042 119.724 201.042 119.724C201.042 119.724 202.172 108.35 199.671 107.705C197.251 107.059 196.122 110.609 194.993 113.512C193.863 110.367 192.089 106.414 189.669 106.414C187.249 106.414 187.894 116.9 188.539 120.692C189.185 124.483 189.669 130.049 191.201 131.823C192.734 133.598 194.993 135.372 194.993 135.372C194.993 135.372 194.993 142.713 196.525 145.375C198.058 148.037 209.431 150.295 215.401 153.199C221.37 156.103 227.419 161.185 233.389 172.801C244.52 165.137 259.201 152.231 259.201 152.231Z" fill="#F5CDB8"/>
<path d="M232.665 170.947L256.945 148.523C255.251 146.264 252.831 143.683 250.008 141.102L225.809 160.945C228.067 163.526 230.326 166.833 232.665 170.947Z" fill="#44B4C3"/>
<path d="M255.574 141.18L223.551 169.654C223.551 169.654 269.448 225.635 276.063 232.733C282.919 239.993 296.229 236.928 301.311 230.959C307.28 224.102 319.783 209.26 319.783 209.26L255.574 141.18Z" fill="white"/>
<path d="M306.716 77.2135L313.733 86.5705L346.725 65.8398L322.203 199.016L288.324 171.832L303.812 77.6974L306.716 77.2135Z" fill="#44B4C3"/>
<path d="M343.738 78.1797L312.763 93.2639L303.648 80.8416" stroke="#7EE6CB" stroke-width="1.92" stroke-miterlimit="10" stroke-linejoin="round"/>
<path d="M306.471 112.626C306.471 112.626 305.987 83.1033 305.825 72.375C303.97 72.859 302.437 73.343 301.308 73.6656C292.838 76.3275 285.982 84.1519 282.433 92.541C278.884 101.011 278.722 151.345 275.012 160.702L303.889 161.67L306.471 112.626Z" fill="white"/>
<path d="M411.175 214.424C409.643 204.422 375.28 115.288 372.215 105.77C369.069 96.1709 380.281 91.0084 373.828 84.9586C369.311 80.764 353.339 69.9551 346.805 65.9219L313.491 101.737L312.039 172.076L305.506 166.51L288.324 214.344C288.324 214.344 346.644 262.419 366.003 272.018C385.363 281.617 398.511 277.584 408.271 269.114C419.564 259.354 412.708 224.427 411.175 214.424Z" fill="white"/>
<path d="M307.036 164.089C302.357 159.169 284.127 132.711 279.852 132.711C275.577 132.711 279.368 139.809 280.74 142.713C282.111 145.617 286.547 152.958 281.224 154.087C275.9 155.216 266.301 149.166 263.235 147.15C260.09 145.133 253.878 141.826 255.411 146.666C256.944 151.586 258.718 154.49 258.718 154.49C258.718 154.49 260.09 159.814 261.864 161.589C262.51 165.138 263.639 168.042 267.672 173.608C271.705 179.173 285.902 196.274 285.902 196.274L307.036 164.089Z" fill="#F5CDB8"/>
<path d="M283.723 199.098L297.436 210.633L308.648 165.38L307.035 164.09L283.723 199.098Z" fill="#44B4C3"/>
<path d="M417.386 214.831C414.644 205.07 386.573 111.339 383.427 101.74C382.136 97.7873 380.765 93.6735 378.99 90.9309C373.586 81.7352 361.648 78.1053 352.533 89.7209C342.369 102.546 356.646 189.906 356.646 189.906L307.038 164.012L288.324 214.347C288.324 214.347 346.644 262.423 366.003 272.022C385.363 281.621 398.511 279.201 409.723 269.279C423.678 256.857 421.016 227.414 417.386 214.831Z" fill="white"/>
<path d="M176.443 92.6461H263.56C270.981 92.6461 276.95 86.6769 276.95 79.2558V78.9332C276.95 71.5121 270.981 65.543 263.56 65.543H176.443C169.022 65.543 163.053 71.5121 163.053 78.9332V79.2558C163.053 86.6769 169.022 92.6461 176.443 92.6461Z" fill="#7EE6CB"/>
<path d="M276.953 78.9307C276.953 77.64 276.792 76.4301 276.469 75.3008C272.436 79.818 268.887 81.6732 268.887 81.6732L276.146 83.5285C276.227 83.5285 276.308 83.4478 276.308 83.4478C276.711 82.1572 276.953 80.7053 276.953 79.2533V78.9307Z" fill="#3EDAB2"/>
<path d="M268.478 79.332C272.915 82.3166 282.594 81.4293 282.594 81.4293C276.867 88.4471 270.495 92.3996 264.203 92.6416L268.478 79.332Z" fill="#7EE6CB"/>
<path d="M180.72 82.7237C187.415 84.4983 194.271 82.7237 199.192 77.8032C199.595 77.3999 199.676 76.8352 199.353 76.3513C198.547 74.98 196.53 74.8993 195.885 76.5126C194.917 79.0132 198.95 81.3524 200.725 82.1591C203.87 83.611 207.662 83.7723 210.888 82.4011C213.308 81.4331 215.97 77.9645 218.551 80.1425C219.681 81.0298 219.6 82.5624 221.374 83.0464C225.972 84.2563 227.344 77.0772 232.103 79.3358C235.168 80.7878 236.701 83.2884 240.411 81.9171C243.718 80.7071 246.219 76.3512 250.252 79.9005C251.22 80.7878 251.381 81.8364 252.753 82.4011C256.06 83.6917 259.528 80.2231 262.594 79.8198C264.126 79.5778 263.481 77.2386 261.948 77.4805C258.157 78.0452 255.495 81.5944 252.107 78.2872C250.413 76.6739 249.687 75.464 247.106 75.7866C243.718 76.1899 241.782 79.2552 238.395 79.3358C235.087 79.4165 233.635 76.2706 230.489 76.0286C227.989 75.7866 227.182 77.5612 225.327 78.6905L224.601 79.4165C223.31 79.2552 222.02 79.0132 220.729 78.8518C220.326 78.6099 220.245 77.9645 219.923 77.7225C219.116 77.1579 218.471 76.7546 217.422 76.7546C214.841 76.5932 212.824 78.8518 210.727 79.9005C209.033 80.7071 207.097 81.0298 205.242 80.8684C203.951 80.7878 202.822 80.3845 201.692 79.8198C201.047 79.4972 197.579 77.7225 197.498 77.4805C197.579 76.9966 197.659 76.5126 197.659 76.0286C193.303 80.3038 187.415 81.9171 181.527 80.3038C179.833 79.9811 179.187 82.3204 180.72 82.7237Z" fill="#3EDAB2"/>
<path d="M258.925 55.6734H171.975C164.568 55.6734 158.611 49.7043 158.611 42.2832V41.9605C158.611 34.5394 164.568 28.5703 171.975 28.5703H258.925C266.331 28.5703 272.289 34.5394 272.289 41.9605V42.2832C272.289 49.7043 266.331 55.6734 258.925 55.6734Z" fill="#6FC7F4"/>
<path d="M158.617 41.958C158.617 40.6674 158.778 39.4574 159.1 38.3281C163.126 42.8453 166.668 44.7006 166.668 44.7006L159.422 46.5558C159.342 46.5558 159.261 46.4752 159.261 46.4752C158.859 45.1846 158.617 43.7326 158.617 42.2807V41.958Z" fill="#4EADD5"/>
<path d="M167.063 42.3633C162.635 45.3478 152.974 44.4605 152.974 44.4605C158.69 51.4783 165.05 55.4308 171.33 55.6728L167.063 42.3633Z" fill="#6FC7F4"/>
<path d="M254.663 45.751C247.98 47.5257 241.137 45.7511 236.226 40.8306C235.824 40.4272 235.743 39.8626 236.065 39.3786C236.87 38.0073 238.883 37.9266 239.527 39.5399C240.493 42.0405 236.468 44.3798 234.696 45.1864C231.557 46.6384 227.773 46.7997 224.552 45.4284C222.137 44.4604 219.48 40.9919 216.904 43.1698C215.777 44.0571 215.857 45.5897 214.086 46.0737C209.497 47.2837 208.129 40.1046 203.379 42.3632C200.319 43.8151 198.79 46.3157 195.086 44.9444C191.785 43.7344 189.29 39.3786 185.264 42.9278C184.298 43.8151 184.137 44.8637 182.768 45.4284C179.467 46.719 176.006 43.2505 172.946 42.8472C171.417 42.6052 172.061 40.2659 173.59 40.5079C177.374 41.0725 180.031 44.6218 183.412 41.3145C185.103 39.7012 185.828 38.4913 188.404 38.814C191.785 39.2173 193.718 42.2825 197.099 42.3632C200.4 42.4438 201.849 39.2979 204.989 39.0559C207.485 38.814 208.29 40.5886 210.141 41.7178L210.866 42.4438C212.154 42.2825 213.442 42.0405 214.73 41.8792C215.133 41.6372 215.213 40.9919 215.535 40.7499C216.34 40.1852 216.985 39.7819 218.031 39.7819C220.607 39.6206 222.62 41.8792 224.713 42.9278C226.404 43.7344 228.336 44.0571 230.188 43.8958C231.476 43.8151 232.603 43.4118 233.73 42.8472C234.374 42.5245 237.836 40.7499 237.917 40.5079C237.836 40.0239 237.756 39.5399 237.756 39.0559C242.103 43.3311 247.98 44.9444 253.858 43.3311C255.548 43.0085 256.192 45.3477 254.663 45.751Z" fill="#4EADD5"/>
<path d="M196.931 142.877C197.173 140.78 197.98 139.328 199.029 138.521C201.933 136.02 203.707 134.73 206.611 132.31C207.418 131.665 208.386 130.939 209.354 131.342C210.16 131.665 210.564 132.713 210.402 133.52C210.241 134.407 209.676 135.133 209.192 135.859C208.305 136.988 206.611 139.731 205.401 141.506C204.756 142.554 204.917 143.926 205.804 144.732C206.288 145.136 206.772 145.539 207.176 145.781M195.157 133.681C196.77 128.277 198.222 124.486 200.481 119.404M206.853 123.114C206.288 126.502 205.804 129.971 205.24 133.359M191.85 124.486C192.818 120.614 194.028 116.742 195.479 113.031M260.091 153.202C264.528 157.477 267.996 160.542 273.804 162.72M262.834 161.752C266.141 165.705 269.932 169.254 274.046 172.319" stroke="#F0AC94" stroke-width="2.88" stroke-miterlimit="10" stroke-linecap="round"/>
<path d="M289.775 83.668C287.274 103.673 299.535 125.694 293.727 144.973" stroke="#F0F0F6" stroke-width="2.88" stroke-miterlimit="10" stroke-linecap="round"/>
<path d="M313.328 167.07L386.087 204.821" stroke="#F0F0F6" stroke-width="2.88" stroke-miterlimit="10" stroke-linecap="round"/>
<path d="M331.884 167.237C323.334 167.156 317.445 160.945 318.736 153.363L323.495 124.646C324.786 117.064 332.691 110.934 341.241 110.934C349.792 111.014 355.68 117.225 354.389 124.808L349.63 153.524C348.34 161.187 340.435 167.318 331.884 167.237Z" stroke="#B9BAEF" stroke-width="2.88" stroke-miterlimit="10" stroke-linecap="round"/>
<path d="M347.855 70.1953L342.45 102.784M342.45 102.784C351.001 102.784 356.889 109.075 355.599 116.658L353.985 126.418M342.45 102.784C333.9 102.703 325.995 108.833 324.704 116.496L322.93 127.144" stroke="#7677DF" stroke-width="2.88" stroke-miterlimit="10" stroke-linecap="round"/>
<path d="M372.538 89.6367C368.263 91.4113 366.972 96.7351 366.246 101.333C361.89 130.13 358.664 159.008 356.566 188.047" stroke="#F0F0F6" stroke-width="2.88" stroke-miterlimit="10" stroke-linecap="round"/>
<path d="M313.41 101.735L331.802 109.64L354.226 70.115L349.467 59.3867L339.303 59.6287L345.192 71.083L313.41 101.735Z" fill="white"/>
<path d="M343.824 68.5018L349.39 59.3867H338.742L343.824 68.5018Z" fill="#BDBEF0"/>
<path d="M314.699 102.384L331.8 109.643L353.66 71.0859" stroke="#F0F0F6" stroke-width="2.88" stroke-miterlimit="10" stroke-linecap="round" stroke-linejoin="round"/>
<path d="M294.613 112.946L299.856 83.2621C301.147 76.1637 306.229 70.3559 313.085 68.1779L319.942 66" stroke="#7677DF" stroke-width="2.88" stroke-miterlimit="10" stroke-linecap="round"/>
<path d="M294.211 124.646C298.265 124.646 301.552 121.359 301.552 117.305C301.552 113.251 298.265 109.965 294.211 109.965C290.157 109.965 286.871 113.251 286.871 117.305C286.871 121.359 290.157 124.646 294.211 124.646Z" fill="#BDBEF0"/>
<path d="M294.211 121.661C296.617 121.661 298.567 119.711 298.567 117.305C298.567 114.899 296.617 112.949 294.211 112.949C291.806 112.949 289.855 114.899 289.855 117.305C289.855 119.711 291.806 121.661 294.211 121.661Z" fill="#D5D5F6"/>
<path d="M288.891 45.4316C288.084 45.2703 287.197 45.0283 286.955 44.3023C286.793 43.7377 287.035 43.173 287.277 42.6084C289.213 38.4139 291.23 34.3 293.166 30.1055C294.376 31.1541 294.456 32.9287 294.537 34.4613C294.618 36.8006 294.698 39.0592 294.779 41.3984C294.779 42.3664 294.86 43.2537 294.537 44.141C293.569 46.8836 291.068 45.8349 288.891 45.4316Z" fill="#F0AC94"/>
<path d="M294.531 15.1004L318.569 13.6484L324.054 35.589L343.091 66.2414C344.462 68.4193 344.543 71.2425 343.172 73.5011L315.101 86.246L309.051 78.341L305.502 61.5628C301.388 63.9021 297.193 64.4668 293.321 61.0789C286.788 55.3517 291.063 31.2332 294.531 15.1004Z" fill="#F5CDB8"/>
<path d="M319.946 41.237C320.108 42.1243 320.914 42.689 321.64 42.7696C322.447 42.9309 323.899 42.5276 324.867 40.8337C326.319 38.4138 326.803 36.8811 324.625 35.4292C321.318 33.1706 319.382 38.2524 319.946 41.237ZM305.266 61.0803C308.412 56.3212 311.961 50.836 312.041 50.11C312.041 50.11 317.769 55.1112 314.703 62.8549C313.251 66.5655 309.944 67.9368 306.96 68.2594L305.266 61.0803Z" fill="#F0AC94"/>
<path d="M294.376 30.753C294.456 30.1884 294.779 29.7851 295.505 29.8657C296.796 30.0271 296.957 33.0923 295.908 33.5763C295.586 33.7376 295.182 33.5763 294.86 33.3343C294.537 33.0923 294.456 32.689 294.376 32.2857C294.376 31.8823 294.295 31.237 294.376 30.753Z" fill="#2E3649"/>
<path d="M330.429 8.40992C326.718 5.74801 321.233 4.78005 316.797 5.1027C311.796 5.42536 307.359 9.21656 302.277 8.0066C298.97 7.19996 294.534 5.02203 291.63 7.28063C289.129 9.21656 288.08 12.2818 287.838 15.347C287.435 20.9935 290.258 28.8986 297.115 25.2687C298.728 24.4621 300.019 23.1714 301.471 22.2035C310.182 16.799 309.86 32.7705 310.182 37.691C310.263 39.4656 310.263 41.3208 309.94 43.0954C309.456 45.596 307.762 48.3386 305.1 48.9032C303.487 49.2259 301.793 48.9839 300.18 48.2579C299.212 47.8546 298.567 47.4513 297.841 46.806C296.953 46.08 296.792 45.6767 295.34 45.354C293.727 44.9507 291.549 45.4347 289.855 45.6767C289.694 47.1286 289.694 48.0966 289.694 49.3066C289.694 50.7585 289.694 52.1298 289.855 53.5818C290.097 57.6956 290.984 61.8902 294.372 64.3101C298.567 67.2946 304.052 65.8427 307.762 62.6968C311.957 59.0669 314.215 53.6624 315.103 48.2579C315.909 43.4181 316.071 38.0943 315.103 33.1738C317.442 35.029 319.781 36.965 322.121 38.8202C324.379 40.5949 326.154 43.1761 328.251 45.2734C328.574 45.596 328.896 45.9187 329.38 46.08C329.784 46.2413 330.268 46.1607 330.59 45.9187L330.671 45.838C330.994 45.5154 330.994 44.9507 330.913 44.4667C330.752 42.6115 330.187 40.6755 330.832 38.9009C331.558 37.1263 332.204 35.271 333.01 33.4964C334.139 30.8345 335.914 28.0113 336.317 25.1074C337.205 18.8962 335.43 12.0398 330.429 8.40992Z" fill="#2E3649"/>
<path d="M317.683 29.3019C318.974 28.7372 320.426 28.6566 321.474 29.3019C324.62 31.3185 323.088 38.0943 321.958 40.8368C321.636 41.6435 321.071 42.5308 320.184 42.6115C319.296 42.6921 318.57 41.9661 318.086 41.1595C316.796 39.1429 314.376 34.2224 315.102 31.7218C315.425 30.7538 316.473 29.7859 317.683 29.3019Z" fill="#F5CDB8"/>
<path d="M317.928 35.0247C318.734 33.6534 319.541 32.2822 320.348 30.9915C321.074 29.7816 319.218 28.7329 318.492 29.9429C317.686 31.3142 316.879 32.6855 316.072 33.9761C315.427 35.1054 317.202 36.2347 317.928 35.0247Z" fill="#F0AC94"/>
<path d="M289.778 48.498C291.472 48.498 294.941 47.6914 294.941 47.6914C294.941 47.6914 292.279 51.5633 289.778 52.1279C289.697 49.3853 289.778 48.498 289.778 48.498ZM313.413 101.736L349.469 59.3877L345.436 75.3592L313.413 101.736Z" fill="white"/>
<path d="M143.169 45.8008C141.564 48.7015 142.238 52.3675 143.597 55.4019C144.957 58.4364 146.932 61.2033 147.879 64.3876C148.826 67.572 148.489 71.4949 145.872 73.5499C144.925 74.2992 143.662 74.8504 143.298 75.9957C143.019 76.8681 143.362 77.7939 143.442 78.7038C143.646 81.0532 141.906 83.3331 139.669 84.0877C137.432 84.8423 134.853 84.2322 132.963 82.8407C131.09 81.3725 129.686 79.3899 128.923 77.1357" fill="#263238"/>
<path d="M73.0202 65.3503C72.1747 62.8136 67.4972 64.9329 65.9077 62.7815C65.128 61.6902 64.6804 60.3969 64.6187 59.0571C64.557 57.7174 64.8838 56.3884 65.5598 55.23C67.2189 52.4846 70.6387 51.1466 72.2175 48.353C73.6678 45.7841 73.2343 42.6105 72.9239 39.6723C72.6135 36.7342 72.5921 33.4214 74.6044 31.2539L87.1758 43.0279C87.1758 43.0279 73.3253 66.2441 73.0202 65.3503Z" fill="#263238"/>
<path d="M74.4271 38.8906C76.8301 40.9992 77.376 44.6545 76.5411 47.7372C75.7062 50.8198 73.7314 53.4583 71.6977 55.9255C69.664 58.3926 67.5019 60.817 66.1854 63.7284C64.8688 66.6398 64.5102 70.1934 66.1211 72.9549C68.6258 77.2364 74.6198 78.0177 78.0342 81.6195C80.8231 76.1973 84.5981 71.3423 89.166 67.3034" fill="#263238"/>
<path d="M142.931 167.97C142.931 167.97 146.447 191.774 149.889 196.827L132.046 203.249L123.274 185.315L130.622 153.273L142.931 167.97Z" fill="#5EA9FF"/>
<path d="M132.084 187.893C132.264 187.892 132.443 187.87 132.619 187.828C132.977 187.775 133.491 187.679 134.123 187.55C135.38 187.288 137.114 186.87 138.998 186.308C140.882 185.747 142.562 185.147 143.761 184.676C144.361 184.441 144.832 184.237 145.174 184.087C145.35 184.026 145.518 183.941 145.672 183.836C145.487 183.862 145.307 183.915 145.137 183.991L143.702 184.489C142.488 184.912 140.802 185.479 138.923 186.041C137.045 186.603 135.327 187.047 134.107 187.357L132.63 187.727C132.44 187.754 132.256 187.81 132.084 187.893Z" fill="#FAFAFA"/>
<path d="M133.976 176.08C134.478 176.115 134.983 176.092 135.48 176.011C137.892 175.752 140.267 175.213 142.555 174.405C143.035 174.261 143.499 174.063 143.936 173.816C143.444 173.911 142.96 174.045 142.491 174.218C141.602 174.485 140.35 174.839 139.001 175.154C137.653 175.47 136.368 175.69 135.453 175.829C134.955 175.872 134.461 175.957 133.976 176.08Z" fill="#FAFAFA"/>
<path d="M133.89 199.855C134.096 199.844 134.299 199.806 134.495 199.743C134.886 199.657 135.442 199.513 136.1 199.32C137.47 198.94 139.344 198.341 141.372 197.57C143.4 196.799 145.193 195.991 146.472 195.365C147.109 195.049 147.623 194.787 147.971 194.595C148.161 194.509 148.341 194.401 148.506 194.273C148.307 194.327 148.115 194.402 147.933 194.498L146.397 195.183C145.102 195.767 143.304 196.537 141.281 197.324C139.258 198.111 137.406 198.715 136.052 199.149L134.447 199.657C134.254 199.701 134.067 199.768 133.89 199.855Z" fill="#FAFAFA"/>
<g opacity="0.3">
<path d="M144.09 174.932C142.484 174.279 140.681 173.594 139.097 172.941C138.319 181.589 137.539 190.236 136.758 198.881C136.742 199.62 136.576 200.348 136.271 201.022C136.113 201.354 135.861 201.633 135.546 201.824C135.231 202.014 134.867 202.107 134.499 202.092C133.766 202.001 133.247 201.353 132.83 200.743C130.084 196.692 128.548 191.891 127.954 187.037C127.36 182.183 127.569 177.26 128.104 172.395C128.495 168.879 129.041 165.352 130.277 162.034C130.726 160.824 131.315 159.588 132.364 158.823C133.702 157.865 135.543 157.886 137.095 158.432C140.097 159.502 141.098 162.178 142.072 165.218C143.046 168.258 144.09 174.932 144.09 174.932Z" fill="black"/>
</g>
<path d="M61.1165 194.516V169.042L56.5889 92.2973C65.8315 87.2613 76.8027 83.2742 92.446 82.6641L120.645 84.8048L145.07 98.3395L139.264 144.718L131.873 185.456L136.293 215.014L61.1165 194.516Z" fill="white"/>
<path d="M110.064 203.23C110.292 203.268 110.523 203.279 110.754 203.262C111.198 203.262 111.824 203.262 112.638 203.193C116.793 202.899 120.86 201.847 124.637 200.089C125.354 199.752 125.926 199.452 126.317 199.233C126.526 199.134 126.722 199.01 126.9 198.863C126.679 198.933 126.466 199.024 126.264 199.136C125.867 199.329 125.279 199.596 124.556 199.907C122.66 200.726 120.705 201.401 118.707 201.925C116.709 202.437 114.675 202.795 112.622 202.995C111.835 203.075 111.193 203.129 110.754 203.155C110.522 203.153 110.29 203.178 110.064 203.23Z" fill="#263238"/>
<path d="M137.232 129.896L155.776 147.337L151.602 101.547L165.945 99.1602L167.812 103.843C170.692 104.849 183.868 149.28 178.693 169.628C175.032 183.949 149.793 184.334 135.188 160.256L137.232 129.896Z" fill="white"/>
<path d="M62.8775 134.91C62.8775 134.91 38.575 131.983 38.5215 129.644C38.4305 125.7 50.3864 95.05 56.937 92.2457C63.4876 89.4413 62.8775 134.91 62.8775 134.91Z" fill="white"/>
<path d="M144.697 98.125C144.697 98.125 153.405 101.454 154.866 115.823C156.327 130.193 157.322 149.722 157.322 149.722L149.996 174.533L136.263 161.758L144.697 98.125Z" fill="white"/>
<path d="M152.295 106.515C152.494 106.57 152.699 106.605 152.905 106.616C153.307 106.664 153.885 106.707 154.597 106.723C156.465 106.773 158.334 106.63 160.173 106.295C162.013 105.967 163.809 105.429 165.525 104.69C166.046 104.471 166.554 104.221 167.045 103.94C167.236 103.852 167.416 103.74 167.58 103.608C167.58 103.566 166.783 103.983 165.439 104.508C163.709 105.183 161.916 105.689 160.088 106.017C158.264 106.343 156.417 106.514 154.564 106.525C153.178 106.536 152.295 106.466 152.295 106.515Z" fill="#263238"/>
<path d="M151.578 101.543C151.581 101.654 151.59 101.765 151.604 101.875C151.637 102.11 151.674 102.41 151.728 102.838C151.84 103.7 152.006 104.941 152.22 106.52V106.493C151.931 107.906 151.583 109.608 151.262 111.567C150.882 113.75 150.634 115.953 150.518 118.166C150.399 120.767 150.481 123.374 150.764 125.963C151.032 128.719 151.546 131.583 151.952 134.526C152.281 136.727 152.397 138.955 152.3 141.179C152.157 143.254 151.704 145.296 150.957 147.237C150.304 149.105 149.726 150.983 149.763 152.765C149.761 153.628 149.845 154.488 150.015 155.334C150.184 156.109 150.408 156.871 150.684 157.614C151.17 158.884 151.763 160.11 152.455 161.28C153.06 162.313 153.633 163.169 154.109 163.865C154.585 164.561 154.971 165.085 155.233 165.444L155.538 165.845C155.571 165.893 155.608 165.938 155.65 165.979C155.624 165.926 155.594 165.876 155.559 165.829L155.281 165.412C155.03 165.042 154.66 164.507 154.211 163.806C153.761 163.105 153.189 162.238 152.605 161.2C151.931 160.031 151.357 158.809 150.887 157.544C150.621 156.809 150.407 156.056 150.245 155.291C150.084 154.461 150.005 153.616 150.01 152.771C149.983 151.004 150.545 149.19 151.214 147.322C151.97 145.365 152.424 143.304 152.562 141.211C152.67 138.968 152.555 136.72 152.22 134.499C151.813 131.524 151.299 128.671 151.026 125.937C150.738 123.361 150.647 120.766 150.753 118.176C150.86 115.973 151.093 113.776 151.449 111.599C151.76 109.64 152.086 107.938 152.359 106.52C152.118 104.947 151.931 103.71 151.824 102.849C151.754 102.442 151.706 102.126 151.663 101.891C151.642 101.773 151.613 101.657 151.578 101.543Z" fill="#263238"/>
<path d="M151.889 131.133C151.674 131.31 151.474 131.503 151.289 131.711C151.102 131.898 150.877 132.139 150.636 132.433C150.396 132.728 150.101 133.049 149.834 133.445C149.518 133.863 149.223 134.297 148.951 134.745C148.626 135.251 148.328 135.772 148.057 136.308C146.786 138.761 146.001 141.436 145.745 144.186C145.702 144.823 145.643 145.422 145.654 145.984C145.665 146.546 145.654 147.054 145.697 147.552C145.739 148.05 145.782 148.462 145.83 148.842C145.862 149.166 145.914 149.488 145.986 149.805C146.025 150.08 146.092 150.351 146.184 150.613C146.175 150.335 146.144 150.058 146.093 149.784C146.055 149.522 146.007 149.201 145.986 148.826C145.964 148.451 145.895 148.018 145.895 147.541C145.895 147.065 145.857 146.551 145.895 145.989C145.932 145.428 145.959 144.839 146.012 144.213C146.29 141.492 147.059 138.845 148.282 136.399C148.576 135.864 148.843 135.329 149.149 134.842C149.454 134.355 149.721 133.932 149.994 133.541C150.267 133.15 150.529 132.813 150.759 132.514C150.99 132.214 151.193 131.978 151.37 131.759C151.563 131.568 151.737 131.358 151.889 131.133Z" fill="#263238"/>
<path d="M141.861 115.551C141.861 115.551 141.861 115.583 141.807 115.663C141.753 115.743 141.737 115.867 141.695 116C141.598 116.305 141.438 116.744 141.283 117.322C140.832 118.961 140.488 120.627 140.255 122.31C139.927 124.805 139.749 127.318 139.72 129.835C139.661 132.677 139.72 135.797 139.779 139.072C139.838 142.347 139.902 145.467 139.816 148.293C139.78 150.8 139.42 153.291 138.746 155.705C138.254 157.323 137.592 158.884 136.771 160.362C136.493 160.897 136.236 161.277 136.081 161.555L135.899 161.865L135.845 161.978C135.845 161.978 135.877 161.951 135.925 161.881L136.123 161.587C136.295 161.32 136.573 160.94 136.862 160.415C137.728 158.949 138.423 157.389 138.933 155.764C139.639 153.338 140.02 150.83 140.068 148.304C140.169 145.462 140.068 142.342 140.068 139.067C140.068 135.791 139.939 132.671 139.987 129.84C140.012 127.335 140.178 124.834 140.485 122.348C140.701 120.668 141.013 119.003 141.422 117.36C141.561 116.782 141.7 116.338 141.78 116.027C141.812 115.888 141.844 115.776 141.871 115.679C141.898 115.583 141.861 115.551 141.861 115.551Z" fill="#263238"/>
<path d="M55.665 93.3989C55.9793 93.524 56.301 93.6294 56.6283 93.7147C57.5064 93.9901 58.3662 94.3208 59.2025 94.7048C62.3775 96.1667 65.1487 98.3799 67.2766 101.153C69.4045 103.926 70.825 107.176 71.4154 110.621C71.4595 110.958 71.522 111.292 71.6027 111.622C71.6142 111.533 71.6142 111.443 71.6027 111.354C71.6027 111.183 71.6027 110.931 71.5277 110.605C71.4165 109.687 71.2376 108.778 70.9926 107.886C70.1714 104.923 68.6947 102.182 66.6715 99.8659C64.6484 97.55 62.1305 95.7185 59.3042 94.5067C58.4543 94.1376 57.5777 93.8335 56.6818 93.5969C56.3661 93.5059 56.1145 93.4631 55.9486 93.4257C55.8555 93.4052 55.7603 93.3962 55.665 93.3989Z" fill="#263238"/>
<path d="M164.717 104.679C165.002 103.875 165.093 103.016 164.985 102.17C164.878 101.324 164.573 100.516 164.097 99.8086C164.356 100.593 164.56 101.394 164.707 102.206C164.765 103.029 164.768 103.855 164.717 104.679Z" fill="#263238"/>
<path d="M159.914 100.16C159.749 102.19 160.145 104.227 161.059 106.047C161.139 106.015 160.674 104.752 160.358 103.141C160.042 101.53 160 100.16 159.914 100.16Z" fill="#263238"/>
<path d="M156.124 100.953C155.832 101.911 155.832 102.934 156.124 103.891C156.331 104.87 156.829 105.764 157.553 106.455C157.072 105.622 156.682 104.739 156.391 103.822C156.203 102.877 156.113 101.916 156.124 100.953Z" fill="#263238"/>
<path d="M153.472 101.363C153.148 102.235 153.071 103.18 153.248 104.093C153.332 105.019 153.673 105.903 154.232 106.646C153.934 105.799 153.698 104.931 153.526 104.05C153.445 103.157 153.428 102.259 153.472 101.363Z" fill="#263238"/>
<path d="M153.411 137.851C153.462 137.801 153.507 137.746 153.545 137.686C153.642 137.557 153.759 137.397 153.898 137.199C154.209 136.77 154.664 136.128 155.263 135.384C156.89 133.314 158.707 131.401 160.69 129.669H160.524C161.964 130.739 163.51 131.997 165.089 133.335C166.887 134.865 168.546 136.374 170.018 137.787L170.12 137.884L170.205 137.777C171.754 135.863 173.15 133.83 174.38 131.697C174.829 130.916 175.161 130.284 175.381 129.845L175.621 129.342C175.675 129.224 175.702 129.166 175.691 129.16C175.65 129.21 175.614 129.264 175.584 129.321L175.306 129.808C175.065 130.231 174.712 130.851 174.235 131.622C172.967 133.716 171.55 135.718 169.997 137.611H170.184C168.723 136.187 167.064 134.667 165.26 133.137C163.655 131.793 162.119 130.557 160.674 129.471L160.588 129.406L160.508 129.476C158.525 131.228 156.723 133.175 155.129 135.288C154.541 136.069 154.107 136.712 153.818 137.156C153.674 137.375 153.572 137.552 153.497 137.691C153.462 137.741 153.433 137.795 153.411 137.851Z" fill="#FAFAFA"/>
<path d="M151.569 148.502C151.669 148.42 151.763 148.331 151.848 148.234L152.624 147.447C153.293 146.762 154.267 145.778 155.53 144.611C156.156 144.033 156.857 143.407 157.622 142.754L158.821 141.748C159.225 141.389 159.679 141.091 160.17 140.865C160.419 140.752 160.69 140.697 160.963 140.702C161.236 140.708 161.504 140.774 161.748 140.897C162.261 141.185 162.73 141.545 163.14 141.967L165.923 144.579L169.669 148.089L169.76 148.175L169.851 148.089C172.248 145.816 174.44 143.335 176.402 140.677C177.124 139.687 177.67 138.868 178.007 138.306C178.189 138.023 178.323 137.798 178.414 137.648C178.466 137.578 178.508 137.5 178.537 137.418C178.476 137.481 178.422 137.551 178.377 137.627C178.259 137.787 178.114 137.996 177.932 138.253C177.547 138.788 176.98 139.602 176.241 140.576C174.257 143.195 172.066 145.652 169.691 147.924H169.873L166.126 144.402L163.338 141.796C162.909 141.346 162.415 140.964 161.872 140.661C161.593 140.527 161.288 140.454 160.979 140.448C160.669 140.443 160.362 140.504 160.079 140.629C159.568 140.873 159.094 141.188 158.671 141.566C158.261 141.922 157.865 142.26 157.483 142.577C156.718 143.241 156.027 143.878 155.401 144.472C154.16 145.654 153.202 146.661 152.554 147.372C152.228 147.726 151.981 148.004 151.821 148.197C151.728 148.29 151.643 148.392 151.569 148.502Z" fill="#FAFAFA"/>
<path d="M147.656 138.426C148.303 139.167 149.02 139.844 149.797 140.449C150.516 141.129 151.302 141.737 152.141 142.263C151.49 141.525 150.774 140.848 150 140.24C149.276 139.565 148.491 138.957 147.656 138.426Z" fill="#FAFAFA"/>
<path d="M139.938 127.149C139.938 127.149 140.067 127.288 140.27 127.556C140.548 127.945 140.79 128.359 140.992 128.792C141.283 129.469 141.737 130.063 142.314 130.521C142.685 130.796 143.146 130.92 143.604 130.869C144.065 130.754 144.495 130.543 144.867 130.248C146.419 129.22 147.811 128.273 148.817 127.572C149.314 127.224 149.716 126.94 149.994 126.737C150.146 126.642 150.285 126.527 150.406 126.395C150.238 126.456 150.08 126.541 149.935 126.646C149.641 126.823 149.218 127.08 148.704 127.411C147.677 128.064 146.264 128.985 144.712 130.018C144.374 130.29 143.981 130.487 143.561 130.596C143.17 130.645 142.775 130.542 142.459 130.307C141.906 129.883 141.464 129.332 141.169 128.701C140.945 128.268 140.672 127.862 140.356 127.492C140.241 127.35 140.099 127.233 139.938 127.149Z" fill="#FAFAFA"/>
<path d="M140.526 123.998C141.042 123.805 141.545 123.576 142.029 123.313C142.945 122.869 144.208 122.243 145.615 121.611C147.023 120.98 148.291 120.396 149.244 120.006C149.76 119.811 150.261 119.576 150.742 119.305C150.205 119.437 149.68 119.616 149.174 119.84C148.216 120.204 146.916 120.739 145.497 121.392C144.079 122.045 142.822 122.682 141.938 123.174C141.441 123.4 140.967 123.676 140.526 123.998Z" fill="#FAFAFA"/>
<path d="M106.42 142.54L106.548 142.471L106.907 142.235L108.255 141.325L113.136 137.948H112.992L121.522 148.17C121.978 148.754 122.488 149.291 123.048 149.776C123.33 150.02 123.658 150.206 124.012 150.324C124.367 150.441 124.741 150.488 125.113 150.461C125.815 150.357 126.484 150.098 127.072 149.701C127.65 149.342 128.185 148.962 128.721 148.631L134.367 144.777L138.167 142.187L139.183 141.47C139.304 141.387 139.42 141.298 139.531 141.202C139.398 141.263 139.271 141.337 139.151 141.422L138.081 142.096L134.238 144.617L128.555 148.363C128.02 148.716 127.484 149.096 126.912 149.433C126.356 149.803 125.725 150.046 125.065 150.145C124.727 150.168 124.387 150.125 124.066 150.016C123.744 149.908 123.447 149.737 123.192 149.514C122.647 149.039 122.151 148.512 121.71 147.94L113.147 137.772L113.083 137.691L113.002 137.75L108.186 141.202L106.869 142.16L106.527 142.422C106.452 142.503 106.414 142.535 106.42 142.54Z" fill="#FAFAFA"/>
<path d="M106.308 130.224C106.428 130.168 106.542 130.102 106.65 130.026C106.87 129.892 107.185 129.689 107.619 129.437C108.052 129.186 108.566 128.902 109.192 128.592C109.897 128.242 110.638 127.971 111.403 127.784C112.319 127.55 113.28 127.55 114.196 127.784C114.706 127.896 115.193 128.095 115.636 128.372C116.099 128.681 116.526 129.04 116.91 129.443C118.483 131.139 120.18 133.071 121.978 135.062C122.415 135.571 122.893 136.044 123.407 136.475C123.898 136.918 124.502 137.216 125.152 137.335C125.802 137.455 126.472 137.393 127.089 137.155C127.658 136.96 128.215 136.733 128.759 136.475L134.367 133.965L138.162 132.231L139.184 131.744C139.308 131.694 139.426 131.631 139.537 131.557C139.409 131.595 139.284 131.641 139.162 131.696L138.092 132.129L134.26 133.783L128.598 136.266C128.062 136.519 127.511 136.741 126.95 136.93C126.374 137.148 125.749 137.203 125.144 137.09C124.539 136.977 123.977 136.699 123.519 136.288C123.019 135.864 122.553 135.4 122.128 134.902C120.324 132.911 118.638 130.995 117.038 129.288C116.637 128.872 116.192 128.5 115.711 128.18C115.25 127.883 114.744 127.664 114.212 127.532C113.256 127.309 112.259 127.33 111.312 127.591C110.538 127.795 109.79 128.084 109.08 128.453C108.544 128.723 108.022 129.022 107.517 129.346C107.105 129.609 106.789 129.828 106.575 129.978C106.479 130.052 106.389 130.134 106.308 130.224Z" fill="#FAFAFA"/>
<path d="M67.0159 131.312C67.1523 131.558 67.3099 131.79 67.4869 132.008C67.8348 132.485 68.2897 133.105 68.8409 133.849C69.9969 135.391 71.6131 137.515 73.406 139.849L75.9427 143.129C76.3441 143.632 76.692 144.119 77.0827 144.553C77.4389 144.981 77.9395 145.265 78.4902 145.35C78.9359 145.394 79.3858 145.338 79.8067 145.184C80.119 145.074 80.4216 144.938 80.7112 144.778C80.952 144.644 81.1286 144.531 81.2464 144.457C81.3641 144.382 81.423 144.328 81.4176 144.317C81.4123 144.307 81.15 144.451 80.663 144.681C80.3711 144.822 80.0687 144.94 79.7586 145.035C79.3586 145.166 78.9344 145.206 78.517 145.152C78.0176 145.064 77.5681 144.796 77.2539 144.398C76.89 143.98 76.5368 143.477 76.1461 142.974L73.6254 139.677C71.8326 137.344 70.1949 135.241 69.0014 133.726L67.5725 131.944C67.4059 131.718 67.2196 131.506 67.0159 131.312Z" fill="#FAFAFA"/>
<path d="M72.5493 121.243C73.4852 122.84 74.5016 124.389 75.5945 125.883C76.6112 127.429 77.7062 128.922 78.8751 130.357C78.934 130.314 77.5746 128.216 75.8246 125.722C74.0745 123.228 72.6135 121.2 72.5493 121.243Z" fill="#FAFAFA"/>
<path d="M93.2218 73.4195C90.8344 73.8994 88.3679 73.8147 86.019 73.1722C83.6701 72.5297 81.5038 71.3471 79.6931 69.7188C77.8823 68.0906 76.4771 66.0616 75.5897 63.7939C74.7022 61.5262 74.357 59.0825 74.5815 56.6576C75.0043 52.1461 76.7704 49.8929 75.6519 45.4991C74.8973 42.4807 73.7413 40.0563 73.1258 37.0058C72.2053 32.4567 74.6671 25.8793 77.5143 22.2133C79.3446 19.8639 81.207 17.4716 83.6475 15.7591C86.0879 14.0465 92.9007 12.7513 97.5996 11.6328" fill="#263238"/>
<path d="M139.044 17.582C138.552 20.9751 140.591 24.1808 142.678 26.8995C144.766 29.6183 147.099 32.4654 147.35 35.8799C147.795 41.9435 141.528 47.1187 142.32 53.1181C142.743 56.3292 145.167 59.0854 145.408 62.3339C145.633 65.4754 143.754 68.4029 141.522 70.6239C139.291 72.8449 136.631 74.6377 134.624 77.0461C134.624 77.0461 130.375 83.0133 118.948 78.1913" fill="#263238"/>
<path d="M86.2605 19.1123C86.389 16.0136 89.4235 13.8247 92.383 12.8935C95.3426 11.9623 98.5697 11.7643 101.262 10.2176C103.638 8.85291 105.334 6.57303 107.4 4.75877C109.944 2.52032 113.038 0.999254 116.364 0.351774C119.69 -0.295707 123.128 -0.0462696 126.326 1.07447C129.523 2.19521 132.365 4.14687 134.559 6.72903C136.753 9.31118 138.22 12.4308 138.81 15.7675C139.607 20.2523 138.483 25.4007 134.801 28.0766C130.52 31.186 124.633 30.0086 119.522 28.5851C114.411 27.1615 108.663 25.7058 104.136 28.4352C101.406 30.0782 99.7096 32.9468 97.9221 35.5906C96.1346 38.2344 93.9457 40.8996 90.8685 41.7184C87.7912 42.5372 83.8308 40.4661 83.9432 37.2817" fill="#263238"/>
<path d="M98.4151 20.613C97.1167 20.6597 95.8831 21.1921 94.9584 22.1049C94.0337 23.0176 93.4854 24.2443 93.4219 25.542L91.5595 95.6508C91.1045 103.914 102.841 109.405 111.693 109.828C120.636 110.251 121.23 105.894 121.899 98.0537C123.017 84.9471 123.349 80.0181 123.349 80.093C123.349 80.168 134.759 78.9959 138.104 64.439C139.769 57.198 140.245 45.1724 140.277 35.3198C140.33 26.4571 135.219 15.2183 126.362 15.5501L98.4151 20.613Z" fill="#FFBE9D"/>
<path d="M136.205 44.8795C136.175 45.3721 135.954 45.8335 135.589 46.1662C135.225 46.4988 134.745 46.6765 134.252 46.6616C134.01 46.6645 133.77 46.619 133.546 46.5277C133.323 46.4364 133.12 46.3012 132.949 46.1301C132.778 45.959 132.644 45.7554 132.553 45.5314C132.462 45.3075 132.418 45.0676 132.421 44.826C132.45 44.3338 132.67 43.8724 133.034 43.5397C133.397 43.2069 133.877 43.029 134.369 43.0438C134.611 43.041 134.851 43.0865 135.075 43.1777C135.299 43.2689 135.503 43.404 135.674 43.5751C135.845 43.7461 135.98 43.9496 136.071 44.1736C136.162 44.3976 136.208 44.6376 136.205 44.8795Z" fill="#263238"/>
<path d="M137.311 40.4379C137.065 40.668 135.705 39.512 133.671 39.3675C131.638 39.223 130.086 40.1489 129.882 39.9027C129.781 39.7849 130.048 39.3675 130.728 38.9286C131.649 38.3772 132.719 38.1266 133.789 38.2115C134.845 38.2787 135.852 38.6819 136.663 39.3621C137.257 39.8759 137.434 40.3362 137.311 40.4379Z" fill="#263238"/>
<path d="M116.603 44.3458C116.574 44.8374 116.354 45.2983 115.991 45.6302C115.627 45.9621 115.148 46.1388 114.655 46.1226C114.414 46.1255 114.174 46.0799 113.95 45.9886C113.726 45.8973 113.523 45.7621 113.353 45.591C113.182 45.4199 113.047 45.2164 112.957 44.9924C112.866 44.7684 112.821 44.5285 112.825 44.2869C112.854 43.7948 113.074 43.3334 113.437 43.0006C113.801 42.6678 114.28 42.49 114.773 42.5048C115.015 42.5026 115.255 42.5488 115.478 42.6407C115.702 42.7326 115.905 42.8683 116.076 43.0398C116.246 43.2113 116.381 43.4153 116.471 43.6395C116.562 43.8638 116.607 44.1039 116.603 44.3458Z" fill="#263238"/>
<path d="M117.24 40.3982C116.988 40.6283 115.634 39.4723 113.595 39.3278C111.556 39.1833 110.009 40.1092 109.806 39.863C109.704 39.7453 109.972 39.3278 110.657 38.889C111.577 38.3393 112.645 38.0888 113.713 38.1718C114.769 38.239 115.776 38.6422 116.587 39.3225C117.192 39.8362 117.373 40.2965 117.24 40.3982Z" fill="#263238"/>
<path d="M123.596 55.9679C123.596 55.8555 124.869 55.7217 126.935 55.5986C127.47 55.5986 127.957 55.513 128.064 55.1651C128.148 54.6319 128.064 54.0858 127.824 53.6024C127.422 52.318 127.005 50.964 126.561 49.5511C124.821 43.7818 123.596 39.0508 123.826 38.9812C124.056 38.9117 125.661 43.5356 127.406 49.3049C127.824 50.7285 128.225 52.0825 128.605 53.3776C128.76 53.9824 129.049 54.6728 128.733 55.4327C128.645 55.6103 128.518 55.7657 128.362 55.8871C128.205 56.0086 128.023 56.0929 127.829 56.1338C127.536 56.1907 127.238 56.2105 126.941 56.1927C124.875 56.1659 123.596 56.0856 123.596 55.9679Z" fill="#263238"/>
<path d="M123.348 80.0939C116.411 79.7271 109.712 77.4387 104.001 73.4844C104.001 73.4844 108.282 83.9472 123.101 83.5779L123.348 80.0939Z" fill="#EB946E"/>
<path d="M129.026 63.4925C128.673 62.9723 128.192 62.5515 127.63 62.2704C127.068 61.9893 126.443 61.8572 125.815 61.8869C125.364 61.8939 124.92 61.9923 124.509 62.1763C124.097 62.3603 123.728 62.626 123.422 62.9573C123.13 63.2783 122.943 63.6805 122.884 64.1106C122.826 64.5407 122.9 64.9784 123.096 65.3656C123.588 66.1737 124.702 66.436 125.713 66.2219C126.685 65.9423 127.594 65.4771 128.389 64.8518C128.626 64.7118 128.836 64.5306 129.01 64.3166C129.091 64.2083 129.138 64.0788 129.147 63.9438C129.156 63.8089 129.125 63.6743 129.058 63.5567" fill="#EB946E"/>
<path d="M118.584 35.1736C118.343 35.7088 116.337 35.3128 113.934 35.4359C111.531 35.5589 109.556 36.0781 109.277 35.5589C109.149 35.3128 109.524 34.8204 110.348 34.3387C111.429 33.7525 112.63 33.4212 113.859 33.3702C115.088 33.3192 116.313 33.5498 117.439 34.0444C118.279 34.4565 118.686 34.9167 118.584 35.1736Z" fill="#263238"/>
<path d="M136.906 35.4618C136.515 35.8953 135.15 35.3227 133.47 35.1835C131.789 35.0444 130.339 35.2799 130.045 34.7768C129.916 34.5306 130.173 34.0864 130.826 33.7064C131.697 33.2396 132.687 33.0413 133.671 33.1366C134.655 33.2318 135.589 33.6163 136.354 34.2416C136.916 34.7554 137.077 35.2478 136.906 35.4618Z" fill="#263238"/>
<path d="M84.7084 68.2938C86.714 68.8515 88.8237 68.9232 90.8626 68.5031C92.9014 68.0829 94.8108 67.1829 96.4325 65.8777C98.0542 64.5725 99.3416 62.8996 100.188 60.9977C101.034 59.0958 101.415 57.0195 101.299 54.9411C101.096 51.2965 99.4098 47.4806 100.903 44.1518C102.883 39.7473 109.321 38.8 111.323 34.4115C112.484 31.8533 111.826 28.7225 113.116 26.2339C114.325 23.8898 116.969 22.6803 119.506 21.9525C122.043 21.2246 124.735 20.7965 126.918 19.3408C129.102 17.8851 130.622 14.9095 129.439 12.5547C118.357 13.0976 107.378 14.9552 96.7339 18.0885C94.2667 18.8163 91.6711 19.694 90.0977 21.7491C88.4333 23.8898 88.2995 26.828 88.2353 29.5467C87.9142 42.8049 87.5948 56.0596 87.2773 69.3107" fill="#263238"/>
<path d="M124.548 66.41C124.548 66.3297 124.36 66.2923 124.13 66.1799C123.822 66.0179 123.57 65.7659 123.408 65.4574C123.299 65.2445 123.242 65.0088 123.242 64.7697C123.242 64.5306 123.299 64.2948 123.408 64.082C123.676 63.5071 124.135 63.0435 124.708 62.7708C125.246 62.5 125.845 62.3726 126.447 62.4007C127.049 62.4288 127.633 62.6116 128.144 62.9313C128.973 63.4291 129.327 64.0017 129.477 63.9214C129.546 63.8893 129.546 63.702 129.423 63.3862C129.244 62.9618 128.969 62.5844 128.62 62.2838C128.092 61.8139 127.443 61.5007 126.747 61.3793C125.881 61.2309 124.99 61.3641 124.205 61.7593C123.389 62.1543 122.757 62.8508 122.444 63.702C122.307 64.0897 122.269 64.5053 122.332 64.9115C122.39 65.2701 122.543 65.6065 122.776 65.8855C122.926 66.0875 123.118 66.2547 123.339 66.3757C123.56 66.4967 123.804 66.5686 124.055 66.5866C124.398 66.6027 124.558 66.4796 124.548 66.41Z" fill="#263238"/>
<path d="M74.7001 38.3216C75.4983 38.5508 76.3178 38.6979 77.1459 38.7604C79.4146 38.9484 81.6984 38.718 83.8838 38.0807C85.3918 37.6527 86.8558 37.0828 88.2563 36.3788C89.8579 35.5603 91.3853 34.6041 92.8213 33.521C95.8826 31.2572 98.8314 28.2815 101.834 25.1186C103.248 23.5391 104.784 22.0719 106.426 20.7301C107.958 19.4967 109.752 18.6291 111.67 18.1934C113.422 17.8529 115.206 17.704 116.99 17.7492C118.671 17.7492 120.239 17.8027 121.673 17.7492C123.955 17.7325 126.203 17.2001 128.25 16.1918C128.795 15.8898 129.306 15.531 129.776 15.1214C129.915 14.9823 130.032 14.8752 130.123 14.7896C130.164 14.7546 130.199 14.7151 130.23 14.6719C130.183 14.6973 130.14 14.7298 130.102 14.7682L129.738 15.0786C129.258 15.4582 128.742 15.7898 128.197 16.0687C126.155 17.0303 123.925 17.5274 121.668 17.5244C120.239 17.5833 118.676 17.5244 116.99 17.5244C115.196 17.4686 113.401 17.6104 111.638 17.9472C109.682 18.3873 107.852 19.2677 106.286 20.5214C104.634 21.8704 103.088 23.3447 101.663 24.9313C98.6602 28.0942 95.7274 31.0591 92.7036 33.3176C91.2824 34.3975 89.7712 35.3536 88.1867 36.1755C86.8019 36.8829 85.3542 37.4598 83.8624 37.8988C81.7002 38.5443 79.4407 38.8016 77.1887 38.6587C76.7873 38.6587 76.4395 38.5945 76.1184 38.5517C75.7973 38.5089 75.5564 38.4714 75.3477 38.4286L74.8767 38.343C74.8192 38.3272 74.7597 38.32 74.7001 38.3216Z" fill="white"/>
<path d="M74.362 28.031L74.5065 28.0845L74.9399 28.229C75.5072 28.3855 76.0911 28.4735 76.6793 28.4913C77.6123 28.4955 78.5386 28.3324 79.4141 28.0096C80.5628 27.5664 81.6681 27.0182 82.7161 26.372C84.0026 25.6212 85.2188 24.756 86.35 23.787C87.5809 22.7595 88.8172 21.5767 90.1284 20.3405C91.4789 19.0366 92.9087 17.8177 94.4098 16.6905C96.0165 15.4735 97.8294 14.5562 99.7616 13.9825C101.704 13.4672 103.722 13.2969 105.724 13.4794C107.591 13.6414 109.445 13.9311 111.273 14.3464C113.034 14.7211 114.693 15.1278 116.272 15.4168C117.73 15.7058 119.205 15.9041 120.687 16.0108C122.85 16.2072 125.03 15.9855 127.109 15.3579C127.433 15.2575 127.751 15.1396 128.062 15.0047C128.293 14.9153 128.518 14.8117 128.736 14.6943L129.138 14.4802C129.185 14.4592 129.23 14.4322 129.271 14.3999C129.219 14.4086 129.168 14.4267 129.122 14.4535L128.71 14.6408C128.489 14.75 128.262 14.8464 128.03 14.9298C127.719 15.0554 127.401 15.1626 127.077 15.2509C125.013 15.8336 122.859 16.026 120.725 15.8182C119.251 15.6948 117.786 15.4858 116.336 15.192C114.768 14.8816 113.125 14.4642 111.354 14.0842C109.512 13.6603 107.643 13.3635 105.761 13.1958C103.728 13.0167 101.679 13.1979 99.7081 13.731C97.731 14.3036 95.8742 15.2302 94.2279 16.4657C92.7245 17.6055 91.2946 18.8388 89.9464 20.1585C88.6406 21.3948 87.415 22.5775 86.2002 23.6104C85.0839 24.5782 83.8839 25.445 82.6144 26.2007C81.5834 26.8532 80.4942 27.4086 79.3605 27.8598C78.507 28.1942 77.6012 28.3753 76.6846 28.3949C75.8986 28.3671 75.1188 28.2449 74.362 28.031Z" fill="white"/>
<path d="M130.477 15.9275C130.921 15.8745 131.368 15.8476 131.815 15.8472C133.033 15.9192 134.212 16.3025 135.24 16.9604C136.754 17.9537 137.972 19.3365 138.767 20.9635C139.725 22.9681 140.495 25.0571 141.068 27.2037C141.421 28.3383 141.79 29.4462 142.229 30.4791C142.663 31.4702 143.167 32.4288 143.739 33.3476C144.809 35.0923 145.751 36.7086 146.018 38.2338C146.237 39.0407 146.254 39.8889 146.067 40.7036C145.88 41.5184 145.496 42.2748 144.948 42.906C145.04 42.8332 145.126 42.7526 145.205 42.6651C145.434 42.419 145.627 42.1415 145.778 41.841C146.315 40.7057 146.466 39.4253 146.206 38.1964C145.954 36.6229 145.012 34.9853 143.953 33.2138C143.393 32.3029 142.9 31.3532 142.475 30.372C142.039 29.3092 141.657 28.225 141.33 27.1235C140.752 24.9606 139.967 22.8583 138.986 20.8458C138.163 19.1869 136.903 17.7843 135.342 16.7891C134.282 16.1242 133.065 15.7546 131.815 15.7188C131.479 15.7186 131.144 15.7508 130.814 15.8151C130.697 15.8391 130.584 15.8768 130.477 15.9275Z" fill="white"/>
<path d="M100.475 51.9688C101.948 54.2969 102.782 56.9722 102.892 59.7252C103.002 62.4781 102.384 65.2113 101.101 67.6496C98.7144 72.0541 94.0476 75.7576 94.3794 80.7562C94.4865 82.4259 95.1769 84.0047 95.3856 85.6638C95.5943 87.3228 95.134 89.2816 93.6409 90.0309C90.2746 88.5484 88.0269 85.5782 86.8441 81.1736C84.88 75.1261 86.9618 67.5425 89.2578 61.6074" fill="#263238"/>
<path d="M74.769 78.8507L74.5174 78.8132L74.2177 78.7704L73.8056 78.6526C72.9226 78.3166 72.1896 77.6747 71.7398 76.8437C71.0061 75.5435 70.7937 74.0131 71.1458 72.5623C71.4121 71.676 71.8404 70.8468 72.4088 70.1165C73.0518 69.2997 73.7923 68.5646 74.6138 67.9276C76.3156 66.5415 78.4831 65.439 80.5007 63.8121C81.5774 62.9884 82.4981 61.9788 83.2195 60.8311C83.5836 60.2208 83.8627 59.5635 84.049 58.8777C84.2234 58.176 84.3291 57.4591 84.3647 56.737C84.4343 55.2706 84.3059 53.7774 84.2845 52.2628C84.2714 51.5008 84.3143 50.7388 84.4129 49.983C84.5297 49.2209 84.7568 48.4799 85.0872 47.7834C85.8293 46.3714 86.9751 45.2125 88.3786 44.4545C89.8207 43.6543 91.3557 43.0342 92.949 42.6082C94.5546 42.1426 96.1601 41.7305 97.7121 41.1364C99.2523 40.5906 100.66 39.7262 101.844 38.5997C102.926 37.4485 103.744 36.075 104.241 34.5751C104.777 33.1408 105.146 31.6905 105.601 30.2936C105.999 28.9433 106.598 27.6605 107.378 26.4885C108.144 25.4074 109.154 24.5219 110.326 23.9036C112.606 22.7101 115.031 22.3408 117.187 21.9823C118.258 21.8057 119.328 21.6612 120.286 21.4471C121.204 21.2507 122.107 20.9914 122.989 20.6711C123.753 20.3838 124.494 20.0367 125.204 19.6328C125.796 19.2837 126.35 18.8748 126.858 18.4126C127.574 17.779 128.136 16.9901 128.501 16.106C128.601 15.8802 128.68 15.6455 128.737 15.4049C128.762 15.3258 128.784 15.2454 128.801 15.1641C128.801 15.1641 128.704 15.4959 128.448 16.0846C128.066 16.9477 127.497 17.7154 126.783 18.3323C126.277 18.7835 125.724 19.18 125.135 19.5151C124.431 19.9111 123.695 20.2477 122.935 20.5212C122.062 20.8343 121.168 21.0847 120.259 21.2705C119.296 21.4739 118.258 21.613 117.166 21.8057C115.025 22.1535 112.563 22.5068 110.209 23.7163C109.004 24.3499 107.963 25.255 107.169 26.3601C106.375 27.5529 105.761 28.8569 105.349 30.2294C104.889 31.6155 104.514 33.0605 103.99 34.4788C103.499 35.9393 102.699 37.2772 101.646 38.4016C100.486 39.4982 99.1094 40.3403 97.6051 40.8742C96.0905 41.4575 94.4797 41.8696 92.8634 42.3352C91.2496 42.7683 89.695 43.3974 88.2341 44.2084C86.7876 44.9988 85.6057 46.1974 84.8357 47.6549C84.4947 48.3768 84.2621 49.145 84.1453 49.9348C84.0424 50.7064 83.9977 51.4846 84.0115 52.2628C84.0383 53.7881 84.1721 55.2759 84.1025 56.7209C84.071 57.43 83.9706 58.1345 83.8028 58.8242C83.6216 59.4881 83.3535 60.1251 83.0054 60.7187C82.2954 61.845 81.3891 62.8347 80.3295 63.6408C78.3279 65.2463 76.1604 66.3756 74.4425 67.7831C73.6353 68.4444 72.9111 69.2009 72.2857 70.0362C71.7128 70.7881 71.2828 71.6389 71.0173 72.5462C70.662 74.0368 70.8959 75.607 71.6703 76.9294C72.1401 77.7714 72.9014 78.4128 73.811 78.7329L74.2284 78.84H74.5388C74.6152 78.8485 74.6921 78.8521 74.769 78.8507Z" fill="white"/>
<path d="M108.101 6.39975C108.101 6.39975 108.438 6.19103 109.048 5.8164C111.205 4.52139 113.657 3.80093 116.171 3.72384C117.995 3.66931 119.811 3.96546 121.523 4.59619C123.227 5.25863 124.785 6.24762 126.11 7.50758C127.198 8.53043 128.122 9.71453 128.85 11.0184C129.342 11.8981 129.74 12.8273 130.038 13.7906C130.247 14.4756 130.338 14.861 130.359 14.861C130.362 14.765 130.349 14.6692 130.321 14.5773C130.277 14.3049 130.218 14.0351 130.145 13.7692C129.884 12.7826 129.506 11.8305 129.021 10.9327C128.308 9.5919 127.385 8.37406 126.286 7.32561C124.954 6.02388 123.369 5.00968 121.629 4.34591C119.889 3.68214 118.032 3.38297 116.171 3.46696C114.655 3.52486 113.158 3.82291 111.735 4.35001C110.776 4.70017 109.862 5.16181 109.011 5.72542C108.779 5.87489 108.555 6.03749 108.342 6.21244C108.255 6.26571 108.174 6.32854 108.101 6.39975Z" fill="white"/>
<path d="M129.723 77.563C129.723 77.563 137.055 82.8345 134.641 90.4769C132.121 98.4618 133.571 105.248 131.874 109.69C128.856 117.669 119.383 120.581 111.65 119.671C103.917 118.761 65.3782 114.357 75.4343 87.8545L76.6545 81.2772C77.1403 78.5623 78.6458 76.1359 80.8627 74.4951C83.0796 72.8543 85.84 72.1234 88.5783 72.452H88.7014L92.164 72.9283C92.9936 95.8394 120.074 99.0773 123.349 80.0837C125.388 79.9553 127.534 78.9438 129.723 77.563Z" fill="#5EA9FF"/>
<path d="M107.974 116.486C104.763 124.942 104.126 139.253 107.497 147.639C110.869 156.025 115.258 164.23 116.141 173.231C116.578 177.956 116.032 182.72 114.538 187.223C113.043 191.727 110.631 195.871 107.455 199.396C105.244 201.81 102.29 205.321 98.5493 209.254C95.9269 212.011 94.0109 214.435 94.0109 214.435C87.1178 215.018 61.8305 214.574 61.8305 214.574C66.2244 209.522 79.3791 189.394 82.7026 183.587C86.026 177.78 88.2417 171.139 87.8082 164.46C87.273 156.186 82.8364 148.741 80.3157 140.853C76.5902 129.173 77.0041 116.566 81.4877 105.156L107.974 116.486Z" fill="#5EA9FF"/>
<g opacity="0.3">
<path d="M92.0873 73.5978C92.0873 73.5978 92.4941 86.3405 102.679 90.7611C119.622 98.1145 123.363 80.4 123.363 80.4C123.326 84.6011 120.96 88.6096 117.551 91.0715C114.142 93.5333 109.802 94.5127 105.611 94.2505C101.408 93.9001 97.3309 92.6362 93.6661 90.547C91.7234 89.4766 90.348 87.8176 89.0636 86.014C87.549 83.8733 85.7883 80.2876 86.4251 77.7508C87.062 75.2141 89.5666 74.1919 91.8786 72.9609" fill="black"/>
</g>
<path d="M87.4602 75.1211C87.4326 75.1614 87.4092 75.2044 87.3906 75.2495L87.2086 75.6349C86.9969 76.1405 86.8356 76.6657 86.727 77.2029C86.3574 79.1989 86.5691 81.2591 87.3371 83.1381C87.8478 84.4385 88.5712 85.6448 89.4778 86.7078C90.525 87.9168 91.7354 88.9741 93.0742 89.8493C94.5536 90.8113 96.1282 91.6184 97.7731 92.2576C99.5291 92.9588 101.343 93.505 103.194 93.8899C106.994 94.6766 110.826 94.591 114.037 93.5099C116.903 92.5772 119.412 90.7853 121.225 88.3775C122.451 86.7682 123.254 84.8763 123.558 82.8759C123.631 82.335 123.658 81.789 123.638 81.2436C123.638 81.0723 123.638 80.9278 123.638 80.8208C123.644 80.7728 123.644 80.7243 123.638 80.6763C123.634 80.7243 123.634 80.7727 123.638 80.8208C123.638 80.9332 123.638 81.0723 123.638 81.2436C123.637 81.7812 123.594 82.318 123.51 82.8491C123.167 84.8171 122.348 86.6712 121.123 88.2491C119.319 90.6053 116.837 92.3533 114.01 93.2584C110.842 94.3288 107.053 94.3876 103.307 93.6116C101.48 93.2308 99.6897 92.6937 97.955 92.0061C96.3296 91.373 94.7716 90.5787 93.3043 89.6352C91.9776 88.7819 90.7778 87.7459 89.74 86.5579C88.8386 85.5191 88.1152 84.3382 87.5993 83.0632C86.8295 81.2174 86.5921 79.1928 86.9143 77.219C87.0346 76.5051 87.2173 75.8031 87.4602 75.1211Z" fill="#263238"/>
<path d="M86.8438 95.9243C86.8438 95.9243 86.8705 95.9671 86.9294 96.0313L87.1916 96.3364C87.4325 96.5879 87.7589 96.9947 88.262 97.4549C89.5963 98.7982 91.057 100.01 92.6237 101.073C94.9411 102.653 97.4614 103.913 100.116 104.819C106.68 107.112 113.831 107.087 120.378 104.749C123.036 103.828 125.557 102.55 127.871 100.95C129.436 99.8846 130.895 98.6713 132.227 97.3265C132.709 96.8609 133.035 96.4541 133.297 96.1973L133.56 95.8922C133.619 95.8226 133.645 95.7852 133.64 95.7852C133.635 95.7852 133.602 95.8119 133.538 95.8761L133.255 96.1598C133.003 96.4006 132.666 96.7967 132.184 97.2302C130.831 98.5412 129.363 99.727 127.796 100.773C126.718 101.498 125.6 102.159 124.446 102.753C123.113 103.424 121.739 104.007 120.33 104.498C113.831 106.786 106.749 106.811 100.234 104.567C98.8245 104.087 97.448 103.515 96.1131 102.855C94.9529 102.27 93.8289 101.616 92.7468 100.896C91.1756 99.8594 89.7014 98.6825 88.3423 97.38C87.8446 96.9305 87.502 96.5398 87.2719 96.3096L86.9883 96.026L86.8438 95.9243Z" fill="#263238"/>
<path d="M85.7242 97.0469C85.8011 97.1473 85.8871 97.2405 85.9811 97.3252L86.7678 98.0905L87.3351 98.6257C87.5492 98.8237 87.7953 99.0217 88.0522 99.2411C88.5874 99.6746 89.1226 100.194 89.829 100.691L90.8994 101.494C91.2687 101.773 91.6808 102.029 92.0928 102.313C92.9117 102.891 93.8375 103.426 94.8009 104.004C99.0515 106.428 103.673 108.134 108.48 109.051C109.593 109.238 110.621 109.436 111.638 109.527C112.135 109.581 112.617 109.656 113.077 109.683L114.41 109.763C115.261 109.832 116.015 109.811 116.706 109.816C117.043 109.816 117.359 109.816 117.648 109.816L118.434 109.773L119.505 109.699C119.633 109.699 119.76 109.685 119.885 109.656C119.758 109.644 119.631 109.644 119.505 109.656H118.434H117.642C117.359 109.656 117.043 109.656 116.706 109.656C116.037 109.656 115.266 109.656 114.426 109.565L113.099 109.463C112.638 109.431 112.162 109.351 111.67 109.297C110.68 109.195 109.631 108.987 108.534 108.794C103.761 107.854 99.1687 106.159 94.9293 103.774C93.966 103.207 93.0401 102.704 92.2213 102.115C91.8092 101.837 91.3971 101.58 91.0225 101.318L89.9521 100.531C89.2564 100.044 88.6837 99.5355 88.1539 99.118C87.897 98.904 87.6508 98.7113 87.4314 98.524L86.8427 97.9888L86.0292 97.2609C85.9347 97.1799 85.8325 97.1082 85.7242 97.0469Z" fill="#263238"/>
<g opacity="0.3">
<path d="M80.1212 109.105C88.6039 114.072 97.5467 116.866 107.121 119.087L106.896 119.911L106.008 124.144L78.521 115.817C78.8912 113.544 79.426 111.301 80.1212 109.105Z" fill="black"/>
</g>
<path d="M76.4832 105.031C76.5322 105.139 76.5952 105.24 76.6705 105.331C76.7989 105.524 77.0023 105.797 77.2699 106.144C78.0431 107.118 78.9267 107.998 79.903 108.767C81.369 109.89 82.9689 110.827 84.6661 111.555C86.5499 112.406 88.5943 113.412 90.8046 114.333C92.8916 115.178 95.023 115.908 97.1893 116.522C99.1748 117.116 100.978 117.592 102.498 117.988C104.018 118.384 105.249 118.657 106.105 118.85L107.095 119.058C107.209 119.088 107.326 119.108 107.443 119.117C107.335 119.068 107.222 119.031 107.106 119.005L106.132 118.743L102.546 117.795C101.037 117.389 99.2444 116.88 97.2642 116.275C95.1109 115.65 92.9907 114.916 90.9116 114.076C88.712 113.155 86.6623 112.16 84.7678 111.32C83.0844 110.61 81.4925 109.701 80.0261 108.612C79.0469 107.863 78.15 107.013 77.3502 106.075C77.0665 105.743 76.8524 105.481 76.7079 105.299C76.6414 105.203 76.5662 105.113 76.4832 105.031Z" fill="#263238"/>
<path d="M129.887 98.8438C129.828 98.8438 130.144 99.8766 130.347 101.562C130.463 102.55 130.506 103.544 130.475 104.538C130.403 106.977 129.886 109.382 128.95 111.635C128.571 112.559 128.122 113.454 127.607 114.31C126.729 115.766 126.001 116.564 126.071 116.601C126.259 116.441 126.429 116.262 126.579 116.066C126.772 115.849 126.951 115.62 127.114 115.381C127.312 115.108 127.553 114.798 127.773 114.428C128.315 113.577 128.786 112.682 129.18 111.752C130.158 109.478 130.684 107.035 130.727 104.559C130.747 103.553 130.682 102.547 130.534 101.552C130.491 101.124 130.395 100.749 130.331 100.412C130.274 100.126 130.203 99.8442 130.117 99.5662C130.063 99.3187 129.986 99.0768 129.887 98.8438Z" fill="#FAFAFA"/>
<path d="M127.51 79.2734C128.299 80.0191 128.97 80.8798 129.501 81.8262C130.044 82.8688 130.42 83.9904 130.614 85.1497C130.857 86.5637 130.905 88.0041 130.759 89.4312C130.427 92.4871 129.576 95.1737 129.116 97.1432C128.87 98.1279 128.693 98.9307 128.581 99.4872C128.527 99.7655 128.495 99.985 128.474 100.135C128.459 100.209 128.459 100.285 128.474 100.36C128.573 100.083 128.65 99.7981 128.704 99.5086C128.832 98.9735 129.036 98.1707 129.303 97.1913C129.838 95.2379 130.7 92.562 131.037 89.4579C131.187 87.9999 131.131 86.528 130.871 85.0855C130.657 83.9041 130.252 82.7654 129.672 81.7139C129.28 81.0074 128.783 80.3635 128.201 79.8033C128.042 79.6519 127.874 79.5107 127.698 79.3805C127.64 79.3368 127.577 79.3008 127.51 79.2734Z" fill="#FAFAFA"/>
<path d="M119.915 104.411C120.072 104.227 120.205 104.024 120.311 103.807C120.646 103.243 120.948 102.661 121.215 102.062C121.62 101.176 121.965 100.264 122.248 99.3325C122.594 98.1883 122.855 97.0203 123.03 95.8378C123.194 94.6551 123.272 93.4621 123.265 92.2682C123.252 91.2939 123.177 90.3215 123.04 89.3568C122.951 88.7064 122.826 88.0615 122.666 87.4248C122.617 87.1889 122.547 86.9579 122.457 86.7344C122.463 86.9765 122.498 87.2171 122.559 87.4515C122.65 87.9011 122.751 88.5647 122.842 89.3835C122.954 90.341 123.009 91.3042 123.008 92.2682C122.999 93.4497 122.915 94.6294 122.757 95.8003C122.579 96.9677 122.327 98.1225 122.002 99.2576C121.733 100.184 121.409 101.093 121.033 101.982C120.712 102.742 120.429 103.346 120.215 103.753C120.094 103.962 119.993 104.183 119.915 104.411Z" fill="#FAFAFA"/>
<path d="M115.693 119.894C115.885 119.781 116.064 119.649 116.228 119.498C116.445 119.332 116.653 119.153 116.849 118.962C117.079 118.748 117.384 118.518 117.625 118.224C118.273 117.561 118.864 116.845 119.391 116.083C120.029 115.134 120.581 114.129 121.039 113.081C121.477 112.024 121.817 110.93 122.056 109.811C122.244 108.898 122.353 107.97 122.383 107.039C122.409 106.643 122.383 106.284 122.383 105.968C122.377 105.698 122.358 105.428 122.324 105.16C122.316 104.93 122.28 104.702 122.217 104.48C122.163 104.48 122.281 105.46 122.185 107.028C122.13 107.946 122.003 108.859 121.805 109.757C121.555 110.855 121.213 111.929 120.782 112.968C120.331 114 119.793 114.991 119.177 115.933C118.668 116.698 118.101 117.423 117.48 118.101C116.442 119.273 115.634 119.851 115.693 119.894Z" fill="#FAFAFA"/>
<path d="M107.216 118.331C107.983 116.926 108.669 115.479 109.271 113.996C109.959 112.548 110.561 111.061 111.074 109.543C110.306 110.949 109.62 112.398 109.019 113.883C108.329 115.328 107.727 116.813 107.216 118.331Z" fill="#FAFAFA"/>
<path d="M107.823 108.714C108.028 108.378 108.191 108.019 108.31 107.644C108.561 107.044 108.845 106.573 108.754 106.53C108.663 106.488 108.315 106.9 108.053 107.537C107.852 107.894 107.771 108.307 107.823 108.714Z" fill="#FAFAFA"/>
<path d="M114.876 93.582C114.828 93.582 115.09 94.3045 115.198 95.4926C115.309 97.0433 115.128 98.6011 114.662 100.084C114.189 101.571 113.593 103.016 112.88 104.403C112.565 104.973 112.288 105.563 112.051 106.169C112.17 106.04 112.269 105.894 112.345 105.736C112.522 105.447 112.762 105.024 113.051 104.494C113.824 103.119 114.454 101.669 114.93 100.165C115.406 98.6488 115.561 97.0504 115.385 95.4712C115.325 94.9952 115.221 94.5258 115.074 94.069C115.032 93.898 114.966 93.7339 114.876 93.582Z" fill="#FAFAFA"/>
<path d="M99.1249 104.021C99.3389 103.518 99.5177 103.001 99.6601 102.474C99.9866 101.521 100.474 100.21 101.105 98.8079C101.737 97.4057 102.411 96.1855 102.914 95.3078C103.21 94.8482 103.478 94.371 103.717 93.8789C103.35 94.2875 103.025 94.7322 102.748 95.2062C102.035 96.3231 101.402 97.4891 100.854 98.6955C100.305 99.9006 99.8432 101.144 99.4728 102.415C99.3003 102.936 99.1837 103.475 99.1249 104.021Z" fill="#FAFAFA"/>
<path d="M95.7167 104.825C95.7916 104.825 95.9308 104.467 96.1877 104.06C96.4445 103.653 96.7228 103.348 96.6586 103.284C96.5944 103.22 96.2305 103.455 95.9522 103.91C95.6739 104.365 95.6418 104.793 95.7167 104.825Z" fill="#FAFAFA"/>
<path d="M93.8765 114.948C94.0452 114.497 94.1864 114.036 94.2993 113.568C94.6267 112.467 95.0401 111.393 95.5356 110.357C96.0392 109.319 96.6226 108.323 97.2803 107.376C97.575 106.996 97.8466 106.599 98.0938 106.188C97.7227 106.499 97.395 106.859 97.1197 107.258C95.6864 109.114 94.6598 111.251 94.1066 113.53C93.9681 113.991 93.8907 114.468 93.8765 114.948Z" fill="#FAFAFA"/>
<path d="M87.6957 97.5534C87.9443 97.1836 88.1576 96.7912 88.3326 96.3813C88.7072 95.6535 89.2317 94.6527 89.8632 93.5716C90.4947 92.4906 91.1101 91.5486 91.565 90.8636C91.8357 90.5104 92.0722 90.1323 92.2715 89.7344C91.9436 90.0381 91.6526 90.3794 91.4045 90.7512C90.7589 91.6078 90.1639 92.5013 89.6224 93.4271C89.0765 94.3531 88.5868 95.311 88.1559 96.2957C87.954 96.6956 87.7996 97.1177 87.6957 97.5534Z" fill="#FAFAFA"/>
<path d="M88.7761 99.7922C88.8456 99.8297 89.0437 99.6049 89.2256 99.257C89.4076 98.9092 89.5039 98.6469 89.4343 98.6095C89.3648 98.572 89.1668 98.8021 88.9848 99.1179C88.8028 99.4336 88.7118 99.7548 88.7761 99.7922Z" fill="#FAFAFA"/>
<path d="M83.0736 109.138C83.1164 109.138 83.2021 108.501 83.4108 107.479C83.689 106.149 84.0701 104.843 84.5507 103.572C85.0407 102.306 85.6313 101.082 86.3168 99.9111C86.852 99.0066 87.2106 98.4714 87.1731 98.4447C87.1356 98.4179 87.05 98.5571 86.868 98.7872C86.6118 99.1137 86.3725 99.4531 86.1509 99.804C84.6638 102.124 83.6658 104.722 83.2181 107.441C83.1378 107.976 83.0897 108.383 83.0736 108.677C83.0459 108.83 83.0459 108.985 83.0736 109.138Z" fill="#FAFAFA"/>
<path d="M74.7335 103.113C74.7857 103.043 74.8288 102.968 74.862 102.888C74.9369 102.733 75.0493 102.508 75.1777 102.214C75.4453 101.625 75.8146 100.769 76.2481 99.6982C77.1258 97.5574 78.1962 94.5604 79.5983 91.3386C80.7578 88.5723 82.2379 85.9517 84.0082 83.5303C84.5518 82.8037 85.1342 82.107 85.7529 81.4431C85.9902 81.2084 86.2136 80.96 86.4219 80.6992C86.3478 80.7443 86.2795 80.7982 86.2185 80.8598C86.0954 80.9775 85.8974 81.1381 85.6833 81.395C85.0292 82.0278 84.416 82.7017 83.8477 83.4126C82.0198 85.8152 80.5056 88.4409 79.3414 91.2262C77.9339 94.4373 76.8903 97.4772 76.0661 99.6232C75.6594 100.694 75.3276 101.528 75.0814 102.171C74.941 102.475 74.8247 102.79 74.7335 103.113Z" fill="#FAFAFA"/>
<path d="M80.7468 74.9795C80.7468 75.0224 81.1161 74.8565 81.7101 74.7173C82.4792 74.5371 83.2771 74.5171 84.0542 74.6584C84.8322 74.8034 85.5731 75.1037 86.2324 75.5415C86.7355 75.8787 87.003 76.1569 87.0352 76.1248C86.8685 75.8264 86.6338 75.5716 86.3501 75.3809C85.692 74.8757 84.923 74.5345 84.1068 74.3856C83.2906 74.2367 82.4507 74.2844 81.6566 74.5246C81.3227 74.6051 81.0115 74.7607 80.7468 74.9795Z" fill="#FAFAFA"/>
<path d="M78.9917 119.273C78.9917 119.273 79.072 119.322 79.2379 119.386L79.9711 119.664C80.608 119.9 81.5338 120.226 82.6845 120.617C84.9804 121.409 88.1647 122.458 91.7023 123.56C95.2398 124.663 98.4562 125.605 100.8 126.236C101.972 126.563 102.941 126.82 103.578 126.991L104.338 127.178C104.424 127.209 104.514 127.225 104.605 127.226C104.525 127.181 104.438 127.147 104.349 127.125L103.605 126.884L100.859 126.049L91.7879 123.271L82.7487 120.408L80.0139 119.541L79.2647 119.316C79.1757 119.291 79.0841 119.277 78.9917 119.273Z" fill="#FAFAFA"/>
<path d="M78.5803 128.664C78.664 128.709 78.7544 128.739 78.8479 128.755L79.6239 128.964L82.455 129.702C84.8687 130.328 88.1921 131.233 91.8314 132.346C95.4706 133.459 98.7298 134.567 101.079 135.397L103.894 136.397L104.649 136.66C104.736 136.695 104.828 136.718 104.922 136.729C104.843 136.679 104.758 136.638 104.67 136.606L103.932 136.296C103.284 136.028 102.326 135.659 101.176 135.225C98.8369 134.348 95.583 133.213 91.9384 132.095C88.2938 130.976 84.9811 130.104 82.5299 129.526C81.3151 129.237 80.3303 128.991 79.6453 128.873L78.8586 128.718C78.7686 128.687 78.675 128.669 78.5803 128.664Z" fill="#FAFAFA"/>
<path d="M80.6132 139.453C80.698 139.498 80.7878 139.532 80.8807 139.555L81.6675 139.78L84.5682 140.582C87.0139 141.262 90.3856 142.231 94.0837 143.376C97.7818 144.521 101.105 145.645 103.508 146.469L106.35 147.449L107.126 147.706C107.214 147.745 107.308 147.77 107.404 147.781C107.325 147.728 107.238 147.686 107.147 147.657L106.387 147.347C105.729 147.085 104.782 146.721 103.572 146.277C101.186 145.404 97.8674 144.259 94.1639 143.103C90.4605 141.947 87.0781 141.021 84.6163 140.39C83.3854 140.069 82.39 139.828 81.6942 139.667L80.8968 139.491C80.8038 139.468 80.7087 139.456 80.6132 139.453Z" fill="#FAFAFA"/>
<path d="M85.6673 152.289C85.7571 152.335 85.8524 152.369 85.951 152.391L86.7858 152.626L89.8578 153.488C92.4427 154.226 96.0016 155.313 99.8764 156.699C103.751 158.085 107.176 159.412 109.654 160.483L112.587 161.74L113.384 162.078C113.474 162.124 113.569 162.158 113.668 162.179C113.586 162.12 113.498 162.07 113.406 162.029L112.63 161.644C111.955 161.307 110.965 160.847 109.734 160.301C107.273 159.204 103.847 157.78 99.9459 156.41C96.0445 155.04 92.4909 153.98 89.8899 153.29C88.5841 152.947 87.5244 152.685 86.7912 152.519L85.9456 152.332C85.8551 152.305 85.7616 152.291 85.6673 152.289Z" fill="#FAFAFA"/>
<path d="M87.8645 166.305C87.953 166.362 88.0483 166.409 88.1482 166.444L88.9777 166.786L92.0336 168.001L102.111 172.026C106.045 173.631 109.604 175.087 112.135 176.195C113.403 176.73 114.436 177.201 115.143 177.522L115.962 177.886C116.054 177.936 116.153 177.972 116.256 177.993C116.171 177.929 116.08 177.876 115.983 177.833L115.185 177.426C114.495 177.073 113.473 176.596 112.215 176.013C109.684 174.862 106.152 173.337 102.218 171.764C98.2845 170.19 94.7255 168.793 92.1032 167.819L89.0152 166.685L88.1696 166.39C88.0707 166.352 87.9686 166.324 87.8645 166.305Z" fill="#FAFAFA"/>
<path d="M85.0305 179.02C85.1169 179.076 85.2105 179.121 85.3088 179.153L86.1276 179.49L89.146 180.695C91.6935 181.717 95.1882 183.178 98.9987 184.907C102.809 186.635 106.213 188.316 108.632 189.563L111.527 191.04L112.314 191.436C112.402 191.49 112.498 191.532 112.598 191.559C112.518 191.493 112.432 191.435 112.341 191.388L111.575 190.943C110.912 190.563 109.938 190.028 108.723 189.386C106.299 188.096 102.906 186.389 99.0897 184.655C95.2738 182.921 91.7577 181.487 89.1888 180.513C87.9098 180.02 86.8662 179.64 86.1383 179.389L85.3034 179.1C85.2145 179.067 85.1233 179.04 85.0305 179.02Z" fill="#FAFAFA"/>
<path d="M78.1728 189.849C78.1407 189.918 83.728 192.803 90.6586 196.271C97.5892 199.739 103.235 202.538 103.267 202.468C103.3 202.399 97.7123 199.514 90.7817 196.046C83.8511 192.578 78.2317 189.779 78.1728 189.849Z" fill="#FAFAFA"/>
<path d="M88.9409 129.25C88.9509 129.376 88.9706 129.501 88.9998 129.625C89.0587 129.892 89.1336 130.24 89.2246 130.695C89.3156 131.15 89.4494 131.717 89.626 132.359C89.8026 133.002 89.9738 133.74 90.2307 134.543C90.4876 135.346 90.7659 136.229 91.071 137.155C91.376 138.08 91.7667 139.076 92.1413 140.114C93.0437 142.347 94.0601 144.531 95.1865 146.659C96.3308 148.78 97.5811 150.841 98.9328 152.835C99.575 153.745 100.174 154.618 100.779 155.394C101.384 156.17 101.951 156.897 102.486 157.534C103.022 158.171 103.525 158.749 103.963 159.252C104.402 159.755 104.793 160.173 105.125 160.51L105.879 161.281C105.96 161.377 106.051 161.463 106.152 161.537C106.084 161.431 106.006 161.333 105.917 161.243L105.205 160.435C104.889 160.087 104.504 159.664 104.081 159.151C103.658 158.637 103.15 158.08 102.642 157.411C102.133 156.742 101.571 156.041 100.966 155.244C100.362 154.446 99.7783 153.59 99.1468 152.68C97.9159 150.845 96.6422 148.768 95.4327 146.52C94.2232 144.273 93.2224 142.052 92.3768 140.007C91.9754 138.974 91.5794 138 91.2636 137.069C90.9479 136.138 90.6428 135.271 90.3913 134.473C90.1397 133.676 89.9364 132.948 89.7491 132.306C89.5618 131.664 89.4172 131.112 89.3049 130.658L89.0319 129.614C89.0126 129.49 88.9821 129.368 88.9409 129.25Z" fill="#263238"/>
<path d="M71.5483 201.039C71.6246 201.092 71.7073 201.135 71.7944 201.168L72.5223 201.489L75.1982 202.65C77.462 203.624 80.55 205.005 84.0501 206.434C87.0156 207.674 90.0434 208.76 93.1214 209.688C94.3041 210.035 95.2621 210.287 95.9471 210.437L96.7231 210.603C96.8116 210.63 96.9035 210.645 96.9961 210.646C96.9144 210.6 96.8259 210.567 96.7338 210.549L95.9739 210.33C95.3103 210.153 94.3684 209.87 93.1803 209.5C90.8308 208.767 87.6358 207.606 84.1571 206.177L75.2731 202.468C74.1332 202.002 73.2073 201.628 72.5597 201.398L71.8158 201.125C71.7317 201.082 71.6414 201.053 71.5483 201.039Z" fill="#FAFAFA"/>
<path d="M66.159 210.012C66.3084 210.127 66.4721 210.222 66.646 210.295C66.9672 210.467 67.4381 210.697 68.0268 210.975C69.2042 211.51 70.8526 212.238 72.7043 212.945C74.556 213.651 76.2686 214.213 77.5209 214.582C78.1417 214.769 78.6502 214.909 78.998 214.994C79.1713 215.053 79.351 215.091 79.5332 215.107C79.3662 215.009 79.1859 214.937 78.998 214.893L77.5477 214.395C76.3168 213.977 74.6256 213.389 72.7792 212.682C70.9329 211.976 69.2738 211.296 68.0803 210.793L66.6621 210.199C66.5041 210.113 66.3347 210.05 66.159 210.012Z" fill="#FAFAFA"/>
<g opacity="0.3">
<path d="M71.0225 200.495C74.528 195.465 80.4256 192.345 86.5106 191.606C92.5957 190.868 98.8198 192.355 104.284 195.165C105.766 195.93 107.843 197.488 107.672 199.152L103.294 204.065C94.1579 207.63 84.2297 208.665 74.5547 207.062C72.6334 206.741 70.3803 205.992 69.9254 204.097C69.6096 202.84 70.284 201.555 71.0225 200.495Z" fill="black"/>
</g>
<path d="M118.954 200.194C118.954 200.194 126.747 198.479 130.058 197.798C131.143 197.57 132.091 196.966 133.155 196.694C138.35 195.343 144.746 191.979 146.194 190.564C148.714 188.103 150.564 191.895 148.058 195.005C145.551 198.116 143.636 199.187 143.636 199.187L154.279 201.973C154.83 202.117 155.306 202.465 155.61 202.947L163.824 215.934C164.198 216.443 164.374 217.072 164.318 217.702C164.262 218.332 163.977 218.92 163.519 219.356C163.297 219.59 162.995 219.732 162.674 219.757C162.352 219.781 162.033 219.684 161.778 219.486L162.837 221.252C164.584 224.167 160.304 227.031 158.382 224.226L158.337 224.089C158.337 226.317 157.168 227.434 154.493 227.135C154.493 227.135 153.545 231.271 150.395 229.524C147.798 228.083 140.818 219.953 140.818 219.953C140.818 219.953 116.143 220.512 114.903 216.875L118.954 200.194Z" fill="#FFBE9D"/>
<path d="M143.234 204.774C143.301 204.826 143.375 204.868 143.455 204.898C143.664 205.005 143.881 205.096 144.104 205.17C144.95 205.443 145.82 205.634 146.702 205.742C148.009 205.873 149.298 206.148 150.546 206.56C151.935 207.053 153.091 208.235 154.11 209.605C156.182 212.346 158.065 214.8 159.448 216.599L161.091 218.696C161.283 218.963 161.501 219.211 161.74 219.436C161.586 219.149 161.408 218.875 161.208 218.618L159.643 216.456C158.344 214.638 156.455 212.144 154.383 209.397C153.883 208.715 153.317 208.082 152.695 207.508C152.103 206.969 151.413 206.548 150.662 206.268C149.398 205.862 148.091 205.604 146.766 205.501C145.891 205.411 145.022 205.257 144.169 205.04C143.565 204.885 143.247 204.742 143.234 204.774Z" fill="#EB946E"/>
<path d="M140.992 209.727C142.13 209.704 143.264 209.858 144.355 210.182C145.527 210.56 146.635 211.114 147.641 211.824C148.868 212.709 149.998 213.721 151.011 214.844C152.875 216.879 154.61 219.028 156.206 221.279C156.823 222.143 157.303 222.857 157.634 223.344C157.794 223.608 157.976 223.858 158.18 224.091C158.063 223.807 157.92 223.535 157.751 223.279C157.446 222.759 156.998 222.032 156.407 221.143C154.858 218.852 153.139 216.681 151.264 214.649C150.238 213.505 149.083 212.483 147.823 211.604C146.788 210.885 145.643 210.339 144.433 209.987C143.617 209.752 142.77 209.638 141.92 209.649C141.692 209.656 141.464 209.675 141.238 209.708C141.076 209.695 140.992 209.714 140.992 209.727Z" fill="#EB946E"/>
<path d="M133.407 198.875C133.899 199.004 134.405 199.076 134.914 199.089C135.849 199.167 137.148 199.245 138.576 199.271C140.005 199.297 141.303 199.271 142.245 199.271C142.753 199.283 143.261 199.235 143.758 199.128C143.257 199.037 142.747 199.004 142.238 199.031L138.583 198.966L134.927 198.881C134.422 198.828 133.913 198.826 133.407 198.875Z" fill="#EB946E"/>
<path d="M143.967 215.906C143.967 215.958 144.74 216.309 145.882 217.082C147.362 218.107 148.7 219.323 149.863 220.698C151.025 222.08 152.109 223.526 153.11 225.03C153.498 225.67 153.932 226.282 154.408 226.861C154.345 226.666 154.253 226.483 154.135 226.315C153.947 225.978 153.661 225.491 153.291 224.9C152.344 223.346 151.278 221.867 150.103 220.478C148.926 219.077 147.542 217.864 145.999 216.88C145.53 216.587 145.039 216.328 144.532 216.108C144.355 216.011 144.165 215.943 143.967 215.906Z" fill="#EB946E"/>
<path d="M76.4839 116.652L57.744 175.983L108.886 191.956C109.982 192.294 111.031 192.768 112.009 193.365L115.198 195.313L119.795 196.164L114.464 220.456L109.094 219.118C103.717 223.872 67.1399 216.703 41.2637 213.618C41.2637 213.618 13.7057 211.079 18.1796 187.788C21.0043 173.08 42.6663 115.113 42.6663 115.113L76.4839 116.652Z" fill="white"/>
<path d="M108.68 218.534C108.764 218.228 108.818 217.915 108.843 217.599C108.914 216.989 109.038 216.119 109.193 215.041C110.027 209.423 111.448 203.908 113.434 198.586C113.817 197.567 114.135 196.742 114.356 196.177C114.488 195.889 114.595 195.589 114.674 195.281C114.503 195.548 114.357 195.831 114.239 196.125C113.973 196.677 113.622 197.489 113.213 198.502C111.097 203.794 109.676 209.338 108.986 214.995C108.856 216.08 108.771 216.943 108.732 217.593C108.688 217.904 108.671 218.219 108.68 218.534Z" fill="#263238"/>
<path d="M46.5255 184.68C46.5419 184.616 46.5528 184.551 46.558 184.485L46.6359 183.914C46.7769 183.194 47.015 182.497 47.3437 181.842C47.8756 180.81 48.5781 179.875 49.4216 179.076C50.5145 177.999 51.8252 177.169 53.2657 176.641C55.0402 176.078 56.9456 176.078 58.7202 176.641C60.6682 177.161 62.6162 178.096 64.759 178.862C69.0901 180.271 73.8952 181.628 78.9406 183.05C89.0379 185.881 98.1871 188.414 104.687 190.628C107.268 191.449 109.789 192.447 112.232 193.615C112.888 193.942 113.512 194.328 114.096 194.771C114.492 195.089 114.654 195.297 114.674 195.284C114.52 195.075 114.341 194.885 114.141 194.719C113.57 194.247 112.949 193.838 112.291 193.498C109.863 192.273 107.348 191.231 104.765 190.381C98.2715 188.108 89.1288 185.537 79.0315 182.706C73.9926 181.284 69.1745 179.933 64.8629 178.55C62.7331 177.797 60.7656 176.868 58.7916 176.349C56.962 175.789 55.0039 175.812 53.1878 176.414C51.7217 176.967 50.3927 177.831 49.2917 178.946C48.4475 179.767 47.7511 180.727 47.2333 181.784C46.9183 182.458 46.6998 183.172 46.584 183.907C46.584 184.16 46.5515 184.355 46.545 184.485C46.5299 184.549 46.5233 184.614 46.5255 184.68Z" fill="#263238"/>
<path d="M57.7487 175.989C57.8338 175.829 57.9055 175.662 57.963 175.489C58.0929 175.126 58.2747 174.639 58.502 174.028C58.9695 172.73 59.6123 170.905 60.398 168.619C61.9629 164.042 64.0214 157.678 66.2421 150.639C68.4628 143.6 70.4823 137.23 71.9887 132.639C72.7355 130.36 73.3459 128.51 73.7809 127.198L74.2614 125.717C74.3235 125.546 74.3713 125.37 74.4043 125.191C74.3255 125.354 74.2561 125.521 74.1965 125.691L73.6576 127.152C73.19 128.451 72.5407 130.269 71.7615 132.561C70.1966 137.107 68.1382 143.496 65.9174 150.542C63.6967 157.587 61.6772 163.944 60.1708 168.541C59.4175 170.814 58.8136 172.665 58.3786 173.983C58.1773 174.6 58.015 175.093 57.8981 175.463C57.8346 175.635 57.7847 175.81 57.7487 175.989Z" fill="#263238"/>
<path d="M109.679 211.805C110.605 212.468 111.592 213.042 112.627 213.519C113.611 214.093 114.651 214.565 115.73 214.928C114.804 214.265 113.817 213.691 112.782 213.214C111.798 212.64 110.758 212.168 109.679 211.805Z" fill="#263238"/>
<path d="M110.933 206.641C110.933 206.738 112.361 207.017 114.069 207.602C115.777 208.186 117.095 208.848 117.141 208.757C116.252 208.09 115.248 207.59 114.18 207.283C113.146 206.871 112.046 206.653 110.933 206.641Z" fill="#263238"/>
<path d="M112.083 202.213C112.083 202.311 113.518 202.304 115.225 202.687C116.933 203.07 118.232 203.674 118.277 203.577C116.433 202.418 114.243 201.936 112.083 202.213Z" fill="#263238"/>
<path d="M114.235 198.935C115.112 198.866 115.993 198.853 116.871 198.896C117.737 199.057 118.592 199.274 119.43 199.545C118.685 199.014 117.818 198.681 116.909 198.578C116 198.474 115.08 198.604 114.235 198.954V198.935Z" fill="#263238"/>
<path d="M34.4711 136.793C34.5429 136.772 34.6125 136.744 34.6789 136.709L35.2568 136.423L37.4191 135.306L45.1008 131.228L44.893 131.15L48.789 141.813C49.4384 143.553 50.0877 145.248 50.6591 146.845L50.7111 146.981L50.8539 146.949L63.3992 144.124L67.0615 143.267L68.0809 143.046C68.1957 143.027 68.3072 142.993 68.4121 142.942C68.2959 142.948 68.1807 142.966 68.068 142.994L67.0745 143.183L63.3927 143.942L50.8215 146.657L51.0098 146.761L49.1462 141.722L45.1787 131.072L45.1203 130.91L44.9709 130.995L37.3542 135.15L35.2243 136.339L34.6659 136.663C34.5295 136.741 34.4711 136.78 34.4711 136.793Z" fill="#FAFAFA"/>
<path d="M41.1485 121.626C41.4031 121.188 41.7035 120.779 42.0446 120.405C43.0209 119.428 44.3327 118.859 45.7134 118.814C46.6523 118.755 47.5871 118.982 48.3951 119.463C49.3008 120.055 50.0371 120.872 50.5315 121.834C51.0907 122.91 51.5872 124.018 52.0185 125.152C52.4954 126.397 53.1976 127.544 54.0899 128.535C54.5695 129.031 55.1495 129.418 55.7911 129.671C56.4126 129.909 57.0738 130.026 57.7391 130.015C59.0378 130.015 60.2391 129.827 61.4014 129.743L67.5637 129.165L71.713 128.749L72.8428 128.619C72.9743 128.609 73.1047 128.587 73.2324 128.554C73.1009 128.537 72.9678 128.537 72.8363 128.554L71.7065 128.619L67.5442 128.931L61.3755 129.431C60.2131 129.509 58.9859 129.678 57.7456 129.684C57.1185 129.688 56.4959 129.578 55.908 129.359C55.3133 129.119 54.7758 128.756 54.3301 128.295C53.472 127.341 52.7924 126.242 52.3237 125.048C51.8824 123.907 51.3751 122.792 50.8042 121.71C50.2748 120.709 49.4966 119.862 48.5445 119.249C47.6857 118.752 46.6966 118.525 45.7069 118.6C44.2746 118.667 42.9253 119.292 41.9472 120.34C41.6878 120.622 41.4692 120.939 41.2979 121.282C41.2339 121.39 41.1837 121.505 41.1485 121.626Z" fill="#FAFAFA"/>
<path d="M36.8311 212.812L37.0129 212.851L37.5584 212.942L39.6558 213.26L47.3764 214.403C53.8698 215.37 62.8762 216.805 72.8371 218.163C77.824 218.812 82.5772 219.526 86.8953 219.981C90.734 220.419 94.5967 220.614 98.46 220.565C101.072 220.52 103.677 220.275 106.252 219.831C107.161 219.695 107.856 219.513 108.33 219.416L108.869 219.292L109.051 219.24C108.988 219.232 108.925 219.232 108.862 219.24L108.317 219.331C107.837 219.403 107.142 219.565 106.226 219.682C103.661 220.083 101.07 220.3 98.473 220.331C94.6193 220.349 90.7681 220.133 86.9407 219.682C82.6161 219.208 77.8824 218.5 72.8955 217.838C62.9411 216.481 53.9478 215.078 47.4219 214.169C44.1752 213.715 41.5129 213.37 39.6882 213.137L37.5844 212.883L37.0324 212.825C36.9666 212.809 36.8985 212.805 36.8311 212.812Z" fill="#263238"/>
<path d="M153.171 80.3184C151.255 78.1777 152.475 75.6356 157.361 77.0324C156.982 76.9307 154.193 76.1654 154.653 74.6937C155.14 73.0881 158.127 72.7028 158.127 72.7028L161.9 72.4994C161.9 72.4994 163.018 64.0596 164.453 64.0703C165.887 64.081 166.995 65.4885 167.23 67.7203L168.301 67.9986C170.206 68.4863 171.976 69.4013 173.476 70.6745L174.123 71.2096C174.394 71.4294 174.594 71.7248 174.697 72.0583C174.8 72.3919 174.801 72.7484 174.701 73.0828L172.823 79.3658C172.823 79.3658 173.481 83.5563 172.919 84.6748C172.357 85.7933 172.218 86.1466 172.218 86.1466C172.218 86.1466 172.272 89.0258 171.03 90.1069C170.392 90.6452 169.791 91.2263 169.232 91.8462C169.232 91.8462 169.152 93.8639 168.092 95.0573C166.925 96.3632 164.651 99.3388 164.651 99.3388L152.941 101.244L151.63 91.3218L153.171 80.3184Z" fill="#FFBE9D"/>
<path d="M167.601 67.7604C167.398 67.6619 167.185 67.5882 166.964 67.5409C166.37 67.355 165.744 67.2877 165.123 67.3429C164.686 67.4026 164.271 67.574 163.919 67.8406C163.709 67.9942 163.535 68.1914 163.408 68.4187C163.282 68.6459 163.206 68.8978 163.186 69.1572C163.186 69.4426 163.244 69.725 163.355 69.9879C163.466 70.2508 163.629 70.4887 163.834 70.6878C164.257 71.0907 164.728 71.441 165.236 71.7314C166.894 72.8766 168.693 73.8047 170.588 74.4929C171.171 74.6849 171.771 74.8211 172.38 74.8997C172.603 74.9388 172.829 74.9496 173.055 74.9318C172.242 74.7721 171.439 74.563 170.652 74.3056C168.787 73.5726 167.011 72.63 165.359 71.4959C164.87 71.2181 164.416 70.884 164.005 70.5005C163.823 70.3283 163.677 70.122 163.575 69.8933C163.473 69.6647 163.417 69.4182 163.411 69.1679C163.429 68.9438 163.494 68.726 163.602 68.5287C163.71 68.3314 163.858 68.159 164.037 68.0226C164.347 67.7735 164.715 67.6077 165.107 67.5409C165.703 67.4674 166.306 67.5018 166.889 67.6426C167.122 67.7056 167.361 67.745 167.601 67.7604Z" fill="#EB946E"/>
<path d="M160.592 72.6016C160.772 72.6836 160.963 72.7395 161.159 72.7675C161.523 72.8531 162.058 72.9762 162.716 73.1153L165.039 73.5916C165.911 73.779 166.885 73.9288 167.87 74.2018C168.799 74.4052 169.657 74.8543 170.353 75.5022C170.897 76.06 171.346 76.7037 171.68 77.4075C172.258 78.617 172.526 79.4144 172.574 79.3984C172.549 79.2019 172.498 79.0094 172.424 78.8257C172.265 78.3136 172.076 77.8114 171.857 77.3219C171.537 76.5826 171.089 75.9052 170.535 75.3203C170.195 74.9805 169.805 74.6937 169.379 74.4693C168.921 74.2419 168.44 74.0626 167.945 73.9342C166.939 73.6612 165.97 73.5167 165.092 73.3455L162.754 72.928C162.09 72.8103 161.549 72.7193 161.148 72.6658C160.965 72.6257 160.779 72.6042 160.592 72.6016Z" fill="#EB946E"/>
<path d="M156.724 76.8516C156.916 76.9454 157.119 77.0155 157.328 77.0603C157.73 77.178 158.308 77.3332 159.025 77.5045L161.546 78.1039L163.028 78.4732C163.556 78.616 164.092 78.7268 164.634 78.805C165.168 78.8696 165.694 78.9916 166.202 79.1689C166.666 79.353 167.104 79.5996 167.502 79.9021C168.186 80.4147 168.807 81.0056 169.354 81.6628C169.73 82.0994 170.054 82.5791 170.317 83.0918C170.494 83.4611 170.547 83.6858 170.574 83.6805C170.601 83.6751 170.574 83.6216 170.574 83.5092C170.54 83.3523 170.493 83.1984 170.435 83.049C170.2 82.5075 169.894 81.9999 169.525 81.5398C168.988 80.8488 168.366 80.2284 167.673 79.6934C167.26 79.3734 166.804 79.1122 166.319 78.9174C165.802 78.7249 165.263 78.5955 164.714 78.532C164.172 78.4562 163.636 78.3472 163.108 78.2056C162.591 78.0771 162.093 77.9594 161.615 77.8524L159.078 77.3172L157.366 76.964C157.157 76.9005 156.941 76.8627 156.724 76.8516Z" fill="#EB946E"/>
<path d="M153.169 80.3203C153.328 80.5094 153.508 80.6799 153.705 80.8287C154.221 81.2522 154.774 81.6284 155.358 81.9526C156.227 82.4301 157.139 82.8244 158.082 83.13C159.232 83.4998 160.4 83.8089 161.582 84.0559C162.203 84.195 162.84 84.3074 163.402 84.4412C163.942 84.5989 164.435 84.8875 164.836 85.2814C165.238 85.6561 165.607 86.036 165.944 86.3893C166.266 86.7084 166.556 87.0579 166.811 87.4329C167.205 87.9602 167.549 88.5227 167.839 89.1133C168.037 89.5361 168.112 89.7877 168.133 89.7823C168.154 89.777 168.133 89.7127 168.133 89.595C168.089 89.4133 168.034 89.2346 167.967 89.0598C167.711 88.4419 167.386 87.8549 166.998 87.3098C166.75 86.9246 166.463 86.566 166.142 86.2394C165.81 85.8755 165.446 85.4902 165.04 85.0995C164.612 84.6734 164.087 84.3591 163.509 84.1843C162.899 84.0345 162.3 83.9274 161.668 83.7883C159.514 83.4086 157.421 82.7426 155.444 81.8081C154.653 81.3637 153.893 80.8667 153.169 80.3203Z" fill="#EB946E"/>
<path d="M168.121 89.7835C168.078 89.6914 168.026 89.6036 167.966 89.5213C167.853 89.35 167.682 89.1039 167.431 88.8041C167.149 88.4286 166.83 88.0825 166.478 87.7712C165.996 87.3684 165.455 87.0434 164.873 86.8079C163.61 86.2727 162.1 85.6894 160.425 85.0204L157.792 83.9768C157.318 83.7726 156.814 83.6479 156.299 83.6075C156.024 83.5861 155.747 83.6226 155.487 83.7148C155.228 83.807 154.99 83.9528 154.79 84.1427C154.589 84.3542 154.462 84.6242 154.426 84.9134C154.395 85.1924 154.437 85.4747 154.549 85.7322C154.775 86.208 155.127 86.6132 155.566 86.9043C156.379 87.4715 157.171 87.9746 157.947 88.4563C158.327 88.7025 158.691 88.9433 159.06 89.1681L160.131 89.7782C160.832 90.1635 161.485 90.5221 162.063 90.8806C162.972 91.4493 163.825 92.1035 164.61 92.8341C164.889 93.091 165.103 93.2997 165.242 93.4388C165.309 93.5182 165.386 93.5884 165.472 93.6475C165.418 93.5594 165.355 93.477 165.285 93.4014C165.156 93.2515 164.958 93.0267 164.685 92.7538C163.922 91.9867 163.078 91.3031 162.17 90.7147C161.592 90.3401 160.939 89.9708 160.243 89.5748L159.173 88.954C158.809 88.7292 158.445 88.483 158.07 88.2422C157.321 87.7391 156.513 87.2414 155.721 86.6848C155.32 86.4194 155 86.0492 154.795 85.6145C154.694 85.4054 154.657 85.1707 154.691 84.9408C154.724 84.7109 154.826 84.4963 154.982 84.3247C155.153 84.1598 155.357 84.0323 155.58 83.9503C155.803 83.8683 156.04 83.8336 156.278 83.8484C156.76 83.8892 157.234 84.0067 157.68 84.1962L160.318 85.2238L164.782 86.9578C165.347 87.1759 165.876 87.4791 166.35 87.8569C166.701 88.1543 167.025 88.482 167.318 88.8363C167.565 89.1306 167.741 89.3714 167.854 89.5213C167.933 89.6183 168.022 89.7063 168.121 89.7835Z" fill="#EB946E"/>
<path d="M153.25 90.4797C153.952 89.9782 154.689 89.5275 155.455 89.131C156.26 88.8197 157.086 88.5675 157.928 88.3764C157.038 88.338 156.152 88.5082 155.34 88.8734C154.527 89.2386 153.812 89.7887 153.25 90.4797Z" fill="#EB946E"/>
<path opacity="0.4" d="M388.848 228.897V231.506C367.197 231.506 340.089 231.941 334.408 233.625C296.608 244.496 297.279 268.41 283.815 268.41C273.392 268.41 253.262 232.81 235.279 232.81C217.297 232.81 212.376 245.148 200.074 245.148C187.773 245.148 184.686 232.81 156.549 232.81C128.412 232.81 120.763 255.855 104.614 255.855C88.4653 255.855 71.2431 231.506 51.3816 231.506H0.654297V228.897H51.6053C71.4667 228.897 88.51 204.548 104.838 204.548C121.165 204.548 128.591 227.592 156.773 227.592C184.954 227.592 188.086 215.309 200.298 215.309C212.51 215.309 217.565 227.592 235.503 227.592C253.441 227.592 273.615 192.047 284.038 192.047C297.458 192.047 296.832 215.798 334.631 226.832C340.089 228.462 367.197 228.897 388.848 228.897Z" fill="white"/>
<path opacity="0.6" d="M388.841 228.897V231.506C360.659 231.506 354.038 274.66 330.688 274.66C313.868 274.66 296.78 238.354 275.04 238.354C254.284 238.354 252.941 254.061 240.193 254.061C227.444 254.061 220.197 231.723 199.933 231.723C176.09 231.723 170.275 282.324 149.697 282.324C129.12 282.324 120.084 235.201 100.491 235.201C80.898 235.201 79.7797 242.865 63.1838 242.865C46.5878 242.865 31.5128 231.506 14.5142 231.506H0.289062V228.897H14.5142C31.5128 228.897 46.5878 217.592 63.1838 217.592C79.7797 217.592 81.077 225.201 100.491 225.201C119.905 225.201 128.897 178.133 149.697 178.133C170.498 178.133 176.09 228.734 199.933 228.734C220.018 228.734 226.773 206.341 240.193 206.341C253.612 206.341 254.284 222.048 275.04 222.048C296.78 222.048 313.868 185.796 330.688 185.796C354.038 185.851 360.659 228.897 388.841 228.897Z" fill="white"/>
<path d="M0.654297 230.961V229.33C4.9974 229.303 9.31693 228.553 13.4927 227.102C17.6557 225.596 21.6404 223.44 25.347 220.689C32.7279 215.253 39.4379 208.242 47.7135 204.764C51.8737 202.988 56.2856 202.249 60.6861 202.59C65.0379 203.129 69.2857 204.544 73.256 206.775C81.2633 210.96 88.7337 216.503 96.7857 220.308C104.729 224.383 113.439 225.737 121.97 224.221C126.211 223.538 130.317 221.937 134.093 219.493C137.83 216.597 141.992 214.604 146.35 213.623C150.8 212.962 155.314 213.847 159.367 216.177C163.393 218.351 167.061 221.178 170.998 223.297C178.709 227.878 187.424 229.345 195.869 227.482C204.159 224.71 211.722 219.395 217.833 212.047C221.15 208.509 224.853 205.546 228.838 203.242C232.958 201.052 237.465 200.155 241.944 200.633C246.411 201.056 250.732 202.75 254.559 205.579C258.255 208.464 261.769 211.68 265.071 215.199C268.256 218.616 271.884 221.37 275.807 223.352C279.778 225.054 284.016 225.631 288.199 225.037C292.441 224.608 296.612 223.455 300.59 221.612C304.616 219.765 308.463 217.373 312.623 215.525C316.807 213.64 321.223 212.63 325.685 212.536C330.138 212.581 334.559 213.46 338.792 215.145C347.201 218.243 354.985 223.134 363.216 226.015C371.447 228.896 380.08 227.809 388.803 228.08H389.921V232.157H388.803C380.08 232.157 371.357 231.07 363.216 234.222C355.074 237.374 347.201 241.831 338.792 245.092C334.559 246.776 330.138 247.656 325.685 247.701C321.223 247.658 316.802 246.665 312.623 244.766C308.463 242.918 304.616 240.472 300.59 238.679C296.614 236.819 292.443 235.648 288.199 235.2C284.013 234.624 279.774 235.218 275.807 236.939C271.884 238.921 268.256 241.675 265.071 245.092C261.779 248.611 258.264 251.809 254.559 254.658C250.744 257.527 246.418 259.241 241.944 259.658C237.465 260.136 232.958 259.239 228.838 257.049C224.871 254.706 221.172 251.746 217.833 248.244C211.736 240.863 204.169 235.526 195.869 232.754C187.423 230.915 178.715 232.381 170.998 236.939C167.061 239.113 163.393 241.885 159.367 244.059C155.318 246.405 150.805 247.31 146.35 246.668C141.998 245.662 137.84 243.671 134.093 240.798C130.31 238.366 126.208 236.748 121.97 236.015C113.435 234.52 104.725 235.892 96.7857 239.983C88.7337 243.733 81.2633 249.277 73.256 253.462C69.2857 255.693 65.0379 257.108 60.6861 257.647C56.3039 257.984 51.9102 257.263 47.7582 255.528C39.3931 252.049 32.6832 244.929 25.3917 239.548C21.6756 236.819 17.6933 234.664 13.5374 233.135C9.34116 231.721 5.00893 230.99 0.654297 230.961ZM0.654297 230.961C5.00246 230.946 9.33357 231.622 13.5374 232.972C17.7156 234.473 21.7267 236.59 25.4812 239.277C32.9516 244.712 39.7063 251.56 47.8477 254.875C51.9325 256.551 56.2521 257.217 60.5519 256.832C64.8356 256.247 69.0086 254.796 72.8982 252.538C80.7712 248.299 88.1969 242.646 96.3383 238.733C104.456 234.525 113.366 233.097 122.105 234.602C126.481 235.309 130.721 236.947 134.63 239.44C138.257 242.12 142.261 243.963 146.439 244.875C150.666 245.465 154.945 244.599 158.786 242.375C162.677 240.255 166.39 237.429 170.372 235.2C178.359 230.453 187.382 228.911 196.138 230.798C204.664 233.597 212.457 239.005 218.773 246.505C221.993 249.924 225.592 252.778 229.464 254.984C233.329 257.043 237.564 257.866 241.766 257.375C245.983 256.961 250.06 255.341 253.665 252.647C257.274 249.819 260.699 246.657 263.908 243.19C267.301 239.663 271.137 236.819 275.271 234.765C279.564 232.887 284.156 232.236 288.691 232.863C293.103 233.275 297.443 234.465 301.574 236.396C305.734 238.244 309.581 240.635 313.607 242.429C321.654 245.881 330.431 245.881 338.478 242.429C346.665 239.331 354.448 234.439 362.947 231.559C367.222 230.059 371.65 229.308 376.099 229.33H389.116L387.998 230.689V229.33L389.116 230.689H376.099C371.65 230.711 367.222 229.961 362.947 228.461C354.448 225.526 346.665 220.634 338.478 217.59C330.439 214.085 321.646 214.085 313.607 217.59C309.581 219.33 305.734 221.721 301.574 223.569C297.443 225.5 293.103 226.69 288.691 227.102C284.16 227.774 279.563 227.141 275.271 225.254C271.184 223.149 267.406 220.248 264.087 216.667C260.866 213.216 257.443 210.055 253.843 207.209C250.239 204.516 246.162 202.895 241.944 202.481C237.744 202.016 233.514 202.838 229.643 204.872C225.789 207.118 222.195 209.969 218.952 213.351C212.65 220.887 204.853 226.316 196.317 229.113C187.561 231 178.538 229.458 170.55 224.71C166.524 222.482 162.856 219.656 158.92 217.536C155.102 215.284 150.835 214.398 146.618 214.982C142.419 215.956 138.412 217.893 134.809 220.689C130.9 223.181 126.66 224.819 122.284 225.526C113.541 227.04 104.625 225.592 96.5172 221.341C88.3758 217.427 80.9502 211.775 73.0771 207.536C69.1876 205.278 65.0145 203.826 60.7308 203.242C56.4316 202.884 52.1164 203.549 48.0266 205.198C39.7957 208.514 33.041 215.525 25.6601 220.852C21.9174 223.552 17.9028 225.653 13.7163 227.102C9.51877 228.496 5.18474 229.191 0.833199 229.167L0.654297 230.961Z" fill="white"/>
<g filter="url(#filter0_d_3706_104107)">
<ellipse cx="224.185" cy="235.871" rx="52.6907" ry="52.6908" fill="url(#paint0_linear_3706_104107)"/>
<path d="M224.185 184.68C252.456 184.68 275.376 207.598 275.376 235.87C275.376 264.142 252.456 287.062 224.185 287.062C195.913 287.061 172.994 264.142 172.994 235.87C172.994 207.598 195.913 184.68 224.185 184.68Z" stroke="white" stroke-width="3"/>
</g>
<path d="M215.408 222.697C215.408 220.6 216.241 218.59 217.723 217.108C219.205 215.626 221.216 214.793 223.312 214.793C225.408 214.793 227.418 215.626 228.901 217.108C230.383 218.59 231.215 220.6 231.215 222.697V235.869C231.215 237.966 230.383 239.976 228.901 241.458C227.418 242.94 225.408 243.773 223.312 243.773C221.216 243.773 219.205 242.94 217.723 241.458C216.241 239.976 215.408 237.966 215.408 235.869V222.697Z" fill="url(#paint1_linear_3706_104107)"/>
<path d="M211.452 231.918C211.801 231.918 212.136 232.057 212.383 232.304C212.631 232.551 212.769 232.886 212.769 233.235V235.87C212.769 238.665 213.88 241.345 215.856 243.321C217.832 245.298 220.513 246.408 223.307 246.408C226.102 246.408 228.783 245.298 230.759 243.321C232.735 241.345 233.846 238.665 233.846 235.87V233.235C233.846 232.886 233.984 232.551 234.231 232.304C234.478 232.057 234.814 231.918 235.163 231.918C235.512 231.918 235.847 232.057 236.094 232.304C236.341 232.551 236.48 232.886 236.48 233.235V235.87C236.48 239.135 235.267 242.285 233.077 244.706C230.886 247.128 227.874 248.65 224.625 248.977V254.312H232.528C232.878 254.312 233.213 254.45 233.46 254.697C233.707 254.945 233.846 255.28 233.846 255.629C233.846 255.978 233.707 256.313 233.46 256.56C233.213 256.807 232.878 256.946 232.528 256.946H214.087C213.737 256.946 213.402 256.807 213.155 256.56C212.908 256.313 212.769 255.978 212.769 255.629C212.769 255.28 212.908 254.945 213.155 254.697C213.402 254.45 213.737 254.312 214.087 254.312H221.99V248.977C218.741 248.65 215.729 247.128 213.538 244.706C211.348 242.285 210.135 239.135 210.135 235.87V233.235C210.135 232.886 210.274 232.551 210.521 232.304C210.768 232.057 211.103 231.918 211.452 231.918Z" fill="url(#paint2_linear_3706_104107)"/>
<defs>
<filter id="filter0_d_3706_104107" x="141.494" y="157.18" width="165.381" height="165.383" filterUnits="userSpaceOnUse" color-interpolation-filters="sRGB">
<feFlood flood-opacity="0" result="BackgroundImageFix"/>
<feColorMatrix in="SourceAlpha" type="matrix" values="0 0 0 0 0 0 0 0 0 0 0 0 0 0 0 0 0 0 127 0" result="hardAlpha"/>
<feOffset dy="4"/>
<feGaussianBlur stdDeviation="15"/>
<feComposite in2="hardAlpha" operator="out"/>
<feColorMatrix type="matrix" values="0 0 0 0 0 0 0 0 0 0 0 0 0 0 0 0 0 0 0.15 0"/>
<feBlend mode="normal" in2="BackgroundImageFix" result="effect1_dropShadow_3706_104107"/>
<feBlend mode="normal" in="SourceGraphic" in2="effect1_dropShadow_3706_104107" result="shape"/>
</filter>
<linearGradient id="paint0_linear_3706_104107" x1="185.545" y1="201.621" x2="270.728" y2="280.658" gradientUnits="userSpaceOnUse">
<stop stop-color="#E7E4FF"/>
<stop offset="1" stop-color="#D3E8FF"/>
</linearGradient>
<linearGradient id="paint1_linear_3706_104107" x1="217.384" y1="217.571" x2="237.927" y2="228.707" gradientUnits="userSpaceOnUse">
<stop stop-color="#2E6DCC"/>
<stop offset="1" stop-color="#4938CF"/>
</linearGradient>
<linearGradient id="paint2_linear_3706_104107" x1="213.428" y1="234.317" x2="234.58" y2="256.444" gradientUnits="userSpaceOnUse">
<stop stop-color="#2E6DCC"/>
<stop offset="1" stop-color="#4938CF"/>
</linearGradient>
</defs>
</svg>
