<svg width="350" height="361" viewBox="0 0 350 361" fill="none" xmlns="http://www.w3.org/2000/svg">
<path d="M42.8897 204.203C42.8897 204.203 49.6867 199.372 58.3947 216.188C67.1027 233.003 70.4767 242.743 70.4767 242.743C70.4767 242.743 72.7587 246.259 75.0897 243.884C77.4207 241.508 80.5357 234.844 84.5887 235.942C88.7887 237.09 90.2587 241.869 89.5937 248.938C88.9287 256.006 88.0258 271.601 87.9488 273.009C87.8718 274.417 88.6487 276.41 90.5177 275.06C92.3867 273.71 102.824 261.19 108.284 266.67C113.744 272.15 108.753 291.579 108.242 293.709C107.731 295.839 108.158 296.741 109.145 297.247C110.132 297.752 113.268 293.204 116.39 289.774C119.512 286.345 123.712 282.922 126.603 286.359C129.494 289.796 130.67 304.272 117.741 328.076L111.049 338.704L98.7217 338.242C72.3877 335.607 61.5377 326.343 60.4527 321.932C59.3677 317.521 64.4847 315.918 68.9997 315.232C73.5147 314.546 78.9257 314.51 79.0867 313.362C79.2477 312.214 78.7717 311.369 76.7837 310.582C74.7957 309.795 56.4837 302.936 55.2377 295.182C53.9917 287.428 69.9377 285.702 72.0377 284.922C74.1377 284.142 73.0177 282.301 71.8697 281.579C70.7217 280.857 57.7927 272.713 51.7727 269.226C45.7527 265.739 42.7847 261.775 44.2687 257.558C45.7037 253.501 52.7877 254.67 56.0077 254.042C59.2277 253.414 57.7297 249.486 57.7297 249.486C57.7297 249.486 51.9057 241.082 43.4917 224.101C35.0777 207.12 43.0087 204.087 43.0087 204.087" fill="#44B4C3"/>
<path d="M110.371 336.163C104.148 323.716 95.4051 306.561 85.6821 287.717C75.9591 268.873 67.1881 251.754 60.9021 239.343L53.4681 224.636L51.4451 220.636L50.9131 219.597C50.7871 219.366 50.7171 219.25 50.7171 219.25C50.7171 219.25 50.7661 219.38 50.8781 219.618C50.9901 219.856 51.1651 220.217 51.3751 220.672C51.8301 221.611 52.4951 222.961 53.3351 224.701C55.0431 228.203 57.5351 233.25 60.6641 239.466C66.8871 251.913 75.6301 269.032 85.3461 287.905C95.0621 306.778 103.847 323.882 110.133 336.279" fill="#E0E0E0"/>
<path d="M80.5859 245.479C80.4573 245.756 80.3587 246.047 80.2919 246.346C80.1239 246.909 79.9069 247.732 79.6409 248.75C79.1229 250.786 78.479 253.616 77.821 256.757C77.163 259.898 76.6029 262.649 76.1619 264.793C75.9589 265.76 75.7839 266.569 75.6439 267.226C75.5609 267.52 75.5092 267.823 75.4899 268.129C75.6233 267.853 75.7243 267.562 75.7909 267.262C75.9589 266.699 76.1759 265.876 76.4279 264.858C76.9249 262.815 77.5339 259.977 78.1919 256.837C78.8499 253.696 79.4519 250.952 79.9069 248.815C80.1169 247.848 80.2919 247.039 80.4319 246.382C80.5194 246.089 80.5711 245.786 80.5859 245.479Z" fill="#E0E0E0"/>
<path d="M74.3672 268.352C74.3672 268.251 68.7672 266.619 61.8582 264.742C54.9492 262.865 49.2582 261.371 49.2582 261.472C49.2582 261.573 54.8582 263.212 61.7672 265.118C68.6762 267.024 74.3392 268.461 74.3672 268.352Z" fill="#E0E0E0"/>
<path d="M90.5508 296.648C90.2509 296.61 89.9477 296.61 89.6478 296.648L87.1768 296.705C85.0768 296.749 82.2278 296.799 79.0498 296.705C75.8718 296.611 73.0088 296.496 70.9298 296.366L68.4728 296.214C68.1704 296.18 67.8652 296.18 67.5628 296.214C67.8542 296.305 68.1549 296.361 68.4588 296.38C69.0328 296.453 69.8588 296.554 70.9088 296.655C73.0088 296.85 75.8648 297.052 79.0428 297.11C82.2208 297.167 85.1118 297.073 87.1908 296.958C88.2338 296.893 89.0738 296.835 89.6548 296.777C89.9573 296.77 90.2579 296.726 90.5508 296.648Z" fill="#E0E0E0"/>
<path d="M100.598 277.248C100.413 277.468 100.256 277.71 100.129 277.97L98.9807 279.999C98.0217 281.724 96.7197 284.114 95.3057 286.771C93.8917 289.428 92.6317 291.825 91.7357 293.594C91.3227 294.417 90.9727 295.11 90.6927 295.681C90.5477 295.929 90.4348 296.196 90.3567 296.475C90.5352 296.252 90.6901 296.01 90.8187 295.753L91.9737 293.724C92.9257 292.006 94.2277 289.609 95.6417 286.959C97.0557 284.309 98.3157 281.905 99.2187 280.136C99.6247 279.313 99.9747 278.613 100.262 278.042C100.401 277.791 100.514 277.524 100.598 277.248Z" fill="#E0E0E0"/>
<path d="M117.965 300.352C117.742 300.641 117.546 300.95 117.377 301.276C116.992 301.954 116.488 302.821 115.893 303.868C114.654 306.07 112.967 309.124 111.119 312.532C109.271 315.94 107.619 318.994 106.45 321.196C105.89 322.264 105.428 323.16 105.05 323.845C104.866 324.164 104.711 324.5 104.588 324.849C104.81 324.56 105.007 324.25 105.176 323.925L106.681 321.29C107.92 319.124 109.607 316.041 111.455 312.626C113.303 309.211 114.955 306.171 116.124 303.962C116.684 302.893 117.146 301.998 117.524 301.305C117.699 301.001 117.846 300.682 117.965 300.352Z" fill="#E0E0E0"/>
<path d="M104.77 324.178C104.39 324.12 104.005 324.101 103.622 324.12L100.493 324.076C97.8535 324.033 94.1925 323.968 90.1815 323.773C86.1705 323.578 82.5165 323.318 79.8845 323.109L76.7695 322.856C76.3891 322.804 76.0046 322.789 75.6215 322.813C75.9917 322.908 76.3685 322.973 76.7485 323.008C77.4835 323.109 78.5475 323.246 79.8635 323.383C82.4885 323.665 86.1635 323.983 90.1675 324.163C94.1715 324.344 97.8675 324.387 100.493 324.351C101.816 324.351 102.88 324.307 103.622 324.271C104.006 324.274 104.39 324.243 104.77 324.178Z" fill="#E0E0E0"/>
<path d="M248.914 79.8658L328.092 119.169C329.318 119.778 329.834 121.297 329.244 122.562L276.096 236.465C275.506 237.73 274.033 238.262 272.807 237.653L193.629 198.35C192.402 197.741 191.887 196.222 192.477 194.957L245.625 81.0539C246.215 79.789 247.688 79.257 248.914 79.8658Z" fill="#003E7E"/>
<path d="M250.18 83.6117L324.465 120.486L273.007 230.769L198.722 193.894L250.18 83.6117Z" fill="#FAFAFA"/>
<path d="M271.44 96.2075C272.923 95.0227 274.698 94.2883 276.564 94.0871C278.43 93.8859 280.314 94.2257 282.003 95.0684L284.253 90.4066C284.648 89.5589 285.201 88.7999 285.88 88.1729C286.56 87.5459 287.352 87.0634 288.213 86.7528C289.073 86.4422 289.985 86.3098 290.895 86.363C291.805 86.4163 292.696 86.6542 293.517 87.0631C295.173 87.8875 296.443 89.3553 297.051 91.1446C297.659 92.9339 297.554 94.8988 296.759 96.6083L294.479 101.502L296.064 102.325C297.719 103.18 299.115 104.488 300.098 106.107C301.081 107.725 301.613 109.591 301.637 111.501V113.927L269.292 97.874L271.44 96.2075ZM288.701 96.9669C289.368 97.2987 290.116 97.4189 290.849 97.3124C291.582 97.2058 292.268 96.8773 292.821 96.3684C293.373 95.8594 293.766 95.193 293.951 94.4533C294.136 93.7137 294.104 92.9341 293.859 92.2133C293.614 91.4924 293.167 90.8627 292.575 90.4039C291.983 89.945 291.273 89.6776 290.533 89.6354C289.794 89.5933 289.059 89.7784 288.421 90.1673C287.784 90.5561 287.273 91.1312 286.952 91.8199C286.739 92.2761 286.614 92.7714 286.587 93.2772C286.559 93.7831 286.628 94.2897 286.791 94.7679C286.953 95.246 287.206 95.6864 287.533 96.0638C287.861 96.4412 288.258 96.7481 288.701 96.9669Z" fill="#407BFF"/>
<path d="M289.639 122.427C289.578 122.564 294.026 124.916 299.589 127.701C305.152 130.485 309.712 132.595 309.815 132.458C309.917 132.32 305.428 129.968 299.865 127.184C294.302 124.4 289.701 122.29 289.639 122.427Z" fill="#E0E0E0"/>
<path d="M298.43 131.109C299.924 132.153 301.513 133.043 303.175 133.767C304.758 134.655 306.423 135.38 308.145 135.929C306.648 134.891 305.059 134.001 303.4 133.272C301.816 132.383 300.152 131.659 298.43 131.109Z" fill="#E0E0E0"/>
<path d="M246.555 117.377C246.494 117.514 258.99 123.864 274.472 131.542C289.954 139.22 302.552 145.348 302.613 145.253C302.674 145.159 290.178 138.777 274.697 131.089C259.215 123.4 246.617 117.24 246.555 117.377Z" fill="#E0E0E0"/>
<path d="M243.989 122.85C243.917 122.987 256.423 129.326 271.895 137.015C287.367 144.703 299.975 150.821 300.047 150.726C300.118 150.631 287.612 144.25 272.13 136.561C256.648 128.872 244.05 122.755 243.989 122.85Z" fill="#E0E0E0"/>
<path d="M241.411 128.408C241.349 128.546 253.845 134.884 269.327 142.573C284.809 150.262 297.407 156.38 297.469 156.285C297.53 156.19 285.034 149.809 269.552 142.12C254.07 134.431 241.472 128.271 241.411 128.408Z" fill="#E0E0E0"/>
<path d="M238.833 133.925C238.771 134.062 251.267 140.401 266.749 148.079C282.231 155.758 294.829 161.886 294.89 161.791C294.952 161.696 282.466 155.315 266.974 147.626C251.482 139.937 238.904 133.788 238.833 133.925Z" fill="#E0E0E0"/>
<path d="M236.27 139.43C236.198 139.567 248.705 145.916 264.176 153.595C279.648 161.273 292.256 167.401 292.328 167.306C292.399 167.211 279.893 160.83 264.411 153.141C248.93 145.452 236.331 139.293 236.27 139.43Z" fill="#E0E0E0"/>
<path d="M233.692 145C233.631 145.137 246.126 151.476 261.608 159.165C277.09 166.854 289.688 172.971 289.75 172.877C289.811 172.782 277.315 166.401 261.833 158.712C246.351 151.023 233.753 144.81 233.692 145Z" fill="#E0E0E0"/>
<path d="M259.397 163.837C259.715 164.089 260.058 164.304 260.42 164.48L263.426 166.094C265.942 167.391 269.429 169.163 273.294 171.083C277.16 173.002 280.688 174.711 283.244 175.935L286.312 177.348C286.678 177.536 287.061 177.684 287.457 177.791C287.141 177.536 286.798 177.32 286.434 177.147L283.469 175.576C280.953 174.279 277.456 172.507 273.591 170.587C269.725 168.668 266.208 166.959 263.651 165.735L260.584 164.333C260.21 164.118 259.811 163.951 259.397 163.837Z" fill="#E0E0E0"/>
<path d="M250.502 102.41C251.886 103.408 253.371 104.249 254.93 104.92C256.393 105.744 257.935 106.408 259.531 106.903C258.161 105.92 256.694 105.089 255.155 104.425C253.679 103.581 252.119 102.906 250.502 102.41Z" fill="#E0E0E0"/>
<path d="M266.536 182.18C268.837 183.628 271.228 184.917 273.694 186.04C276.088 187.328 278.561 188.452 281.098 189.405C278.796 187.958 276.405 186.669 273.94 185.544C271.546 184.257 269.073 183.133 266.536 182.18Z" fill="#E0E0E0"/>
<path d="M263.711 186.936C266.053 188.405 268.485 189.715 270.992 190.859C273.422 192.17 275.933 193.315 278.508 194.287C276.166 192.817 273.734 191.507 271.227 190.363C268.792 189.063 266.282 187.919 263.711 186.936Z" fill="#E0E0E0"/>
<path d="M224.664 160.462C225.706 161.282 226.852 161.953 228.069 162.455C229.209 163.119 230.43 163.622 231.699 163.953C229.518 162.466 227.152 161.291 224.664 160.462Z" fill="#E0E0E0"/>
<path d="M222.314 164.85C223.359 165.666 224.504 166.336 225.719 166.843C226.862 167.509 228.086 168.013 229.359 168.341C228.317 167.52 227.172 166.85 225.954 166.347C224.814 165.676 223.589 165.172 222.314 164.85Z" fill="#E0E0E0"/>
<path d="M268.051 195.627C269.054 196.424 270.159 197.073 271.334 197.557C272.44 198.196 273.623 198.682 274.852 199.002C273.851 198.2 272.746 197.546 271.569 197.061C270.468 196.414 269.284 195.931 268.051 195.627Z" fill="#E0E0E0"/>
<path d="M219.621 169.985C221.157 171.15 222.892 172.005 224.734 172.506C223.199 171.342 221.464 170.487 219.621 169.985Z" fill="#E0E0E0"/>
<path d="M269.762 211.035C269.762 211.035 269.67 210.951 269.475 210.813L268.616 210.223L265.313 208.029L253.441 200.351L253.206 200.192L253.104 200.456C252.546 201.946 252.503 203.588 252.981 205.107C253.229 205.957 253.666 206.735 254.259 207.378C254.851 208.021 255.582 208.512 256.392 208.81C257.201 209.109 258.068 209.207 258.921 209.097C259.775 208.987 260.591 208.672 261.305 208.177C262.045 207.586 262.599 206.784 262.9 205.871C263.2 204.957 263.232 203.973 262.992 203.04C262.817 202.32 262.465 201.659 261.97 201.121C261.853 200.981 261.723 200.854 261.581 200.741C261.443 200.611 261.288 200.501 261.121 200.414C261.011 200.352 260.888 200.32 260.763 200.32C260.638 200.32 260.515 200.352 260.405 200.414C260.231 200.534 260.092 200.702 260.006 200.899C259.385 202.104 259.035 203.438 258.984 204.801C258.911 206.113 259.11 207.425 259.567 208.651C259.961 209.875 260.733 210.931 261.765 211.657C262.29 211.98 262.892 212.144 263.504 212.131C264.115 212.118 264.71 211.928 265.221 211.583C266.177 210.968 266.899 210.034 267.267 208.936C267.739 206.979 267.739 204.933 267.267 202.977L267.205 202.576L266.939 202.882C265.855 204.156 265.177 205.743 264.996 207.428C264.846 208.686 264.961 209.964 265.334 211.172C265.571 211.924 265.916 212.635 266.357 213.281C266.473 213.448 266.599 213.606 266.735 213.756C266.827 213.862 266.868 213.914 266.878 213.904C266.283 213.05 265.827 212.103 265.528 211.098C265.197 209.917 265.113 208.677 265.283 207.459C265.485 205.851 266.155 204.343 267.205 203.135L266.888 203.03C267.338 204.918 267.338 206.89 266.888 208.778C266.545 209.765 265.884 210.603 265.017 211.151C264.581 211.449 264.071 211.614 263.548 211.625C263.025 211.636 262.509 211.494 262.062 211.214C261.128 210.539 260.432 209.569 260.078 208.451C259.652 207.27 259.472 206.01 259.549 204.752C259.627 203.495 259.96 202.268 260.528 201.152C260.579 201.055 260.649 200.969 260.732 200.899C260.767 200.879 260.805 200.868 260.845 200.868C260.884 200.868 260.923 200.879 260.957 200.899C261.209 201.048 261.434 201.241 261.622 201.469C262.039 201.945 262.335 202.521 262.481 203.146C262.693 203.973 262.665 204.846 262.401 205.658C262.138 206.469 261.65 207.183 260.998 207.713C260.35 208.161 259.609 208.446 258.835 208.546C258.06 208.645 257.274 208.556 256.539 208.285C255.804 208.015 255.141 207.57 254.603 206.987C254.065 206.404 253.667 205.699 253.441 204.928C252.994 203.521 253.026 201.999 253.533 200.614L253.196 200.73L265.17 208.282L268.545 210.392L269.445 210.929C269.545 210.979 269.652 211.015 269.762 211.035Z" fill="#E0E0E0"/>
<path d="M216.664 184.445C216.673 184.782 216.729 185.116 216.828 185.437C216.931 185.831 217.09 186.208 217.298 186.555C217.592 187.038 218.046 187.395 218.576 187.557C218.907 187.678 219.268 187.678 219.599 187.557C219.936 187.411 220.229 187.174 220.448 186.871C220.867 186.227 221.249 185.558 221.593 184.867C222.36 183.412 223.219 181.809 224.129 180.079L223.669 179.973C223.751 182.389 223.843 185.026 223.935 187.789C223.935 188.453 223.986 189.097 224.006 189.74V190.795L224.466 189.814C225.867 186.85 227.166 184.076 228.311 181.661H227.882C228.526 184.066 228.853 186.549 228.853 189.044C228.853 190.848 228.741 191.871 228.853 191.881C228.928 191.641 228.976 191.394 228.996 191.143C229.089 190.443 229.147 189.739 229.17 189.033C229.261 186.514 228.992 183.994 228.373 181.556L228.219 180.944L227.953 181.513C226.788 183.918 225.469 186.671 224.047 189.624L224.548 189.73C224.548 189.086 224.497 188.443 224.477 187.778C224.364 185.015 224.262 182.378 224.17 179.963V179.014L223.74 179.847C222.84 181.587 222.012 183.211 221.266 184.667C220.959 185.35 220.618 186.015 220.243 186.66C220.092 186.914 219.868 187.112 219.602 187.228C219.336 187.343 219.042 187.37 218.76 187.304C218.353 187.157 217.987 186.909 217.694 186.581C217.402 186.254 217.192 185.857 217.083 185.426C216.965 185.09 216.825 184.762 216.664 184.445Z" fill="#E0E0E0"/>
<path d="M216.755 180.491C216.663 180.617 220.845 183.729 226.173 187.441C231.5 191.154 235.815 194.054 235.897 193.928C235.979 193.801 231.807 190.69 226.479 186.988C221.152 183.286 216.857 180.375 216.755 180.491Z" fill="#E0E0E0"/>
<path d="M211.585 181.419C213.772 183.711 216.079 185.876 218.497 187.905C220.805 190.069 223.229 192.098 225.758 193.981C223.574 191.686 221.266 189.52 218.845 187.494C216.542 185.324 214.118 183.296 211.585 181.419Z" fill="#E0E0E0"/>
<path d="M274.945 330.784C259.174 322.538 253.28 303.817 251.481 286.475C251.18 283.587 250.459 280.59 251.439 277.868C252.419 275.146 255.282 272.966 257.949 273.818C260.161 274.54 261.407 276.879 262.849 278.764C264.775 281.281 267.352 283.186 270.283 284.258C272.194 284.98 274.483 285.211 276.093 283.955C278.312 282.236 278.123 278.764 277.717 275.897C276.947 270.54 276.182 265.214 275.421 259.919C275.008 257.031 274.595 254.143 275.092 251.291C275.589 248.44 277.143 245.638 279.677 244.49C282.211 243.342 285.697 244.432 286.642 247.162C287.034 248.295 286.971 249.537 287.209 250.714C287.447 251.891 288.168 253.133 289.309 253.299C290.45 253.465 291.465 252.497 292.179 251.544C294.65 248.23 296.085 244.216 297.394 240.245C298.703 236.274 299.949 232.223 302.112 228.693C304.275 225.162 307.537 222.101 311.499 221.285C315.461 220.469 320.032 222.383 321.586 226.267C323.14 230.151 321.432 234.592 319.395 238.223C316.363 243.614 312.591 248.524 308.195 252.8C307.411 253.566 306.557 254.403 306.368 255.508C306.025 257.508 308.041 259.118 309.959 259.508C312.122 259.919 314.341 259.371 316.539 259.313C318.737 259.255 321.222 259.905 322.335 261.898C323.875 264.656 321.922 268.078 319.864 270.424C315.739 275.133 310.862 279.077 305.444 282.085C303.505 283.153 301.447 284.142 300.005 285.861C298.563 287.579 297.905 290.308 299.186 292.178C300.467 294.048 303.106 294.344 305.192 293.622C307.278 292.9 309.028 291.456 310.953 290.33C314.572 288.287 319.535 287.839 322.447 290.886C324.365 292.886 324.932 295.983 324.484 298.763C324.036 301.543 322.706 304.091 321.243 306.459C316.147 314.762 309.133 321.86 300.712 326.322C292.291 330.784 284.206 332.82 274.945 330.805" fill="#4088F4"/>
<path d="M276.275 339.686C275.939 332.762 276.499 328.401 277.78 319.333C279.269 309.525 281.3 299.813 283.863 290.243C284.535 287.702 285.193 285.189 285.837 282.706C286.495 280.237 287.139 277.782 287.937 275.428C289.442 270.903 291.186 266.466 293.159 262.136C295.021 257.992 296.932 254.136 298.759 250.533C300.586 246.931 302.343 243.624 304.065 240.671C306.769 235.996 309.829 231.549 313.214 227.372C314.404 225.892 315.37 224.78 316.014 224.036L316.77 223.191C316.852 223.091 316.944 222.999 317.043 222.917C316.976 223.028 316.898 223.132 316.812 223.227L316.112 224.108C315.475 224.874 314.537 226.014 313.368 227.509C310.053 231.724 307.049 236.188 304.38 240.866C302.679 243.826 300.943 247.147 299.144 250.743C297.345 254.338 295.455 258.208 293.614 262.353C291.639 266.666 289.898 271.089 288.399 275.601C287.629 277.948 286.999 280.381 286.299 282.821C285.599 285.262 284.997 287.818 284.332 290.359C281.767 299.905 279.724 309.593 278.214 319.376C276.912 328.408 276.317 332.733 276.604 339.636" fill="#E0E0E0"/>
<path d="M288.062 275.392C287.875 275.015 287.727 274.618 287.622 274.208C287.37 273.436 287.034 272.309 286.642 270.909C285.858 268.115 284.906 264.216 283.842 259.92C282.778 255.624 281.798 251.74 280.972 248.967C280.566 247.574 280.223 246.455 279.978 245.682C279.823 245.29 279.712 244.88 279.649 244.462C279.863 244.823 280.037 245.208 280.167 245.61C280.468 246.332 280.867 247.473 281.315 248.852C282.232 251.603 283.303 255.48 284.339 259.783L286.999 270.815C287.321 272.136 287.594 273.255 287.818 274.151C287.943 274.554 288.025 274.97 288.062 275.392Z" fill="#E0E0E0"/>
<path d="M322.832 263.292C322.376 263.459 321.908 263.587 321.432 263.675C320.522 263.891 319.213 264.202 317.603 264.635C314.383 265.472 309.973 266.801 305.171 268.483C300.369 270.165 296.071 271.891 293.026 273.227C291.486 273.884 290.226 274.447 289.407 274.837C288.976 275.063 288.526 275.249 288.063 275.393C288.461 275.113 288.883 274.871 289.323 274.671C290.149 274.23 291.36 273.609 292.879 272.902C295.917 271.458 300.194 269.696 305.01 267.999C309.113 266.525 313.289 265.275 317.519 264.252C319.143 263.862 320.473 263.61 321.39 263.451C321.865 263.353 322.348 263.3 322.832 263.292Z" fill="#E0E0E0"/>
<path d="M278.133 318.597C278.133 318.597 278.014 318.46 277.825 318.178L277.027 316.937C276.327 315.854 275.396 314.258 274.227 312.28C271.924 308.309 268.907 302.728 265.666 296.518C262.425 290.309 259.457 284.699 257.266 280.685L254.627 275.941L253.927 274.649C253.836 274.502 253.764 274.345 253.71 274.18C253.71 274.18 253.829 274.31 254.018 274.591L254.802 275.804C255.502 276.887 256.44 278.483 257.602 280.468C259.905 284.432 262.922 290.02 266.163 296.23C269.404 302.439 272.365 308.041 274.563 312.056C275.655 314.005 276.544 315.608 277.209 316.799C277.489 317.319 277.727 317.745 277.909 318.092C278.006 318.249 278.081 318.419 278.133 318.597Z" fill="#E0E0E0"/>
<path d="M323.398 295.883C323.264 295.998 323.113 296.091 322.95 296.157L321.641 296.836L316.79 299.276C312.695 301.334 307.074 304.251 300.865 307.478C294.656 310.705 288.965 313.579 284.863 315.55C282.763 316.539 281.118 317.319 279.963 317.839L278.598 318.402C278.445 318.481 278.283 318.539 278.115 318.575C278.25 318.464 278.398 318.371 278.556 318.301L279.872 317.629L284.716 315.182C288.811 313.124 294.432 310.207 300.641 306.98C306.85 303.753 312.52 300.908 316.657 298.908C318.757 297.919 320.402 297.139 321.557 296.619L322.908 296.034C323.065 295.962 323.229 295.911 323.398 295.883Z" fill="#E0E0E0"/>
<path d="M23.0308 339.217C23.0308 339.318 90.5528 339.405 173.825 339.405C257.097 339.405 324.633 339.34 324.633 339.217C324.633 339.094 257.125 339.029 173.825 339.029C90.5248 339.029 23.0308 339.116 23.0308 339.217Z" fill="#263238"/>
<path d="M214.447 246.52C214.447 246.52 234.355 260.469 235.447 293.031C235.811 303.955 230.61 338.734 230.61 338.734L114.179 339.217L135.956 246L172.587 237.336L214.447 246.52Z" fill="white"/>
<path d="M169.966 270.692L185.828 338.943L146.18 339.217L169.966 270.692Z" fill="#263238"/>
<path d="M170.568 255.913C170.443 256.65 170.373 257.396 170.358 258.144C170.267 259.646 170.155 261.494 170.029 263.545C169.903 265.595 169.833 267.566 169.805 268.945C169.758 269.694 169.774 270.445 169.854 271.191C169.979 270.454 170.05 269.708 170.064 268.96C170.155 267.465 170.267 265.61 170.393 263.566C170.519 261.523 170.589 259.545 170.61 258.158C170.662 257.41 170.648 256.659 170.568 255.913Z" fill="#263238"/>
<path d="M163.387 263.437C163.387 263.473 163.646 263.53 164.087 263.783C164.665 264.141 165.126 264.669 165.41 265.299C165.63 265.752 165.733 266.256 165.708 266.762C165.684 267.268 165.533 267.759 165.27 268.187C164.969 268.724 164.518 269.153 163.976 269.419C163.433 269.686 162.825 269.776 162.232 269.678C161.639 269.58 161.089 269.299 160.654 268.872C160.219 268.444 159.92 267.891 159.796 267.285C159.672 266.8 159.672 266.29 159.794 265.804C159.917 265.319 160.159 264.874 160.496 264.512C160.956 264.003 161.553 263.648 162.211 263.494C162.673 263.386 162.911 263.415 162.953 263.379C162.995 263.343 162.883 263.379 162.757 263.335C162.567 263.307 162.373 263.307 162.183 263.335C161.474 263.442 160.818 263.784 160.314 264.31C159.959 264.672 159.686 265.111 159.516 265.595C159.328 266.163 159.302 266.774 159.439 267.357C159.575 268.033 159.908 268.65 160.392 269.126C160.876 269.603 161.49 269.916 162.151 270.024C162.812 270.132 163.489 270.03 164.092 269.732C164.696 269.433 165.197 268.953 165.529 268.353C165.834 267.844 165.992 267.255 165.984 266.657C165.964 266.153 165.837 265.66 165.613 265.213C165.292 264.55 164.772 264.013 164.129 263.682C163.959 263.591 163.778 263.525 163.59 263.487C163.457 263.429 163.394 263.422 163.387 263.437Z" fill="#263238"/>
<path d="M150.697 300.699C150.697 300.699 150.956 300.8 151.397 301.046C151.973 301.404 152.431 301.933 152.713 302.562C152.933 303.015 153.036 303.519 153.012 304.025C152.987 304.531 152.836 305.022 152.573 305.45C152.273 305.987 151.821 306.416 151.279 306.682C150.736 306.948 150.128 307.039 149.535 306.941C148.942 306.843 148.392 306.562 147.957 306.135C147.522 305.707 147.223 305.154 147.099 304.548C146.976 304.062 146.976 303.553 147.099 303.067C147.221 302.582 147.462 302.137 147.799 301.775C148.257 301.267 148.852 300.912 149.507 300.757C149.976 300.649 150.249 300.678 150.249 300.642C150.188 300.613 150.121 300.599 150.053 300.598C149.865 300.574 149.675 300.574 149.486 300.598C148.774 300.707 148.116 301.051 147.61 301.58C147.256 301.938 146.985 302.376 146.819 302.858C146.625 303.424 146.598 304.038 146.742 304.62C146.873 305.299 147.203 305.92 147.686 306.4C148.17 306.88 148.785 307.195 149.447 307.303C150.11 307.412 150.789 307.309 151.393 307.007C151.997 306.705 152.497 306.22 152.825 305.616C153.137 305.11 153.295 304.519 153.28 303.92C153.263 303.416 153.136 302.922 152.909 302.476C152.589 301.813 152.068 301.276 151.425 300.945C151.255 300.856 151.074 300.79 150.886 300.75C150.826 300.724 150.762 300.707 150.697 300.699Z" fill="#263238"/>
<path d="M191.865 273.639C191.938 273.753 192.023 273.86 192.117 273.956C192.285 274.159 192.537 274.455 192.88 274.823C193.862 275.856 194.91 276.821 196.016 277.711C199.701 280.624 203.951 282.685 208.476 283.754C210.961 284.369 213.523 284.583 216.071 284.389C218.173 284.232 220.192 283.483 221.909 282.223C223.056 281.359 223.977 280.216 224.59 278.895C224.744 278.535 224.871 278.163 224.968 277.783C225.008 277.652 225.029 277.516 225.031 277.379C224.996 277.379 224.891 277.927 224.457 278.823C223.814 280.086 222.888 281.173 221.755 281.992C220.064 283.192 218.091 283.902 216.043 284.05C213.528 284.214 211.004 283.991 208.553 283.386C204.075 282.327 199.858 280.321 196.17 277.494C195.059 276.634 193.996 275.711 192.985 274.729L192.166 273.913C191.977 273.718 191.879 273.639 191.865 273.639Z" fill="#263238"/>
<path d="M191.865 280.396C191.938 280.511 192.023 280.618 192.117 280.714C192.285 280.916 192.537 281.22 192.88 281.588C197.138 286.047 202.553 289.144 208.476 290.504C210.961 291.122 213.523 291.338 216.071 291.147C218.172 290.987 220.191 290.238 221.909 288.981C223.057 288.121 223.978 286.98 224.59 285.66C224.746 285.298 224.872 284.924 224.968 284.541C225.008 284.41 225.03 284.274 225.031 284.136C224.996 284.136 224.891 284.685 224.457 285.58C223.815 286.846 222.888 287.935 221.755 288.757C220.063 289.954 218.091 290.662 216.043 290.808C213.528 290.976 211.003 290.752 208.553 290.143C204.076 289.084 199.86 287.08 196.17 284.259C195.059 283.397 193.996 282.472 192.985 281.487L192.166 280.671C192.077 280.568 191.976 280.475 191.865 280.396Z" fill="#263238"/>
<path d="M190.835 278.354C190.809 278.448 190.793 278.545 190.786 278.642C190.786 278.852 190.737 279.14 190.695 279.501C190.611 280.281 190.492 281.393 190.345 282.815C190.051 285.703 189.491 289.841 189.239 295.017C189.095 297.841 189.153 300.672 189.414 303.486C189.7 306.729 190.407 309.917 191.514 312.966C192.734 316.357 194.668 319.427 197.177 321.955C198.508 323.285 200.005 324.426 201.629 325.348C203.308 326.292 205.123 326.953 207.005 327.305C210.757 327.934 214.605 327.199 217.89 325.226C220.953 323.435 223.535 320.884 225.401 317.804C227.046 315.02 228.229 311.972 228.901 308.786C229.499 306.016 229.822 303.19 229.867 300.353C229.881 296.263 229.601 292.177 229.027 288.129C228.824 286.685 228.67 285.602 228.565 284.83C228.509 284.469 228.46 284.187 228.432 283.971C228.419 283.873 228.398 283.776 228.369 283.682C228.359 283.78 228.359 283.879 228.369 283.978C228.369 284.195 228.425 284.476 228.467 284.837C228.558 285.617 228.691 286.729 228.866 288.144C229.377 292.189 229.611 296.266 229.566 300.346C229.507 303.157 229.174 305.956 228.572 308.699C227.889 311.843 226.706 314.849 225.072 317.594C223.243 320.625 220.709 323.137 217.701 324.901C214.487 326.83 210.723 327.548 207.054 326.93C205.21 326.591 203.432 325.944 201.79 325.016C200.192 324.112 198.719 322.993 197.408 321.688C194.931 319.202 193.019 316.182 191.808 312.843C190.707 309.825 190.001 306.668 189.708 303.457C189.434 300.658 189.362 297.842 189.491 295.032C189.708 289.869 190.191 285.711 190.478 282.83C190.618 281.386 190.709 280.267 190.765 279.509C190.765 279.148 190.807 278.859 190.821 278.642C190.835 278.426 190.835 278.354 190.835 278.354Z" fill="#263238"/>
<g opacity="0.2">
<path d="M227.264 314.113C226.004 318.517 225.465 319.658 223.106 323.174C220.928 326.507 217.74 329 214.041 330.264C211.397 331.206 208.563 331.435 205.809 330.929C203.055 330.424 200.472 329.201 198.305 327.376C194.028 323.687 192.516 317.99 191.774 314.128C193.636 316.712 195.617 320.387 197.962 322.517C200.307 324.647 203.408 326.51 206.502 327.066C210.702 327.788 215.707 326.488 219.298 324.135C222.889 321.781 225.059 317.564 227.285 314.121" fill="black"/>
</g>
<g opacity="0.2">
<path d="M224.266 286.107C223.467 287.943 222.248 289.552 220.712 290.793C219.177 292.035 217.372 292.872 215.453 293.234C211.666 293.956 206.759 292.721 204.393 289.053C212.723 292.071 221.004 292.143 224.266 286.107Z" fill="black"/>
</g>
<path d="M155.814 275.458C155.992 275.489 156.174 275.489 156.353 275.458C156.827 275.39 157.295 275.284 157.753 275.14C160.872 274.185 163.548 272.091 165.278 269.248C165.542 268.823 165.776 268.379 165.978 267.92C166.111 267.588 166.174 267.407 166.146 267.393C166.118 267.378 165.768 268.071 165.082 269.104C164.179 270.435 163.083 271.616 161.834 272.606C160.575 273.583 159.177 274.352 157.69 274.887C156.549 275.255 155.807 275.393 155.814 275.458Z" fill="#263238"/>
<g opacity="0.2">
<path d="M165.5 267.862C164.639 270.88 161.391 273.696 158.5 274.685C157.935 274.903 157.331 274.994 156.729 274.952C156.428 274.931 156.135 274.842 155.872 274.691C155.608 274.54 155.38 274.331 155.203 274.079C154.594 273.118 155.119 271.754 156.015 271.075C156.968 270.476 158.031 270.085 159.137 269.927C161.37 269.393 163.386 270.555 165.234 268.62" fill="black"/>
</g>
<g opacity="0.2">
<path d="M227.41 262.274C222.188 266.981 214.81 267.184 208.167 265.162C201.524 263.14 195.735 259.335 190.093 255.177C196.246 256.44 201.496 259.335 207.705 260.281C213.634 261.184 219.801 261.278 225.632 259.234" fill="black"/>
</g>
<path d="M127.268 334.59C127.307 334.625 127.352 334.652 127.401 334.669C127.535 334.743 127.673 334.808 127.814 334.864C128.358 335.091 128.931 335.237 129.515 335.297C131.68 335.482 133.841 334.885 135.626 333.608C137.95 332.085 140.064 329.521 142.325 326.677C144.751 323.555 146.93 320.237 148.842 316.756C152.312 310.424 154.969 303.652 156.745 296.613C157.445 293.912 157.851 291.703 158.11 290.165C158.222 289.443 158.313 288.83 158.383 288.396C158.418 288.191 158.441 287.984 158.453 287.775C158.386 287.972 158.336 288.175 158.306 288.382L157.97 290.136C157.669 291.66 157.2 293.862 156.5 296.54C154.656 303.531 151.978 310.258 148.527 316.569C146.621 320.033 144.459 323.34 142.059 326.46C139.826 329.305 137.74 331.868 135.486 333.384C133.745 334.659 131.633 335.283 129.501 335.153C128.735 335.071 127.984 334.881 127.268 334.59Z" fill="#263238"/>
<g opacity="0.2">
<path d="M152.441 307.948C152.441 307.948 142.109 321.349 134.57 324.634C132.015 325.753 129.201 326.662 127.458 328.886C127.023 329.395 126.7 329.996 126.513 330.647C126.325 331.298 126.278 331.983 126.373 332.655C126.402 332.814 126.449 332.969 126.513 333.117C127.598 335.969 132.813 335.572 135.2 333.767C136.243 332.98 135.627 333.485 136.467 332.836C138.882 330.958 151.811 315.515 152.441 307.948Z" fill="black"/>
</g>
<path d="M198.053 127.086L191.459 125.736L158.846 126.133L142.277 129.888L135.956 225.322L209.211 228.852L198.053 127.086Z" fill="#59784F"/>
<path d="M150.612 220.933L149.051 177.526L151.648 127.195C141.344 129.932 127.253 132.971 119.448 142.148C114.387 148.104 109.424 155.722 107.548 167.988C105.392 182.428 102.55 210.045 100.772 225.496" fill="white"/>
<path d="M140.253 213.813L190.898 222.297L192.69 190.038L195.49 126.264C210.19 126.885 226.92 139.411 231.939 149.173C235.439 155.945 238.372 163.815 239.289 171.432C241.046 185.872 244.021 210.615 245.799 226.073C246.336 230.771 245.853 235.533 244.383 240.014C242.913 244.495 240.494 248.582 237.301 251.978C229.951 259.798 218.443 262.505 208.097 260.296L130.985 237.914L140.253 213.813Z" fill="white"/>
<path d="M145.6 213.236C145.596 213.174 145.584 213.114 145.565 213.055C145.523 212.925 145.474 212.752 145.418 212.535C145.271 212.052 145.075 211.38 144.816 210.521C144.27 208.745 143.493 206.189 142.527 203.027L134.582 177.439L134.477 177.663L142.688 174.161L143.01 174.024L142.723 173.829L140.826 172.544L134.631 168.371L134.701 168.573C137.851 157.295 140.623 147.346 142.618 140.191C143.591 136.639 144.375 133.78 144.928 131.787C145.18 130.812 145.383 130.054 145.53 129.513C145.59 129.277 145.639 129.082 145.677 128.928C145.7 128.863 145.714 128.795 145.719 128.726C145.719 128.726 145.719 128.783 145.649 128.913L145.467 129.498C145.306 130.032 145.082 130.783 144.802 131.751L142.387 140.119L134.358 168.472L134.323 168.602L134.435 168.681L140.623 172.861L142.52 174.139V173.807L134.316 177.323L134.162 177.388L134.211 177.547C137.445 187.792 140.266 196.709 142.282 203.099C143.297 206.261 144.102 208.795 144.669 210.557C144.949 211.409 145.173 212.08 145.327 212.557C145.397 212.766 145.46 212.932 145.502 213.07C145.528 213.129 145.561 213.184 145.6 213.236Z" fill="#263238"/>
<g opacity="0.2">
<path d="M134.399 168.631C134.813 170.197 135.707 171.582 136.947 172.58C137.913 173.151 137.36 173.909 136.562 174.703C135.603 175.656 134.063 175.916 133.356 177.071C132.649 178.226 133.048 179.548 133.412 180.76C136.919 192.268 141.175 203.519 146.152 214.435L134.399 177.49L142.596 174.003L134.399 168.631Z" fill="black"/>
</g>
<path d="M195.111 214.131C195.146 214.085 195.174 214.034 195.195 213.979C195.244 213.864 195.314 213.72 195.391 213.532L196.147 211.77C196.805 210.211 197.743 207.965 198.947 205.164L208.39 182.334L208.446 182.204L208.327 182.118L201.852 177.338V177.612L206.143 174.103L208.047 172.558L208.992 171.836L209.223 171.641C209.272 171.606 209.316 171.565 209.356 171.519C209.401 171.458 209.435 171.39 209.454 171.316C209.506 171.102 209.532 170.881 209.531 170.659C209.488 169.044 209.343 167.433 209.097 165.837C208.67 162.71 208.166 159.707 207.697 156.848C206.703 151.137 205.716 146.018 204.897 141.686C204.078 137.354 203.343 133.91 202.846 131.513C202.594 130.329 202.391 129.404 202.251 128.747L202.09 128.025C202.078 127.943 202.055 127.863 202.02 127.787C202.024 127.872 202.036 127.957 202.055 128.04C202.055 128.22 202.132 128.459 202.181 128.762C202.307 129.421 202.482 130.345 202.706 131.534C203.168 133.96 203.826 137.44 204.638 141.729C205.45 146.018 206.402 151.165 207.382 156.891C207.865 159.743 208.362 162.746 208.782 165.865C209.024 167.443 209.166 169.034 209.209 170.631C209.211 170.816 209.19 171 209.146 171.179C209.146 171.266 208.943 171.396 208.796 171.526L207.858 172.291L205.961 173.843L201.677 177.345L201.488 177.504L201.684 177.648L208.166 182.414L208.11 182.19L198.723 205.048C197.582 207.871 196.672 210.102 196.042 211.698C195.741 212.456 195.503 213.048 195.342 213.481L195.174 213.943C195.148 214.004 195.127 214.067 195.111 214.131Z" fill="#263238"/>
<path d="M133.879 182.806L184.907 174.686C185.828 174.54 186.689 175.191 186.831 176.141L197.837 249.723C197.979 250.672 197.348 251.561 196.427 251.708L145.399 259.827C144.478 259.974 143.616 259.323 143.474 258.373L132.469 184.791C132.326 183.841 132.958 182.952 133.879 182.806Z" fill="white"/>
<g opacity="0.2">
<path d="M133.879 182.806L184.907 174.686C185.828 174.54 186.689 175.191 186.831 176.141L197.837 249.723C197.979 250.672 197.348 251.561 196.427 251.708L145.399 259.827C144.478 259.974 143.616 259.323 143.474 258.373L132.469 184.791C132.326 183.841 132.958 182.952 133.879 182.806Z" fill="black"/>
</g>
<path d="M135.489 184.226L183.785 176.541L194.509 248.239L146.214 255.924L135.489 184.226Z" fill="#EBEBEB"/>
<path d="M149.998 183.049C150.341 181.958 150.97 180.987 151.817 180.243C152.664 179.5 153.694 179.014 154.793 178.84L154.387 175.771C154.222 174.66 154.491 173.526 155.136 172.619C155.78 171.713 156.747 171.106 157.824 170.934C158.903 170.762 160.003 171.038 160.884 171.703C161.765 172.368 162.354 173.366 162.521 174.479L162.997 177.656L164.033 177.511C165.12 177.355 166.227 177.512 167.234 177.962C168.24 178.413 169.107 179.142 169.738 180.067L170.543 181.222L149.543 184.572L149.998 183.049ZM158.678 177.446C159.111 177.378 159.514 177.179 159.837 176.874C160.16 176.57 160.388 176.173 160.492 175.734C160.596 175.296 160.572 174.836 160.423 174.411C160.273 173.987 160.005 173.618 159.652 173.351C159.299 173.084 158.877 172.931 158.44 172.911C158.003 172.892 157.57 173.007 157.196 173.241C156.821 173.475 156.523 173.819 156.338 174.228C156.154 174.637 156.091 175.094 156.158 175.54C156.249 176.136 156.565 176.671 157.037 177.028C157.509 177.385 158.099 177.536 158.678 177.446Z" fill="#263238"/>
<path d="M167.419 189.562C169.626 189.404 171.822 189.12 173.999 188.71C176.191 188.421 178.366 188.012 180.516 187.482C178.311 187.64 176.117 187.925 173.943 188.334C171.748 188.622 169.57 189.032 167.419 189.562Z" fill="#263238"/>
<path d="M174.545 190.76C175.615 190.784 176.685 190.677 177.73 190.442C178.795 190.336 179.845 190.106 180.859 189.756C179.79 189.741 178.721 189.847 177.674 190.074C176.61 190.18 175.56 190.41 174.545 190.76Z" fill="#263238"/>
<path d="M144.735 202.009C144.735 202.11 152.925 200.89 162.984 199.294C173.043 197.699 181.184 196.305 181.184 196.204C181.184 196.103 173.001 197.316 162.935 198.919C152.869 200.522 144.721 201.901 144.735 202.009Z" fill="#263238"/>
<path d="M145.274 205.59C145.274 205.691 153.457 204.478 163.523 202.875C173.589 201.272 181.723 199.893 181.723 199.792C181.723 199.691 173.54 200.904 163.474 202.507C153.408 204.11 145.26 205.489 145.274 205.59Z" fill="#263238"/>
<path d="M145.805 209.178C145.805 209.279 153.995 208.059 164.054 206.463C174.113 204.868 182.254 203.474 182.254 203.373C182.254 203.272 174.064 204.485 163.998 206.088C153.932 207.691 145.791 209.07 145.805 209.178Z" fill="#263238"/>
<path d="M146.344 212.76C146.344 212.861 154.527 211.648 164.593 210.045C174.659 208.442 182.793 207.063 182.793 206.955C182.793 206.847 174.61 208.074 164.544 209.677C154.478 211.28 146.302 212.659 146.344 212.76Z" fill="#263238"/>
<path d="M146.883 216.341C146.883 216.449 155.066 215.229 165.132 213.626C175.198 212.023 183.332 210.644 183.332 210.543C183.332 210.442 175.149 211.655 165.083 213.258C155.017 214.861 146.862 216.24 146.883 216.341Z" fill="#263238"/>
<path d="M147.414 219.929C147.414 220.03 155.604 218.817 165.663 217.214C175.722 215.611 183.863 214.232 183.863 214.124C183.863 214.016 175.68 215.236 165.614 216.839C155.548 218.441 147.4 219.828 147.414 219.929Z" fill="#263238"/>
<path d="M166.119 220.261C166.354 220.273 166.588 220.258 166.819 220.217C167.288 220.167 167.953 220.08 168.779 219.965C170.438 219.734 172.72 219.394 175.233 218.997C177.746 218.6 180.022 218.21 181.667 217.914C182.493 217.77 183.15 217.64 183.612 217.546C183.853 217.517 184.089 217.453 184.312 217.358C184.078 217.342 183.843 217.356 183.612 217.402C183.143 217.452 182.478 217.539 181.652 217.654C179.993 217.878 177.711 218.225 175.198 218.622C172.685 219.019 170.41 219.409 168.765 219.705C167.939 219.849 167.281 219.979 166.819 220.073C166.579 220.102 166.343 220.165 166.119 220.261Z" fill="#263238"/>
<path d="M141.814 193.308C142.804 193.339 143.794 193.245 144.761 193.027C145.747 192.934 146.718 192.716 147.652 192.377C145.677 192.441 143.716 192.753 141.814 193.308Z" fill="#263238"/>
<path d="M175.575 226.752C177.173 226.686 178.765 226.495 180.335 226.182C181.924 225.993 183.497 225.679 185.039 225.243C183.441 225.309 181.849 225.5 180.279 225.814C178.69 226.004 177.118 226.318 175.575 226.752Z" fill="#263238"/>
<path d="M175.742 230.058C177.369 229.987 178.988 229.792 180.586 229.474C182.201 229.285 183.8 228.966 185.367 228.521C183.743 228.592 182.126 228.787 180.53 229.105C178.913 229.294 177.312 229.612 175.742 230.058Z" fill="#263238"/>
<path d="M148.05 230.636C149.601 230.642 151.143 230.398 152.621 229.914C151.845 229.851 151.063 229.909 150.304 230.088C149.529 230.143 148.768 230.329 148.05 230.636Z" fill="#263238"/>
<path d="M148.331 233.589C149.882 233.595 151.424 233.351 152.902 232.867C151.352 232.862 149.809 233.105 148.331 233.589Z" fill="#263238"/>
<path d="M180.669 232.773C181.419 232.837 182.175 232.781 182.909 232.607C183.658 232.549 184.393 232.366 185.086 232.065C184.338 231.997 183.584 232.053 182.853 232.231C182.101 232.287 181.363 232.47 180.669 232.773Z" fill="#263238"/>
<path d="M148.682 237.033C149.244 237.128 149.818 237.101 150.369 236.954C150.937 236.925 151.493 236.772 152 236.506C151.439 236.403 150.863 236.427 150.313 236.578C149.744 236.608 149.188 236.763 148.682 237.033Z" fill="#263238"/>
<path d="M186.535 239.74C186.26 239.715 185.984 239.715 185.709 239.74L183.385 239.813L175.083 240.152H174.894L174.936 240.34C175.144 241.268 175.659 242.092 176.392 242.672C176.781 242.992 177.234 243.217 177.719 243.331C178.204 243.445 178.708 243.444 179.192 243.329C179.709 243.205 180.19 242.953 180.591 242.594C180.992 242.236 181.303 241.781 181.495 241.271C181.672 240.723 181.685 240.132 181.532 239.576C181.38 239.02 181.07 238.524 180.641 238.152C180.327 237.859 179.947 237.65 179.535 237.546C179.432 237.518 179.327 237.501 179.22 237.495C179.106 237.48 178.991 237.48 178.877 237.495C178.801 237.508 178.728 237.539 178.666 237.587C178.604 237.635 178.554 237.697 178.52 237.769C178.474 237.893 178.459 238.028 178.478 238.159C178.57 238.968 178.831 239.746 179.241 240.441C179.641 241.106 180.167 241.681 180.788 242.13C181.394 242.599 182.131 242.852 182.888 242.852C183.253 242.826 183.604 242.695 183.9 242.474C184.197 242.254 184.428 241.952 184.568 241.603C184.836 240.968 184.885 240.257 184.708 239.589C184.294 238.475 183.621 237.484 182.748 236.701L182.559 236.506V236.78C182.447 237.776 182.633 238.784 183.091 239.668C183.432 240.337 183.91 240.92 184.491 241.379C184.853 241.669 185.257 241.898 185.688 242.058C185.836 242.119 185.992 242.158 186.15 242.174C185.581 241.959 185.049 241.652 184.575 241.264C184.035 240.799 183.594 240.224 183.28 239.574C182.859 238.719 182.7 237.752 182.825 236.802L182.601 236.874C183.429 237.64 184.065 238.601 184.456 239.675C184.609 240.274 184.56 240.908 184.316 241.473C184.2 241.764 184.007 242.015 183.76 242.199C183.512 242.382 183.22 242.491 182.916 242.513C182.248 242.506 181.599 242.275 181.068 241.856C180.476 241.429 179.979 240.877 179.608 240.238C179.238 239.598 179.003 238.885 178.919 238.145C178.903 238.081 178.903 238.014 178.919 237.95C178.919 237.914 178.919 237.899 179.017 237.885C179.187 237.875 179.357 237.892 179.521 237.935C179.874 238.028 180.201 238.206 180.473 238.455C180.843 238.781 181.112 239.213 181.245 239.696C181.379 240.179 181.37 240.692 181.222 241.17C181.054 241.61 180.787 242.003 180.444 242.317C180.101 242.632 179.692 242.858 179.248 242.979C178.805 243.1 178.34 243.112 177.891 243.013C177.442 242.915 177.022 242.709 176.665 242.412C175.988 241.889 175.51 241.138 175.314 240.289L175.167 240.484L183.399 239.986L185.723 239.827C185.995 239.816 186.266 239.787 186.535 239.74Z" fill="#263238"/>
<path d="M151.941 245.12C152.053 245.283 152.187 245.429 152.34 245.553C152.52 245.711 152.72 245.842 152.935 245.943C153.238 246.081 153.579 246.099 153.894 245.993C154.093 245.93 154.265 245.801 154.384 245.625C154.502 245.435 154.57 245.215 154.58 244.99C154.574 244.528 154.542 244.068 154.482 243.611C154.391 242.629 154.286 241.553 154.174 240.39L153.873 240.513L156.547 244.246L157.212 245.17L157.646 245.777L157.541 245.055C157.254 243.127 156.995 241.329 156.764 239.748L156.505 239.892C157.597 240.842 158.564 241.934 159.382 243.141C159.97 244.015 160.25 244.585 160.285 244.542C160.251 244.398 160.197 244.259 160.124 244.13C159.944 243.757 159.746 243.393 159.529 243.04C158.761 241.775 157.818 240.631 156.729 239.647L156.414 239.365L156.477 239.798C156.687 241.372 156.939 243.177 157.177 245.112L157.506 244.968L156.806 244.044C155.854 242.73 154.951 241.473 154.111 240.325L153.74 239.806L153.81 240.448C153.943 241.611 154.062 242.686 154.174 243.661C154.24 244.104 154.282 244.55 154.3 244.997C154.311 245.17 154.269 245.343 154.178 245.49C154.087 245.637 153.954 245.75 153.796 245.813C153.554 245.88 153.3 245.885 153.056 245.827C152.812 245.769 152.585 245.65 152.396 245.481C152.254 245.348 152.102 245.227 151.941 245.12Z" fill="#263238"/>
<path d="M150.71 243.156C152.995 243.331 155.287 243.381 157.577 243.307C159.866 243.359 162.156 243.287 164.438 243.091C162.155 242.911 159.865 242.858 157.577 242.932C155.286 242.88 152.994 242.954 150.71 243.156Z" fill="#263238"/>
<path d="M148.477 245.401C150.288 245.79 152.121 246.058 153.965 246.203C155.795 246.469 157.64 246.613 159.488 246.636C157.679 246.237 155.845 245.967 154 245.827C152.171 245.557 150.325 245.415 148.477 245.401Z" fill="#263238"/>
<g opacity="0.2">
<path d="M209.35 171.063C209.434 173.229 208.867 175.439 207.117 176.659C209.308 177.756 210.477 180.385 210.547 182.897C210.617 185.41 209.77 187.85 208.853 190.182C206.018 197.352 199.97 207.445 195.357 213.553C195.357 213.553 197.695 207.055 198.367 205.532C201.405 198.68 204.086 191.814 207.131 184.94C207.467 184.218 208.069 182.11 208.069 182.11C207.737 181.942 207.431 181.725 207.159 181.467C205.451 180.023 201.748 177.489 201.748 177.489C201.748 177.489 209.35 171.28 209.35 171.063Z" fill="black"/>
</g>
<path d="M209.454 185.793C209.356 185.793 209.531 194.132 209.853 204.406C210.175 214.68 210.511 223.012 210.609 223.005C210.707 222.998 210.539 214.673 210.217 204.392C209.895 194.11 209.559 185.786 209.454 185.793Z" fill="#263238"/>
<path d="M197.402 163.894H198.102C198.102 163.62 197.087 136.306 196.296 125.433C196.27 124.67 196.093 123.92 195.777 123.23C195.46 122.54 195.01 121.923 194.455 121.419C192.271 119.491 189.002 119.744 188.855 119.751L188.911 120.473C188.946 120.473 192.033 120.242 193.993 121.967C194.477 122.413 194.868 122.954 195.144 123.56C195.419 124.165 195.573 124.822 195.596 125.491C196.366 136.285 197.367 163.591 197.402 163.894Z" fill="#263238"/>
<path d="M190.843 209.583H192.082V208.139H190.843C189.543 208.139 188.297 207.606 187.378 206.659C186.459 205.711 185.943 204.425 185.943 203.085V187.793H184.543V203.085C184.543 204.808 185.207 206.461 186.388 207.68C187.57 208.898 189.172 209.583 190.843 209.583Z" fill="#455A64"/>
<path d="M190.337 209.034C190.366 209.34 190.482 209.629 190.671 209.867C190.86 210.104 191.113 210.278 191.398 210.368C191.682 210.457 191.986 210.457 192.271 210.368C192.556 210.279 192.809 210.105 192.998 209.868C193.187 209.63 193.303 209.341 193.333 209.035C193.362 208.73 193.303 208.422 193.162 208.151C193.022 207.88 192.807 207.659 192.545 207.514C192.282 207.369 191.984 207.308 191.688 207.337C191.291 207.379 190.927 207.581 190.674 207.899C190.421 208.217 190.3 208.625 190.337 209.034Z" fill="#263238"/>
<path d="M202.953 209.547H204.192C205.863 209.547 207.465 208.862 208.647 207.644C209.828 206.425 210.492 204.772 210.492 203.049L210.436 187.757H209.036L209.092 203.049C209.092 204.389 208.576 205.675 207.657 206.623C206.738 207.57 205.492 208.103 204.192 208.103H202.953V209.547Z" fill="#455A64"/>
<path d="M204.688 208.99C204.659 209.294 204.544 209.582 204.356 209.818C204.168 210.054 203.917 210.228 203.634 210.317C203.351 210.406 203.049 210.406 202.765 210.318C202.482 210.23 202.23 210.058 202.042 209.822C201.853 209.587 201.737 209.299 201.707 208.995C201.677 208.691 201.735 208.385 201.874 208.116C202.012 207.846 202.225 207.624 202.486 207.479C202.746 207.334 203.042 207.272 203.337 207.301C203.534 207.32 203.724 207.379 203.899 207.474C204.073 207.569 204.227 207.699 204.353 207.856C204.478 208.013 204.573 208.194 204.63 208.389C204.688 208.583 204.707 208.788 204.688 208.99Z" fill="#263238"/>
<path d="M210.846 189.518L211.021 178.616C211.154 170.306 205.267 163.454 197.896 163.317C196.101 163.3 194.322 163.674 192.676 164.413C191.03 165.151 189.553 166.239 188.341 167.606C185.766 170.48 184.321 174.24 184.288 178.154L184.113 189.063L186.213 189.1L186.388 178.19C186.414 174.811 187.662 171.564 189.888 169.086C190.897 167.936 192.13 167.02 193.507 166.398C194.883 165.776 196.372 165.461 197.875 165.476C204.091 165.584 209.075 171.454 208.935 178.573L208.76 189.475L210.846 189.518Z" fill="#263238"/>
<path d="M151.054 164.299C151.054 164.01 154.267 135.628 155.191 126.531L155.254 125.867C155.541 122.776 155.876 119.282 159.188 118.358L159.005 117.636C155.225 118.69 154.855 122.618 154.554 125.773L154.491 126.43C153.574 135.527 150.388 163.909 150.36 164.198L151.054 164.299Z" fill="#263238"/>
<path d="M145.391 164.913C142.458 161.887 142.458 156.982 145.391 153.957C148.324 150.931 153.08 150.931 156.013 153.957C158.946 156.982 158.946 161.887 156.013 164.913C153.08 167.938 148.324 167.938 145.391 164.913Z" fill="#263238"/>
<path d="M147.078 159.433C147.078 160.174 147.291 160.899 147.691 161.515C148.09 162.132 148.658 162.612 149.322 162.895C149.986 163.179 150.717 163.253 151.422 163.107C152.127 162.962 152.774 162.605 153.282 162.08C153.79 161.555 154.135 160.887 154.275 160.159C154.414 159.432 154.341 158.678 154.065 157.994C153.789 157.309 153.322 156.724 152.724 156.314C152.126 155.903 151.423 155.684 150.704 155.686C150.227 155.686 149.755 155.783 149.315 155.971C148.874 156.159 148.474 156.435 148.137 156.784C147.801 157.132 147.534 157.545 147.352 157.999C147.17 158.454 147.077 158.941 147.078 159.433Z" fill="#455A64"/>
<path d="M195.11 214.131L204.539 238.051L129.324 259.559C125.886 260.547 122.277 260.736 118.76 260.112C115.242 259.487 111.903 258.066 108.982 255.949C101.114 250.224 99.1821 240.21 100.141 230.296L101.499 219.755L195.11 214.131Z" fill="white"/>
<path d="M115.424 240.095C115.501 240.095 115.662 238.463 116.439 235.943C116.638 235.255 116.872 234.578 117.139 233.914C117.405 233.192 117.776 232.47 118.147 231.662C119.01 229.99 120.025 228.407 121.178 226.933C122.351 225.477 123.654 224.138 125.07 222.933C125.77 222.406 126.372 221.879 127.009 221.489C127.584 221.079 128.18 220.701 128.794 220.355C131.034 219.077 132.567 218.586 132.539 218.507C132.172 218.584 131.813 218.698 131.468 218.846C131.05 218.986 130.641 219.152 130.243 219.344C129.774 219.568 129.228 219.792 128.668 220.124C128.039 220.456 127.429 220.825 126.841 221.229C126.19 221.633 125.546 222.16 124.86 222.673C123.412 223.879 122.083 225.228 120.891 226.702C119.725 228.196 118.708 229.807 117.853 231.51C117.482 232.311 117.118 233.062 116.859 233.806C116.587 234.48 116.353 235.169 116.159 235.871C115.983 236.444 115.84 237.027 115.732 237.618C115.621 238.066 115.543 238.522 115.501 238.983C115.442 239.35 115.417 239.722 115.424 240.095Z" fill="#263238"/>
<g opacity="0.2">
<path d="M206.22 224.311C211.96 224.802 216.391 225.344 222.32 226.095C226.023 226.564 229.866 226.297 231.077 222.665C232.288 219.034 231.518 214.875 229.53 211.619C227.542 208.362 224.42 200.789 207.704 206.565L206.22 224.311Z" fill="black"/>
</g>
<path d="M198.48 223.265L198.438 223.106L198.277 222.629L197.647 220.81L195.232 214.088L195.197 213.994H195.106L169.521 216.384L144.769 218.81L137.272 219.582L135.235 219.813L134.71 219.886C134.648 219.887 134.587 219.9 134.528 219.922H134.71H135.242L137.286 219.763L144.797 219.099L169.556 216.788L195.127 214.283L195.001 214.196L197.521 220.882L198.221 222.673L198.41 223.135C198.445 223.221 198.473 223.272 198.48 223.265Z" fill="#263238"/>
<g opacity="0.2">
<path d="M167.531 247.935C156.849 250.888 150.353 249.177 140.651 243.704C138.664 242.502 136.756 241.166 134.939 239.704C133.556 238.538 132.325 237.191 131.278 235.697C143.773 240.629 154.154 244.361 167.034 248.072" fill="black"/>
</g>
<path d="M198.443 223.005L196 215.965L201.677 206.81C202.169 206.017 202.812 205.335 203.568 204.808C204.324 204.28 205.177 203.917 206.073 203.742L226.961 199.677C227.221 200.483 227.185 201.36 226.86 202.141C226.535 202.923 225.943 203.554 225.197 203.915C222.46 205.525 210.147 208.478 210.147 208.478L229.11 208.146C229.11 208.146 229.698 210.969 227.549 211.98C225.4 212.99 211.89 213.503 211.89 213.503L229.187 216.016C229.187 216.016 229.285 218.846 225.33 218.904C221.435 218.856 217.545 218.603 213.675 218.146C213.515 218.122 213.352 218.165 213.222 218.263C213.091 218.361 213.003 218.508 212.975 218.673C212.952 218.832 212.987 218.994 213.073 219.128C213.16 219.261 213.293 219.357 213.444 219.395L224.945 222.196C225.277 222.273 225.574 222.461 225.791 222.73C226.008 223 226.133 223.336 226.146 223.686C226.159 224.036 226.059 224.381 225.862 224.666C225.665 224.952 225.382 225.162 225.057 225.264C224.849 225.316 224.633 225.331 224.42 225.308C222.46 225.106 210.756 223.575 210.756 223.575L210.147 224.983L198.443 223.019" fill="#FBBFA8"/>
<path d="M207.034 220.832C207.193 220.443 207.41 220.082 207.678 219.763C207.987 219.437 208.366 219.19 208.784 219.041C209.3 218.878 209.842 218.817 210.38 218.861C211.542 218.947 212.592 219.294 213.376 219.395C213.799 219.501 214.241 219.501 214.664 219.395C214.257 219.276 213.843 219.182 213.425 219.113C212.436 218.812 211.425 218.594 210.401 218.464C209.813 218.416 209.222 218.495 208.665 218.695C208.212 218.876 207.808 219.168 207.489 219.547C207.321 219.709 207.193 219.91 207.114 220.134C207.035 220.357 207.007 220.596 207.034 220.832Z" fill="#FBBFA8"/>
<path d="M205.143 215.466C205.178 215.466 205.199 215.271 205.353 214.961C205.58 214.53 205.926 214.178 206.347 213.95C207.404 213.315 209.189 213.524 211.065 213.654C212.941 213.784 214.663 214.073 215.902 214.239C216.567 214.369 217.241 214.439 217.918 214.448C217.277 214.225 216.615 214.068 215.944 213.979C214.342 213.655 212.725 213.414 211.1 213.257C210.202 213.173 209.3 213.137 208.398 213.149C207.638 213.13 206.887 213.319 206.221 213.697C205.77 213.966 205.42 214.383 205.227 214.882C205.14 215.062 205.11 215.267 205.143 215.466Z" fill="#FBBFA8"/>
<path d="M203.702 212.347C203.718 211.775 203.87 211.215 204.143 210.716C204.455 210.193 204.888 209.759 205.403 209.452C206.056 209.1 206.769 208.884 207.503 208.817C209.071 208.665 210.541 208.817 211.612 208.73C212.194 208.729 212.768 208.586 213.285 208.311C213.285 208.254 212.641 208.449 211.598 208.47C210.555 208.492 209.106 208.29 207.461 208.47C206.679 208.537 205.92 208.784 205.242 209.192C204.685 209.542 204.23 210.041 203.926 210.636C203.715 211.029 203.606 211.472 203.611 211.921C203.625 212.189 203.702 212.347 203.702 212.347Z" fill="#FBBFA8"/>
<path d="M135.891 212.326C135.889 211.934 135.854 211.542 135.786 211.156C135.695 210.434 135.52 209.323 135.275 207.994C134.792 205.337 133.938 201.705 133.035 197.698C132.236 194.286 131.626 190.829 131.208 187.345C131.124 186.673 131.089 186.067 131.04 185.533C130.991 184.998 130.963 184.544 130.949 184.161C130.952 183.769 130.919 183.377 130.851 182.991C130.805 183.382 130.791 183.775 130.809 184.168C130.809 184.544 130.809 185.013 130.809 185.547C130.809 186.081 130.851 186.695 130.928 187.367C131.268 190.876 131.843 194.357 132.65 197.785C133.56 201.799 134.449 205.409 134.995 208.052C135.268 209.366 135.485 210.442 135.618 211.178C135.678 211.568 135.77 211.952 135.891 212.326Z" fill="#263238"/>
<path d="M128.632 259.689C128.772 259.687 128.912 259.662 129.045 259.617L130.207 259.35L134.463 258.267C138.054 257.335 143.003 255.985 148.463 254.426C153.923 252.866 158.816 251.372 162.351 250.253L166.551 248.91L167.685 248.52C167.795 248.481 167.901 248.43 168 248.368C167.861 248.378 167.725 248.407 167.594 248.455L166.439 248.772L162.239 250.007L148.323 254.072L134.4 258.014L130.2 259.205L129.052 259.545C128.907 259.577 128.767 259.626 128.632 259.689Z" fill="#263238"/>
<path d="M200.691 50.2732C199.151 45.3708 191.262 40.9449 186.936 38.3746C180.461 34.5408 174.462 35.3061 170.766 38.7212C164.088 32.9452 155.289 27.3858 146.854 29.6601C138.419 31.9344 131.566 40.8438 133.106 49.7028C134.009 54.9228 137.516 59.6014 137.306 64.8648C137.166 68.4748 135.311 71.7382 133.806 75.0161C132.301 78.294 131.195 82.1061 132.511 85.4562C133.736 88.5681 136.795 90.5102 138.44 93.3982C139.784 95.7664 140.092 98.5822 140.953 101.174C144.131 110.777 155.121 116.163 164.823 114.473C174.525 112.784 182.61 105.253 187.223 96.2718C191.836 87.2901 193.32 76.9799 193.852 66.8503" fill="#263238"/>
<path d="M193.543 57.038L191.604 137.108C190.904 146.284 182.707 152.992 173.187 152.14C163.576 151.288 156.233 143.079 156.786 133.794C157.367 124.054 157.801 113.78 157.801 113.78C157.801 113.78 145.768 110.892 144.27 94.3438C143.507 85.8675 144.837 71.9618 146.23 60.9441C146.503 58.7475 147.204 56.6306 148.291 54.7207C149.378 52.8109 150.829 51.1476 152.555 49.831C154.281 48.5144 156.248 47.5716 158.337 47.0594C160.426 46.5472 162.594 46.4762 164.71 46.8506" fill="#FBBFA8"/>
<path d="M149.8 72.7782C149.759 73.3246 149.927 73.8658 150.269 74.2857C150.611 74.7055 151.098 74.9704 151.627 75.0236C151.884 75.0632 152.147 75.049 152.399 74.9821C152.651 74.9151 152.888 74.7967 153.095 74.6337C153.301 74.4708 153.475 74.2667 153.604 74.0336C153.733 73.8004 153.815 73.5429 153.846 73.2763C153.885 72.7295 153.716 72.1885 153.375 71.7679C153.034 71.3474 152.548 71.0804 152.019 71.0237C151.761 70.9852 151.498 71.0003 151.246 71.0681C150.994 71.136 150.758 71.2551 150.551 71.4186C150.344 71.5821 150.171 71.7866 150.042 72.0201C149.913 72.2536 149.831 72.5113 149.8 72.7782Z" fill="#263238"/>
<path d="M147.777 70.6411C148.015 70.9299 149.632 69.8542 151.823 70.0058C154.014 70.1574 155.547 71.392 155.799 71.1321C155.925 71.0166 155.701 70.5112 155.036 69.9336C154.128 69.1915 153.021 68.7576 151.865 68.6917C150.727 68.6145 149.595 68.9102 148.631 69.5365C147.924 70.0347 147.665 70.504 147.777 70.6411Z" fill="#263238"/>
<path d="M170.8 75.0448C170.757 75.5924 170.925 76.1355 171.266 76.5569C171.608 76.9783 172.097 77.2443 172.627 77.2974C172.885 77.3359 173.148 77.3208 173.4 77.253C173.652 77.1852 173.888 77.066 174.095 76.9025C174.302 76.739 174.475 76.5345 174.604 76.301C174.733 76.0675 174.815 75.8098 174.846 75.5429C174.885 74.9961 174.716 74.4551 174.375 74.0345C174.034 73.614 173.548 73.347 173.019 73.2903C172.761 73.2518 172.498 73.2669 172.246 73.3347C171.994 73.4026 171.758 73.5217 171.551 73.6852C171.344 73.8487 171.171 74.0532 171.042 74.2867C170.913 74.5202 170.831 74.7779 170.8 75.0448Z" fill="#263238"/>
<path d="M169.288 72.4966C169.526 72.7854 171.143 71.7096 173.334 71.8612C175.525 72.0129 177.058 73.2475 177.31 72.9876C177.436 72.872 177.212 72.3666 176.54 71.789C175.635 71.0483 174.53 70.6146 173.376 70.5472C172.239 70.4699 171.107 70.7656 170.142 71.3919C169.4 71.8829 169.176 72.3594 169.288 72.4966Z" fill="#263238"/>
<path d="M160.302 88.7193C160.302 88.5966 158.979 88.2644 156.802 87.824C156.249 87.7302 155.724 87.5785 155.654 87.1742C155.644 86.5757 155.813 85.9885 156.137 85.492C156.746 84.1274 157.39 82.705 158.062 81.2105C160.75 75.1024 162.738 70.07 162.5 69.9617C162.262 69.8534 159.889 74.7125 157.194 80.7917C156.55 82.2935 155.927 83.7303 155.339 85.1237C154.939 85.7948 154.785 86.5912 154.905 87.3692C154.974 87.5779 155.087 87.7678 155.238 87.9242C155.388 88.0807 155.571 88.1995 155.773 88.2717C156.076 88.3806 156.391 88.4462 156.711 88.4666C158.902 88.7482 160.302 88.8493 160.302 88.7193Z" fill="#263238"/>
<path d="M157.796 113.751C165.265 114.367 172.753 112.833 179.426 109.318C179.426 109.318 173.413 120.343 157.621 117.751L157.796 113.751Z" fill="#AA6550"/>
<path d="M169.274 63.6013C169.456 64.2295 171.661 64.0851 174.209 64.576C176.757 65.067 178.794 65.9262 179.172 65.3991C179.34 65.1464 179.011 64.5399 178.213 63.8901C177.147 63.0763 175.909 62.5345 174.601 62.3089C173.294 62.0606 171.949 62.1323 170.674 62.5183C169.708 62.8504 169.204 63.3053 169.274 63.6013Z" fill="#263238"/>
<path d="M148.994 64.15C149.344 64.6915 150.891 64.2583 152.704 64.3521C154.517 64.446 156.036 64.9225 156.421 64.4099C156.596 64.1572 156.421 63.6301 155.721 63.0959C154.856 62.4538 153.824 62.0917 152.759 62.0557C151.693 62.0197 150.641 62.3114 149.736 62.8937C149.099 63.3774 148.84 63.8901 148.994 64.15Z" fill="#263238"/>
<path d="M163.687 92.9725C161.972 92.9725 161.118 93.4923 159.662 94.4165C159.223 94.6547 158.863 95.0215 158.626 95.4706C158.514 95.7932 158.475 96.138 158.513 96.4785C158.55 96.819 158.663 97.146 158.843 97.4344C159.201 98.0901 159.733 98.6267 160.376 98.981C161.02 99.3353 161.748 99.4926 162.476 99.4343C163.201 99.3558 163.884 99.0457 164.43 98.5474C164.976 98.0491 165.357 97.3873 165.521 96.6546C165.656 95.9159 165.55 95.1516 165.218 94.4823C164.886 93.813 164.347 93.2767 163.687 92.958" fill="#AA6550"/>
<path d="M157.873 96.7486C157.873 96.9218 158.419 97.1818 159.378 97.124C160.59 97.0079 161.762 96.6132 162.808 95.9688C163.862 95.3636 164.795 94.5575 165.559 93.5934C166.126 92.8714 166.301 92.2361 166.154 92.1494C165.867 91.9545 164.425 93.514 162.157 94.7992C161.219 95.3575 160.232 95.824 159.21 96.1926C158.426 96.467 157.894 96.5608 157.873 96.7486Z" fill="#263238"/>
<path d="M168.689 82.6546C168.368 82.6546 168.108 82.3863 168.108 82.0553C168.108 81.7244 168.368 81.4561 168.689 81.4561C169.009 81.4561 169.27 81.7244 169.27 82.0553C169.27 82.3863 169.009 82.6546 168.689 82.6546Z" fill="#AA6550"/>
<path d="M151.654 79.1168C151.654 79.2354 151.688 79.3512 151.752 79.4498C151.816 79.5483 151.907 79.6251 152.013 79.6705C152.119 79.7158 152.236 79.7277 152.349 79.7046C152.461 79.6815 152.565 79.6244 152.646 79.5406C152.727 79.4568 152.783 79.35 152.805 79.2338C152.828 79.1175 152.816 78.997 152.772 78.8875C152.728 78.778 152.654 78.6844 152.558 78.6186C152.463 78.5527 152.35 78.5176 152.235 78.5176C152.081 78.5176 151.934 78.5807 151.825 78.6931C151.716 78.8055 151.654 78.9579 151.654 79.1168Z" fill="#AA6550"/>
<path d="M148.445 80.6771C148.436 80.7618 148.444 80.8476 148.469 80.9287C148.495 81.0098 148.536 81.0846 148.591 81.148C148.646 81.2115 148.714 81.2622 148.789 81.297C148.865 81.3317 148.947 81.3497 149.029 81.3497C149.112 81.3497 149.194 81.3317 149.269 81.297C149.344 81.2622 149.412 81.2115 149.467 81.148C149.522 81.0846 149.564 81.0098 149.589 80.9287C149.614 80.8476 149.623 80.7618 149.614 80.6771C149.598 80.5286 149.53 80.3913 149.422 80.2916C149.314 80.1919 149.174 80.1367 149.029 80.1367C148.884 80.1367 148.745 80.1919 148.637 80.2916C148.529 80.3913 148.46 80.5286 148.445 80.6771Z" fill="#AA6550"/>
<path d="M147.471 78.1715C147.471 78.29 147.505 78.4059 147.569 78.5045C147.633 78.603 147.723 78.6798 147.829 78.7252C147.936 78.7705 148.052 78.7824 148.165 78.7593C148.278 78.7361 148.381 78.6791 148.463 78.5953C148.544 78.5115 148.599 78.4047 148.622 78.2884C148.644 78.1722 148.633 78.0517 148.589 77.9422C148.545 77.8327 148.47 77.7391 148.375 77.6733C148.279 77.6074 148.167 77.5723 148.052 77.5723C147.898 77.5723 147.75 77.6354 147.641 77.7478C147.532 77.8602 147.471 78.0126 147.471 78.1715Z" fill="#AA6550"/>
<path d="M170.765 84.7057C170.764 84.826 170.797 84.9439 170.861 85.0446C170.925 85.1453 171.016 85.2241 171.124 85.2711C171.231 85.3182 171.349 85.3312 171.464 85.3086C171.578 85.286 171.684 85.2289 171.767 85.1443C171.85 85.0598 171.906 84.9518 171.93 84.8339C171.953 84.7161 171.942 84.5938 171.897 84.4825C171.853 84.3713 171.778 84.2761 171.681 84.2092C171.584 84.1422 171.47 84.1065 171.353 84.1064C171.199 84.1064 171.05 84.1693 170.94 84.2815C170.83 84.3937 170.767 84.5461 170.765 84.7057Z" fill="#AA6550"/>
<path d="M172.951 82.3082C172.951 82.4268 172.985 82.5426 173.049 82.6412C173.113 82.7397 173.204 82.8165 173.31 82.8619C173.416 82.9072 173.533 82.9191 173.646 82.896C173.758 82.8729 173.862 82.8158 173.943 82.732C174.024 82.6482 174.08 82.5414 174.102 82.4252C174.125 82.3089 174.113 82.1884 174.069 82.0789C174.025 81.9694 173.951 81.8758 173.855 81.81C173.76 81.7441 173.647 81.709 173.532 81.709C173.378 81.709 173.23 81.7721 173.121 81.8845C173.012 81.9969 172.951 82.1493 172.951 82.3082Z" fill="#AA6550"/>
<path d="M163.431 75.0449C163.496 74.1936 163.624 73.3487 163.816 72.5179C164.391 70.2599 165.689 68.2681 167.498 66.8646C168.733 65.8971 170.172 65.244 171.698 64.9586C173.447 64.6285 175.249 64.7855 176.92 65.4134C177.82 65.7448 178.665 66.2172 179.426 66.8141C180.231 67.4184 180.94 68.1492 181.526 68.9801C182.776 70.7351 183.451 72.8561 183.451 75.0341C183.451 77.212 182.776 79.333 181.526 81.088C180.366 82.7303 178.765 83.9855 176.92 84.698C175.249 85.326 173.447 85.483 171.698 85.1529C170.172 84.8675 168.733 84.2144 167.498 83.2468C165.691 81.8445 164.394 79.8557 163.816 77.6008C163.626 76.7697 163.497 75.925 163.431 75.0738C163.42 75.1286 163.42 75.185 163.431 75.2398V75.738C163.431 76.0089 163.452 76.2792 163.494 76.5467C163.529 76.9122 163.593 77.2743 163.683 77.6297C163.904 78.6208 164.272 79.5707 164.775 80.4455C165.977 82.5678 167.862 84.1881 170.103 85.0245C172.344 85.8608 174.798 85.8603 177.039 85.0229C177.973 84.6802 178.851 84.1933 179.643 83.5789C180.481 82.9563 181.216 82.198 181.82 81.3335C183.124 79.5196 183.828 77.3212 183.828 75.063C183.828 72.8047 183.124 70.6063 181.82 68.7924C181.216 67.9279 180.481 67.1696 179.643 66.547C178.851 65.9326 177.973 65.4457 177.039 65.103C175.312 64.4639 173.451 64.3143 171.649 64.6698C170.224 64.9545 168.874 65.5486 167.689 66.4124C166.504 67.2763 165.511 68.3903 164.775 69.6804C164.273 70.5558 163.905 71.5055 163.683 72.4963C163.592 72.8539 163.529 73.2185 163.494 73.5865C163.452 73.8514 163.431 74.1194 163.431 74.3879V74.8861C163.422 74.9386 163.422 74.9924 163.431 75.0449Z" fill="white"/>
<path d="M159.04 71.8901C159.819 71.6691 160.626 71.5717 161.434 71.6013C162.23 71.75 163.001 72.0175 163.723 72.3955C163.723 72.3955 163.576 72.1212 163.184 71.8468C162.669 71.5044 162.084 71.2917 161.476 71.2259C160.863 71.1544 160.243 71.2386 159.67 71.4714C159.236 71.6519 159.019 71.8468 159.04 71.8901Z" fill="white"/>
<path d="M165.437 44.5119C166.837 57.5584 176.245 69.3054 188.383 73.2619C184.47 79.0813 186.934 90.1567 186.836 99.3983C186.738 107.99 186.745 110.445 192.142 114.827C196.601 115.932 199.142 103.333 202.488 99.8099C205.834 96.2865 208.977 91.9473 208.732 87.0521C208.613 84.7562 207.745 82.5613 207.626 80.2726C207.486 77.7311 208.277 75.2186 208.711 72.7421C210.643 61.6594 205.099 49.7392 195.712 43.9415C186.325 38.1439 173.858 38.5337 164.569 44.4614" fill="#263238"/>
<path d="M192.227 98.1495C193.391 93.9351 195.391 90.016 198.1 86.6409L197.897 87.0885C198.735 85.1196 199.995 83.3728 201.583 81.9806C203.172 80.5883 205.046 79.587 207.065 79.0525C209.084 78.5179 211.195 78.4642 213.237 78.8952C215.279 79.3262 217.199 80.2308 218.852 81.5405C220.505 82.8501 221.848 84.5305 222.778 86.4543C223.708 88.3782 224.202 90.4952 224.222 92.6451C224.242 94.7949 223.787 96.9212 222.893 98.8631C221.998 100.805 220.687 102.511 219.058 103.853C220.633 103.492 222.229 104.893 222.558 106.518C222.681 107.344 222.639 108.187 222.435 108.996C222.232 109.806 221.871 110.564 221.375 111.225C218.092 116.178 210.651 117.485 205.975 113.932C202.265 116.524 196.784 115.015 194.033 111.369C191.282 107.723 190.96 102.583 192.227 98.1495Z" fill="#263238"/>
<path d="M207.257 79.0375C207.403 78.8958 207.537 78.7412 207.656 78.5754C207.982 78.0921 208.219 77.5513 208.356 76.9798C208.783 75.4853 208.58 73.1243 207.432 70.6262C206.808 69.2585 205.95 68.0184 204.898 66.9657C203.747 65.7163 202.47 64.5958 201.09 63.6228C199.564 62.5381 197.898 61.6778 196.141 61.0669C194.328 60.4243 192.403 59.9262 190.443 59.4208C188.483 58.9154 186.565 58.4172 184.773 57.7674C183.046 57.1533 181.368 56.4001 179.754 55.5147C177.026 54.0162 174.488 52.1729 172.201 50.0275C170.66 48.5739 169.236 46.9922 167.945 45.2984C167.483 44.6992 167.147 44.2154 166.916 43.8544C166.807 43.6842 166.683 43.5246 166.545 43.3779C166.636 43.5583 166.739 43.732 166.853 43.8978C167.07 44.2371 167.385 44.7353 167.833 45.3418C169.089 47.0819 170.494 48.701 172.033 50.1792C174.323 52.3705 176.872 54.2531 179.621 55.7819C181.248 56.6806 182.94 57.4459 184.682 58.0706C186.495 58.7276 188.42 59.233 190.38 59.7457C192.34 60.2583 194.258 60.742 196.057 61.3702C197.793 61.9658 199.442 62.8039 200.957 63.8611C202.321 64.8199 203.587 65.9181 204.737 67.1389C205.762 68.183 206.596 69.4081 207.201 70.7562C208.356 73.1893 208.601 75.4925 208.216 76.9581C208.038 77.7116 207.712 78.4194 207.257 79.0375Z" fill="#455A64"/>
<path d="M166.558 43.4141C166.658 43.5589 166.768 43.6964 166.887 43.8256C167.111 44.0927 167.454 44.4682 167.895 44.9519C169.164 46.2996 170.513 47.5655 171.934 48.7424C174.034 50.5235 176.373 51.9825 178.878 53.0744C180.382 53.6476 181.933 54.0801 183.512 54.3668C185.143 54.7061 186.844 54.9661 188.58 55.2404C191.85 55.6437 195.08 56.3419 198.233 57.327C200.79 58.1881 203.166 59.543 205.233 61.3197C206.622 62.5212 207.769 63.9932 208.607 65.6517C208.825 66.1073 209.019 66.5749 209.188 67.0523C209.237 67.2234 209.305 67.3881 209.391 67.5433C209.358 67.3694 209.314 67.1981 209.258 67.0307C209.118 66.5365 208.942 66.0538 208.733 65.5867C207.932 63.8786 206.797 62.3595 205.401 61.1247C203.332 59.2941 200.938 57.8963 198.352 57.0093C195.187 55.9895 191.94 55.2646 188.65 54.8433C186.907 54.5762 185.213 54.309 183.596 53.9841C182.034 53.7053 180.5 53.2849 179.011 52.7279C176.53 51.6648 174.207 50.2479 172.109 48.5186C170.676 47.37 169.305 46.1433 168 44.8436L166.943 43.7751C166.826 43.6417 166.697 43.5207 166.558 43.4141Z" fill="#455A64"/>
<path d="M148.785 29.1331C148.785 29.2125 150.15 29.2631 152.285 29.8551C152.864 30.0105 153.434 30.1985 153.993 30.4183C154.602 30.6276 155.218 30.9381 155.883 31.2413C158.714 32.6515 161.205 34.6935 163.177 37.2195C163.611 37.8188 164.045 38.3675 164.381 38.9379C164.716 39.4463 165.022 39.9742 165.298 40.519C166.327 42.5118 166.698 43.8836 166.754 43.8547C166.707 43.5292 166.628 43.2098 166.516 42.9016C166.415 42.5271 166.289 42.1604 166.138 41.8042C165.96 41.3108 165.755 40.8286 165.522 40.3602C165.261 39.7967 164.964 39.2516 164.633 38.7285C164.304 38.1509 163.877 37.5805 163.443 36.9668C162.441 35.6865 161.313 34.5178 160.076 33.4795C158.818 32.4718 157.459 31.6053 156.023 30.8948C155.394 30.59 154.749 30.3224 154.091 30.0934C153.049 29.7165 151.976 29.441 150.885 29.2703C150.515 29.1964 150.141 29.1505 149.765 29.1331C149.439 29.0937 149.11 29.0937 148.785 29.1331Z" fill="#455A64"/>
<path d="M137.51 91.4704C137.51 91.4704 137.51 91.4199 137.405 91.326L137.076 90.9289C136.782 90.5752 136.341 90.0625 135.844 89.3478C135.218 88.5054 134.744 87.5542 134.444 86.5392C134.273 85.9077 134.223 85.2481 134.297 84.597C134.396 83.8701 134.634 83.1707 134.997 82.5393C135.753 81.1892 136.992 80.0123 138.126 78.5539C140.676 75.2628 142.313 71.3206 142.865 67.1463C143.09 64.8073 143.146 62.4543 143.033 60.1068C142.92 57.7799 143.13 55.4485 143.656 53.1828C144.215 51.2068 145.183 49.3794 146.493 47.8264C147.803 46.2734 149.424 45.0316 151.244 44.1867C152.753 43.489 154.379 43.1015 156.032 43.0459C159.108 42.9178 162.139 43.839 164.656 45.6668L165.076 45.97C165.167 46.035 165.216 46.0711 165.223 46.0639C164.568 45.4416 163.836 44.9122 163.046 44.4899C160.897 43.3004 158.484 42.7105 156.046 42.7788C154.358 42.8216 152.694 43.2016 151.146 43.8979C149.273 44.7508 147.604 46.0152 146.255 47.6027C144.905 49.1903 143.908 51.0626 143.334 53.0889C142.798 55.3874 142.584 57.753 142.697 60.114C142.809 62.4445 142.756 64.7805 142.536 67.1029C142.003 71.2173 140.402 75.1065 137.902 78.3589C136.796 79.8029 135.55 81.0014 134.78 82.4093C134.407 83.075 134.169 83.8119 134.08 84.5753C134.01 85.2574 134.072 85.9469 134.262 86.6042C134.584 87.6371 135.089 88.5993 135.753 89.4416C136.153 89.9815 136.583 90.4974 137.041 90.9867L137.405 91.3621C137.435 91.4025 137.471 91.4389 137.51 91.4704Z" fill="#455A64"/>
<path d="M139.133 72.4961C139.199 71.6448 139.327 70.8 139.518 69.9691C140.094 67.711 141.391 65.7192 143.2 64.3158C144.53 63.2844 146.088 62.612 147.733 62.3598C149.379 62.1077 151.059 62.2836 152.622 62.8718C154.467 63.5844 156.068 64.8395 157.228 66.4818C158.479 68.2353 159.154 70.3552 159.154 72.5322C159.154 74.7091 158.479 76.8291 157.228 78.5825C156.646 79.4163 155.937 80.1477 155.128 80.7485C154.366 81.3406 153.521 81.8104 152.622 82.142C151.313 82.6327 149.918 82.836 148.528 82.7391C147.139 82.6422 145.783 82.247 144.55 81.579C143.317 80.911 142.232 79.9847 141.366 78.8596C140.499 77.7344 139.87 76.4351 139.518 75.0447C139.327 74.2138 139.199 73.369 139.133 72.5177C139.123 72.575 139.123 72.6338 139.133 72.691C139.133 72.821 139.133 72.987 139.133 73.182C139.133 73.4528 139.154 73.7232 139.196 73.9906C139.232 74.3584 139.295 74.7229 139.385 75.0808C139.607 76.0716 139.975 77.0213 140.477 77.8966C141.139 79.0602 142.011 80.0822 143.046 80.9074C144.404 81.9877 146.005 82.6971 147.7 82.9697C149.394 83.2423 151.128 83.0694 152.741 82.4669C153.677 82.1279 154.555 81.6407 155.345 81.0229C156.181 80.3952 156.916 79.6349 157.522 78.7702C158.827 76.9579 159.531 74.7606 159.531 72.5033C159.531 70.246 158.827 68.0486 157.522 66.2363C156.918 65.3718 156.183 64.6136 155.345 63.9909C154.553 63.3765 153.675 62.8896 152.741 62.5469C151.015 61.9058 149.154 61.7537 147.351 62.1065C145.922 62.3944 144.569 62.9944 143.384 63.8661C142.198 64.7378 141.207 65.8611 140.477 67.1605C139.974 68.0327 139.606 68.9802 139.385 69.9691C139.295 70.327 139.232 70.6915 139.196 71.0593C139.154 71.3266 139.133 71.5971 139.133 71.8679C139.133 72.0629 139.133 72.2289 139.133 72.3661C139.127 72.4092 139.127 72.453 139.133 72.4961Z" fill="white"/>
<path d="M192.244 115.094C192.368 115.031 192.483 114.951 192.587 114.856C192.804 114.69 193.112 114.437 193.518 114.134C194.649 113.199 195.712 112.178 196.696 111.08C198.214 109.459 199.254 107.425 199.692 105.217C199.837 103.914 199.893 102.601 199.86 101.29C199.836 99.9153 200.217 98.566 200.952 97.4196C201.775 96.3186 202.691 95.2942 203.689 94.3584C204.613 93.4345 205.376 92.3523 205.943 91.1599C206.444 90.0808 206.811 88.9406 207.035 87.7665C207.245 86.7488 207.342 85.7095 207.322 84.6691C207.322 83.7089 207.105 82.8713 207.021 82.1349C206.939 81.5055 206.925 80.8686 206.979 80.236C207.098 79.1964 207.294 78.6404 207.259 78.626C207.194 78.7525 207.143 78.8856 207.105 79.0231C206.988 79.4129 206.899 79.8111 206.839 80.2144C206.763 80.8594 206.763 81.5115 206.839 82.1566C206.902 82.8786 207.07 83.745 207.091 84.6763C207.08 86.8674 206.602 89.0291 205.691 91.0083C205.134 92.1616 204.388 93.207 203.486 94.0984C202.463 95.0435 201.526 96.0827 200.686 97.203C200.279 97.8062 199.978 98.4782 199.797 99.1885C199.636 99.8721 199.549 100.572 199.538 101.275C199.572 102.572 199.523 103.869 199.391 105.159C198.984 107.322 197.997 109.324 196.542 110.935C195.58 112.042 194.549 113.082 193.455 114.047L192.503 114.798C192.407 114.888 192.32 114.987 192.244 115.094Z" fill="#455A64"/>
<path d="M200.199 98.2793C200.187 98.3776 200.187 98.477 200.199 98.5753C200.199 98.7703 200.199 99.0518 200.255 99.4201C200.373 100.458 200.608 101.478 200.955 102.46C202.061 105.755 204.257 108.543 207.158 110.335C210.059 112.127 213.478 112.807 216.817 112.257C217.817 112.101 218.797 111.828 219.736 111.441C220.072 111.311 220.317 111.167 220.485 111.088C220.653 111.008 220.737 110.95 220.73 110.936C219.451 111.423 218.129 111.778 216.782 111.997C215.318 112.192 213.835 112.165 212.379 111.918C208.773 111.348 205.527 109.345 203.335 106.337C202.438 105.13 201.716 103.795 201.193 102.373C200.737 101.044 200.404 99.6733 200.199 98.2793Z" fill="#455A64"/>
<path d="M202.894 94.8857C202.923 95.2226 202.992 95.5547 203.097 95.8749C203.345 96.7601 203.676 97.6184 204.084 98.438C205.447 101.159 207.51 103.44 210.048 105.03C212.592 106.602 215.484 107.477 218.448 107.571C219.34 107.599 220.232 107.551 221.115 107.427C221.441 107.396 221.763 107.329 222.074 107.225C220.87 107.314 219.662 107.341 218.455 107.304C215.55 107.139 212.727 106.247 210.23 104.705C207.747 103.144 205.705 100.938 204.308 98.308C203.765 97.2004 203.292 96.0572 202.894 94.8857Z" fill="#455A64"/>
<path d="M223.371 87.695C223.179 87.5404 222.967 87.4141 222.741 87.3195C222.491 87.1803 222.231 87.0597 221.964 86.9585C221.615 86.8075 221.257 86.6773 220.893 86.5687C219.951 86.2768 218.982 86.0833 218.002 85.9911C216.801 85.883 215.593 85.9072 214.397 86.0632C213.203 86.2371 212.03 86.5395 210.897 86.9657C209.977 87.3301 209.095 87.7897 208.265 88.3376C207.946 88.5443 207.64 88.771 207.348 89.0162C207.116 89.1876 206.899 89.3783 206.697 89.5866C206.511 89.7481 206.344 89.9324 206.2 90.1353C206.249 90.1931 206.984 89.4133 208.405 88.5614C209.236 88.0565 210.11 87.6311 211.016 87.2907C212.131 86.8972 213.28 86.612 214.446 86.4387C215.607 86.2883 216.779 86.252 217.946 86.3304C218.908 86.4075 219.862 86.5743 220.795 86.8286C222.419 87.2618 223.301 87.76 223.371 87.695Z" fill="#455A64"/>
<path d="M207.257 86.3592C207.32 86.4387 211.737 82.5687 217.113 77.6952C222.489 72.8217 226.801 68.858 226.738 68.7785C226.675 68.6991 222.258 72.5763 216.875 77.4425C211.492 82.3088 207.201 86.287 207.257 86.3592Z" fill="white"/>
<path d="M187.09 78.4534C186.756 77.7773 186.259 77.2006 185.648 76.7783C185.114 76.2539 184.458 75.8808 183.744 75.6953C184.266 76.2001 184.828 76.659 185.424 77.0671C185.944 77.5728 186.501 78.0363 187.09 78.4534Z" fill="white"/>
<path d="M206.746 82.5181C206.781 82.4731 206.811 82.4248 206.837 82.3737C206.9 82.251 206.977 82.1066 207.075 81.9333C207.346 81.3492 207.531 80.726 207.621 80.085C207.88 77.6837 207.216 75.2734 205.773 73.3704C205.317 72.7322 204.794 72.1485 204.212 71.6303C203.574 71.0794 202.885 70.5957 202.154 70.1863C200.532 69.3097 198.79 68.6914 196.988 68.3525C193.201 67.5366 188.938 67.7315 184.598 67.0673C182.474 66.7776 180.413 66.121 178.501 65.1251C176.754 64.1455 175.174 62.8773 173.825 61.3707C171.535 58.8046 169.701 55.8425 168.407 52.6201C167.259 49.8837 166.538 47.5661 166.013 46.0066L165.418 44.1799L165.257 43.7106C165.241 43.6558 165.219 43.6027 165.194 43.5518C165.194 43.5518 165.194 43.6095 165.194 43.7178L165.32 44.2016L165.901 46.0788C166.549 48.3427 167.313 50.5696 168.19 52.75C169.464 56.0224 171.297 59.0326 173.601 61.6379C174.977 63.1717 176.591 64.4598 178.375 65.45C180.313 66.4713 182.406 67.1452 184.563 67.4427C188.959 68.1214 193.201 67.9048 196.946 68.699C200.691 69.4932 203.904 71.1033 205.591 73.5292C207.007 75.3649 207.688 77.6899 207.495 80.0272C207.374 80.893 207.121 81.7337 206.746 82.5181Z" fill="#FAFAFA"/>
<path d="M202.301 111.188C202.448 112.187 202.731 113.159 203.141 114.076C203.614 115.179 204.229 116.211 204.968 117.145C205.949 118.392 207.151 119.436 208.51 120.22C210.175 121.151 212.035 121.647 213.928 121.664C216.114 121.716 218.261 121.068 220.074 119.809C222.069 118.385 223.512 116.281 224.148 113.867C224.489 112.595 224.56 111.263 224.358 109.961C224.137 108.62 223.638 107.345 222.895 106.221C221.685 104.327 219.829 102.971 217.694 102.423V102.784C219.86 102.439 221.916 101.576 223.7 100.264C225.354 99.0608 226.672 97.4299 227.522 95.5352C228.27 93.8323 228.591 91.9626 228.453 90.0985C228.338 88.4878 227.814 86.9367 226.934 85.6004C226.195 84.516 225.24 83.6055 224.134 82.929C223.313 82.4286 222.416 82.0724 221.481 81.8749C220.896 81.7552 220.299 81.7091 219.703 81.7377L219.248 81.7883C219.197 81.7804 219.145 81.7804 219.094 81.7883C219.888 81.7459 220.683 81.809 221.46 81.976C222.371 82.1909 223.242 82.5592 224.036 83.0662C225.097 83.7445 226.008 84.6448 226.71 85.7087C227.552 87.0152 228.047 88.5262 228.145 90.0913C228.262 91.9036 227.94 93.7174 227.207 95.3691C226.372 97.2042 225.086 98.7822 223.476 99.9466C221.729 101.216 219.722 102.053 217.61 102.394L216.707 102.539L217.596 102.755C219.644 103.284 221.423 104.588 222.58 106.408C223.294 107.494 223.771 108.725 223.98 110.018C224.172 111.27 224.105 112.55 223.784 113.773C223.177 116.116 221.786 118.162 219.857 119.549C218.104 120.775 216.026 121.412 213.907 121.376C212.058 121.369 210.239 120.895 208.608 119.997C207.271 119.243 206.084 118.237 205.108 117.029C204.365 116.117 203.74 115.11 203.246 114.033C202.94 113.349 202.681 112.645 202.469 111.925C202.406 111.694 202.357 111.506 202.322 111.354L202.301 111.188Z" fill="#263238"/>
<path d="M206.423 79.9619C206.483 79.9439 206.539 79.9172 206.591 79.8825L207.081 79.6153C207.694 79.2534 208.277 78.8405 208.824 78.3807C210.858 76.6676 212.41 74.4238 213.318 71.8827C214.373 68.8706 214.466 65.5898 213.584 62.5192C212.703 59.4486 210.893 56.749 208.418 54.8146C206.438 53.3096 204.212 52.1846 201.845 51.4934C199.479 50.8044 197.052 50.3618 194.6 50.1722C192.248 49.9411 189.98 49.8328 187.824 49.6812C185.784 49.5488 183.751 49.3078 181.734 48.9592C179.983 48.6487 178.265 48.1652 176.603 47.5152C174.191 46.5974 171.993 45.1685 170.149 43.3204C169.664 42.8008 169.213 42.2484 168.798 41.667L168.476 41.2122C168.443 41.1566 168.403 41.1056 168.357 41.0605C168.818 41.9215 169.388 42.7154 170.051 43.4215C171.881 45.3345 174.093 46.8128 176.533 47.7535C178.206 48.4243 179.939 48.9249 181.706 49.248C183.732 49.5998 185.774 49.8408 187.824 49.97C192.129 50.3238 196.924 50.3599 201.719 51.8256C204.042 52.506 206.23 53.606 208.18 55.0746C210.606 56.9634 212.387 59.5975 213.267 62.5974C214.148 65.5973 214.082 68.8081 213.08 71.7672C212.202 74.2672 210.706 76.4873 208.74 78.2075C208.207 78.6781 207.641 79.1076 207.046 79.4926L206.584 79.7886C206.523 79.8386 206.469 79.8969 206.423 79.9619Z" fill="#263238"/>
<path d="M128.416 69.3127C128.497 69.4116 128.596 69.4921 128.708 69.5493C128.82 69.6065 128.942 69.639 129.067 69.6449C129.431 69.6522 129.788 69.5467 130.093 69.3419C130.397 69.1372 130.635 68.8428 130.775 68.4969C130.883 68.2458 130.931 67.9716 130.914 67.6975C130.897 67.4235 130.815 67.1577 130.677 66.9229C130.354 66.3679 129.862 65.9388 129.277 65.7027C128.564 65.4366 127.796 65.3633 127.048 65.4897C126.299 65.6161 125.594 65.938 125 66.4247C124.285 66.9577 123.733 67.6922 123.411 68.5402C123.072 69.4619 123.003 70.4666 123.215 71.4282C123.43 72.4705 123.977 73.4085 124.769 74.0924C125.608 74.8095 126.633 75.2564 127.716 75.3775C128.872 75.464 130.032 75.2818 131.11 74.8445C132.188 74.4071 133.157 73.7257 133.946 72.8505C134.816 71.9636 135.495 70.8986 135.941 69.7243C136.397 68.5037 136.518 67.1773 136.291 65.8905C136.049 64.6322 135.669 63.4065 135.157 62.2371C134.688 61.0819 134.254 59.9412 133.89 58.8004C133.163 56.6089 132.693 54.3352 132.49 52.0281C132.303 49.9465 132.425 47.8476 132.854 45.8044C133.236 44.0152 133.911 42.3061 134.849 40.7504C136.201 38.4877 138.141 36.6616 140.449 35.4798C141.08 35.1847 141.733 34.9432 142.402 34.7578L142.934 34.6206C142.996 34.608 143.054 34.5861 143.109 34.5557H142.927L142.388 34.6567C141.701 34.8179 141.031 35.0477 140.386 35.3426C138.027 36.4988 136.037 38.3277 134.653 40.6132C133.68 42.1623 132.969 43.8716 132.553 45.6672C132.103 47.7413 131.966 49.8747 132.147 51.992C132.344 54.3281 132.815 56.6312 133.547 58.851C133.911 60.0062 134.352 61.1614 134.821 62.3093C135.318 63.467 135.689 64.6777 135.927 65.9193C136.136 67.1318 136.02 68.3801 135.591 69.5293C135.168 70.6591 134.517 71.683 133.68 72.5329C132.931 73.3708 132.01 74.0255 130.985 74.449C129.959 74.8724 128.854 75.054 127.751 74.9804C126.724 74.8724 125.751 74.4556 124.951 73.7819C124.207 73.1493 123.689 72.2773 123.481 71.3055C123.276 70.399 123.332 69.4504 123.642 68.5763C123.944 67.7746 124.458 67.0765 125.126 66.5619C125.684 66.0945 126.35 65.7826 127.058 65.6562C127.766 65.5298 128.494 65.593 129.172 65.8399C129.721 66.0487 130.186 66.4399 130.495 66.9518C130.629 67.1637 130.71 67.4061 130.732 67.6577C130.754 67.9093 130.716 68.1627 130.621 68.3958C130.494 68.7217 130.277 69.0021 129.997 69.2023C129.718 69.4024 129.387 69.5136 129.046 69.5221C128.822 69.5115 128.605 69.4392 128.416 69.3127Z" fill="#263238"/>
<g opacity="0.2">
<path d="M132.88 232.715C129.478 231.726 125.95 234.881 122.499 234.065C120.399 233.56 118.817 231.625 117.865 229.596C116.913 227.567 116.402 225.329 115.394 223.322C114.386 221.315 112.706 219.473 110.536 219.163C108.548 218.889 106.189 219.849 104.712 218.441C103.571 217.358 103.725 215.351 104.635 214.058C105.545 212.766 106.987 212.008 108.38 211.3C109.908 210.44 111.532 209.775 113.217 209.322C114.919 208.875 116.721 209.091 118.278 209.929C121.19 211.676 121.778 215.64 122.625 219.004C123.142 221.371 124.113 223.608 125.481 225.582C126.87 227.561 128.928 228.931 131.249 229.423C132.142 229.456 133.019 229.688 133.818 230.101C134.553 230.621 134.84 231.921 134.077 232.405" fill="black"/>
</g>
<path d="M150.613 219.741L137.859 215.156L126.428 196.724C125.871 195.825 125.141 195.052 124.284 194.454C123.427 193.855 122.461 193.444 121.444 193.244L100.941 189.251C100.681 190.057 100.716 190.933 101.04 191.714C101.364 192.495 101.954 193.127 102.698 193.489C105.435 195.099 117.748 198.059 117.748 198.059L98.7853 197.727C98.7853 197.727 98.2043 200.55 100.353 201.561C102.502 202.572 116.012 203.077 116.012 203.077L98.7013 205.619C98.7013 205.619 98.6033 208.456 102.558 208.507C106.453 208.47 110.343 208.229 114.213 207.785C114.374 207.76 114.537 207.801 114.668 207.9C114.799 207.998 114.887 208.147 114.913 208.312C114.939 208.471 114.904 208.634 114.817 208.768C114.73 208.903 114.597 208.997 114.444 209.034L102.943 211.835C102.612 211.911 102.314 212.098 102.096 212.367C101.878 212.636 101.752 212.972 101.739 213.322C101.725 213.672 101.824 214.017 102.021 214.303C102.217 214.589 102.5 214.8 102.824 214.904C103.035 214.959 103.253 214.973 103.468 214.947C105.421 214.745 117.132 213.214 117.132 213.214C117.132 213.214 121.262 228.145 123.936 229.351C126.61 230.557 132.217 230.889 132.217 230.889L144.117 235.748L150.613 219.741Z" fill="#FBBFA8"/>
<path d="M100.102 197.67C100.428 197.741 100.762 197.775 101.096 197.771L103.812 197.908C106.101 198.009 109.272 198.124 112.765 198.218L117.7 198.348C119.027 198.291 120.354 198.487 121.613 198.926C122.441 199.262 123.145 199.861 123.622 200.637C123.775 200.935 123.908 201.244 124.021 201.561C124.035 201.473 124.035 201.382 124.021 201.294C123.967 201.043 123.882 200.8 123.769 200.572C123.313 199.727 122.596 199.064 121.732 198.688C120.452 198.198 119.092 197.968 117.728 198.009L112.828 197.85C109.328 197.756 106.157 197.684 103.868 197.648H101.152C100.802 197.625 100.451 197.632 100.102 197.67Z" fill="#AA6550"/>
<path d="M99.814 205.67C100.121 205.682 100.428 205.66 100.731 205.605L103.209 205.28C105.309 204.998 108.193 204.558 111.378 204.081C112.967 203.85 114.486 203.554 115.858 203.431C117.061 203.282 118.281 203.508 119.358 204.081C120.076 204.493 120.696 205.065 121.171 205.756C121.507 206.247 121.64 206.558 121.668 206.543C121.657 206.461 121.633 206.38 121.598 206.305C121.513 206.085 121.41 205.872 121.29 205.67C120.84 204.921 120.22 204.297 119.484 203.85C118.372 203.211 117.095 202.943 115.83 203.085C114.43 203.193 112.911 203.482 111.315 203.706C108.13 204.197 105.246 204.666 103.167 205.02L100.703 205.46C100.401 205.5 100.103 205.57 99.814 205.67Z" fill="#AA6550"/>
<path d="M109.437 210.211C110.114 210.112 110.783 209.962 111.439 209.763C112.671 209.452 114.365 208.99 116.241 208.593C116.687 208.485 117.142 208.415 117.599 208.384C118.009 208.4 118.408 208.522 118.761 208.738C119.388 209.095 119.916 209.612 120.294 210.239C120.608 210.852 120.814 211.517 120.903 212.203C120.962 212.017 120.976 211.819 120.945 211.626C120.908 211.096 120.765 210.579 120.525 210.109C120.149 209.413 119.598 208.834 118.929 208.434C118.527 208.187 118.073 208.044 117.606 208.016C117.123 208.042 116.643 208.11 116.171 208.218C114.267 208.629 112.587 209.128 111.376 209.503C110.709 209.672 110.059 209.909 109.437 210.211Z" fill="#AA6550"/>
<path d="M245.289 229.654L207.034 224.802L139.939 213.554L131.28 236.001C156.48 245.011 182.338 253.141 207.706 260.289C209.779 260.715 211.893 260.899 214.006 260.837C222.476 260.874 243.364 257.365 245.289 229.654Z" fill="white"/>
<path d="M131.277 236.001C131.342 235.872 131.401 235.739 131.452 235.604C131.571 235.322 131.725 234.932 131.935 234.427C132.348 233.373 132.95 231.857 133.713 229.922L140.076 213.605L139.915 213.698L172.514 219.316C180.214 220.68 187.599 221.568 194.291 222.485C197.644 222.94 200.822 223.395 203.783 223.929C205.267 224.175 206.695 224.415 208.067 224.651C209.382 224.869 210.684 225.163 211.966 225.532C215.829 226.787 219.083 229.514 221.066 233.156C221.609 234.136 222.057 235.169 222.403 236.239C222.522 236.607 222.599 236.896 222.648 237.084C222.672 237.183 222.705 237.28 222.746 237.373C222.681 236.982 222.59 236.596 222.473 236.218C222.154 235.129 221.725 234.079 221.192 233.084C220.35 231.503 219.268 230.072 217.986 228.846C216.27 227.228 214.236 226.011 212.022 225.279C210.73 224.9 209.419 224.594 208.095 224.362C206.695 224.102 205.295 223.835 203.811 223.583C200.843 223.077 197.665 222.601 194.319 222.139C187.62 221.207 180.242 220.312 172.556 218.94L139.943 213.402H139.824L139.782 213.518C137.178 220.334 135.036 225.951 133.538 229.878L131.83 234.413C131.641 234.925 131.501 235.322 131.389 235.604C131.277 235.885 131.277 236.001 131.277 236.001Z" fill="#263238"/>
<path d="M224.699 259.646C224.595 259.657 224.492 259.679 224.391 259.711L223.502 259.934C222.718 260.108 221.563 260.382 220.051 260.57C215.78 261.113 211.45 260.898 207.248 259.934C205.918 259.646 204.546 259.256 203.111 258.837L198.645 257.537L188.845 254.649C181.922 252.57 174.327 250.238 166.382 247.689C153.082 243.43 140.86 239.256 131.382 235.885L131.466 236.08C134.084 229.221 136.233 223.611 137.724 219.69C138.459 217.748 139.026 216.225 139.425 215.17C139.614 214.665 139.754 214.275 139.859 213.986C139.964 213.698 139.992 213.582 139.992 213.582C139.992 213.582 139.929 213.712 139.817 213.972C139.705 214.232 139.551 214.643 139.348 215.142L137.577 219.625L131.2 235.971L131.144 236.116L131.284 236.166C140.776 239.588 152.984 243.783 166.284 248.05C174.229 250.599 181.831 252.924 188.761 254.989L198.617 257.877L203.09 259.147C204.49 259.559 205.89 259.949 207.241 260.23C211.472 261.176 215.831 261.354 220.121 260.758C221.678 260.54 223.211 260.167 224.699 259.646Z" fill="#263238"/>
<path d="M209.876 224.802C210.19 224.888 210.512 224.939 210.835 224.954L213.46 225.221L222.112 226.095L230.764 227.048L233.389 227.329C233.708 227.386 234.032 227.405 234.355 227.387C234.044 227.292 233.726 227.225 233.403 227.185C232.787 227.084 231.898 226.947 230.792 226.788C228.587 226.47 225.535 226.066 222.154 225.727C218.773 225.387 215.7 225.113 213.481 224.961C212.368 224.882 211.465 224.831 210.842 224.802C210.521 224.774 210.198 224.774 209.876 224.802Z" fill="#263238"/>
<path d="M276.716 297.182C278.648 300.034 282.414 299.088 284.157 297.348C285.9 295.608 286.635 293.088 287.307 290.684C288.84 285.19 290.387 279.428 289.246 273.833C288.967 272.135 288.241 270.549 287.146 269.248C286.594 268.607 285.888 268.128 285.099 267.858C284.31 267.588 283.466 267.537 282.652 267.71C280.755 268.223 279.579 270.136 278.725 271.963C276.215 277.343 274.9 283.233 274.875 289.204C274.875 291.977 275.183 294.893 276.702 297.182" fill="#50AD33"/>
<path d="M283.968 311.615C287.132 309.933 290.856 309.716 294.37 310.315C296.253 310.633 298.227 311.218 299.508 312.683C300.789 314.149 301.034 316.719 299.564 317.976C298.611 318.636 297.465 318.934 296.323 318.82C293.572 318.784 290.52 318.286 288.322 319.997C287.069 320.965 286.222 322.589 284.738 323.066C283.989 323.246 283.203 323.171 282.5 322.85C281.797 322.53 281.214 321.982 280.839 321.29C280.124 319.869 279.966 318.22 280.398 316.683C280.572 315.611 280.986 314.596 281.605 313.716C282.225 312.837 283.033 312.118 283.968 311.615Z" fill="#81B5A1"/>
<path d="M271.405 301.276C273.505 298.699 273.904 294.952 272.966 291.732C272.028 288.511 269.921 285.768 267.492 283.53C264.632 280.902 261.304 278.874 257.692 277.559C256.295 276.971 254.79 276.707 253.282 276.786C252.529 276.83 251.798 277.063 251.152 277.466C250.506 277.869 249.966 278.429 249.579 279.097C248.543 281.125 249.537 283.595 250.608 285.595C252.495 289.134 254.651 292.514 257.055 295.703C258.987 298.273 261.199 300.807 264.139 301.97C267.079 303.132 270.145 302.995 271.706 300.887" fill="#81B5A1"/>
<path d="M276.585 340.177C276.689 339.755 276.748 339.321 276.76 338.885C276.851 337.946 276.963 336.762 277.096 335.354C277.268 333.612 277.525 331.879 277.866 330.163C278.315 328.077 278.926 326.032 279.693 324.048C280.445 322.064 281.466 320.199 282.724 318.51C283.749 317.136 285.057 316.014 286.553 315.225C287.575 314.704 288.672 314.356 289.801 314.193C290.221 314.174 290.639 314.111 291.047 314.005C290.626 313.958 290.201 313.958 289.78 314.005C288.614 314.096 287.474 314.402 286.413 314.907C284.837 315.676 283.455 316.81 282.374 318.221C281.061 319.932 280.002 321.835 279.231 323.867C278.457 325.885 277.85 327.967 277.418 330.091C277.082 331.824 276.848 333.577 276.718 335.34C276.606 336.842 276.564 338.055 276.55 338.892C276.518 339.321 276.529 339.751 276.585 340.177Z" fill="#263238"/>
<path d="M276.821 337.463C276.857 337.265 276.869 337.064 276.856 336.863C276.856 336.409 276.856 335.838 276.856 335.138C276.856 333.651 276.856 331.492 276.933 328.828C277.059 323.499 277.507 316.135 278.333 308.048C279.159 299.962 280.37 292.684 281.399 287.464C281.651 286.15 281.896 284.973 282.099 283.941C282.302 282.908 282.512 282.02 282.694 281.298C282.876 280.576 282.981 280.064 283.086 279.623C283.141 279.43 283.176 279.232 283.191 279.031C283.1 279.209 283.032 279.398 282.988 279.594C282.855 280.028 282.701 280.576 282.498 281.241C282.295 281.905 282.064 282.843 281.798 283.876C281.532 284.908 281.259 286.078 280.986 287.385C279.559 294.189 278.487 301.068 277.773 307.991C276.912 316.099 276.52 323.478 276.485 328.82C276.485 331.492 276.485 333.658 276.576 335.145C276.618 335.867 276.653 336.416 276.681 336.863C276.703 337.069 276.75 337.27 276.821 337.463Z" fill="#263238"/>
<path d="M276.857 323.225C276.902 322.629 276.902 322.03 276.857 321.434C276.794 320.279 276.64 318.611 276.325 316.568C275.944 314.179 275.433 311.814 274.792 309.485C274.028 306.622 273.069 303.819 271.922 301.095C269.926 296.089 267.066 291.497 263.48 287.543C262.86 286.867 262.199 286.233 261.499 285.644C261.191 285.377 260.925 285.11 260.652 284.922L259.882 284.374C259.416 284.015 258.925 283.691 258.412 283.406C258.328 283.529 260.512 284.85 263.214 287.832C266.683 291.816 269.467 296.383 271.446 301.334C272.585 304.032 273.549 306.806 274.33 309.637C274.99 311.946 275.537 314.288 275.968 316.654C276.325 318.676 276.535 320.329 276.668 321.47C276.685 322.059 276.748 322.646 276.857 323.225Z" fill="#263238"/>
<path d="M73.0948 94.2933C73.7948 88.5679 78.4778 83.2323 84.0708 83.2323C87.3678 83.2323 90.5108 85.0084 92.7648 87.4993C93.5664 88.3367 94.3036 89.2371 94.9698 90.1924C95.4437 89.1206 95.996 88.0876 96.6218 87.1022C98.3578 84.2142 101.095 81.8244 104.322 81.1529C109.81 80.0266 115.424 84.3009 117.195 89.7736C118.966 95.2464 117.489 101.383 114.584 106.307C111.679 111.231 106.674 117.679 97.4548 120.87C91.1058 120.033 82.5938 114.221 78.8068 109.975C75.0198 105.73 72.4088 100.019 73.0948 94.2933Z" fill="#039FD3"/>
<path d="M75.1105 104.568H75.2925L75.8315 104.532L77.9315 104.351L85.5335 103.629L85.4005 103.543L88.5645 112.062L88.7605 112.575L88.8865 112.041C89.8455 107.903 90.9305 103.275 92.0715 98.3947L93.1005 93.9544L92.7785 94.0266L98.5815 102.257L98.6375 102.33H98.7005L112.063 100.886L115.843 100.452L116.845 100.322L117.188 100.257C117.071 100.246 116.954 100.246 116.837 100.257L115.837 100.337L112.042 100.676L98.6725 101.976L98.8195 102.048L93.0445 93.7956L92.8135 93.4707L92.7225 93.8606C92.3865 95.3046 92.0225 96.7991 91.6865 98.3153C90.5595 103.196 89.4885 107.831 88.5295 111.968H88.8515L85.6175 103.47L85.5825 103.377H85.4845L77.8895 104.214L75.8245 104.467L75.2925 104.539L75.1105 104.568Z" fill="#FAFAFA"/>
</svg>
