<svg width="368" height="161" viewBox="0 0 368 161" fill="none" xmlns="http://www.w3.org/2000/svg">
<g opacity="0.6">
<path opacity="0.4" d="M366.632 75.3651V77.3882C346.232 77.3882 320.691 77.7254 315.338 79.0319C279.723 87.4614 280.356 106.006 267.669 106.006C257.849 106.006 238.882 78.3997 221.939 78.3997C204.996 78.3997 200.359 87.9673 188.769 87.9673C177.178 87.9673 174.27 78.3997 147.759 78.3997C121.248 78.3997 114.041 96.2703 98.826 96.2703C83.6107 96.2703 67.3839 77.3882 48.6703 77.3882H0.875V75.3651H48.8811C67.5946 75.3651 83.6528 56.483 99.0367 56.483C114.421 56.483 121.417 74.3535 147.97 74.3535C174.523 74.3535 177.473 64.8282 188.98 64.8282C200.486 64.8282 205.249 74.3535 222.15 74.3535C239.051 74.3535 258.059 46.7891 267.88 46.7891C280.524 46.7891 279.934 65.2075 315.549 73.7635C320.691 75.0279 346.232 75.3651 366.632 75.3651Z" fill="white"/>
<path opacity="0.6" d="M366.633 75.3658V77.3889C340.08 77.3889 333.842 110.854 311.841 110.854C295.994 110.854 279.893 82.6995 259.409 82.6995C239.853 82.6995 238.589 94.8802 226.576 94.8802C214.564 94.8802 207.737 77.5575 188.644 77.5575C166.179 77.5575 160.7 116.797 141.312 116.797C121.924 116.797 113.41 80.2549 94.9496 80.2549C76.489 80.2549 75.4353 86.1978 59.7985 86.1978C44.1618 86.1978 29.9581 77.3889 13.942 77.3889H0.539062V75.3658H13.942C29.9581 75.3658 44.1618 66.5991 59.7985 66.5991C75.4353 66.5991 76.6575 72.4998 94.9496 72.4998C113.242 72.4998 121.713 36 141.312 36C160.911 36 166.179 75.2394 188.644 75.2394C207.568 75.2394 213.932 57.8746 226.576 57.8746C239.221 57.8746 239.853 70.0552 259.409 70.0552C279.893 70.0552 295.994 41.9428 311.841 41.9428C333.842 41.985 340.08 75.3658 366.633 75.3658Z" fill="white"/>
<path d="M0.875 76.9631V75.6986C4.96707 75.6772 9.03694 75.0958 12.9713 73.9706C16.8937 72.8026 20.6481 71.1309 24.1405 68.9972C31.0948 64.7824 37.417 59.3454 45.2143 56.6479C49.134 55.2709 53.2909 54.6976 57.437 54.962C61.5373 55.3805 65.5396 56.4773 69.2805 58.2074C76.8249 61.4528 83.8636 65.7518 91.4501 68.7021C98.9341 71.8623 107.141 72.9118 115.179 71.7367C119.175 71.207 123.044 69.9651 126.601 68.0699C130.122 65.8246 134.043 64.2791 138.15 63.518C142.343 63.0052 146.596 63.6921 150.415 65.4989C154.208 67.1848 157.664 69.3765 161.373 71.0202C168.639 74.5725 176.849 75.7096 184.807 74.2656C192.617 72.1157 199.743 67.9938 205.501 62.2957C208.626 59.5522 212.115 57.2544 215.87 55.4678C219.752 53.7695 223.998 53.0739 228.219 53.4447C232.427 53.7727 236.499 55.0866 240.105 57.2802C243.587 59.5175 246.897 62.0111 250.009 64.7402C253.01 67.3899 256.428 69.526 260.125 71.0624C263.866 72.3827 267.859 72.8297 271.8 72.369C275.797 72.0367 279.727 71.1428 283.474 69.7137C287.268 68.2807 290.892 66.4262 294.812 64.9932C298.754 63.5316 302.915 62.7478 307.119 62.675C311.315 62.7097 315.481 63.3921 319.469 64.6981C327.392 67.1005 334.726 70.8938 342.481 73.1276C350.236 75.3614 358.371 74.5185 366.589 74.7292H367.643V77.8903H366.589C358.371 77.8903 350.152 77.0473 342.481 79.4919C334.81 81.9364 327.392 85.3925 319.469 87.9214C315.481 89.2274 311.315 89.9099 307.119 89.9445C302.915 89.9113 298.75 89.1409 294.812 87.6685C290.892 86.2355 287.268 84.3389 283.474 82.948C279.729 81.5056 275.798 80.5976 271.8 80.2506C267.856 79.8034 263.862 80.2647 260.125 81.5993C256.428 83.1356 253.01 85.2717 250.009 87.9214C246.907 90.6499 243.596 93.1303 240.105 95.3394C236.51 97.564 232.434 98.8937 228.219 99.217C223.998 99.5878 219.752 98.8922 215.87 97.1939C212.133 95.3763 208.647 93.0811 205.501 90.366C199.756 84.6419 192.627 80.5035 184.807 78.3539C176.849 76.9277 168.644 78.064 161.373 81.5993C157.664 83.2852 154.208 85.4347 150.415 87.1206C146.599 88.9396 142.347 89.641 138.15 89.1437C134.049 88.3637 130.131 86.8196 126.601 84.5918C123.036 82.7055 119.172 81.4506 115.179 80.8828C107.137 79.7231 98.9307 80.7872 91.4501 83.9596C83.8636 86.8678 76.8249 91.1668 69.2805 94.4122C65.5396 96.1423 61.5373 97.239 57.437 97.6575C53.3081 97.9185 49.1684 97.3599 45.2564 96.0138C37.3748 93.3163 31.0527 87.795 24.1826 83.6224C20.6813 81.5057 16.9292 79.8349 13.0135 78.6489C9.05978 77.5523 4.97794 76.9854 0.875 76.9631ZM0.875 76.9631C4.97184 76.9516 9.05262 77.4758 13.0135 78.5225C16.9502 79.6867 20.7294 81.3287 24.2669 83.4116C31.3056 87.6264 37.6698 92.937 45.3407 95.508C49.1894 96.8076 53.2593 97.3235 57.3106 97.0253C61.3467 96.5719 65.2785 95.4465 68.9433 93.6957C76.3613 90.4081 83.3578 86.0248 91.0286 82.9901C98.677 79.727 107.073 78.6193 115.306 79.7869C119.429 80.3352 123.424 81.6049 127.107 83.5381C130.524 85.6167 134.297 87.0456 138.234 87.7528C142.217 88.2105 146.248 87.5387 149.867 85.814C153.534 84.1703 157.032 81.9786 160.783 80.2506C168.309 76.5689 176.81 75.3734 185.06 76.8366C193.093 79.0074 200.436 83.201 206.387 89.0173C209.421 91.6684 212.812 93.8816 216.46 95.5923C220.102 97.1891 224.092 97.8275 228.05 97.4468C232.024 97.1253 235.866 95.8688 239.262 93.7799C242.663 91.587 245.889 89.1352 248.913 86.4463C252.11 83.7111 255.725 81.5056 259.619 79.9134C263.664 78.4569 267.991 77.9521 272.263 78.4382C276.421 78.7579 280.51 79.6808 284.402 81.1778C288.321 82.6108 291.946 84.4653 295.739 85.8562C303.321 88.5332 311.591 88.5332 319.173 85.8562C326.886 83.4538 334.22 79.6605 342.228 77.4267C346.255 76.2634 350.428 75.6815 354.62 75.6986H366.884L365.831 76.7523V75.6986L366.884 76.7523H354.62C350.428 76.7695 346.255 76.1875 342.228 75.0242C334.22 72.7483 326.886 68.955 319.173 66.5947C311.599 63.8763 303.314 63.8763 295.739 66.5947C291.946 67.9435 288.321 69.798 284.402 71.231C280.51 72.728 276.421 73.6509 272.263 73.9706C267.994 74.4919 263.663 74.001 259.619 72.5376C255.768 70.9052 252.209 68.6559 249.082 65.8782C246.047 63.2024 242.821 60.7513 239.43 58.5445C236.034 56.4556 232.193 55.1992 228.219 54.8777C224.261 54.5173 220.276 55.1549 216.628 56.7322C212.997 58.4738 209.611 60.6843 206.555 63.3072C200.618 69.1509 193.272 73.3614 185.228 75.5301C176.979 76.9933 168.478 75.7978 160.951 72.1161C157.158 70.388 153.702 68.1964 149.993 66.5526C146.396 64.806 142.376 64.1189 138.403 64.5717C134.446 65.3274 130.67 66.8293 127.276 68.9972C123.592 70.9303 119.598 72.2001 115.474 72.7483C107.237 73.9224 98.8364 72.7993 91.1972 69.5029C83.5263 66.4683 76.5299 62.085 69.1119 58.7975C65.4472 57.0466 61.5153 55.9212 57.4791 55.4678C53.4285 55.1907 49.3627 55.7061 45.5093 56.9851C37.7541 59.5561 31.3898 64.9932 24.4355 69.1236C20.9091 71.2179 17.1266 72.8471 13.1821 73.9706C9.22712 75.0517 5.14359 75.5905 1.04356 75.5722L0.875 76.9631Z" fill="white"/>
</g>
<g filter="url(#filter0_d_3634_105185)">
<circle cx="197.094" cy="76.1953" r="50" fill="url(#paint0_linear_3634_105185)"/>
<circle cx="197.094" cy="76.1953" r="48.5" stroke="white" stroke-width="3"/>
</g>
<path d="M189.598 51.5C189.598 49.5109 190.388 47.6032 191.794 46.1967C193.201 44.7902 195.109 44 197.098 44C199.087 44 200.994 44.7902 202.401 46.1967C203.807 47.6032 204.598 49.5109 204.598 51.5V64.0001C204.598 65.9892 203.807 67.8969 202.401 69.3034C200.994 70.7099 199.087 71.5001 197.098 71.5001C195.109 71.5001 193.201 70.7099 191.794 69.3034C190.388 67.8969 189.598 65.9892 189.598 64.0001V51.5Z" fill="url(#paint1_linear_3634_105185)"/>
<path d="M185.844 60.25C186.175 60.25 186.493 60.3817 186.728 60.6161C186.962 60.8505 187.094 61.1685 187.094 61.5V64C187.094 66.6522 188.147 69.1957 190.023 71.0711C191.898 72.9465 194.442 74.0001 197.094 74.0001C199.746 74.0001 202.289 72.9465 204.165 71.0711C206.04 69.1957 207.094 66.6522 207.094 64V61.5C207.094 61.1685 207.225 60.8505 207.46 60.6161C207.694 60.3817 208.012 60.25 208.344 60.25C208.675 60.25 208.993 60.3817 209.228 60.6161C209.462 60.8505 209.594 61.1685 209.594 61.5V64C209.594 67.0988 208.443 70.0872 206.364 72.3854C204.285 74.6836 201.427 76.1277 198.344 76.4376V81.5001H205.844C206.175 81.5001 206.493 81.6318 206.728 81.8662C206.962 82.1006 207.094 82.4186 207.094 82.7501C207.094 83.0816 206.962 83.3996 206.728 83.634C206.493 83.8684 206.175 84.0001 205.844 84.0001H188.344C188.012 84.0001 187.694 83.8684 187.46 83.634C187.225 83.3996 187.094 83.0816 187.094 82.7501C187.094 82.4186 187.225 82.1006 187.46 81.8662C187.694 81.6318 188.012 81.5001 188.344 81.5001H195.844V76.4376C192.76 76.1277 189.902 74.6836 187.823 72.3854C185.745 70.0872 184.594 67.0988 184.594 64V61.5C184.594 61.1685 184.725 60.8505 184.96 60.6161C185.194 60.3817 185.512 60.25 185.844 60.25Z" fill="url(#paint2_linear_3634_105185)"/>
<path d="M188.425 101.047V101.586C188.425 102.451 188.308 103.227 188.073 103.914C187.839 104.602 187.508 105.188 187.081 105.672C186.654 106.151 186.144 106.518 185.55 106.773C184.961 107.029 184.308 107.156 183.589 107.156C182.876 107.156 182.222 107.029 181.628 106.773C181.04 106.518 180.529 106.151 180.097 105.672C179.665 105.188 179.329 104.602 179.089 103.914C178.855 103.227 178.737 102.451 178.737 101.586V101.047C178.737 100.177 178.855 99.401 179.089 98.7188C179.323 98.0312 179.654 97.4453 180.081 96.9609C180.514 96.4766 181.024 96.1068 181.612 95.8516C182.206 95.5964 182.86 95.4688 183.573 95.4688C184.292 95.4688 184.946 95.5964 185.534 95.8516C186.128 96.1068 186.639 96.4766 187.066 96.9609C187.498 97.4453 187.831 98.0312 188.066 98.7188C188.305 99.401 188.425 100.177 188.425 101.047ZM186.058 101.586V101.031C186.058 100.427 186.003 99.8958 185.894 99.4375C185.784 98.9792 185.623 98.5938 185.409 98.2812C185.196 97.9688 184.935 97.7344 184.628 97.5781C184.321 97.4167 183.969 97.3359 183.573 97.3359C183.178 97.3359 182.826 97.4167 182.519 97.5781C182.217 97.7344 181.959 97.9688 181.745 98.2812C181.537 98.5938 181.378 98.9792 181.269 99.4375C181.159 99.8958 181.105 100.427 181.105 101.031V101.586C181.105 102.185 181.159 102.716 181.269 103.18C181.378 103.638 181.54 104.026 181.753 104.344C181.967 104.656 182.227 104.893 182.534 105.055C182.842 105.216 183.193 105.297 183.589 105.297C183.985 105.297 184.336 105.216 184.644 105.055C184.951 104.893 185.209 104.656 185.417 104.344C185.626 104.026 185.784 103.638 185.894 103.18C186.003 102.716 186.058 102.185 186.058 101.586ZM198.459 105.242V107H190.678V105.5L194.358 101.555C194.728 101.143 195.019 100.781 195.233 100.469C195.446 100.151 195.6 99.8672 195.694 99.6172C195.793 99.362 195.842 99.1198 195.842 98.8906C195.842 98.5469 195.785 98.2526 195.67 98.0078C195.556 97.7578 195.386 97.5651 195.162 97.4297C194.944 97.2943 194.673 97.2266 194.35 97.2266C194.006 97.2266 193.709 97.3099 193.459 97.4766C193.215 97.6432 193.027 97.875 192.897 98.1719C192.772 98.4688 192.709 98.8047 192.709 99.1797H190.452C190.452 98.5026 190.613 97.8828 190.936 97.3203C191.259 96.7526 191.715 96.3021 192.303 95.9688C192.892 95.6302 193.59 95.4609 194.397 95.4609C195.194 95.4609 195.866 95.5911 196.412 95.8516C196.965 96.1068 197.381 96.4766 197.662 96.9609C197.949 97.4401 198.092 98.013 198.092 98.6797C198.092 99.0547 198.032 99.4219 197.912 99.7812C197.793 100.135 197.621 100.49 197.397 100.844C197.178 101.193 196.912 101.547 196.6 101.906C196.287 102.266 195.941 102.638 195.561 103.023L193.584 105.242H198.459ZM205.525 97.5703L202.431 107H199.939L204.166 95.625H205.752L205.525 97.5703ZM208.095 107L204.994 97.5703L204.744 95.625H206.345L210.595 107H208.095ZM207.955 102.766V104.602H201.947V102.766H207.955ZM214.942 95.625V107H212.606V95.625H214.942Z" fill="#4938CF"/>
<defs>
<filter id="filter0_d_3634_105185" x="117.094" y="0.195312" width="160" height="160" filterUnits="userSpaceOnUse" color-interpolation-filters="sRGB">
<feFlood flood-opacity="0" result="BackgroundImageFix"/>
<feColorMatrix in="SourceAlpha" type="matrix" values="0 0 0 0 0 0 0 0 0 0 0 0 0 0 0 0 0 0 127 0" result="hardAlpha"/>
<feOffset dy="4"/>
<feGaussianBlur stdDeviation="15"/>
<feComposite in2="hardAlpha" operator="out"/>
<feColorMatrix type="matrix" values="0 0 0 0 0 0 0 0 0 0 0 0 0 0 0 0 0 0 0.15 0"/>
<feBlend mode="normal" in2="BackgroundImageFix" result="effect1_dropShadow_3634_105185"/>
<feBlend mode="normal" in="SourceGraphic" in2="effect1_dropShadow_3634_105185" result="shape"/>
</filter>
<linearGradient id="paint0_linear_3634_105185" x1="160.427" y1="43.6953" x2="241.26" y2="118.695" gradientUnits="userSpaceOnUse">
<stop stop-color="#E7E4FF"/>
<stop offset="1" stop-color="#D3E8FF"/>
</linearGradient>
<linearGradient id="paint1_linear_3634_105185" x1="191.473" y1="46.6359" x2="210.967" y2="57.2031" gradientUnits="userSpaceOnUse">
<stop stop-color="#2E6DCC"/>
<stop offset="1" stop-color="#4938CF"/>
</linearGradient>
<linearGradient id="paint2_linear_3634_105185" x1="187.719" y1="62.5265" x2="207.791" y2="83.5238" gradientUnits="userSpaceOnUse">
<stop stop-color="#2E6DCC"/>
<stop offset="1" stop-color="#4938CF"/>
</linearGradient>
</defs>
</svg>
