<?xml version="1.0" encoding="utf-8"?>
<!-- Generator: Adobe Illustrator 21.0.2, SVG Export Plug-In . SVG Version: 6.00 Build 0)  -->
<svg version="1.1" id="Layer_1" xmlns="http://www.w3.org/2000/svg" xmlns:xlink="http://www.w3.org/1999/xlink" x="0px" y="0px"
	 viewBox="0 0 380 160" enable-background="new 0 0 380 160" xml:space="preserve">
	<g>
		<polygon fill="#C20849" points="242.6,33.2 276.5,33.2 280.7,15.2 246.8,15.2 	"/>
		<path fill="#C20849" d="M326.7,63.3c12.5,0,18.4,7.7,19.2,15.2H380c1.1-24.8-18.9-37.1-49.1-37.1c-31.2,0-55,11.4-64.9,34.2l7.5-33.4
			h-32.9l-7,31.2c-1.4-19.8-16.5-31.6-40.7-31.6c-13.4,0-26,5.7-34.8,14.3h-0.3l3.4-13.8h-31.9l-14.1,63.6H42.1l3.8-18.3h66.2
			l5.5-27.4H51.8l3.5-18.1h73.9l6.5-27.2H27.4L0,132.9h108.8l-4.9,27.1h32.9l8-38.3h0.3c4.3,6.2,14.5,11.6,29,11.6
			c24.9,0,44.1-13.5,53.3-31.3l-6.7,31h32.9l7.4-34c0.1,23,18.4,34.3,50.5,34.3c36.2,0,55.4-13.3,65.5-36.7h-34.8
			c-4.6,9.9-13.7,14.4-25.6,14.4c-15.8,0-23-8.6-19.8-23.9C300.3,71.8,311.3,63.3,326.7,63.3L326.7,63.3z M198.8,87.3
			c-3,14-12.8,21.5-27.8,21.5c-15.4,0-21.6-8.4-18.9-21.5c2.7-13.1,12.7-21.5,27.9-21.5C195.1,65.7,201.7,73.3,198.8,87.3z"/>
	</g>
</svg>
