<svg width="38" height="15" viewBox="0 0 38 15" fill="none" xmlns="http://www.w3.org/2000/svg">
<path d="M10.343 14.0389C10.3289 14.0164 10.3362 13.901 10.3591 13.7825C10.4268 13.4331 10.6861 12.2183 10.7973 11.7297C10.8539 11.4809 10.8856 11.2628 10.8676 11.245C10.8497 11.2272 8.39714 11.208 5.41751 11.2023L0 11.1919L0.00212637 10.9872C0.00329905 10.8746 0.100877 10.3217 0.218974 9.75866C0.669563 7.61027 0.769036 7.13216 0.802596 6.95351C0.821636 6.85216 0.932538 6.30854 1.04905 5.74546C1.38268 4.13299 1.83236 1.9534 1.96946 1.28411C2.03841 0.947535 2.11283 0.638867 2.13482 0.598181C2.17308 0.52742 2.41283 0.524206 7.6524 0.524206C11.4545 0.524206 13.1382 0.537437 13.157 0.567467C13.1718 0.591261 13.1554 0.734078 13.1204 0.884837C13.0854 1.0356 12.9885 1.48144 12.9052 1.87559C12.8218 2.26974 12.7363 2.66124 12.7152 2.74558L12.6767 2.89892L8.98947 2.90939L5.30221 2.91985L5.27176 3.02223C5.25502 3.07854 5.20152 3.34574 5.15288 3.61602C5.10424 3.8863 5.03681 4.23284 5.00304 4.38613C4.96927 4.53941 4.9525 4.68223 4.96578 4.7035C4.98059 4.72722 6.22742 4.74217 8.19119 4.74217C10.0808 4.74217 11.402 4.75751 11.4158 4.77961C11.4287 4.80021 11.3745 5.11809 11.2955 5.48602C11.2165 5.85395 11.1215 6.3024 11.0844 6.48259C11.0474 6.66277 11.0006 6.85166 10.9805 6.90234L10.944 6.99448H7.71544C6.08057 7.0183 7.71544 6.99448 4.4728 7.01134L4.12906 8.86688C7.783 8.86827 6.51974 8.87168 7.783 8.86827L11.4108 8.85781L11.4628 8.6121C11.4914 8.47697 11.5736 8.09919 11.6454 7.77261C11.7172 7.44602 11.8381 6.88397 11.914 6.5236C12.088 5.69772 12.3754 4.35426 12.4527 4.00511C12.4851 3.85871 12.5532 3.55005 12.604 3.31919L12.6964 2.89944L14.2291 2.90006C15.0721 2.90037 15.7848 2.9151 15.8128 2.93271C15.8521 2.95742 15.839 3.07457 15.7555 3.44534C15.6961 3.70967 15.6583 3.93672 15.6716 3.9499C15.6849 3.96307 15.7406 3.93942 15.7954 3.89734C16.2259 3.5666 16.4163 3.43927 16.7087 3.28684C17.6342 2.8043 18.7608 2.61572 19.9072 2.75148C21.051 2.88694 21.7146 3.1674 22.3405 3.77988C22.7861 4.21599 23.0701 4.77589 23.1688 5.41301C23.1824 5.50041 23.2082 5.55569 23.2263 5.53587C23.2565 5.50281 23.3451 5.13357 23.5004 4.39414C23.7144 3.37527 23.8168 2.96036 23.8611 2.93249C23.9306 2.88876 26.9593 2.89208 27.0292 2.93595C27.0753 2.96484 27.0767 3.01105 27.0368 3.19127C27.01 3.3123 26.9513 3.57717 26.9062 3.77988C26.8612 3.98258 26.7619 4.44328 26.6857 4.80365C26.6095 5.16402 26.5339 5.50954 26.5177 5.57148C26.4658 5.77034 26.5667 5.6951 26.7229 5.41846C27.0493 4.84083 27.691 4.16916 28.3041 3.76338C29.6294 2.88632 31.5814 2.46915 33.7028 2.60964C34.8932 2.68847 35.5261 2.82767 36.2473 3.16931C36.995 3.52348 37.4338 3.99186 37.6808 4.69946C37.7821 4.98979 37.8037 5.11907 37.8074 5.45887L37.8119 5.86838H36.1398H34.4678L34.3858 5.62486C34.2116 5.10743 33.7286 4.81455 32.9375 4.74656C31.8591 4.65386 31.0436 4.89754 30.3787 5.51118C29.6245 6.20715 29.2527 7.67091 29.6275 8.46876C29.9233 9.0985 30.5511 9.41064 31.5218 9.41064C32.5999 9.41064 33.4171 9.01996 33.9202 8.26407L34.111 7.97735H35.8063C37.3444 7.97735 37.5016 7.98353 37.5016 8.04398C37.5016 8.08062 37.4239 8.25108 37.3289 8.42277C36.308 10.2679 34.8316 11.1879 32.4201 11.4816C31.7356 11.565 29.9243 11.5436 29.3299 11.4451C28.5826 11.3213 28.1037 11.1719 27.5522 10.8905C27.0377 10.6281 26.4954 10.1009 26.2824 9.65635C26.1296 9.33739 26.0277 9.00048 25.9804 8.65834C25.9476 8.42067 25.8945 8.44971 25.8376 8.73639C25.8155 8.84821 25.7321 9.24376 25.6525 9.61539C25.5729 9.98702 25.4781 10.4293 25.442 10.5982C25.4059 10.7671 25.3579 10.9745 25.3353 11.0589L25.2943 11.2125H23.7019C22.3784 11.2125 22.1057 11.2028 22.0873 11.1554C22.0665 11.1017 22.1624 10.5904 22.3606 9.6973C22.4081 9.48333 22.4657 9.20691 22.4887 9.08303C22.5116 8.95915 22.5399 8.82555 22.5515 8.78614C22.5866 8.66731 22.5075 8.70548 22.4242 8.84756C22.1425 9.32804 21.538 9.98302 21.0236 10.3652C19.952 11.1615 18.7498 11.5392 17.2852 11.5398C16.0432 11.5403 15.2063 11.2818 14.5939 10.7085C14.4735 10.5958 14.3628 10.5157 14.3478 10.5306C14.3328 10.5454 14.2958 10.6727 14.2656 10.8134C14.2354 10.954 14.1463 11.3732 14.0675 11.7448C13.9887 12.1165 13.8857 12.5956 13.8386 12.8096C13.7915 13.0235 13.7231 13.3368 13.6866 13.5057C13.65 13.6747 13.6079 13.8682 13.593 13.9357L13.5659 14.0586L11.9672 14.0693C10.9329 14.0762 10.3595 14.0655 10.343 14.0389ZM17.9011 9.08703C18.8356 8.82017 19.4037 8.24134 19.6896 7.26477C19.83 6.78503 19.8366 6.24668 19.7063 5.90182C19.5835 5.57693 19.282 5.28399 18.9255 5.14316C18.3899 4.93154 17.4789 4.91127 16.8788 5.09761C15.753 5.44721 15.0412 6.41116 15.0246 7.60872C15.0192 7.9999 15.029 8.06089 15.1339 8.28442C15.3667 8.78053 15.7813 9.06457 16.4237 9.16809C16.7586 9.22204 17.5877 9.17654 17.9011 9.08703ZM24.0717 1.76639C24.0998 1.5632 24.3728 0.288455 24.4254 0.114689L24.4563 0.0123112L26.0431 0.00157971C26.9158 -0.00432188 27.6459 0.0068323 27.6657 0.0263691C27.7 0.0603428 27.6425 0.387973 27.4488 1.26132C27.4014 1.47529 27.3486 1.71485 27.3314 1.79368L27.3003 1.93701L25.6727 1.94772L24.0451 1.95845L24.0717 1.76639Z" fill="white"/>
</svg>
