<svg width="40" height="40" viewBox="0 0 40 40" fill="none" xmlns="http://www.w3.org/2000/svg">
<path fill-rule="evenodd" clip-rule="evenodd" d="M34.5517 0.00157232H5.53307C4.11142 -0.0327017 2.73351 0.49453 1.69785 1.46905C0.662192 2.44356 0.0521911 3.78689 0 5.208V34.7933C0.0469457 36.1997 0.642412 37.5319 1.65901 38.5049C2.67562 39.4779 4.03262 40.0144 5.43975 39.9997H9.3729C9.19704 39.6574 9.10561 39.2779 9.10624 38.8931V24.0005C9.10765 23.7602 9.20101 23.5296 9.36714 23.356C9.53327 23.1825 9.75956 23.0791 9.99953 23.0672H35.005C35.2485 23.0741 35.4798 23.1752 35.6502 23.3493C35.8206 23.5234 35.9167 23.7569 35.9183 24.0005V38.8931C35.9187 39.2306 35.8483 39.5644 35.7117 39.873C36.8957 39.6366 37.9644 39.0053 38.743 38.0826C39.5217 37.1598 39.9642 36.0002 39.9981 34.7933V5.208C40.0915 2.37479 37.6116 0.00157232 34.5517 0.00157232ZM7.18633 10.7344C6.7019 10.7228 6.24021 10.5265 5.89571 10.1857C5.55121 9.84497 5.34995 9.38543 5.33308 8.90116V7.06791C5.34978 6.58587 5.54918 6.12822 5.89086 5.78779C6.23253 5.44735 6.6909 5.2496 7.173 5.23466H16.5659C17.048 5.2496 17.5064 5.44735 17.848 5.78779C18.1897 6.12822 18.3891 6.58587 18.4058 7.06791V8.90116C18.3891 9.3832 18.1897 9.84084 17.848 10.1813C17.5064 10.5217 17.048 10.7195 16.5659 10.7344H7.18633ZM35.9183 20.1606C35.9116 20.4007 35.8132 20.6291 35.6434 20.799C35.4735 20.9688 35.2451 21.0672 35.005 21.0739H9.99953C9.75944 21.0672 9.53102 20.9688 9.36118 20.799C9.19134 20.6291 9.09296 20.4007 9.08624 20.1606V18.6674C9.08976 18.022 9.34816 17.4041 9.80515 16.9484C10.2621 16.4926 10.8807 16.2359 11.5261 16.2341H14.5727V14.9875C14.5727 14.5031 14.7651 14.0385 15.1076 13.696C15.4502 13.3534 15.9148 13.161 16.3992 13.161C16.8837 13.161 17.3483 13.3534 17.6908 13.696C18.0334 14.0385 18.2258 14.5031 18.2258 14.9875V16.2008H26.7587V14.9875C26.7587 14.5031 26.9512 14.0385 27.2937 13.696C27.6363 13.3534 28.1009 13.161 28.5853 13.161C29.0698 13.161 29.5344 13.3534 29.8769 13.696C30.2195 14.0385 30.4119 14.5031 30.4119 14.9875V16.2008H33.4584C33.7825 16.199 34.1038 16.2617 34.4034 16.3851C34.7031 16.5085 34.9753 16.6902 35.2042 16.9197C35.433 17.1492 35.614 17.4219 35.7366 17.7219C35.8592 18.0219 35.921 18.3433 35.9183 18.6674V20.1606Z" fill="url(#paint0_linear_2396_87332)"/>
<defs>
<linearGradient id="paint0_linear_2396_87332" x1="-2.49951" y1="-6.5" x2="48.0005" y2="54" gradientUnits="userSpaceOnUse">
<stop stop-color="#4938CF"/>
<stop offset="1" stop-color="#407BFF"/>
</linearGradient>
</defs>
</svg>
