<svg width="276" height="276" viewBox="0 0 276 276" fill="none" xmlns="http://www.w3.org/2000/svg">
<path d="M54.2615 113.808L15.2371 133.589C13.8204 134.307 13.254 136.037 13.9721 137.454L54.0784 216.576C54.7965 217.993 56.5271 218.559 57.9438 217.841L96.9683 198.06C98.385 197.342 98.9513 195.611 98.2332 194.195L58.1269 115.072C57.4088 113.656 55.6782 113.089 54.2615 113.808Z" fill="#0E134B"/>
<path d="M34.391 146.831C36.048 145.717 36.488 143.47 35.3737 141.813C34.2594 140.156 32.0128 139.716 30.3558 140.831C28.6987 141.945 28.2588 144.191 29.3731 145.848C30.4874 147.505 32.734 147.945 34.391 146.831Z" fill="#407BFF"/>
<path d="M52.7577 138.002C54.6347 137.303 55.5898 135.215 54.8909 133.337C54.192 131.46 52.1038 130.505 50.2268 131.204C48.3498 131.903 47.3947 133.991 48.0936 135.868C48.7925 137.745 50.8807 138.7 52.7577 138.002Z" fill="#407BFF"/>
<path d="M44.4504 159.649C44.7735 160.287 44.9002 161.006 44.8146 161.716C44.7289 162.426 44.4348 163.094 43.9694 163.637C43.5039 164.18 42.8881 164.572 42.1996 164.765C41.5112 164.958 40.7811 164.942 40.1015 164.72C39.422 164.498 38.8236 164.079 38.3819 163.517C37.9402 162.955 37.6751 162.274 37.6201 161.561C37.5651 160.849 37.7226 160.136 38.0727 159.512C38.4229 158.889 38.95 158.383 39.5873 158.06C40.4432 157.627 41.436 157.551 42.3477 157.849C43.2595 158.147 44.0157 158.794 44.4504 159.649Z" fill="#407BFF"/>
<path d="M63.6112 151.889C63.6788 149.893 62.1157 148.221 60.12 148.153C58.1243 148.086 56.4517 149.649 56.3841 151.644C56.3165 153.64 57.8795 155.313 59.8752 155.38C61.8709 155.448 63.5436 153.885 63.6112 151.889Z" fill="#407BFF"/>
<path d="M53.2931 177.104C53.6197 177.74 53.7503 178.459 53.6683 179.17C53.5862 179.88 53.2952 180.551 52.8321 181.096C52.369 181.641 51.7546 182.037 51.0666 182.232C50.3787 182.428 49.648 182.416 48.9672 182.196C48.2864 181.977 47.686 181.56 47.2419 180.999C46.7979 180.439 46.5302 179.759 46.4726 179.046C46.4151 178.333 46.5704 177.619 46.9188 176.994C47.2672 176.369 47.7931 175.862 48.4299 175.536C49.2828 175.1 50.274 175.02 51.1859 175.314C52.0977 175.608 52.8555 176.252 53.2931 177.104Z" fill="#407BFF"/>
<path d="M72.0665 167.587C72.3901 168.225 72.5173 168.944 72.4319 169.655C72.3466 170.365 72.0525 171.033 71.587 171.576C71.1214 172.119 70.5053 172.512 69.8165 172.705C69.1278 172.898 68.3973 172.882 67.7176 172.659C67.0378 172.437 66.4393 172.018 65.9978 171.455C65.5563 170.892 65.2915 170.211 65.2371 169.498C65.1826 168.785 65.3409 168.072 65.6919 167.449C66.0429 166.826 66.5708 166.32 67.2089 165.997C68.0639 165.564 69.0559 165.489 69.9668 165.787C70.8776 166.085 71.6329 166.732 72.0665 167.587Z" fill="#407BFF"/>
<path d="M62.1441 194.558C62.4662 195.196 62.5919 195.915 62.5054 196.625C62.4189 197.334 62.124 198.002 61.658 198.544C61.1919 199.086 60.5757 199.478 59.8872 199.67C59.1986 199.862 58.4686 199.845 57.7894 199.623C57.1102 199.4 56.5123 198.981 56.0712 198.418C55.6301 197.856 55.3657 197.175 55.3113 196.462C55.2569 195.75 55.4149 195.037 55.7655 194.414C56.1161 193.791 56.6434 193.286 57.2809 192.963C57.7049 192.748 58.1671 192.618 58.6411 192.582C59.1152 192.546 59.5916 192.603 60.0433 192.752C60.495 192.9 60.9131 193.136 61.2736 193.446C61.634 193.755 61.9298 194.133 62.1441 194.558Z" fill="#407BFF"/>
<path d="M80.9153 185.042C81.2383 185.679 81.365 186.399 81.2794 187.108C81.1938 187.818 80.8996 188.486 80.4342 189.029C79.9688 189.572 79.3529 189.964 78.6645 190.157C77.976 190.35 77.2459 190.334 76.5664 190.112C75.8869 189.89 75.2884 189.471 74.8468 188.909C74.4051 188.347 74.14 187.666 74.0849 186.954C74.0299 186.241 74.1874 185.528 74.5376 184.904C74.8877 184.281 75.4148 183.776 76.0522 183.452C76.908 183.019 77.9008 182.943 78.8126 183.241C79.7243 183.539 80.4806 184.186 80.9153 185.042Z" fill="#407BFF"/>
<path d="M33.4118 140.545C33.179 141.658 32.8559 142.751 32.4458 143.813C32.1224 144.902 31.7108 145.964 31.2148 146.987C31.4417 145.872 31.763 144.779 32.1753 143.719C32.4961 142.627 32.9098 141.565 33.4118 140.545Z" fill="#407BFF"/>
<path d="M51.7712 131.067C51.5459 132.182 51.2246 133.275 50.8107 134.335C50.4893 135.428 50.0756 136.491 49.5742 137.514C49.8031 136.4 50.1262 135.306 50.5402 134.246C50.8642 133.155 51.2759 132.092 51.7712 131.067Z" fill="#407BFF"/>
<path d="M42.4358 157.971C42.2716 159.125 42.0113 160.262 41.6575 161.372C41.3972 162.503 41.0427 163.611 40.5977 164.684C40.7695 163.534 41.0373 162.4 41.3981 161.294C41.6533 160.16 42.0003 159.049 42.4358 157.971Z" fill="#407BFF"/>
<path d="M60.9688 148.449C60.8576 149.57 60.6489 150.678 60.3451 151.761C60.1387 152.86 59.8377 153.939 59.4453 154.985C59.5556 153.865 59.7624 152.757 60.0635 151.673C60.275 150.575 60.5778 149.497 60.9688 148.449Z" fill="#407BFF"/>
<path d="M50.6822 175.431C50.5391 176.488 50.3008 177.53 49.9702 178.544C49.7295 179.586 49.397 180.603 48.9766 181.586C49.1201 180.528 49.3603 179.486 49.6942 178.473C49.9315 177.431 50.2622 176.413 50.6822 175.431Z" fill="#407BFF"/>
<path d="M69.9805 166.152C69.7549 167.211 69.4334 168.248 69.02 169.249C68.6961 170.283 68.2843 171.288 67.7891 172.252C68.0147 171.192 68.3361 170.156 68.7495 169.155C69.0747 168.121 69.4865 167.117 69.9805 166.152Z" fill="#407BFF"/>
<path d="M60.1064 193.068C59.8473 194.169 59.4984 195.247 59.0631 196.291C58.709 197.366 58.2658 198.409 57.7383 199.41C57.9966 198.309 58.3493 197.232 58.7926 196.192C59.1383 195.114 59.5779 194.069 60.1064 193.068Z" fill="#407BFF"/>
<path d="M78.7487 182.971C78.5911 184.193 78.3364 185.4 77.987 186.582C77.7341 187.786 77.3871 188.969 76.9492 190.12C77.11 188.899 77.3647 187.692 77.711 186.51C77.9639 185.305 78.3109 184.122 78.7487 182.971Z" fill="#407BFF"/>
<path d="M87.6692 194.105C87.7023 194.177 81.9615 197.158 74.8463 200.762C67.731 204.367 61.9295 207.237 61.8908 207.171C61.8522 207.105 67.5985 204.119 74.7138 200.509C81.8291 196.898 87.6306 194.034 87.6692 194.105Z" fill="#407BFF"/>
<path d="M50.4114 124.2C50.4445 124.272 44.7037 127.253 37.5884 130.863C30.4732 134.473 24.6716 137.338 24.633 137.266C24.5944 137.194 30.3572 134.186 37.456 130.576C44.5547 126.966 50.3728 124.101 50.4114 124.2Z" fill="#407BFF"/>
<path d="M38.4287 134.329C38.3959 134.336 38.362 134.336 38.3293 134.329C38.3293 134.329 38.2962 134.329 38.2852 134.329L38.5391 134.197C38.5391 134.241 38.5391 134.307 38.4508 134.346C38.3624 134.384 38.3072 134.373 38.2852 134.346L38.5391 134.213C38.5409 134.226 38.5409 134.239 38.5391 134.252C38.5115 134.289 38.4728 134.316 38.4287 134.329Z" fill="#407BFF"/>
<path d="M73.8792 200.928C73.8074 200.967 65.7482 185.202 55.8785 165.733C46.0087 146.264 38.0654 130.438 38.1372 130.405C38.209 130.371 46.2626 146.115 56.1379 165.6C66.0132 185.086 73.9675 200.889 73.8792 200.928Z" fill="#407BFF"/>
<path d="M20.3747 212.239C20.3084 224.603 20.2643 244.569 20.2422 253.743C20.2393 255.042 20.7521 256.29 21.6681 257.211C22.5841 258.132 23.8283 258.652 25.1274 258.656L58.9043 258.811C60.2053 258.815 61.455 258.303 62.3791 257.387C63.3032 256.472 63.8263 255.227 63.8336 253.926L64.0213 212.785C64.0331 209.896 62.8972 207.12 60.8634 205.067C58.8295 203.015 56.064 201.853 53.1745 201.839V195.767L31.0559 195.667V201.386H30.9731C28.1423 201.462 25.4524 202.638 23.4739 204.664C21.4954 206.69 20.3837 209.407 20.3747 212.239Z" fill="#102962"/>
<path d="M31.083 196.457L31.0664 199.211L53.1795 200.094L53.2016 196.556L31.083 196.457Z" fill="#407BFF"/>
<path d="M30.2364 187.241L54.2206 187.35C54.6597 187.352 55.0802 187.528 55.3893 187.84C55.6985 188.152 55.871 188.574 55.869 189.013L55.8314 197.293C55.8302 197.576 55.7167 197.846 55.516 198.045C55.3153 198.244 55.0438 198.355 54.7613 198.354L29.6014 198.24C29.3188 198.238 29.0483 198.125 28.8495 197.924C28.6506 197.724 28.5396 197.452 28.5408 197.17L28.5784 188.89C28.5804 188.45 28.7568 188.03 29.0688 187.721C29.3807 187.412 29.8027 187.239 30.2419 187.241L30.2364 187.241Z" fill="#102962"/>
<path d="M32.0165 198.273C31.8564 198.273 31.735 195.822 31.7515 192.808C31.7681 189.794 31.9061 187.343 32.0662 187.343C32.2262 187.343 32.3477 189.789 32.3311 192.808C32.3146 195.827 32.1876 198.273 32.0165 198.273Z" fill="#407BFF"/>
<path d="M34.9423 198.284C34.7822 198.284 34.6607 195.838 34.6773 192.819C34.6939 189.8 34.8319 187.354 34.9919 187.354C35.152 187.354 35.2735 189.805 35.2569 192.825C35.2403 195.844 35.1023 198.284 34.9423 198.284Z" fill="#407BFF"/>
<path d="M37.8563 198.3C37.6962 198.3 37.5748 195.85 37.5914 192.836C37.6079 189.822 37.7459 187.371 37.906 187.371C38.0661 187.371 38.1875 189.816 38.171 192.836C38.1544 195.855 38.0164 198.3 37.8563 198.3Z" fill="#407BFF"/>
<path d="M40.7704 198.311C40.6103 198.311 40.4889 195.866 40.5054 192.847C40.522 189.827 40.66 187.382 40.8201 187.382C40.9801 187.382 41.1016 189.833 41.085 192.847C41.0685 195.861 40.9305 198.311 40.7704 198.311Z" fill="#407BFF"/>
<path d="M43.6844 198.328C43.5244 198.328 43.4029 195.877 43.4195 192.858C43.436 189.838 43.574 187.393 43.7341 187.398C43.8942 187.404 44.0156 189.844 43.9991 192.863C43.9825 195.883 43.8445 198.328 43.6844 198.328Z" fill="#407BFF"/>
<path d="M46.5985 198.339C46.4384 198.339 46.317 195.888 46.3335 192.874C46.3501 189.86 46.4881 187.409 46.6482 187.409C46.8083 187.409 46.9297 189.855 46.9131 192.874C46.8966 195.894 46.7586 198.339 46.5985 198.339Z" fill="#407BFF"/>
<path d="M49.5126 198.35C49.3525 198.35 49.231 195.905 49.2476 192.885C49.2642 189.866 49.4022 187.421 49.5622 187.421C49.7223 187.421 49.8438 189.872 49.8272 192.891C49.8106 195.91 49.6782 198.356 49.5126 198.35Z" fill="#407BFF"/>
<path d="M52.4383 198.367C52.2783 198.367 52.1568 195.916 52.1734 192.902C52.1899 189.888 52.3279 187.437 52.488 187.437C52.6481 187.437 52.7695 189.882 52.753 192.902C52.7364 195.921 52.5874 198.367 52.4383 198.367Z" fill="#407BFF"/>
<path d="M57.4043 218.359L27.3482 218.222C26.897 218.22 26.5296 218.585 26.5275 219.036L26.4398 238.361C26.4378 238.812 26.8019 239.18 27.2531 239.182L57.3092 239.318C57.7604 239.32 58.1278 238.956 58.1298 238.505L58.2175 219.18C58.2196 218.728 57.8555 218.361 57.4043 218.359Z" fill="#0E134B"/>
<path d="M56.0062 237.879C55.9955 237.763 55.9955 237.647 56.0062 237.531C56.0062 237.272 56.0062 236.946 56.0062 236.554C56.0062 235.654 56.0062 234.423 55.9675 232.878C55.9675 229.676 55.9289 225.15 55.9068 219.685L56.1331 219.917L28.362 219.851L28.6491 219.564V221.965C28.6491 222.765 28.6491 223.555 28.6491 224.344C28.6491 225.917 28.6491 227.468 28.6215 228.992C28.6215 232.033 28.5828 234.964 28.5663 237.752L28.3013 237.482L48.2285 237.702L53.9748 237.802L55.5204 237.84L56.0724 237.873C55.9082 237.9 55.7419 237.911 55.5756 237.907H54.0852L48.3996 237.956L28.2903 237.995H28.0253V237.724C28.0253 234.964 28.0253 232.011 28.0253 228.964C28.0253 227.441 28.0253 225.895 28.0253 224.316C28.0253 223.532 28.0253 222.738 28.0253 221.937V219.536C27.7659 219.795 28.3786 219.183 28.3179 219.249L56.0945 219.431H56.3043V219.696C56.2325 225.216 56.1663 229.798 56.1221 233.032C56.1221 234.556 56.0669 235.792 56.0503 236.659C56.0503 237.034 56.0503 237.338 56.0172 237.592C56.0239 237.688 56.0202 237.784 56.0062 237.879Z" fill="#407BFF"/>
<path d="M51.7612 225.553C51.7612 225.718 47.5329 225.829 42.322 225.801C37.1111 225.774 32.8828 225.63 32.8828 225.47C32.8828 225.31 37.1111 225.199 42.3275 225.222C47.5439 225.244 51.7612 225.393 51.7612 225.553Z" fill="#407BFF"/>
<path d="M51.744 228.765C51.744 228.925 47.5212 229.036 42.3048 229.014C37.0884 228.992 32.8711 228.837 32.8711 228.677C32.8711 228.517 37.0939 228.407 42.3103 228.429C47.5267 228.451 51.7495 228.605 51.744 228.765Z" fill="#407BFF"/>
<path d="M51.7339 231.84C51.7339 232 47.5055 232.11 42.2947 232.088C37.0838 232.066 32.8555 231.917 32.8555 231.757C32.8555 231.597 37.0838 231.487 42.2947 231.509C47.5055 231.531 51.7339 231.685 51.7339 231.84Z" fill="#407BFF"/>
<path d="M51.8858 201.646C51.8858 201.806 47.2766 201.911 41.5855 201.889C35.8944 201.866 31.2852 201.712 31.2852 201.552C31.2852 201.392 35.8999 201.281 41.591 201.309C47.2821 201.337 51.8858 201.48 51.8858 201.646Z" fill="#407BFF"/>
<path d="M22.0803 251.37C21.9919 250.724 21.9586 250.072 21.981 249.421C21.981 248.069 21.9479 246.28 21.9258 244.111C21.9258 239.629 21.9258 233.435 21.9755 226.596C22.0086 223.179 22.0417 219.928 22.0693 216.953C22.0969 213.977 22.395 211.239 23.3831 209.153C24.1041 207.484 25.3376 206.088 26.9048 205.167C27.3339 204.93 27.7897 204.745 28.2627 204.615C28.4279 204.568 28.5988 204.544 28.7706 204.544C28.1772 204.767 27.6015 205.034 27.0483 205.344C25.5647 206.3 24.409 207.687 23.7363 209.319C22.8587 211.339 22.6323 214.011 22.6323 216.936C22.6323 219.862 22.5992 223.163 22.5827 226.58C22.533 233.419 22.4502 239.612 22.3674 244.089C22.3122 246.258 22.268 248.052 22.2349 249.399C22.2339 250.059 22.1822 250.718 22.0803 251.37Z" fill="white"/>
<path d="M62.2751 257.232C61.7558 257.117 61.2478 256.957 60.7571 256.752C60.2823 256.575 59.6972 256.365 59.0017 256.161C58.3062 255.957 57.5334 255.675 56.6502 255.46C54.6009 254.893 52.5199 254.447 50.4181 254.124C47.8418 253.75 45.2435 253.547 42.6404 253.517C40.0365 253.525 37.4362 253.709 34.8572 254.069C32.7512 254.372 30.6648 254.797 28.6086 255.344C27.7254 255.554 26.9526 255.819 26.2515 256.023C25.5505 256.227 24.9709 256.426 24.4907 256.603C24.0003 256.804 23.492 256.96 22.9727 257.066C23.4279 256.794 23.9086 256.567 24.4079 256.387C24.8771 256.183 25.4567 255.946 26.1467 255.719C26.8367 255.493 27.6095 255.167 28.4982 254.947C30.5567 254.341 32.6535 253.875 34.7744 253.55C37.3768 253.163 40.0039 252.965 42.6349 252.959C45.2676 252.986 47.8949 253.205 50.4954 253.616C52.6137 253.968 54.7066 254.459 56.7606 255.085C57.6438 255.328 58.4166 255.637 59.1011 255.874C59.7855 256.111 60.3707 256.354 60.8343 256.564C61.3353 256.739 61.8178 256.963 62.2751 257.232Z" fill="white"/>
<path d="M247.777 131.193C246.753 125.291 241.388 119.986 235.326 120.254C233.533 120.409 231.79 120.919 230.202 121.754C228.613 122.589 227.213 123.731 226.083 125.112C225.256 126.024 224.502 126.997 223.826 128.023C223.258 126.934 222.607 125.89 221.878 124.898C220.908 123.404 219.64 122.121 218.151 121.126C216.661 120.131 214.982 119.446 213.215 119.111C207.207 118.218 201.317 122.924 199.623 128.684C197.928 134.444 199.876 140.748 203.247 145.714C206.618 150.679 212.391 157.117 222.558 160.002C229.418 158.814 238.38 152.358 242.285 147.776C246.191 143.195 248.801 137.078 247.777 131.193Z" fill="#0E134B"/>
<path d="M246 141.847H245.21L242.948 141.765L234.638 141.393L234.784 141.293C233.876 143.938 232.877 147.047 231.75 150.447L231.569 151.002L231.405 150.438C230.152 146.12 228.753 141.284 227.273 136.193C226.819 134.611 226.365 133.056 225.929 131.547L226.283 131.593L220.371 140.584L220.316 140.665H220.216L205.604 139.82L201.462 139.547L200.372 139.465C200.247 139.458 200.123 139.443 200 139.42C200 139.42 200.127 139.42 200.372 139.42H201.471L205.613 139.584L220.235 140.284L220.071 140.365L225.956 131.365L226.192 131.002L226.31 131.411C226.746 132.929 227.219 134.484 227.654 136.065C229.117 141.165 230.515 146.002 231.75 150.32H231.405L234.511 141.229V141.12H234.62L242.921 141.62L245.174 141.784H245.764C245.845 141.792 245.925 141.814 246 141.847Z" fill="#407BFF"/>
<path d="M199.984 100.039C200.051 99.9812 200.124 99.9295 200.2 99.8843L200.845 99.4593C201.202 99.2417 201.545 99.002 201.872 98.7417C202.336 98.4102 202.782 98.0546 203.208 97.6763L203.97 97.0029C204.224 96.7545 204.489 96.484 204.759 96.208C205.05 95.9224 205.327 95.6221 205.587 95.3083C205.858 94.9826 206.167 94.6624 206.426 94.287C207.702 92.6597 208.76 90.8727 209.573 88.9713C210.57 86.6712 211.192 84.2261 211.416 81.729C211.543 80.3427 211.543 78.9478 211.416 77.5614C211.242 76.0918 210.989 74.6324 210.66 73.1896C210.031 70.2309 209.197 67.0624 209.451 63.7007C209.705 60.3391 211.041 57.0767 212.818 54.0242C214.596 50.9716 216.682 48.173 219.282 46.0423C220.546 44.9879 221.965 44.1351 223.489 43.5141C224.957 42.9529 226.491 42.5819 228.054 42.4101C230.934 42.1377 233.832 42.0916 236.72 42.2721C239.218 42.4023 241.722 42.2951 244.2 41.9519C246.246 41.6643 248.212 40.9577 249.973 39.8764C251.314 39.0591 252.47 37.9727 253.368 36.6859C253.938 35.8796 254.36 34.9788 254.616 34.0252C254.787 33.3739 254.82 33.0151 254.842 33.0206C254.817 33.3652 254.762 33.707 254.677 34.0418C254.443 35.0118 254.034 35.9305 253.468 36.7521C252.581 38.0615 251.43 39.1709 250.089 40.0089C248.314 41.1192 246.327 41.8485 244.255 42.1507C241.759 42.5106 239.233 42.627 236.714 42.4984C233.84 42.3356 230.958 42.3909 228.092 42.664C226.554 42.8425 225.045 43.2134 223.599 43.768C222.105 44.381 220.714 45.2207 219.475 46.2575C216.925 48.3496 214.866 51.1483 213.083 54.1567C211.3 57.1651 210.003 60.4108 209.771 63.7007C209.539 66.9907 210.323 70.137 210.958 73.1123C211.286 74.5698 211.535 76.044 211.703 77.5283C211.836 78.9328 211.836 80.3467 211.703 81.7511C211.452 84.2757 210.795 86.7433 209.76 89.0596C208.925 90.9704 207.845 92.7647 206.548 94.3974C206.277 94.7728 205.996 95.0875 205.692 95.4131C205.388 95.7388 205.14 96.0424 204.853 96.3129L204.047 97.1022L203.269 97.7702C202.835 98.1441 202.382 98.4943 201.911 98.819C201.577 99.0739 201.227 99.3062 200.862 99.5145L200.2 99.9119C200.132 99.9609 200.06 100.003 199.984 100.039Z" fill="#407BFF"/>
<path d="M184.98 85.1074C184.98 85.1074 185.014 85.0191 185.091 84.859C185.168 84.6989 185.295 84.445 185.444 84.1414C185.593 83.8378 185.836 83.4624 186.096 83.0374C186.355 82.6123 186.692 82.1045 187.111 81.5856C188.098 80.2968 189.236 79.1311 190.5 78.1135C192.171 76.7561 194.045 75.6701 196.054 74.8954C197.225 74.4533 198.433 74.1153 199.664 73.8852C201.001 73.661 202.354 73.5374 203.71 73.5154C206.508 73.4326 209.5 73.6644 212.625 73.4767C214.222 73.3866 215.805 73.12 217.344 72.6819C218.944 72.2092 220.481 71.5437 221.92 70.7002C224.951 68.9126 227.535 66.4586 229.477 63.5242C231.404 60.5739 232.718 57.2663 233.341 53.7979C233.933 50.5725 234.023 47.2748 233.606 44.022C233.214 40.9143 232.458 38.0163 232.022 35.2452C231.529 32.6792 231.492 30.0465 231.912 27.4675C232.324 25.3496 233.146 23.3322 234.329 21.528C235.217 20.1668 236.295 18.9399 237.531 17.8848C238.318 17.2299 239.16 16.6444 240.048 16.135L240.76 15.7762L241.008 15.6658L240.777 15.8038L240.081 16.1902C239.209 16.7171 238.382 17.3153 237.608 17.9787C236.397 19.0399 235.342 20.2663 234.473 21.6219C233.319 23.4148 232.519 25.4122 232.116 27.5062C231.719 30.0604 231.769 32.6642 232.265 35.201C232.706 37.9611 233.474 40.848 233.882 43.9834C234.308 47.2666 234.223 50.5961 233.628 53.8531C233.007 57.3608 231.683 60.7066 229.737 63.6898C227.771 66.6672 225.15 69.1557 222.075 70.9651C220.612 71.8186 219.052 72.4914 217.427 72.9689C215.869 73.4134 214.265 73.6819 212.647 73.7693C209.489 73.9515 206.503 73.7086 203.715 73.7693C202.373 73.7882 201.033 73.9063 199.708 74.1226C198.489 74.3425 197.292 74.6694 196.131 75.0996C192.619 76.4433 189.535 78.711 187.205 81.6629C186.786 82.1707 186.471 82.673 186.173 83.0871C185.875 83.5011 185.67 83.8875 185.499 84.1911C185.328 84.4947 185.212 84.743 185.118 84.8866C185.025 85.0301 184.98 85.1074 184.98 85.1074Z" fill="#407BFF"/>
<path d="M234.145 21.3403C234.442 21.4793 234.726 21.6436 234.995 21.8316C235.547 22.1628 236.286 22.6651 237.203 23.3055C242.033 26.6594 246.504 30.5033 250.544 34.776C251.312 35.5985 251.924 36.2719 252.333 36.7522C252.559 36.9954 252.764 37.2577 252.946 37.536C252.7 37.3219 252.471 37.0894 252.261 36.8405C251.781 36.3547 251.157 35.7365 250.401 34.9306C248.822 33.3298 246.587 31.1714 243.987 28.9359C241.387 26.7003 238.925 24.8069 237.103 23.4876L234.939 21.931C234.659 21.7559 234.393 21.5584 234.145 21.3403Z" fill="#407BFF"/>
<path d="M231.965 27.2356C232.189 27.403 232.399 27.5875 232.594 27.7876L234.25 29.3774C235.647 30.7187 237.601 32.5403 239.836 34.4723C242.072 36.4043 244.159 38.0658 245.693 39.2526L247.504 40.6547C247.737 40.8181 247.955 41.0029 248.155 41.2067C247.902 41.0831 247.662 40.9352 247.437 40.7651C246.985 40.4615 246.333 40.0089 245.561 39.4403C243.993 38.2977 241.873 36.6803 239.632 34.7207C237.391 32.7611 235.453 30.9285 234.112 29.5485C233.433 28.853 232.892 28.2844 232.528 27.8925C232.316 27.6953 232.127 27.4749 231.965 27.2356Z" fill="#407BFF"/>
<path d="M232.695 34.4724C233.199 34.7768 233.673 35.126 234.114 35.5157C234.964 36.1891 236.118 37.1717 237.365 38.2757C238.613 39.3797 239.711 40.4009 240.49 41.1571C240.935 41.5432 241.342 41.9721 241.704 42.4378C241.221 42.1067 240.765 41.7375 240.341 41.3338L237.161 38.5296L233.976 35.7255C233.512 35.3472 233.084 34.9278 232.695 34.4724Z" fill="#407BFF"/>
<path d="M227.215 43.1609C227.601 43.3848 227.962 43.6494 228.291 43.9502L230.803 45.954L233.342 47.9302C233.715 48.1787 234.057 48.4695 234.363 48.7968C233.954 48.6136 233.569 48.382 233.215 48.1068C232.531 47.6486 231.603 47.0028 230.615 46.2024C229.627 45.402 228.755 44.6789 228.148 44.1214C227.797 43.8422 227.484 43.5194 227.215 43.1609Z" fill="#407BFF"/>
<path d="M220.703 45.8159C220.736 45.7828 221.388 46.4176 222.47 47.4002C223.551 48.3827 225.075 49.6799 226.869 51.0323C228.663 52.3847 230.33 53.5053 231.566 54.2891C232.252 54.6822 232.917 55.1096 233.559 55.5698C233.355 55.505 233.159 55.418 232.974 55.3103C232.61 55.1282 232.085 54.8411 231.451 54.4768C229.799 53.5067 228.206 52.4395 226.681 51.2807C225.158 50.1217 223.707 48.8699 222.337 47.5327C221.813 47.0193 221.399 46.5887 221.128 46.2851C220.965 46.1492 220.822 45.9913 220.703 45.8159Z" fill="#407BFF"/>
<path d="M216.575 50.7342C216.624 50.6625 219.843 53.0416 223.751 56.0445C227.659 59.0474 230.794 61.5314 230.739 61.5976C230.684 61.6638 227.477 59.2902 223.563 56.2874C219.649 53.2845 216.525 50.7839 216.575 50.7342Z" fill="#407BFF"/>
<path d="M211.582 55.2C211.806 55.3277 212.015 55.4794 212.206 55.6526L213.862 56.9608C215.253 58.0648 217.174 59.5884 219.349 61.2168C221.524 62.8452 223.511 64.2693 224.963 65.2905L226.685 66.5104C226.903 66.6468 227.107 66.8059 227.292 66.9852C227.056 66.8828 226.83 66.757 226.619 66.6098C226.188 66.3503 225.581 65.964 224.841 65.4727C223.356 64.4956 221.33 63.0936 219.161 61.4652C216.992 59.8368 215.076 58.2856 213.724 57.132C213.045 56.58 212.504 56.0831 212.134 55.7464C211.931 55.5848 211.746 55.4016 211.582 55.2Z" fill="#407BFF"/>
<path d="M210.067 61.6693C210.117 61.5976 212.827 63.6179 216.167 66.1737C219.506 68.7294 222.128 70.8601 222.073 70.9264C222.018 70.9926 219.313 68.9778 215.974 66.4221C212.634 63.8663 210.012 61.7356 210.067 61.6693Z" fill="#407BFF"/>
<path d="M208.656 68.3984C209.892 69.0468 211.078 69.7847 212.206 70.6064C213.391 71.3385 214.522 72.1557 215.589 73.0518C214.35 72.4068 213.162 71.6687 212.034 70.8438C210.847 70.1165 209.718 69.299 208.656 68.3984Z" fill="#407BFF"/>
<path d="M201.66 74.8347C202.217 75.0895 202.751 75.3924 203.255 75.74C204.216 76.3417 205.524 77.2028 206.926 78.2074C208.328 79.2121 209.57 80.1781 210.442 80.8901C210.937 81.2533 211.396 81.6637 211.811 82.1156C211.285 81.8048 210.783 81.4542 210.31 81.0668C209.399 80.3934 208.146 79.466 206.744 78.4614C205.342 77.4567 204.067 76.568 203.14 75.9221C202.617 75.6016 202.122 75.2378 201.66 74.8347Z" fill="#407BFF"/>
<path d="M195.578 74.9507C195.807 75.0712 196.022 75.2175 196.218 75.3868C196.621 75.6848 197.19 76.132 197.874 76.6895C199.265 77.7935 201.153 79.3943 203.168 81.2269C205.183 83.0596 206.938 84.7928 208.18 86.0735C208.804 86.7138 209.284 87.2437 209.632 87.6136C209.816 87.7951 209.98 87.9948 210.123 88.2097C209.912 88.0597 209.718 87.8876 209.544 87.6964L208.026 86.2336C206.745 84.9916 204.968 83.2914 202.958 81.4588C200.949 79.6261 199.094 78.0143 197.736 76.8551L196.136 75.4806C195.932 75.3234 195.745 75.1458 195.578 74.9507Z" fill="#407BFF"/>
<path d="M190.473 79.488C190.719 79.6282 190.952 79.7908 191.168 79.9738C191.599 80.305 192.217 80.7852 192.973 81.3924C194.491 82.6068 196.561 84.3125 198.808 86.2445C201.054 88.1765 203.058 89.9595 204.488 91.2732C205.206 91.9301 205.774 92.4711 206.144 92.8464C206.359 93.0304 206.555 93.2357 206.729 93.4592C206.492 93.3039 206.268 93.1285 206.061 92.9348L204.322 91.4388C202.81 90.1306 200.801 88.3973 198.587 86.4708L192.813 81.558L191.091 80.04C190.868 79.8754 190.661 79.6906 190.473 79.488Z" fill="#407BFF"/>
<path d="M180.727 23.184C181.594 23.8988 182.307 24.781 182.825 25.7778C183.343 26.7746 183.654 27.8656 183.741 28.9855C183.905 31.2307 183.552 33.4834 182.709 35.5709C181.196 39.6391 177.741 43.2657 174.374 45.9705C171.614 42.0237 172.166 36.4541 172.585 33.6499C173.286 29.2339 177.25 21.6218 180.744 23.1619" fill="#102962"/>
<path d="M176.734 53.8972C176.791 52.6428 177.179 51.4257 177.857 50.3691C178.536 49.3125 179.481 48.4539 180.598 47.8804C181.728 47.33 182.957 47.0104 184.211 46.9403C185.466 46.8701 186.723 47.0509 187.907 47.4719C189.011 47.8362 190.115 48.4655 190.551 49.5474C190.712 50.066 190.731 50.618 190.608 51.1467C190.485 51.6754 190.223 52.1617 189.85 52.5558C189.091 53.3408 188.139 53.912 187.09 54.2118C183.563 55.3655 179.914 55.8347 176.74 53.9414" fill="#102962"/>
<path d="M170.152 62.5361C170.448 61.6229 170.836 60.7425 171.312 59.9085C171.799 58.981 172.394 58.1139 173.083 57.3252C173.897 56.3494 174.773 55.4275 175.705 54.5652C177.427 52.9801 179.513 51.8427 181.777 51.2532C182.466 51.0934 183.169 51.0028 183.875 50.9827C184.135 50.9596 184.396 50.982 184.648 51.0489C184.648 51.1373 183.544 51.1097 181.888 51.6009C179.716 52.2766 177.721 53.4267 176.048 54.9681C175.128 55.8242 174.256 56.7309 173.437 57.684C172.751 58.4406 172.144 59.2655 171.626 60.1459C171.188 60.9743 170.696 61.7727 170.152 62.5361Z" fill="#407BFF"/>
<path d="M178.223 29.2561C178.195 29.7397 178.125 30.2199 178.013 30.6913C177.848 31.6131 177.588 32.9379 177.257 34.5553C176.589 37.8231 175.601 42.3275 174.431 47.2513C173.261 52.1751 172.024 56.6353 171.086 59.8535C170.616 61.4543 170.219 62.7459 169.926 63.6291C169.804 64.0981 169.637 64.5546 169.43 64.9926C169.493 64.5132 169.598 64.0404 169.744 63.5795C170.004 62.5914 170.346 61.3052 170.754 59.7596C171.61 56.5359 172.764 52.0813 173.956 47.1354L176.92 34.4394C177.29 32.8827 177.594 31.5911 177.826 30.5754C177.922 30.1256 178.055 29.6844 178.223 29.2561Z" fill="#407BFF"/>
<path d="M171.012 54.1787C170.854 51.5346 170.067 48.9663 168.719 46.6865C167.37 44.4067 165.498 42.4809 163.257 41.0687C162.114 40.3622 160.579 39.8157 159.492 40.6106C158.405 41.4055 158.454 43.0394 158.808 44.3366C159.589 47.0386 161.154 49.4483 163.305 51.261C165.456 53.0738 168.095 54.2082 170.891 54.521" fill="#102962"/>
<path d="M163.707 44.9824C163.707 44.9824 163.955 45.1094 164.342 45.4019C164.728 45.6945 165.28 46.1527 165.937 46.7323C167.668 48.2545 169.107 50.0804 170.182 52.1198C170.745 53.2664 171.118 54.4968 171.286 55.763C171.409 56.7966 171.39 57.8421 171.231 58.8707C171.125 59.5604 170.955 60.2386 170.723 60.8966C170.659 61.1439 170.559 61.3803 170.425 61.5976C170.331 61.5976 170.69 60.5433 170.889 58.8376C170.995 57.8384 170.978 56.8299 170.839 55.8347C170.652 54.6222 170.279 53.4456 169.735 52.3461C168.678 50.3586 167.312 48.5514 165.689 46.9917C164.989 46.3618 164.327 45.6908 163.707 44.9824Z" fill="#407BFF"/>
<path d="M194.154 57.5901H66.1178C62.5966 57.5901 59.7422 60.4445 59.7422 63.9657V253.258C59.7422 256.779 62.5966 259.633 66.1178 259.633H194.154C197.675 259.633 200.53 256.779 200.53 253.258V63.9657C200.53 60.4445 197.675 57.5901 194.154 57.5901Z" fill="#263238"/>
<path d="M196.019 72.0027H64.1133V240.733H196.019V72.0027Z" fill="white"/>
<path d="M135.539 249.504C135.539 250.573 135.222 251.618 134.627 252.507C134.033 253.396 133.189 254.088 132.201 254.497C131.214 254.906 130.127 255.013 129.078 254.804C128.03 254.595 127.067 254.08 126.311 253.323C125.556 252.567 125.042 251.603 124.834 250.555C124.626 249.506 124.734 248.419 125.143 247.432C125.553 246.445 126.247 245.601 127.136 245.008C128.026 244.415 129.071 244.099 130.14 244.1C130.849 244.1 131.552 244.24 132.207 244.511C132.863 244.783 133.458 245.181 133.959 245.683C134.461 246.185 134.858 246.781 135.129 247.436C135.4 248.092 135.539 248.795 135.539 249.504Z" fill="#455A64"/>
<path d="M150.669 63.4082H109.611C109.239 63.4082 108.938 63.7097 108.938 64.0816V64.9648C108.938 65.3368 109.239 65.6383 109.611 65.6383H150.669C151.041 65.6383 151.342 65.3368 151.342 64.9648V64.0816C151.342 63.7097 151.041 63.4082 150.669 63.4082Z" fill="#455A64"/>
<path d="M183.975 85.1846H78.8906V102.926H183.975V85.1846Z" fill="#407BFF"/>
<path d="M186.574 126.292C186.574 126.292 186.574 126.193 186.574 125.994C186.574 125.795 186.574 125.492 186.574 125.094C186.574 124.288 186.574 123.068 186.547 121.401L186.591 121.445C173.525 121.506 130.237 121.545 78.9508 121.545L79.0943 121.401V126.292L78.9508 126.148L155.21 126.209L178.178 126.253H184.421H186.044H184.438H178.228L155.292 126.297L78.9287 126.358H78.7852V121.18H78.9342C130.232 121.18 173.519 121.225 186.574 121.285V121.324C186.574 122.98 186.574 124.227 186.574 125.039C186.574 125.436 186.574 125.729 186.574 125.928C186.574 126.126 186.574 126.292 186.574 126.292Z" fill="#263238"/>
<path d="M98.447 114.766C98.447 114.849 93.7163 114.91 87.8817 114.91C82.047 114.91 77.3164 114.849 77.3164 114.766C77.3164 114.684 82.047 114.623 87.8817 114.623C93.7163 114.623 98.447 114.689 98.447 114.766Z" fill="#263238"/>
<path d="M184.97 201.055C184.97 201.055 184.97 200.95 184.97 200.751C184.97 200.552 184.97 200.254 184.97 199.851C184.97 199.046 184.97 197.831 184.97 196.164L185.009 196.203C171.943 196.263 128.661 196.308 77.3687 196.308L77.5122 196.164V201.055L77.3687 200.911L153.622 200.966L176.596 201.011H182.834H184.462C184.827 201.011 185.014 201.011 185.014 201.011H184.462H182.85H176.646L153.71 201.055L77.3466 201.116H77.2031V195.938H77.3522C128.65 195.938 171.932 195.982 184.992 196.043H185.036V196.081C185.036 197.737 185.036 198.979 185.009 199.796C185.009 200.188 185.009 200.481 185.009 200.685C185.009 200.889 184.97 201.055 184.97 201.055Z" fill="#263238"/>
<path d="M99.3962 191.246C99.3962 191.329 94.6655 191.389 88.8309 191.389C82.9963 191.389 78.2656 191.329 78.2656 191.246C78.2656 191.163 82.9963 191.102 88.8309 191.102C94.6655 191.102 99.3962 191.169 99.3962 191.246Z" fill="#263238"/>
<path d="M184.97 144.977C184.97 144.977 184.97 144.878 184.97 144.679C184.97 144.48 184.97 144.182 184.97 143.779C184.97 142.973 184.97 141.759 184.97 140.092L185.009 140.131C171.943 140.191 128.661 140.236 77.3687 140.236L77.5122 140.092V144.977L77.3687 144.834L153.622 144.894L176.596 144.939H182.834H184.462H185.014C185.014 144.939 184.838 144.939 184.462 144.939H182.85H176.646L153.71 144.983L77.3466 145.038H77.2031V139.866H77.3522C128.65 139.866 171.932 139.91 184.992 139.971H185.036V140.009C185.036 141.665 185.036 142.907 185.009 143.719C185.009 144.116 185.009 144.409 185.009 144.613C185.009 144.817 184.97 144.977 184.97 144.977Z" fill="#263238"/>
<path d="M98.447 135.174C98.447 135.257 93.7163 135.317 87.8817 135.317C82.047 135.317 77.3164 135.257 77.3164 135.174C77.3164 135.091 82.047 135.03 87.8817 135.03C93.7163 135.03 98.447 135.097 98.447 135.174Z" fill="#263238"/>
<path d="M123.095 163.668C123.095 163.668 123.095 163.552 123.095 163.342C123.095 163.132 123.095 162.79 123.095 162.398C123.095 161.565 123.095 160.35 123.062 158.777L123.123 158.838C115.169 158.888 97.6483 158.921 77.3402 158.921C77.4064 158.86 77.1967 159.064 77.4837 158.777V163.651L77.3402 163.508L109.831 163.569L119.552 163.613H122.19H122.88H123.123H122.897H122.229H119.623L109.93 163.657L77.3623 163.718H77.2188V158.7L77.3623 158.556C97.6703 158.556 115.191 158.59 123.145 158.639H123.206V158.7C123.206 160.29 123.178 161.515 123.167 162.354C123.167 162.757 123.167 163.066 123.167 163.287C123.167 163.508 123.095 163.668 123.095 163.668Z" fill="#263238"/>
<path d="M98.447 153.864C98.447 153.942 93.7163 154.008 87.8817 154.008C82.047 154.008 77.3164 153.942 77.3164 153.864C77.3164 153.787 82.047 153.721 87.8817 153.721C93.7163 153.721 98.447 153.782 98.447 153.864Z" fill="#263238"/>
<path d="M84.935 181.437C84.9263 181.315 84.9263 181.194 84.935 181.072C84.935 180.807 84.935 180.476 84.9074 180.079C84.9074 179.19 84.8688 177.992 84.8467 176.551L84.9571 176.662L77.3395 176.695C77.3064 176.695 77.61 176.419 77.483 176.551V177.827C77.483 178.252 77.483 178.666 77.483 179.074C77.483 179.891 77.483 180.68 77.483 181.431L77.3506 181.299C79.5586 181.299 81.4464 181.337 82.7988 181.365L84.383 181.404C84.5784 181.402 84.7738 181.411 84.9681 181.431C84.7856 181.459 84.6008 181.47 84.4161 181.464L82.8595 181.497C81.5182 181.525 79.5972 181.553 77.3395 181.564H77.207V181.431C77.207 180.68 77.207 179.891 77.207 179.074V176.551L77.3506 176.408L84.9681 176.436H85.0841V176.551C85.0841 178.069 85.0454 179.311 85.0234 180.151C85.0234 180.537 85.0234 180.857 84.9958 181.117C84.9898 181.225 84.9694 181.333 84.935 181.437Z" fill="#263238"/>
<path d="M94.9999 181.437C94.9912 181.316 94.9912 181.194 94.9999 181.072C94.9999 180.808 94.9889 180.476 94.9668 180.079C94.9668 179.19 94.9337 177.992 94.9061 176.552L95.022 176.662L87.4044 176.695C87.3713 176.695 87.6749 176.419 87.5479 176.552V177.192C87.5479 177.407 87.5479 177.617 87.5479 177.827V179.074C87.5479 179.891 87.5479 180.681 87.5479 181.431L87.4154 181.299C89.6234 181.299 91.5113 181.337 92.8581 181.365L94.4424 181.404C94.6396 181.402 94.8368 181.411 95.033 181.431C94.8504 181.459 94.6657 181.47 94.481 181.464L92.9244 181.498C91.583 181.525 89.6621 181.553 87.4044 181.564H87.2719V181.431C87.2719 180.681 87.2719 179.891 87.2719 179.074V176.552C87.1394 176.679 87.443 176.375 87.4154 176.408L95.033 176.436H95.1489V176.552C95.1489 178.07 95.1103 179.312 95.0882 180.151C95.0882 180.537 95.0882 180.857 95.0882 181.117C95.0734 181.227 95.0437 181.335 94.9999 181.437Z" fill="#263238"/>
<path d="M105.061 181.437C105.041 181.316 105.032 181.194 105.033 181.072C105.033 180.807 105.033 180.476 105.006 180.079C105.006 179.19 104.973 177.992 104.945 176.551L105.061 176.662L97.4378 176.695L97.5814 176.551V179.074C97.5814 179.891 97.5814 180.68 97.5814 181.431L97.4489 181.299C99.6569 181.299 101.55 181.337 102.897 181.365L104.481 181.404C104.679 181.402 104.876 181.411 105.072 181.431C104.889 181.459 104.705 181.47 104.52 181.464L102.969 181.497C101.628 181.525 99.701 181.553 97.4489 181.564H97.3164V181.431C97.3164 180.68 97.3164 179.891 97.3164 179.074C97.3164 178.666 97.3164 178.252 97.3164 177.827V176.551L97.4599 176.408L105.083 176.436H105.199V176.551C105.199 178.069 105.16 179.311 105.144 180.151C105.144 180.537 105.144 180.857 105.111 181.117C105.105 181.225 105.089 181.332 105.061 181.437Z" fill="#263238"/>
<path d="M115.118 181.437C115.118 181.437 115.118 181.304 115.118 181.072C115.118 180.841 115.118 180.476 115.118 180.079C115.118 179.19 115.08 177.992 115.058 176.551L115.168 176.662L107.55 176.695C107.517 176.695 107.821 176.419 107.694 176.551V177.827C107.694 178.252 107.694 178.666 107.694 179.074C107.694 179.891 107.694 180.68 107.694 181.431L107.561 181.299C109.769 181.299 111.657 181.337 113.01 181.365L114.594 181.404C114.789 181.402 114.985 181.411 115.179 181.431C114.997 181.459 114.812 181.47 114.627 181.464L113.07 181.497C111.735 181.525 109.808 181.553 107.55 181.564H107.418V181.431C107.418 180.68 107.418 179.891 107.418 179.074V176.551L107.561 176.408L115.179 176.436H115.295V176.551C115.295 178.069 115.256 179.311 115.234 180.151C115.234 180.537 115.234 180.857 115.207 181.117C115.192 181.227 115.162 181.334 115.118 181.437Z" fill="#263238"/>
<path d="M125.181 181.437C125.172 181.315 125.172 181.194 125.181 181.072C125.181 180.807 125.181 180.476 125.148 180.079C125.148 179.19 125.115 177.992 125.093 176.551L125.203 176.662L117.586 176.695C117.552 176.695 117.856 176.419 117.729 176.551V177.827C117.729 178.252 117.729 178.666 117.729 179.074C117.729 179.891 117.729 180.68 117.729 181.431L117.597 181.299C119.805 181.299 121.692 181.337 123.039 181.365L124.624 181.404C124.821 181.402 125.018 181.411 125.214 181.431C125.032 181.459 124.847 181.47 124.662 181.464L123.106 181.497C121.764 181.525 119.843 181.553 117.586 181.564H117.453V181.431C117.453 180.68 117.453 179.891 117.453 179.074V176.551L117.597 176.408L125.214 176.436H125.303V176.551C125.303 178.069 125.264 179.311 125.242 180.151C125.242 180.537 125.242 180.857 125.242 181.117C125.236 181.225 125.215 181.333 125.181 181.437Z" fill="#263238"/>
<path d="M135.24 181.437C135.229 181.315 135.229 181.194 135.24 181.072C135.24 180.807 135.24 180.476 135.212 180.079C135.212 179.19 135.179 177.992 135.151 176.551L135.267 176.662L127.644 176.695L127.788 176.551V179.074C127.788 179.891 127.788 180.68 127.788 181.431L127.655 181.299C129.863 181.299 131.757 181.337 133.103 181.365L134.688 181.404C134.885 181.402 135.082 181.411 135.278 181.431C135.096 181.459 134.911 181.47 134.726 181.464L133.175 181.497C131.834 181.525 129.907 181.553 127.655 181.564H127.512V181.431C127.512 180.68 127.512 179.891 127.512 179.074C127.512 178.666 127.512 178.252 127.512 177.827V176.551L127.655 176.408L135.278 176.436H135.394V176.551C135.394 178.069 135.356 179.311 135.339 180.151C135.339 180.537 135.339 180.857 135.306 181.117C135.295 181.225 135.273 181.333 135.24 181.437Z" fill="#263238"/>
<path d="M145.307 181.437C145.287 181.316 145.278 181.194 145.279 181.072C145.279 180.807 145.279 180.476 145.252 180.079C145.252 179.19 145.213 177.992 145.191 176.551L145.307 176.662L137.684 176.695C137.651 176.695 137.954 176.419 137.827 176.551V179.074C137.827 179.891 137.827 180.68 137.827 181.431L137.695 181.299C139.903 181.299 141.791 181.337 143.143 181.365L144.727 181.404C144.925 181.402 145.122 181.411 145.318 181.431C145.135 181.458 144.951 181.469 144.766 181.464L143.215 181.497C141.874 181.525 139.947 181.553 137.695 181.564H137.562V181.431C137.562 180.68 137.562 179.891 137.562 179.074C137.562 178.666 137.562 178.252 137.562 177.827V176.551L137.706 176.408L145.329 176.436H145.44V176.551C145.44 178.069 145.401 179.311 145.379 180.151C145.379 180.537 145.379 180.857 145.351 181.117C145.348 181.224 145.333 181.332 145.307 181.437Z" fill="#263238"/>
<path d="M155.363 181.437C155.355 181.316 155.355 181.194 155.363 181.072C155.363 180.808 155.363 180.476 155.336 180.079C155.336 179.19 155.297 177.992 155.275 176.552L155.385 176.662L147.768 176.695C147.735 176.695 148.038 176.419 147.911 176.552V177.827C147.911 178.252 147.911 178.666 147.911 179.074C147.911 179.891 147.911 180.681 147.911 181.431L147.779 181.299C149.987 181.299 151.875 181.337 153.227 181.365L154.811 181.404C155.007 181.402 155.202 181.411 155.396 181.431C155.214 181.459 155.029 181.47 154.844 181.464L153.288 181.498C151.946 181.525 150.025 181.553 147.768 181.564H147.635V181.431C147.635 180.681 147.635 179.891 147.635 179.074V176.552C147.503 176.679 147.806 176.375 147.779 176.408L155.396 176.436H155.512V176.552C155.512 178.07 155.474 179.312 155.452 180.151C155.452 180.537 155.452 180.857 155.424 181.117C155.418 181.226 155.398 181.333 155.363 181.437Z" fill="#263238"/>
<path d="M165.428 181.437C165.412 181.316 165.402 181.194 165.4 181.072C165.4 180.808 165.4 180.476 165.373 180.079C165.373 179.19 165.34 177.992 165.312 176.552L165.428 176.662L157.81 176.695C157.777 176.695 158.081 176.419 157.948 176.552V179.074C157.948 179.891 157.948 180.681 157.948 181.431L157.816 181.299C160.024 181.299 161.917 181.337 163.264 181.365L164.848 181.404C165.046 181.402 165.243 181.411 165.439 181.431C165.256 181.459 165.072 181.47 164.887 181.464L163.33 181.498C161.989 181.525 160.063 181.553 157.81 181.564H157.684V181.431C157.684 180.681 157.684 179.891 157.684 179.074V177.827C157.684 177.617 157.684 177.407 157.684 177.192V176.552C157.557 176.679 157.86 176.375 157.833 176.408L165.45 176.436H165.566V176.552C165.566 178.07 165.522 179.312 165.505 180.151C165.505 180.537 165.505 180.857 165.472 181.117C165.469 181.225 165.454 181.332 165.428 181.437Z" fill="#263238"/>
<path d="M175.491 181.437C175.471 181.316 175.461 181.194 175.463 181.072C175.463 180.807 175.463 180.476 175.435 180.079C175.435 179.19 175.402 177.992 175.375 176.551L175.491 176.662L167.868 176.695C167.834 176.695 168.138 176.419 168.011 176.551V179.074C168.011 179.891 168.011 180.68 168.011 181.431L167.879 181.299C170.087 181.299 171.974 181.337 173.327 181.365L174.911 181.404C175.108 181.402 175.305 181.411 175.502 181.431C175.319 181.459 175.134 181.47 174.95 181.464L173.399 181.497C172.057 181.525 170.131 181.553 167.879 181.564H167.746V181.431C167.746 180.68 167.746 179.891 167.746 179.074C167.746 178.666 167.746 178.252 167.746 177.827V176.551L167.89 176.408L175.513 176.436H175.623V176.551C175.623 178.069 175.584 179.311 175.562 180.151C175.562 180.537 175.562 180.857 175.535 181.117C175.531 181.224 175.517 181.332 175.491 181.437Z" fill="#263238"/>
<path d="M185.548 181.437C185.54 181.315 185.54 181.194 185.548 181.072C185.548 180.807 185.548 180.476 185.521 180.079C185.521 179.19 185.482 177.992 185.46 176.551L185.57 176.662L177.953 176.695C177.92 176.695 178.223 176.419 178.096 176.551V177.827C178.096 178.252 178.096 178.666 178.096 179.074C178.096 179.891 178.096 180.68 178.096 181.431L177.964 181.299C180.172 181.299 182.06 181.337 183.412 181.365L184.996 181.404C185.192 181.402 185.387 181.411 185.581 181.431C185.399 181.459 185.214 181.47 185.029 181.464L183.473 181.497C182.131 181.525 180.21 181.553 177.953 181.564H177.82V181.431C177.82 180.68 177.82 179.891 177.82 179.074V176.551L177.964 176.408L185.581 176.436H185.697V176.551C185.697 178.069 185.659 179.311 185.637 180.151C185.637 180.537 185.637 180.857 185.609 181.117C185.603 181.225 185.583 181.333 185.548 181.437Z" fill="#263238"/>
<path d="M99.3962 171.633C99.3962 171.716 94.6655 171.777 88.8309 171.777C82.9963 171.777 78.2656 171.716 78.2656 171.633C78.2656 171.55 82.9963 171.49 88.8309 171.49C94.6655 171.49 99.3962 171.556 99.3962 171.633Z" fill="#263238"/>
<path d="M184.208 163.668C184.208 163.668 184.208 163.552 184.208 163.342C184.208 163.132 184.208 162.79 184.208 162.398C184.208 161.565 184.208 160.35 184.175 158.777L184.235 158.838C176.281 158.888 158.766 158.921 138.458 158.921L138.602 158.777V163.651L138.458 163.508L170.949 163.569L180.669 163.613H183.314H184.004H184.241H184.02H183.347H180.741L171.054 163.657L138.486 163.718H138.348V163.574C138.348 162.796 138.348 161.99 138.348 161.173V158.7L138.497 158.556C158.805 158.556 176.32 158.59 184.274 158.639H184.335V158.7C184.335 160.29 184.307 161.515 184.302 162.354C184.302 162.757 184.302 163.066 184.302 163.287C184.302 163.508 184.208 163.668 184.208 163.668Z" fill="#263238"/>
<path d="M160.509 153.864C160.509 153.942 155.779 154.008 149.944 154.008C144.11 154.008 139.379 153.942 139.379 153.864C139.379 153.787 144.11 153.721 149.944 153.721C155.779 153.721 160.509 153.782 160.509 153.864Z" fill="#263238"/>
<path d="M150.503 226.502H109.655C107.802 226.499 106.026 225.761 104.716 224.45C103.407 223.139 102.672 221.361 102.672 219.508C102.673 217.657 103.409 215.882 104.716 214.572C106.024 213.262 107.798 212.524 109.649 212.52H150.497C152.352 212.52 154.131 213.257 155.443 214.568C156.754 215.88 157.491 217.659 157.491 219.514C157.49 221.367 156.753 223.143 155.443 224.454C154.132 225.764 152.356 226.501 150.503 226.502Z" fill="#407BFF"/>
<path d="M96.4933 90.9365H95.1133V97.1189H96.4933V90.9365Z" fill="white"/>
<path d="M92.7148 93.3375V94.7175H98.8972V93.3375H92.7148Z" fill="white"/>
<path d="M100.945 94.0441C100.945 94.0441 100.945 94.0165 100.945 93.9613V93.7129V93.5362C100.939 93.4638 100.928 93.3919 100.912 93.3209C100.894 93.1342 100.858 92.9495 100.807 92.7689C100.56 91.8242 100.05 90.9688 99.3374 90.3016C98.6242 89.6344 97.7368 89.1827 96.7778 88.9988C95.6342 88.7964 94.4559 88.9788 93.4271 89.5177C93.2095 89.6363 93.001 89.771 92.8033 89.9206C92.6085 90.0717 92.424 90.2358 92.2513 90.4119C92.0722 90.5985 91.9045 90.7958 91.749 91.0025C91.433 91.4301 91.1871 91.9053 91.0204 92.4101C90.6743 93.4549 90.6743 94.5835 91.0204 95.6283C91.1848 96.1342 91.4309 96.6096 91.749 97.0359C91.9031 97.2438 92.0709 97.4411 92.2513 97.6265C92.4227 97.804 92.6072 97.9683 92.8033 98.1178C93.001 98.2674 93.2095 98.4021 93.4271 98.5208C93.6414 98.6364 93.8648 98.7342 94.095 98.8133C95.2115 99.221 96.435 99.2268 97.5553 98.8299C98.6756 98.433 99.6225 97.6581 100.233 96.6385C100.483 96.2135 100.669 95.7541 100.785 95.275C100.836 95.0943 100.871 94.9097 100.89 94.723C100.906 94.652 100.917 94.5801 100.923 94.5077V94.3256V94.0827C100.923 94.0275 100.923 93.9999 100.923 93.9999V94.0827C100.923 94.1434 100.923 94.2262 100.923 94.3256V94.5077C100.923 94.574 100.923 94.6457 100.896 94.7285C100.875 94.9146 100.842 95.0991 100.796 95.2805C100.683 95.7675 100.497 96.2346 100.244 96.6661C99.8713 97.3003 99.367 97.8476 98.7654 98.2712C98.1638 98.6948 97.4786 98.9851 96.7557 99.1225C95.8329 99.2976 94.8801 99.2233 93.9957 98.9072C93.764 98.8205 93.5373 98.721 93.3167 98.6091C93.0956 98.4854 92.8818 98.349 92.6764 98.2006C92.4707 98.0438 92.2736 97.8761 92.0858 97.6983C91.9032 97.5094 91.7335 97.3083 91.5779 97.0966C91.2512 96.6632 90.9993 96.1781 90.8327 95.6614C90.4672 94.5877 90.4672 93.4232 90.8327 92.3494C90.9993 91.8328 91.2512 91.3477 91.5779 90.9142C91.7338 90.7027 91.9034 90.5017 92.0858 90.3125C92.2708 90.1316 92.4681 89.9638 92.6764 89.8102C93.0772 89.5082 93.5222 89.2699 93.9957 89.1037C94.8131 88.8052 95.6929 88.7186 96.5528 88.8518C97.4128 88.985 98.2251 89.3337 98.914 89.8654C99.442 90.2689 99.8863 90.7714 100.222 91.3448C100.475 91.7762 100.661 92.2433 100.774 92.7303C100.82 92.9118 100.853 93.0962 100.874 93.2823C100.874 93.3596 100.874 93.4313 100.901 93.4976V93.6797C100.901 93.7846 100.901 93.8674 100.901 93.9281L100.945 94.0441Z" fill="white"/>
<path d="M112.184 219.608L112.879 218.912L114.22 220.104L116.854 217.571L117.499 218.266L114.121 221.446L112.184 219.608Z" fill="white"/>
<path d="M256.85 259.28C256.85 259.357 202.892 259.424 136.349 259.424C69.805 259.424 15.8359 259.357 15.8359 259.28C15.8359 259.203 69.7829 259.136 136.349 259.136C202.914 259.136 256.85 259.197 256.85 259.28Z" fill="#263238"/>
<path d="M75.5328 32.4025L55.429 24.9946L35.5239 32.3031C32.9791 33.5341 30.7546 34.2682 30.7546 36.7191V48.7913C30.7093 57.2628 32.9767 65.586 37.3123 72.8641C41.579 80.1283 47.9718 85.9084 55.6277 89.4241C63.7642 86.7137 69.8362 79.4881 73.5511 73.3001C77.8831 66.0246 80.1502 57.7059 80.1089 49.2385V38.3861C80.1089 34.9251 78.3204 33.236 75.5328 32.4025Z" fill="#407BFF"/>
<g opacity="0.8">
<path d="M75.5328 32.4025L55.429 24.9946L35.5239 32.3031C32.9791 33.5341 30.7546 34.2682 30.7546 36.7191V48.7913C30.7093 57.2628 32.9767 65.586 37.3123 72.8641C41.579 80.1283 47.9718 85.9084 55.6277 89.4241C63.7642 86.7137 69.8362 79.4881 73.5511 73.3001C77.8831 66.0246 80.1502 57.7059 80.1089 49.2385V38.3861C80.1089 34.9251 78.3204 33.236 75.5328 32.4025Z" fill="white"/>
</g>
<path d="M71.5591 37.3099L55.4297 31.3704L39.4603 37.2271C37.4179 38.2152 35.6294 38.8058 35.6294 40.7544V50.4585C35.5934 57.2578 37.4142 63.9379 40.8955 69.7785C44.3131 75.6179 49.4427 80.2658 55.5897 83.0928C62.1144 80.9179 66.9885 75.1164 69.9693 70.1594C73.4464 64.3173 75.2651 57.6378 75.2299 50.8394V42.1123C75.2299 39.3357 73.7947 37.9778 71.5591 37.3099Z" fill="#407BFF"/>
<path d="M67.6392 53.9801H58.1559V44.4912H52.7076V53.9801H43.2188V59.4283H52.7076V68.9117H58.1559V59.4283H67.6392V53.9801Z" fill="white"/>
<path d="M85.3661 81.6132C85.3661 81.6132 85.4544 81.4808 85.6421 81.2324L85.8022 81.0281C85.8574 80.9453 85.9016 80.8515 85.9623 80.7521C86.1039 80.5265 86.224 80.2881 86.3211 80.04C86.3763 79.8965 86.4425 79.753 86.4977 79.5929C86.5529 79.4328 86.5916 79.2562 86.6412 79.0796C86.6936 78.8987 86.7323 78.7142 86.7572 78.5276C86.7989 78.3178 86.8284 78.1059 86.8455 77.8928C86.9295 76.8772 86.8831 75.855 86.7075 74.8512C86.1834 72.09 85.2376 69.4258 83.9033 66.9521C82.1873 63.664 80.1772 60.538 77.8976 57.6123C75.1532 54.0535 72.1613 50.6927 68.9441 47.5548C65.2663 43.944 61.3393 40.5962 57.192 37.536C54.984 35.9187 52.6822 34.3565 50.2424 32.8827C47.7573 31.367 45.1758 30.0154 42.5144 28.8365C39.7758 27.5816 36.89 26.6766 33.9252 26.1428C32.4124 25.8741 30.8676 25.8369 29.3436 26.0324C28.5818 26.1437 27.8388 26.3591 27.1356 26.6727C26.4284 26.9902 25.7959 27.4532 25.2795 28.0315C24.763 28.6097 24.3742 29.2903 24.1383 30.0288C23.9081 30.7643 23.7781 31.5274 23.7519 32.2976C23.7323 33.8353 23.9463 35.3671 24.3867 36.8405C25.253 39.7261 26.4789 42.4912 28.0354 45.0708C29.5134 47.5763 31.1507 49.9843 32.9372 52.28C34.6815 54.5376 36.4976 56.6573 38.3523 58.6556C41.8765 62.4256 45.6615 65.9432 49.6793 69.1822C53.1728 72.0148 56.862 74.5973 60.7193 76.9102C63.8765 78.8408 67.2021 80.4814 70.6553 81.812C73.257 82.8525 76.003 83.4873 78.7973 83.6943C79.816 83.756 80.8383 83.6855 81.8388 83.4845C82.048 83.446 82.2545 83.3944 82.4571 83.33C82.6462 83.2837 82.831 83.2209 83.0091 83.1423L83.5059 82.9436C83.6549 82.8718 83.7929 82.789 83.9254 82.7172C84.1628 82.5958 84.3866 82.4496 84.5933 82.2812C84.6872 82.2149 84.7755 82.1542 84.8472 82.0935L85.0349 81.9113C85.2612 81.696 85.3827 81.5912 85.3827 81.5912L85.0515 81.9224L84.8638 82.11C84.792 82.1708 84.7037 82.2315 84.6099 82.3032C84.3924 82.4932 84.1556 82.6597 83.9033 82.8L83.4838 83.0319L82.987 83.2361C82.8086 83.314 82.6239 83.3768 82.435 83.4238C82.23 83.4894 82.0218 83.5447 81.8112 83.5894C80.8074 83.7937 79.7817 83.8697 78.7587 83.8157C75.9543 83.6187 73.197 82.9912 70.5836 81.9555C67.112 80.6331 63.7679 78.998 60.5924 77.0703C56.7361 74.7557 53.0471 72.1733 49.5524 69.3423C45.5293 66.0994 41.7406 62.5762 38.2143 58.7991C36.3596 56.7953 34.538 54.6756 32.7881 52.4124C30.9936 50.1131 29.3507 47.6995 27.8698 45.1868C26.3048 42.5911 25.0716 39.8094 24.199 36.9068C23.7551 35.4171 23.541 33.8684 23.5642 32.3141C23.59 31.5254 23.7219 30.7438 23.9561 29.9902C24.2191 29.2367 24.6196 28.5385 25.1374 27.9312C25.678 27.3369 26.326 26.8499 27.0473 26.496C27.7672 26.1774 28.5265 25.9565 29.305 25.8392C30.8475 25.6426 32.411 25.6816 33.9418 25.9551C36.9211 26.4933 39.8213 27.4019 42.5751 28.6599C45.236 29.846 47.8174 31.203 50.3031 32.7226C52.7484 34.202 55.0668 35.7696 57.2638 37.387C61.4259 40.4677 65.3659 43.8378 69.0545 47.472C72.2697 50.622 75.2596 53.9938 78.0024 57.5626C80.2834 60.5007 82.29 63.6419 83.9972 66.9466C85.319 69.4254 86.25 72.0936 86.7572 74.8568C86.9296 75.8665 86.9722 76.8942 86.8841 77.9148C86.8841 78.1412 86.8179 78.3509 86.7903 78.5496C86.7626 78.7453 86.7221 78.9389 86.6688 79.1292C86.6136 79.3059 86.564 79.4825 86.5198 79.6426C86.4756 79.8027 86.3928 79.9517 86.3376 80.0897C86.2359 80.3394 86.1121 80.5796 85.9678 80.8073C85.9071 80.9067 85.8574 81.0005 85.8077 81.0778L85.6421 81.282L85.3661 81.6132Z" fill="#407BFF"/>
<path d="M96.4783 54.786C96.4783 54.786 96.4783 54.6259 96.4341 54.3168C96.4341 54.2395 96.4341 54.1512 96.4341 54.0573C96.4341 53.9635 96.39 53.8586 96.3679 53.7482C96.3221 53.4847 96.2519 53.226 96.1581 52.9754C96.1085 52.8374 96.0588 52.6829 95.9925 52.5228L95.7607 52.0481C95.6759 51.8706 95.5762 51.7008 95.4626 51.5402C95.3573 51.3486 95.2393 51.1641 95.1093 50.9882C94.499 50.1619 93.7826 49.4196 92.9786 48.7802C90.7557 47.0741 88.2831 45.7205 85.6481 44.7672C82.179 43.4553 78.5985 42.4595 74.9503 41.7919C70.5251 40.9805 66.0484 40.4806 61.5533 40.296C56.3998 40.0442 51.2349 40.1567 46.0973 40.6327C43.3814 40.8921 40.6159 41.2675 37.8173 41.7919C34.9557 42.3134 32.1309 43.0196 29.3606 43.9061C26.4844 44.7964 23.7307 46.0425 21.1634 47.6155C19.8527 48.4195 18.6725 49.4191 17.6637 50.5797C17.1689 51.1728 16.7566 51.8301 16.4383 52.5338C16.1224 53.2417 15.9592 54.0081 15.9592 54.7832C15.9592 55.5583 16.1224 56.3248 16.4383 57.0326C16.7566 57.7363 17.1689 58.3937 17.6637 58.9867C18.6721 60.1471 19.8502 61.1483 21.1579 61.9565C23.7254 63.5382 26.4812 64.7918 29.3606 65.688C32.1314 66.5743 34.956 67.2823 37.8173 67.8077C40.6214 68.3597 43.3869 68.7019 46.0973 68.9613C51.2349 69.4371 56.3997 69.5496 61.5533 69.2981C66.0425 69.099 70.5119 68.5825 74.9282 67.7525C78.5775 67.0839 82.1595 66.09 85.6315 64.7827C88.2694 63.8134 90.742 62.4431 92.9621 60.72C93.7661 60.0806 94.4825 59.3383 95.0928 58.512C95.2224 58.3347 95.3422 58.1504 95.4516 57.96C95.5614 57.7981 95.6592 57.6284 95.7441 57.4521L95.9815 56.9774C96.0422 56.8173 96.0919 56.6683 96.1416 56.5248C96.2353 56.2743 96.3055 56.0155 96.3513 55.752C96.3513 55.6416 96.401 55.5367 96.4176 55.4429C96.4341 55.349 96.4176 55.2607 96.4176 55.1834C96.4452 54.8743 96.4617 54.7142 96.4617 54.7142C96.4617 54.7142 96.4617 54.8743 96.4617 55.1834V55.4484C96.4617 55.5422 96.4231 55.6471 96.401 55.7575C96.3602 56.0233 96.2918 56.2842 96.1968 56.5358C96.1471 56.6793 96.1029 56.8339 96.0367 56.994C95.9705 57.1541 95.8877 57.3086 95.8049 57.4742C95.7212 57.6529 95.6234 57.8245 95.5123 57.9876C95.4048 58.1779 95.2868 58.3622 95.159 58.5396C94.5467 59.3642 93.8306 60.1063 93.0283 60.7476C90.8062 62.4693 88.3317 63.8378 85.6922 64.8048C82.2204 66.1265 78.6362 67.1316 74.9834 67.8077C70.5603 68.6455 66.0834 69.1694 61.5864 69.3753C56.4333 69.6317 51.2685 69.5247 46.1304 69.0552C43.4145 68.8013 40.638 68.4259 37.8504 67.9015C34.9809 67.3808 32.1486 66.6727 29.3717 65.7818C26.4776 64.8898 23.707 63.638 21.1248 62.0558C19.8012 61.2405 18.6099 60.2279 17.592 59.0529C17.0868 58.4459 16.6654 57.7738 16.3389 57.0547C16.0319 56.3174 15.8653 55.5293 15.8477 54.7308C15.8651 53.9335 16.0337 53.1468 16.3445 52.4124C16.6687 51.6921 17.0903 51.0197 17.5975 50.4141C18.6009 49.2671 19.7692 48.2756 21.0641 47.472C23.6449 45.8909 26.4136 44.6392 29.3054 43.746C32.0826 42.8545 34.9148 42.1446 37.7841 41.6208C40.5938 41.0688 43.3704 40.7265 46.0641 40.4671C51.2022 39.9975 56.367 39.8906 61.5201 40.1469C66.0157 40.3519 70.491 40.8776 74.9117 41.7201C78.5815 42.3875 82.1826 43.3889 85.6701 44.712C88.3093 45.6773 90.7838 47.0439 93.0062 48.7637C93.8085 49.405 94.5246 50.1471 95.1369 50.9717C95.2647 51.149 95.3827 51.3333 95.4902 51.5237C95.5989 51.6881 95.6967 51.8596 95.7828 52.037L96.0146 52.5228C96.0809 52.6773 96.125 52.8319 96.1747 52.9754C96.2689 53.2273 96.3373 53.4881 96.3789 53.7537C96.3789 53.8641 96.4231 53.969 96.4397 54.0684V54.3278C96.4728 54.648 96.4783 54.786 96.4783 54.786Z" fill="#407BFF"/>
<path d="M81.7495 21.3956L81.3575 21.1417L81.1422 20.9761C81.0594 20.9264 80.9601 20.8878 80.8607 20.8381C80.6238 20.7134 80.3763 20.6099 80.121 20.529L79.6629 20.3799L79.1385 20.2751C78.9476 20.2339 78.7538 20.2081 78.5589 20.1978C78.3483 20.1715 78.1363 20.1568 77.9241 20.1536C76.9033 20.1403 75.8849 20.2571 74.8936 20.5014C72.1851 21.2063 69.601 22.3233 67.2318 23.8134C64.0701 25.7482 61.09 27.9652 58.3281 30.4374C54.9614 33.437 51.8126 36.6726 48.9054 40.1195C45.5478 44.0362 42.4728 48.1867 39.7036 52.5395C38.2463 54.8413 36.8442 57.2591 35.5415 59.7927C34.1928 62.3735 33.0146 65.0399 32.0143 67.7747C30.9511 70.5935 30.2463 73.5348 29.9167 76.5294C29.7529 78.0563 29.8217 79.5992 30.1209 81.1054C30.2869 81.8585 30.5524 82.5862 30.9102 83.2693C31.2776 83.9518 31.7837 84.5498 32.3959 85.0252C33.0081 85.5005 33.7129 85.8425 34.4651 86.0293C35.2166 86.2093 35.9893 86.2854 36.7614 86.2556C38.2945 86.172 39.8059 85.8555 41.2437 85.3172C44.0626 84.2515 46.7367 82.8365 49.2035 81.1054C51.6048 79.4624 53.8951 77.6626 56.0594 75.7179C58.1956 73.8246 60.1828 71.8539 62.0486 69.8778C65.5738 66.1108 68.8277 62.0987 71.7859 57.8718C74.3864 54.2065 76.7254 50.3624 78.7852 46.3681C80.4935 43.0755 81.9013 39.6354 82.9915 36.0899C83.8472 33.422 84.2902 30.6391 84.3052 27.8375C84.2951 26.8172 84.1541 25.8024 83.8857 24.818C83.8415 24.6027 83.7477 24.4095 83.687 24.2108C83.6273 24.0215 83.5535 23.837 83.4662 23.6588C83.3852 23.4932 83.3079 23.3331 83.2343 23.1786C83.146 23.0351 83.0577 22.9026 82.9749 22.7756C82.8365 22.5467 82.6756 22.3322 82.4946 22.1353C82.4229 22.0525 82.3566 21.9642 82.2904 21.8979L82.0972 21.7213L81.7495 21.4011C81.7495 21.4011 81.8764 21.5005 82.1082 21.7103L82.307 21.8814C82.3732 21.9476 82.4394 22.0304 82.5167 22.1187C82.6999 22.3146 82.8643 22.5271 83.008 22.7535C83.0908 22.8805 83.1847 23.013 83.2675 23.162C83.3503 23.3111 83.422 23.4711 83.5048 23.6423C83.5974 23.8188 83.6732 24.0036 83.7311 24.1943C83.7974 24.393 83.8912 24.5862 83.9409 24.8015C84.2153 25.7907 84.3619 26.811 84.377 27.8375C84.3737 30.6474 83.938 33.44 83.0853 36.1175C82.0053 39.6731 80.6029 43.1227 78.8956 46.4233C76.8509 50.4297 74.5229 54.2851 71.9294 57.9601C68.9753 62.2005 65.7212 66.2239 62.1921 69.9992C60.3263 71.9919 58.3281 73.9571 56.1974 75.8559C54.0261 77.8027 51.7305 79.606 49.325 81.2545C46.8486 82.9983 44.161 84.4209 41.3265 85.4883C39.8716 86.0364 38.3414 86.3584 36.7891 86.4433C36.0002 86.4708 35.2112 86.3928 34.4431 86.2114C33.6733 85.9995 32.9492 85.6477 32.3068 85.1737C31.6879 84.6672 31.1693 84.0494 30.7778 83.3521C30.4091 82.656 30.1362 81.9133 29.9663 81.1441C29.6619 79.6199 29.593 78.0579 29.7621 76.5128C30.0923 73.5034 30.7989 70.5474 31.8652 67.7139C32.8652 64.9745 34.0416 62.3028 35.387 59.7155C36.6952 57.1707 38.0973 54.7475 39.5601 52.4511C42.3388 48.0945 45.4231 43.9404 48.7895 40.0201C51.7079 36.5916 54.8659 33.3745 58.2398 30.3932C61.0098 27.9164 64.0013 25.6991 67.1766 23.7692C69.5649 22.2703 72.1722 21.1529 74.9046 20.4572C75.8996 20.2133 76.922 20.1001 77.9462 20.1205C78.1604 20.1252 78.3741 20.1418 78.5865 20.1702C78.7834 20.1827 78.979 20.2103 79.1716 20.253L79.7236 20.3634C79.8892 20.4131 80.0382 20.4683 80.1818 20.5179C80.4372 20.6006 80.6847 20.7059 80.9215 20.8326C81.0208 20.8878 81.1202 20.9264 81.203 20.9761L81.4182 21.1251L81.7495 21.3956Z" fill="#407BFF"/>
<path d="M15.4542 71.4235C15.6628 71.6329 15.8047 71.8995 15.862 72.1895C15.9192 72.4795 15.8892 72.78 15.7758 73.053C15.6625 73.326 15.4707 73.5593 15.2248 73.7234C14.979 73.8875 14.69 73.9751 14.3944 73.9751C14.0987 73.9751 13.8098 73.8875 13.5639 73.7234C13.318 73.5593 13.1263 73.326 13.0129 73.053C12.8995 72.78 12.8695 72.4795 12.9268 72.1895C12.984 71.8995 13.1259 71.6329 13.3345 71.4235C13.4731 71.2833 13.6382 71.172 13.8201 71.096C14.002 71.0201 14.1972 70.981 14.3944 70.981C14.5915 70.981 14.7867 71.0201 14.9686 71.096C15.1505 71.172 15.3156 71.2833 15.4542 71.4235Z" fill="#407BFF"/>
<path d="M99.9098 25.0389C99.9098 25.3348 99.8221 25.624 99.6577 25.87C99.4933 26.116 99.2597 26.3077 98.9864 26.4209C98.713 26.5342 98.4122 26.5638 98.1221 26.5061C97.8319 26.4483 97.5653 26.3059 97.3561 26.0967C97.1469 25.8875 97.0044 25.6209 96.9467 25.3307C96.889 25.0405 96.9186 24.7398 97.0318 24.4664C97.1451 24.1931 97.3368 23.9594 97.5828 23.7951C97.8288 23.6307 98.118 23.543 98.4139 23.543C98.8106 23.543 99.1911 23.7006 99.4717 23.9811C99.7522 24.2617 99.9098 24.6421 99.9098 25.0389Z" fill="#407BFF"/>
<path d="M24.8829 76.3416C24.8829 76.4169 24.8605 76.4905 24.8187 76.5532C24.7768 76.6158 24.7173 76.6646 24.6477 76.6935C24.5781 76.7223 24.5016 76.7298 24.4277 76.7151C24.3538 76.7004 24.2859 76.6642 24.2327 76.6109C24.1794 76.5576 24.1431 76.4898 24.1284 76.4159C24.1137 76.342 24.1213 76.2654 24.1501 76.1958C24.1789 76.1262 24.2277 76.0667 24.2904 76.0249C24.353 75.983 24.4266 75.9607 24.502 75.9607C24.603 75.9607 24.6999 76.0008 24.7713 76.0723C24.8427 76.1437 24.8829 76.2406 24.8829 76.3416Z" fill="#407BFF"/>
<path d="M33.0039 34.4007C33.0039 34.476 32.9816 34.5496 32.9398 34.6123C32.8979 34.6749 32.8384 34.7237 32.7688 34.7525C32.6992 34.7814 32.6226 34.7889 32.5488 34.7742C32.4749 34.7595 32.407 34.7232 32.3537 34.67C32.3005 34.6167 32.2642 34.5488 32.2495 34.475C32.2348 34.4011 32.2424 34.3245 32.2712 34.2549C32.3 34.1853 32.3488 34.1258 32.4115 34.084C32.4741 34.0421 32.5477 34.0198 32.6231 34.0198C32.7241 34.0198 32.821 34.0599 32.8924 34.1313C32.9638 34.2028 33.0039 34.2996 33.0039 34.4007Z" fill="#407BFF"/>
<path d="M92.3633 54.7862C92.3633 54.8615 92.341 54.9351 92.2991 54.9978C92.2573 55.0604 92.1978 55.1092 92.1282 55.138C92.0586 55.1669 91.982 55.1744 91.9081 55.1597C91.8343 55.145 91.7664 55.1087 91.7131 55.0555C91.6599 55.0022 91.6236 54.9343 91.6089 54.8605C91.5942 54.7866 91.6017 54.71 91.6306 54.6404C91.6594 54.5708 91.7082 54.5113 91.7708 54.4695C91.8335 54.4276 91.9071 54.4053 91.9824 54.4053C92.0835 54.4053 92.1803 54.4454 92.2518 54.5168C92.3232 54.5883 92.3633 54.6851 92.3633 54.7862Z" fill="#407BFF"/>
<path d="M97.6484 37.0504C97.6495 37.126 97.6281 37.2002 97.5869 37.2635C97.5458 37.3269 97.4867 37.3766 97.4172 37.4062C97.3477 37.4359 97.2709 37.4443 97.1967 37.4302C97.1224 37.4161 97.0541 37.3803 97.0002 37.3272C96.9464 37.2742 96.9096 37.2064 96.8945 37.1323C96.8793 37.0583 96.8865 36.9814 96.9152 36.9115C96.9438 36.8416 96.9926 36.7818 97.0554 36.7397C97.1181 36.6976 97.192 36.6751 97.2676 36.6751C97.3173 36.6744 97.3667 36.6835 97.4129 36.7021C97.4591 36.7206 97.5011 36.7481 97.5366 36.7831C97.572 36.818 97.6001 36.8596 97.6193 36.9055C97.6386 36.9514 97.6484 37.0007 97.6484 37.0504Z" fill="#407BFF"/>
<path d="M170.698 93.389V96.6002H170V92.5174H170.66L170.698 93.389ZM170.532 94.4041L170.241 94.3928C170.244 94.1135 170.286 93.8557 170.366 93.6192C170.447 93.3802 170.56 93.1727 170.706 92.9966C170.852 92.8205 171.025 92.6847 171.226 92.5891C171.43 92.4909 171.655 92.4419 171.902 92.4419C172.103 92.4419 172.284 92.4696 172.445 92.5249C172.606 92.5777 172.743 92.6633 172.856 92.7815C172.972 92.8997 173.06 93.0532 173.121 93.2419C173.181 93.428 173.211 93.6557 173.211 93.9249V96.6002H172.509V93.9173C172.509 93.7035 172.478 93.5324 172.415 93.4041C172.352 93.2733 172.26 93.179 172.14 93.1211C172.019 93.0607 171.87 93.0306 171.694 93.0306C171.521 93.0306 171.362 93.067 171.219 93.14C171.078 93.2129 170.956 93.3136 170.853 93.4419C170.752 93.5702 170.673 93.7173 170.615 93.8833C170.56 94.0469 170.532 94.2204 170.532 94.4041Z" fill="white"/>
<path d="M165.41 94.6041V94.5173C165.41 94.223 165.453 93.95 165.538 93.6984C165.624 93.4444 165.747 93.2243 165.908 93.0381C166.069 92.8494 166.264 92.7035 166.493 92.6004C166.722 92.4947 166.979 92.4419 167.263 92.4419C167.55 92.4419 167.808 92.4947 168.036 92.6004C168.268 92.7035 168.464 92.8494 168.625 93.0381C168.789 93.2243 168.913 93.4444 168.999 93.6984C169.084 93.95 169.127 94.223 169.127 94.5173V94.6041C169.127 94.8984 169.084 95.1713 168.999 95.4229C168.913 95.6745 168.789 95.8946 168.625 96.0833C168.464 96.2694 168.269 96.4153 168.04 96.521C167.814 96.6241 167.557 96.6757 167.27 96.6757C166.984 96.6757 166.726 96.6241 166.497 96.521C166.268 96.4153 166.072 96.2694 165.908 96.0833C165.747 95.8946 165.624 95.6745 165.538 95.4229C165.453 95.1713 165.41 94.8984 165.41 94.6041ZM166.108 94.5173V94.6041C166.108 94.8078 166.132 95.0003 166.18 95.1814C166.228 95.36 166.299 95.5185 166.395 95.6569C166.493 95.7952 166.615 95.9047 166.761 95.9852C166.907 96.0631 167.077 96.1021 167.27 96.1021C167.462 96.1021 167.629 96.0631 167.772 95.9852C167.918 95.9047 168.039 95.7952 168.135 95.6569C168.23 95.5185 168.302 95.36 168.35 95.1814C168.4 95.0003 168.425 94.8078 168.425 94.6041V94.5173C168.425 94.316 168.4 94.1261 168.35 93.9475C168.302 93.7664 168.229 93.6066 168.131 93.4683C168.035 93.3274 167.914 93.2167 167.769 93.1362C167.625 93.0557 167.457 93.0155 167.263 93.0155C167.072 93.0155 166.903 93.0557 166.757 93.1362C166.614 93.2167 166.493 93.3274 166.395 93.4683C166.299 93.6066 166.228 93.7664 166.18 93.9475C166.132 94.1261 166.108 94.316 166.108 94.5173Z" fill="white"/>
<path d="M164.473 92.5173V96.6001H163.772V92.5173H164.473ZM163.719 91.4343C163.719 91.3211 163.753 91.2255 163.821 91.1475C163.891 91.0695 163.994 91.0305 164.13 91.0305C164.263 91.0305 164.365 91.0695 164.436 91.1475C164.509 91.2255 164.545 91.3211 164.545 91.4343C164.545 91.5424 164.509 91.6355 164.436 91.7135C164.365 91.789 164.263 91.8267 164.13 91.8267C163.994 91.8267 163.891 91.789 163.821 91.7135C163.753 91.6355 163.719 91.5424 163.719 91.4343Z" fill="white"/>
<path d="M162.895 92.5173V93.0531H160.688V92.5173H162.895ZM161.435 91.5249H162.133V95.5889C162.133 95.7273 162.154 95.8317 162.197 95.9021C162.24 95.9725 162.295 96.0191 162.363 96.0417C162.431 96.0643 162.504 96.0757 162.582 96.0757C162.64 96.0757 162.7 96.0706 162.763 96.0606C162.828 96.048 162.877 96.0379 162.91 96.0304L162.914 96.6002C162.858 96.6178 162.786 96.6341 162.695 96.6492C162.607 96.6668 162.5 96.6756 162.374 96.6756C162.203 96.6756 162.046 96.6417 161.903 96.5738C161.759 96.5058 161.645 96.3926 161.559 96.2342C161.476 96.0732 161.435 95.8568 161.435 95.5851V91.5249Z" fill="white"/>
<path d="M159.391 95.9021V93.8003C159.391 93.6393 159.359 93.4997 159.293 93.3815C159.23 93.2607 159.135 93.1677 159.007 93.1022C158.878 93.0368 158.72 93.0041 158.531 93.0041C158.355 93.0041 158.2 93.0343 158.067 93.0947C157.936 93.1551 157.833 93.2343 157.758 93.3324C157.685 93.4305 157.648 93.5362 157.648 93.6494H156.95C156.95 93.5035 156.988 93.3588 157.063 93.2154C157.139 93.0721 157.247 92.9425 157.388 92.8268C157.531 92.7086 157.702 92.6155 157.901 92.5476C158.102 92.4771 158.326 92.4419 158.573 92.4419C158.869 92.4419 159.131 92.4922 159.358 92.5928C159.586 92.6935 159.765 92.8457 159.893 93.0494C160.024 93.2507 160.09 93.5035 160.09 93.8079V95.7097C160.09 95.8455 160.101 95.9902 160.124 96.1436C160.149 96.2971 160.185 96.4292 160.233 96.5398V96.6002H159.505C159.469 96.5197 159.442 96.4128 159.422 96.2795C159.402 96.1436 159.391 96.0179 159.391 95.9021ZM159.512 94.1248L159.52 94.6154H158.814C158.615 94.6154 158.438 94.6317 158.282 94.6644C158.126 94.6946 157.995 94.7412 157.89 94.8041C157.784 94.867 157.703 94.9462 157.648 95.0418C157.593 95.1349 157.565 95.2443 157.565 95.3701C157.565 95.4984 157.594 95.6154 157.652 95.721C157.71 95.8267 157.797 95.9109 157.912 95.9738C158.031 96.0342 158.175 96.0644 158.346 96.0644C158.56 96.0644 158.749 96.0191 158.912 95.9286C159.076 95.838 159.205 95.7273 159.301 95.5965C159.399 95.4657 159.452 95.3386 159.459 95.2154L159.758 95.5512C159.74 95.6569 159.692 95.7738 159.614 95.9021C159.536 96.0304 159.432 96.1537 159.301 96.2719C159.173 96.3877 159.019 96.4845 158.841 96.5625C158.664 96.638 158.466 96.6757 158.244 96.6757C157.968 96.6757 157.725 96.6216 157.516 96.5134C157.31 96.4053 157.149 96.2606 157.033 96.0795C156.92 95.8958 156.863 95.6908 156.863 95.4644C156.863 95.2456 156.906 95.0531 156.992 94.8871C157.077 94.7185 157.2 94.5789 157.361 94.4682C157.522 94.355 157.716 94.2695 157.942 94.2116C158.169 94.1538 158.422 94.1248 158.701 94.1248H159.512Z" fill="white"/>
<path d="M155.214 93.1588V96.6002H154.516V92.5174H155.195L155.214 93.1588ZM156.489 92.4947L156.485 93.1438C156.428 93.1312 156.372 93.1236 156.319 93.1211C156.269 93.1161 156.211 93.1136 156.146 93.1136C155.985 93.1136 155.843 93.1387 155.719 93.189C155.596 93.2393 155.492 93.3098 155.406 93.4003C155.321 93.4909 155.253 93.5991 155.202 93.7249C155.155 93.8481 155.123 93.984 155.108 94.1324L154.912 94.2456C154.912 93.9991 154.936 93.7676 154.984 93.5513C155.034 93.3349 155.111 93.1438 155.214 92.9777C155.317 92.8092 155.448 92.6784 155.606 92.5853C155.767 92.4897 155.958 92.4419 156.18 92.4419C156.23 92.4419 156.288 92.4482 156.353 92.4608C156.419 92.4708 156.464 92.4821 156.489 92.4947Z" fill="white"/>
<path d="M153.696 92.5173V93.0531H151.488V92.5173H153.696ZM152.235 91.5249H152.934V95.5889C152.934 95.7273 152.955 95.8317 152.998 95.9021C153.04 95.9725 153.096 96.0191 153.164 96.0417C153.232 96.0643 153.305 96.0757 153.383 96.0757C153.44 96.0757 153.501 96.0706 153.564 96.0606C153.629 96.048 153.678 96.0379 153.711 96.0304L153.715 96.6002C153.659 96.6178 153.586 96.6341 153.496 96.6492C153.408 96.6668 153.301 96.6756 153.175 96.6756C153.004 96.6756 152.847 96.6417 152.703 96.5738C152.56 96.5058 152.445 96.3926 152.36 96.2342C152.277 96.0732 152.235 95.8568 152.235 95.5851V91.5249Z" fill="white"/>
<path d="M150.371 95.5172C150.371 95.4166 150.349 95.3235 150.303 95.238C150.26 95.15 150.171 95.0707 150.035 95.0003C149.902 94.9273 149.701 94.8644 149.432 94.8116C149.205 94.7638 149 94.7072 148.816 94.6418C148.635 94.5764 148.481 94.4972 148.352 94.4041C148.227 94.311 148.13 94.2016 148.062 94.0758C147.994 93.95 147.96 93.8028 147.96 93.6343C147.96 93.4733 147.995 93.3211 148.066 93.1777C148.139 93.0343 148.24 92.9073 148.371 92.7966C148.505 92.6859 148.664 92.5991 148.85 92.5362C149.037 92.4733 149.244 92.4419 149.473 92.4419C149.8 92.4419 150.079 92.4998 150.311 92.6155C150.542 92.7312 150.72 92.8859 150.843 93.0796C150.966 93.2708 151.028 93.4834 151.028 93.7173H150.33C150.33 93.6041 150.296 93.4947 150.228 93.389C150.162 93.2809 150.066 93.1916 149.937 93.1211C149.811 93.0507 149.657 93.0155 149.473 93.0155C149.279 93.0155 149.122 93.0456 149.001 93.106C148.883 93.1639 148.796 93.2381 148.741 93.3287C148.688 93.4192 148.662 93.5148 148.662 93.6154C148.662 93.6909 148.674 93.7588 148.7 93.8192C148.727 93.8771 148.775 93.9311 148.843 93.9815C148.911 94.0293 149.006 94.0745 149.13 94.1173C149.253 94.1601 149.41 94.2028 149.601 94.2456C149.936 94.3211 150.211 94.4116 150.428 94.5173C150.644 94.6229 150.805 94.7525 150.911 94.9059C151.016 95.0594 151.069 95.2456 151.069 95.4644C151.069 95.643 151.032 95.8065 150.956 95.955C150.883 96.1034 150.776 96.2317 150.635 96.3399C150.497 96.4455 150.331 96.5285 150.137 96.5889C149.946 96.6468 149.731 96.6757 149.492 96.6757C149.132 96.6757 148.828 96.6115 148.579 96.4832C148.33 96.3549 148.141 96.1889 148.013 95.9852C147.884 95.7814 147.82 95.5663 147.82 95.3399H148.522C148.532 95.5311 148.588 95.6833 148.688 95.7965C148.789 95.9072 148.912 95.9864 149.058 96.0342C149.204 96.0795 149.349 96.1021 149.492 96.1021C149.683 96.1021 149.843 96.077 149.971 96.0267C150.102 95.9763 150.201 95.9072 150.269 95.8191C150.337 95.7311 150.371 95.6304 150.371 95.5172Z" fill="white"/>
<path d="M146.872 92.5173V96.6001H146.17V92.5173H146.872ZM146.117 91.4343C146.117 91.3211 146.151 91.2255 146.219 91.1475C146.29 91.0695 146.393 91.0305 146.528 91.0305C146.662 91.0305 146.764 91.0695 146.834 91.1475C146.907 91.2255 146.944 91.3211 146.944 91.4343C146.944 91.5424 146.907 91.6355 146.834 91.7135C146.764 91.789 146.662 91.8267 146.528 91.8267C146.393 91.8267 146.29 91.789 146.219 91.7135C146.151 91.6355 146.117 91.5424 146.117 91.4343Z" fill="white"/>
<path d="M144.421 92.5174H145.055V96.5134C145.055 96.8732 144.982 97.1801 144.836 97.4342C144.69 97.6882 144.486 97.8807 144.224 98.0115C143.965 98.1448 143.666 98.2115 143.326 98.2115C143.185 98.2115 143.019 98.1888 142.828 98.1436C142.64 98.1008 142.453 98.0266 142.27 97.9209C142.089 97.8178 141.936 97.6782 141.813 97.5021L142.179 97.087C142.35 97.2933 142.529 97.4367 142.715 97.5172C142.904 97.5977 143.09 97.6379 143.273 97.6379C143.495 97.6379 143.686 97.5964 143.847 97.5134C144.008 97.4304 144.133 97.3071 144.221 97.1436C144.311 96.9826 144.356 96.7839 144.356 96.5474V93.4154L144.421 92.5174ZM141.609 94.6041V94.5248C141.609 94.2129 141.646 93.9299 141.719 93.6758C141.794 93.4192 141.901 93.1991 142.04 93.0155C142.18 92.8318 142.35 92.6909 142.549 92.5928C142.748 92.4922 142.972 92.4419 143.221 92.4419C143.477 92.4419 143.701 92.4872 143.892 92.5777C144.086 92.6658 144.25 92.7953 144.383 92.9664C144.519 93.1349 144.626 93.3387 144.704 93.5777C144.782 93.8167 144.836 94.0871 144.866 94.389V94.7361C144.838 95.0355 144.784 95.3047 144.704 95.5437C144.626 95.7826 144.519 95.9864 144.383 96.155C144.25 96.3235 144.086 96.4531 143.892 96.5436C143.699 96.6317 143.472 96.6757 143.213 96.6757C142.969 96.6757 142.748 96.6241 142.549 96.521C142.353 96.4178 142.184 96.2732 142.043 96.087C141.902 95.9009 141.794 95.682 141.719 95.4305C141.646 95.1764 141.609 94.9009 141.609 94.6041ZM142.307 94.5248V94.6041C142.307 94.8078 142.328 94.999 142.368 95.1776C142.411 95.3562 142.475 95.5135 142.56 95.6493C142.648 95.7852 142.76 95.8921 142.896 95.9701C143.032 96.0455 143.194 96.0833 143.383 96.0833C143.614 96.0833 143.806 96.0342 143.956 95.9361C144.107 95.838 144.227 95.7084 144.315 95.5474C144.405 95.3864 144.476 95.2116 144.526 95.0229V94.1135C144.499 93.9752 144.456 93.8418 144.398 93.7135C144.343 93.5827 144.27 93.467 144.179 93.3664C144.091 93.2632 143.982 93.1815 143.851 93.1211C143.72 93.0607 143.567 93.0306 143.39 93.0306C143.199 93.0306 143.034 93.0708 142.896 93.1513C142.76 93.2293 142.648 93.3375 142.56 93.4758C142.475 93.6117 142.411 93.7701 142.368 93.9513C142.328 94.1299 142.307 94.3211 142.307 94.5248Z" fill="white"/>
<path d="M139.371 96.6757C139.087 96.6757 138.829 96.6279 138.598 96.5323C138.369 96.4342 138.172 96.2971 138.006 96.121C137.842 95.9449 137.716 95.7361 137.628 95.4946C137.54 95.2531 137.496 94.989 137.496 94.7022V94.5437C137.496 94.2116 137.545 93.9161 137.643 93.6569C137.741 93.3953 137.875 93.1739 138.043 92.9928C138.212 92.8117 138.403 92.6746 138.617 92.5815C138.831 92.4884 139.052 92.4419 139.281 92.4419C139.573 92.4419 139.824 92.4922 140.036 92.5928C140.249 92.6935 140.424 92.8343 140.56 93.0155C140.696 93.1941 140.797 93.4054 140.862 93.6494C140.927 93.8909 140.96 94.155 140.96 94.4418V94.755H137.911V94.1852H140.262V94.1324C140.252 93.9513 140.214 93.7752 140.149 93.6041C140.086 93.4331 139.985 93.2922 139.847 93.1815C139.709 93.0708 139.52 93.0155 139.281 93.0155C139.122 93.0155 138.977 93.0494 138.843 93.1173C138.71 93.1827 138.595 93.2809 138.5 93.4117C138.404 93.5425 138.33 93.7022 138.277 93.8909C138.224 94.0796 138.198 94.2972 138.198 94.5437V94.7022C138.198 94.8959 138.224 95.0783 138.277 95.2493C138.333 95.4179 138.412 95.5663 138.515 95.6946C138.621 95.8229 138.748 95.9235 138.896 95.9965C139.047 96.0694 139.218 96.1059 139.409 96.1059C139.656 96.1059 139.865 96.0556 140.036 95.955C140.207 95.8543 140.356 95.7198 140.485 95.5512L140.907 95.887C140.819 96.0204 140.707 96.1474 140.571 96.2682C140.436 96.3889 140.268 96.487 140.07 96.5625C139.873 96.638 139.641 96.6757 139.371 96.6757Z" fill="white"/>
<path d="M133.02 91.106H134.838C135.251 91.106 135.599 91.1688 135.884 91.2946C136.17 91.4204 136.388 91.6066 136.536 91.8531C136.687 92.0971 136.763 92.3977 136.763 92.7549C136.763 93.0065 136.711 93.2367 136.608 93.4455C136.507 93.6518 136.362 93.8279 136.17 93.9738C135.982 94.1172 135.755 94.2241 135.491 94.2945L135.287 94.3738H133.578L133.57 93.7813H134.861C135.123 93.7813 135.34 93.736 135.514 93.6455C135.687 93.5524 135.818 93.4279 135.906 93.2719C135.994 93.1159 136.038 92.9436 136.038 92.7549C136.038 92.5436 135.997 92.3587 135.914 92.2003C135.831 92.0418 135.7 91.9198 135.521 91.8342C135.345 91.7462 135.118 91.7022 134.838 91.7022H133.748V96.6001H133.02V91.106ZM136.231 96.6001L134.895 94.1096L135.653 94.1058L137.008 96.5548V96.6001H136.231Z" fill="white"/>
<path d="M130.18 92.5173V93.0531H127.973V92.5173H130.18ZM128.72 91.5249H129.418V95.5889C129.418 95.7273 129.439 95.8317 129.482 95.9021C129.525 95.9725 129.58 96.0191 129.648 96.0417C129.716 96.0643 129.789 96.0757 129.867 96.0757C129.925 96.0757 129.985 96.0706 130.048 96.0606C130.113 96.048 130.163 96.0379 130.195 96.0304L130.199 96.6002C130.144 96.6178 130.071 96.6341 129.98 96.6492C129.892 96.6668 129.785 96.6756 129.659 96.6756C129.488 96.6756 129.331 96.6417 129.188 96.5738C129.044 96.5058 128.93 96.3926 128.844 96.2342C128.761 96.0732 128.72 95.8568 128.72 95.5851V91.5249Z" fill="white"/>
<path d="M124.897 93.389V96.6002H124.199V92.5174H124.86L124.897 93.389ZM124.731 94.4041L124.441 94.3928C124.443 94.1135 124.485 93.8557 124.565 93.6192C124.646 93.3802 124.759 93.1727 124.905 92.9966C125.051 92.8205 125.224 92.6847 125.426 92.5891C125.629 92.4909 125.854 92.4419 126.101 92.4419C126.302 92.4419 126.483 92.4696 126.644 92.5249C126.805 92.5777 126.943 92.6633 127.056 92.7815C127.171 92.8997 127.259 93.0532 127.32 93.2419C127.38 93.428 127.41 93.6557 127.41 93.9249V96.6002H126.709V93.9173C126.709 93.7035 126.677 93.5324 126.614 93.4041C126.551 93.2733 126.46 93.179 126.339 93.1211C126.218 93.0607 126.07 93.0306 125.893 93.0306C125.72 93.0306 125.561 93.067 125.418 93.14C125.277 93.2129 125.155 93.3136 125.052 93.4419C124.951 93.5702 124.872 93.7173 124.814 93.8833C124.759 94.0469 124.731 94.2204 124.731 94.4041Z" fill="white"/>
<path d="M121.793 96.6757C121.509 96.6757 121.251 96.6279 121.02 96.5323C120.791 96.4342 120.593 96.2971 120.427 96.121C120.264 95.9449 120.138 95.7361 120.05 95.4946C119.962 95.2531 119.918 94.989 119.918 94.7022V94.5437C119.918 94.2116 119.967 93.9161 120.065 93.6569C120.163 93.3953 120.297 93.1739 120.465 92.9928C120.634 92.8117 120.825 92.6746 121.039 92.5815C121.253 92.4884 121.474 92.4419 121.703 92.4419C121.995 92.4419 122.246 92.4922 122.457 92.5928C122.671 92.6935 122.846 92.8343 122.982 93.0155C123.118 93.1941 123.218 93.4054 123.284 93.6494C123.349 93.8909 123.382 94.155 123.382 94.4418V94.755H120.333V94.1852H122.684V94.1324C122.674 93.9513 122.636 93.7752 122.571 93.6041C122.508 93.4331 122.407 93.2922 122.269 93.1815C122.13 93.0708 121.942 93.0155 121.703 93.0155C121.544 93.0155 121.398 93.0494 121.265 93.1173C121.132 93.1827 121.017 93.2809 120.922 93.4117C120.826 93.5425 120.752 93.7022 120.699 93.8909C120.646 94.0796 120.62 94.2972 120.62 94.5437V94.7022C120.62 94.8959 120.646 95.0783 120.699 95.2493C120.754 95.4179 120.834 95.5663 120.937 95.6946C121.042 95.8229 121.169 95.9235 121.318 95.9965C121.469 96.0694 121.64 96.1059 121.831 96.1059C122.078 96.1059 122.286 96.0556 122.457 95.955C122.629 95.8543 122.778 95.7198 122.907 95.5512L123.329 95.887C123.241 96.0204 123.129 96.1474 122.993 96.2682C122.857 96.3889 122.69 96.487 122.491 96.5625C122.295 96.638 122.063 96.6757 121.793 96.6757Z" fill="white"/>
<path d="M118.981 92.5173V96.6001H118.279V92.5173H118.981ZM118.227 91.4343C118.227 91.3211 118.261 91.2255 118.328 91.1475C118.399 91.0695 118.502 91.0305 118.638 91.0305C118.771 91.0305 118.873 91.0695 118.944 91.1475C119.016 91.2255 119.053 91.3211 119.053 91.4343C119.053 91.5424 119.016 91.6355 118.944 91.7135C118.873 91.789 118.771 91.8267 118.638 91.8267C118.502 91.8267 118.399 91.789 118.328 91.7135C118.261 91.6355 118.227 91.5424 118.227 91.4343Z" fill="white"/>
<path d="M117.403 92.5173V93.0531H115.195V92.5173H117.403ZM115.942 91.5249H116.641V95.5889C116.641 95.7273 116.662 95.8317 116.705 95.9021C116.747 95.9725 116.803 96.0191 116.871 96.0417C116.939 96.0643 117.012 96.0757 117.09 96.0757C117.147 96.0757 117.208 96.0706 117.271 96.0606C117.336 96.048 117.385 96.0379 117.418 96.0304L117.422 96.6002C117.366 96.6178 117.293 96.6341 117.203 96.6492C117.115 96.6668 117.008 96.6756 116.882 96.6756C116.711 96.6756 116.554 96.6417 116.41 96.5738C116.267 96.5058 116.153 96.3926 116.067 96.2342C115.984 96.0732 115.942 95.8568 115.942 95.5851V91.5249Z" fill="white"/>
<path d="M113.895 95.9021V93.8003C113.895 93.6393 113.863 93.4997 113.797 93.3815C113.734 93.2607 113.639 93.1677 113.51 93.1022C113.382 93.0368 113.224 93.0041 113.035 93.0041C112.859 93.0041 112.704 93.0343 112.571 93.0947C112.44 93.1551 112.337 93.2343 112.261 93.3324C112.189 93.4305 112.152 93.5362 112.152 93.6494H111.454C111.454 93.5035 111.492 93.3588 111.567 93.2154C111.643 93.0721 111.751 92.9425 111.892 92.8268C112.035 92.7086 112.206 92.6155 112.405 92.5476C112.606 92.4771 112.83 92.4419 113.077 92.4419C113.373 92.4419 113.635 92.4922 113.861 92.5928C114.09 92.6935 114.269 92.8457 114.397 93.0494C114.528 93.2507 114.593 93.5035 114.593 93.8079V95.7097C114.593 95.8455 114.605 95.9902 114.627 96.1436C114.653 96.2971 114.689 96.4292 114.737 96.5398V96.6002H114.009C113.973 96.5197 113.946 96.4128 113.926 96.2795C113.905 96.1436 113.895 96.0179 113.895 95.9021ZM114.016 94.1248L114.024 94.6154H113.318C113.119 94.6154 112.942 94.6317 112.786 94.6644C112.63 94.6946 112.499 94.7412 112.394 94.8041C112.288 94.867 112.207 94.9462 112.152 95.0418C112.097 95.1349 112.069 95.2443 112.069 95.3701C112.069 95.4984 112.098 95.6154 112.156 95.721C112.214 95.8267 112.3 95.9109 112.416 95.9738C112.534 96.0342 112.679 96.0644 112.85 96.0644C113.064 96.0644 113.253 96.0191 113.416 95.9286C113.58 95.838 113.709 95.7273 113.805 95.5965C113.903 95.4657 113.956 95.3386 113.963 95.2154L114.261 95.5512C114.244 95.6569 114.196 95.7738 114.118 95.9021C114.04 96.0304 113.936 96.1537 113.805 96.2719C113.677 96.3877 113.523 96.4845 113.344 96.5625C113.168 96.638 112.97 96.6757 112.748 96.6757C112.472 96.6757 112.229 96.6216 112.02 96.5134C111.814 96.4053 111.653 96.2606 111.537 96.0795C111.424 95.8958 111.367 95.6908 111.367 95.4644C111.367 95.2456 111.41 95.0531 111.495 94.8871C111.581 94.7185 111.704 94.5789 111.865 94.4682C112.026 94.355 112.22 94.2695 112.446 94.2116C112.673 94.1538 112.926 94.1248 113.205 94.1248H114.016Z" fill="white"/>
<path d="M108.792 94.4454H107.324V93.853H108.792C109.076 93.853 109.306 93.8077 109.483 93.7172C109.659 93.6266 109.787 93.5008 109.867 93.3398C109.95 93.1788 109.992 92.9952 109.992 92.7889C109.992 92.6002 109.95 92.4229 109.867 92.2569C109.787 92.0908 109.659 91.9575 109.483 91.8569C109.306 91.7537 109.076 91.7022 108.792 91.7022H107.494V96.6001H106.766V91.106H108.792C109.207 91.106 109.558 91.1777 109.845 91.321C110.132 91.4644 110.349 91.6632 110.498 91.9172C110.646 92.1688 110.72 92.4568 110.72 92.7814C110.72 93.1336 110.646 93.4342 110.498 93.6832C110.349 93.9323 110.132 94.1222 109.845 94.253C109.558 94.3813 109.207 94.4454 108.792 94.4454Z" fill="white"/>
<path d="M143.232 217.852V218.312H141.34V217.852H143.232ZM141.98 217.002H142.579V220.485C142.579 220.604 142.597 220.693 142.634 220.754C142.67 220.814 142.718 220.854 142.776 220.873C142.834 220.893 142.897 220.902 142.963 220.902C143.013 220.902 143.065 220.898 143.119 220.889C143.175 220.879 143.217 220.87 143.245 220.864L143.248 221.352C143.201 221.367 143.138 221.381 143.061 221.394C142.985 221.409 142.893 221.417 142.786 221.417C142.639 221.417 142.504 221.388 142.381 221.329C142.258 221.271 142.16 221.174 142.087 221.038C142.016 220.9 141.98 220.715 141.98 220.482V217.002Z" fill="white"/>
<path d="M140.807 217.852V221.352H140.205V217.852H140.807ZM140.16 216.924C140.16 216.827 140.189 216.745 140.247 216.678C140.308 216.612 140.396 216.578 140.513 216.578C140.627 216.578 140.714 216.612 140.775 216.678C140.837 216.745 140.868 216.827 140.868 216.924C140.868 217.017 140.837 217.097 140.775 217.164C140.714 217.228 140.627 217.261 140.513 217.261C140.396 217.261 140.308 217.228 140.247 217.164C140.189 217.097 140.16 217.017 140.16 216.924Z" fill="white"/>
<path d="M134.945 218.548V221.352H134.344V217.853H134.913L134.945 218.548ZM134.822 219.47L134.544 219.46C134.546 219.221 134.578 219 134.638 218.797C134.698 218.592 134.788 218.414 134.907 218.263C135.025 218.112 135.173 217.996 135.35 217.914C135.526 217.83 135.731 217.788 135.964 217.788C136.128 217.788 136.279 217.812 136.417 217.859C136.555 217.904 136.675 217.977 136.776 218.076C136.877 218.175 136.956 218.302 137.012 218.457C137.068 218.613 137.096 218.8 137.096 219.02V221.352H136.498V219.049C136.498 218.866 136.467 218.719 136.404 218.609C136.344 218.499 136.257 218.42 136.145 218.37C136.033 218.318 135.902 218.292 135.751 218.292C135.574 218.292 135.426 218.324 135.308 218.386C135.189 218.449 135.094 218.535 135.023 218.645C134.952 218.755 134.9 218.881 134.868 219.023C134.838 219.164 134.822 219.312 134.822 219.47ZM137.09 219.14L136.689 219.263C136.691 219.071 136.722 218.886 136.782 218.71C136.845 218.533 136.934 218.375 137.051 218.237C137.17 218.099 137.315 217.991 137.488 217.911C137.66 217.829 137.857 217.788 138.079 217.788C138.267 217.788 138.433 217.813 138.578 217.862C138.724 217.912 138.847 217.988 138.946 218.092C139.048 218.193 139.124 218.324 139.176 218.483C139.228 218.643 139.254 218.833 139.254 219.052V221.352H138.652V219.046C138.652 218.85 138.621 218.698 138.558 218.59C138.498 218.48 138.412 218.403 138.299 218.36C138.189 218.315 138.058 218.292 137.905 218.292C137.773 218.292 137.657 218.315 137.555 218.36C137.454 218.406 137.369 218.468 137.3 218.548C137.231 218.626 137.178 218.715 137.141 218.816C137.107 218.918 137.09 219.026 137.09 219.14Z" fill="white"/>
<path d="M130.625 216.384H131.227V220.673L131.175 221.352H130.625V216.384ZM133.591 219.573V219.641C133.591 219.895 133.561 220.132 133.5 220.349C133.44 220.565 133.352 220.753 133.235 220.912C133.119 221.072 132.976 221.196 132.808 221.284C132.64 221.373 132.447 221.417 132.229 221.417C132.007 221.417 131.812 221.379 131.644 221.304C131.478 221.226 131.338 221.115 131.223 220.97C131.109 220.826 131.017 220.651 130.948 220.446C130.882 220.242 130.835 220.011 130.809 219.754V219.457C130.835 219.198 130.882 218.966 130.948 218.761C131.017 218.556 131.109 218.382 131.223 218.237C131.338 218.091 131.478 217.98 131.644 217.904C131.81 217.827 132.003 217.788 132.223 217.788C132.443 217.788 132.638 217.831 132.808 217.917C132.979 218.001 133.121 218.122 133.235 218.279C133.352 218.437 133.44 218.625 133.5 218.845C133.561 219.063 133.591 219.306 133.591 219.573ZM132.989 219.641V219.573C132.989 219.398 132.973 219.235 132.941 219.082C132.908 218.926 132.857 218.79 132.786 218.674C132.714 218.555 132.621 218.463 132.504 218.396C132.388 218.327 132.244 218.292 132.074 218.292C131.923 218.292 131.792 218.318 131.679 218.37C131.569 218.422 131.476 218.492 131.398 218.58C131.32 218.666 131.257 218.766 131.207 218.878C131.16 218.988 131.124 219.102 131.1 219.221V220C131.135 220.151 131.191 220.297 131.269 220.437C131.348 220.575 131.454 220.688 131.586 220.776C131.719 220.865 131.884 220.909 132.08 220.909C132.242 220.909 132.38 220.877 132.494 220.812C132.611 220.745 132.705 220.653 132.776 220.537C132.849 220.421 132.903 220.286 132.938 220.133C132.972 219.98 132.989 219.816 132.989 219.641Z" fill="white"/>
<path d="M129.115 220.544V217.853H129.717V221.352H129.144L129.115 220.544ZM129.228 219.806L129.477 219.8C129.477 220.033 129.452 220.248 129.403 220.447C129.355 220.643 129.278 220.813 129.17 220.958C129.062 221.102 128.921 221.215 128.746 221.297C128.572 221.377 128.359 221.417 128.109 221.417C127.939 221.417 127.782 221.392 127.64 221.342C127.5 221.293 127.379 221.216 127.278 221.113C127.177 221.009 127.098 220.875 127.042 220.708C126.988 220.542 126.961 220.343 126.961 220.11V217.853H127.559V220.117C127.559 220.274 127.577 220.404 127.611 220.508C127.648 220.609 127.696 220.69 127.757 220.751C127.819 220.809 127.888 220.85 127.964 220.873C128.041 220.897 128.121 220.909 128.203 220.909C128.457 220.909 128.659 220.861 128.808 220.763C128.957 220.664 129.063 220.532 129.128 220.366C129.195 220.197 129.228 220.011 129.228 219.806Z" fill="white"/>
<path d="M125.642 220.162C125.642 220.052 125.625 219.955 125.59 219.871C125.558 219.784 125.5 219.707 125.416 219.638C125.334 219.569 125.22 219.503 125.073 219.441C124.928 219.378 124.745 219.314 124.523 219.25C124.29 219.181 124.08 219.104 123.892 219.02C123.705 218.934 123.544 218.836 123.41 218.726C123.277 218.616 123.174 218.49 123.103 218.347C123.032 218.205 122.996 218.042 122.996 217.859C122.996 217.676 123.034 217.506 123.11 217.351C123.185 217.196 123.293 217.061 123.433 216.947C123.575 216.83 123.745 216.74 123.941 216.675C124.137 216.61 124.356 216.578 124.597 216.578C124.951 216.578 125.251 216.646 125.497 216.782C125.745 216.916 125.933 217.091 126.063 217.309C126.192 217.525 126.257 217.755 126.257 218.001H125.636C125.636 217.824 125.598 217.668 125.522 217.532C125.447 217.394 125.333 217.286 125.18 217.209C125.027 217.129 124.832 217.089 124.597 217.089C124.375 217.089 124.192 217.123 124.048 217.189C123.903 217.256 123.795 217.347 123.724 217.461C123.655 217.575 123.621 217.706 123.621 217.852C123.621 217.952 123.641 218.042 123.682 218.124C123.725 218.204 123.791 218.278 123.879 218.347C123.97 218.416 124.084 218.48 124.222 218.538C124.362 218.596 124.53 218.652 124.724 218.706C124.991 218.782 125.222 218.866 125.416 218.959C125.61 219.051 125.769 219.156 125.894 219.272C126.022 219.387 126.115 219.517 126.176 219.664C126.238 219.808 126.27 219.972 126.27 220.155C126.27 220.347 126.231 220.521 126.153 220.676C126.076 220.831 125.965 220.964 125.82 221.074C125.676 221.184 125.502 221.269 125.299 221.329C125.099 221.388 124.875 221.417 124.627 221.417C124.409 221.417 124.194 221.387 123.983 221.326C123.774 221.266 123.583 221.175 123.41 221.055C123.24 220.934 123.103 220.785 123 220.608C122.898 220.429 122.848 220.222 122.848 219.987H123.469C123.469 220.149 123.5 220.288 123.562 220.404C123.625 220.519 123.71 220.614 123.818 220.689C123.928 220.764 124.052 220.821 124.19 220.857C124.33 220.892 124.476 220.909 124.627 220.909C124.844 220.909 125.029 220.879 125.18 220.818C125.331 220.758 125.445 220.672 125.522 220.56C125.602 220.448 125.642 220.315 125.642 220.162Z" fill="white"/>
</svg>
