<svg width="368" height="160" viewBox="0 0 368 160" fill="none" xmlns="http://www.w3.org/2000/svg">
<g opacity="0.6">
<path opacity="0.4" d="M366.093 75.1688V77.1919C345.693 77.1919 320.152 77.5291 314.799 78.8356C279.184 87.2652 279.816 105.81 267.13 105.81C257.31 105.81 238.343 78.2035 221.4 78.2035C204.457 78.2035 199.82 87.771 188.23 87.771C176.639 87.771 173.731 78.2035 147.22 78.2035C120.709 78.2035 113.502 96.074 98.2869 96.074C83.0716 96.074 66.8448 77.1919 48.1313 77.1919H0.335938V75.1688H48.342C67.0555 75.1688 83.1137 56.2867 98.4976 56.2867C113.881 56.2867 120.878 74.1573 147.431 74.1573C173.984 74.1573 176.934 64.6319 188.441 64.6319C199.947 64.6319 204.709 74.1573 221.611 74.1573C238.512 74.1573 257.52 46.5928 267.341 46.5928C279.985 46.5928 279.395 65.0112 315.01 73.5672C320.152 74.8316 345.693 75.1688 366.093 75.1688Z" fill="white"/>
<path opacity="0.6" d="M366.094 75.1705V77.1936C339.541 77.1936 333.303 110.659 311.302 110.659C295.455 110.659 279.354 82.5042 258.87 82.5042C239.314 82.5042 238.049 94.6848 226.037 94.6848C214.025 94.6848 207.197 77.3622 188.105 77.3622C165.64 77.3622 160.161 116.602 140.773 116.602C121.385 116.602 112.871 80.0596 94.4105 80.0596C75.9499 80.0596 74.8962 86.0025 59.2595 86.0025C43.6227 86.0025 29.419 77.1936 13.403 77.1936H0V75.1705H13.403C29.419 75.1705 43.6227 66.4038 59.2595 66.4038C74.8962 66.4038 76.1185 72.3045 94.4105 72.3045C112.703 72.3045 121.174 35.8047 140.773 35.8047C160.371 35.8047 165.64 75.0441 188.105 75.0441C207.029 75.0441 213.393 57.6793 226.037 57.6793C238.682 57.6793 239.314 69.8599 258.87 69.8599C279.354 69.8599 295.455 41.7475 311.302 41.7475C333.303 41.7897 339.541 75.1705 366.094 75.1705Z" fill="white"/>
<path d="M0.335938 76.7678V75.5033C4.42801 75.4819 8.49788 74.9005 12.4323 73.7752C16.3547 72.6073 20.109 70.9356 23.6014 68.8019C30.5558 64.5871 36.8779 59.15 44.6752 56.4526C48.5949 55.0756 52.7518 54.5023 56.898 54.7667C60.9983 55.1852 65.0005 56.282 68.7414 58.0121C76.2858 61.2575 83.3245 65.5565 90.9111 68.5068C98.3951 71.667 106.602 72.7165 114.64 71.5414C118.636 71.0117 122.505 69.7698 126.062 67.8746C129.583 65.6293 133.504 64.0838 137.611 63.3227C141.804 62.8099 146.057 63.4968 149.875 65.3036C153.669 66.9895 157.125 69.1812 160.834 70.8249C168.1 74.3772 176.31 75.5143 184.268 74.0703C192.078 71.9204 199.204 67.7985 204.962 62.1004C208.087 59.3569 211.576 57.0591 215.331 55.2725C219.213 53.5742 223.459 52.8785 227.68 53.2494C231.888 53.5774 235.96 54.8913 239.565 57.0848C243.048 59.3222 246.358 61.8158 249.47 64.5449C252.471 67.1946 255.889 69.3307 259.586 70.8671C263.327 72.1874 267.32 72.6344 271.261 72.1737C275.258 71.8413 279.188 70.9474 282.935 69.5184C286.729 68.0853 290.353 66.2309 294.273 64.7979C298.215 63.3363 302.376 62.5525 306.58 62.4797C310.776 62.5144 314.942 63.1967 318.929 64.5028C326.853 66.9052 334.187 70.6985 341.942 72.9323C349.697 75.1661 357.832 74.3232 366.05 74.5339H367.104V77.695H366.05C357.832 77.695 349.613 76.852 341.942 79.2966C334.271 81.7411 326.853 85.1972 318.929 87.7261C314.942 89.0321 310.776 89.7146 306.58 89.7492C302.376 89.716 298.211 88.9456 294.273 87.4732C290.353 86.0402 286.729 84.1436 282.935 82.7527C279.19 81.3103 275.259 80.4022 271.261 80.0553C267.317 79.608 263.323 80.0694 259.586 81.4039C255.889 82.9403 252.471 85.0764 249.47 87.7261C246.368 90.4546 243.056 92.935 239.565 95.1441C235.971 97.3687 231.895 98.6984 227.68 99.0217C223.459 99.3925 219.213 98.6969 215.331 96.9986C211.594 95.181 208.108 92.8858 204.962 90.1706C199.217 84.4466 192.088 80.3082 184.268 78.1586C176.31 76.7324 168.105 77.8687 160.834 81.4039C157.125 83.0898 153.669 85.2394 149.875 86.9253C146.06 88.7443 141.808 89.4457 137.611 88.9484C133.51 88.1684 129.592 86.6242 126.062 84.3965C122.497 82.5102 118.633 81.2553 114.64 80.6874C106.598 79.5278 98.3916 80.5919 90.9111 83.7643C83.3245 86.6724 76.2858 90.9715 68.7414 94.2168C65.0005 95.947 60.9983 97.0437 56.898 97.4622C52.7691 97.7232 48.6293 97.1645 44.7173 95.8185C36.8357 93.121 30.5136 87.5997 23.6435 83.4271C20.1422 81.3104 16.3902 79.6396 12.4745 78.4536C8.52072 77.357 4.43888 76.7901 0.335938 76.7678ZM0.335938 76.7678C4.43278 76.7562 8.51356 77.2805 12.4745 78.3272C16.4111 79.4914 20.1904 81.1333 23.7278 83.2163C30.7665 87.4311 37.1308 92.7417 44.8016 95.3127C48.6503 96.6123 52.7203 97.1282 56.7715 96.83C60.8077 96.3766 64.7395 95.2512 68.4042 93.5003C75.8222 90.2128 82.8187 85.8294 90.4896 82.7948C98.138 79.5317 106.534 78.424 114.767 79.5916C118.89 80.1399 122.885 81.4096 126.568 83.3428C129.985 85.4214 133.758 86.8503 137.695 87.5575C141.678 88.0152 145.709 87.3433 149.328 85.6187C152.994 83.9749 156.493 81.7833 160.244 80.0553C167.77 76.3735 176.271 75.1781 184.521 76.6413C192.554 78.8121 199.896 83.0057 205.847 88.822C208.882 91.4731 212.273 93.6863 215.921 95.397C219.563 96.9938 223.553 97.6322 227.511 97.2515C231.485 96.93 235.327 95.6735 238.723 93.5846C242.124 91.3917 245.35 88.9399 248.374 86.251C251.571 83.5158 255.185 81.3103 259.08 79.7181C263.125 78.2616 267.452 77.7568 271.724 78.2429C275.882 78.5626 279.971 79.4855 283.863 80.9825C287.782 82.4155 291.407 84.27 295.2 85.6609C302.782 88.3379 311.052 88.3379 318.634 85.6609C326.347 83.2585 333.681 79.4652 341.689 77.2314C345.716 76.0681 349.889 75.4862 354.08 75.5033H366.345L365.292 76.557V75.5033L366.345 76.557H354.08C349.889 76.5741 345.716 75.9922 341.689 74.8289C333.681 72.553 326.347 68.7597 318.634 66.3994C311.06 63.6809 302.775 63.6809 295.2 66.3994C291.407 67.7481 287.782 69.6027 283.863 71.0357C279.971 72.5327 275.882 73.4556 271.724 73.7752C267.455 74.2966 263.124 73.8057 259.08 72.3422C255.229 70.7099 251.67 68.4606 248.543 65.6829C245.508 63.007 242.282 60.556 238.891 58.3492C235.495 56.2603 231.654 55.0038 227.68 54.6824C223.722 54.322 219.737 54.9596 216.089 56.5369C212.458 58.2785 209.072 60.489 206.016 63.1119C200.079 68.9556 192.733 73.166 184.689 75.3347C176.44 76.798 167.939 75.6025 160.412 71.9207C156.619 70.1927 153.163 68.0011 149.454 66.3573C145.857 64.6107 141.837 63.9236 137.863 64.3764C133.907 65.1321 130.131 66.634 126.737 68.8019C123.053 70.735 119.059 72.0048 114.935 72.553C106.698 73.7271 98.2973 72.604 90.6581 69.3076C82.9873 66.273 75.9908 61.8897 68.5729 58.6022C64.9081 56.8513 60.9762 55.7259 56.9401 55.2725C52.8894 54.9954 48.8236 55.5108 44.9702 56.7898C37.215 59.3608 30.8508 64.7978 23.8964 68.9283C20.37 71.0226 16.5875 72.6518 12.643 73.7752C8.68806 74.8564 4.60453 75.3952 0.504499 75.3769L0.335938 76.7678Z" fill="white"/>
</g>
<g filter="url(#filter0_d_5029_64429)">
<circle cx="184" cy="76" r="50" fill="url(#paint0_linear_5029_64429)"/>
<circle cx="184" cy="76" r="48.5" stroke="white" stroke-width="3"/>
</g>
<path d="M176.504 51.3047C176.504 49.3156 177.294 47.4079 178.701 46.0014C180.107 44.5949 182.015 43.8047 184.004 43.8047C185.993 43.8047 187.901 44.5949 189.307 46.0014C190.714 47.4079 191.504 49.3156 191.504 51.3047V63.8048C191.504 65.7939 190.714 67.7016 189.307 69.1081C187.901 70.5146 185.993 71.3048 184.004 71.3048C182.015 71.3048 180.107 70.5146 178.701 69.1081C177.294 67.7016 176.504 65.7939 176.504 63.8048V51.3047Z" fill="url(#paint1_linear_5029_64429)"/>
<path d="M172.75 60.0547C173.082 60.0547 173.399 60.1864 173.634 60.4208C173.868 60.6552 174 60.9732 174 61.3047V63.8047C174 66.4569 175.054 69.0004 176.929 70.8758C178.804 72.7512 181.348 73.8047 184 73.8047C186.652 73.8047 189.196 72.7512 191.071 70.8758C192.946 69.0004 194 66.4569 194 63.8047V61.3047C194 60.9732 194.132 60.6552 194.366 60.4208C194.601 60.1864 194.918 60.0547 195.25 60.0547C195.582 60.0547 195.899 60.1864 196.134 60.4208C196.368 60.6552 196.5 60.9732 196.5 61.3047V63.8047C196.5 66.9035 195.349 69.8919 193.27 72.1901C191.192 74.4883 188.333 75.9324 185.25 76.2423V81.3048H192.75C193.082 81.3048 193.399 81.4365 193.634 81.6709C193.868 81.9053 194 82.2233 194 82.5548C194 82.8863 193.868 83.2042 193.634 83.4387C193.399 83.6731 193.082 83.8048 192.75 83.8048H175.25C174.918 83.8048 174.601 83.6731 174.366 83.4387C174.132 83.2042 174 82.8863 174 82.5548C174 82.2233 174.132 81.9053 174.366 81.6709C174.601 81.4365 174.918 81.3048 175.25 81.3048H182.75V76.2423C179.667 75.9324 176.808 74.4883 174.73 72.1901C172.651 69.8919 171.5 66.9035 171.5 63.8047V61.3047C171.5 60.9732 171.632 60.6552 171.866 60.4208C172.101 60.1864 172.418 60.0547 172.75 60.0547Z" fill="url(#paint2_linear_5029_64429)"/>
<path d="M175.331 100.852V101.391C175.331 102.255 175.214 103.031 174.98 103.719C174.745 104.406 174.415 104.992 173.987 105.477C173.56 105.956 173.05 106.323 172.456 106.578C171.868 106.833 171.214 106.961 170.495 106.961C169.782 106.961 169.128 106.833 168.534 106.578C167.946 106.323 167.435 105.956 167.003 105.477C166.571 104.992 166.235 104.406 165.995 103.719C165.761 103.031 165.644 102.255 165.644 101.391V100.852C165.644 99.9818 165.761 99.2057 165.995 98.5234C166.23 97.8359 166.56 97.25 166.987 96.7656C167.42 96.2812 167.93 95.9115 168.519 95.6562C169.112 95.401 169.766 95.2734 170.48 95.2734C171.198 95.2734 171.852 95.401 172.441 95.6562C173.034 95.9115 173.545 96.2812 173.972 96.7656C174.404 97.25 174.737 97.8359 174.972 98.5234C175.211 99.2057 175.331 99.9818 175.331 100.852ZM172.964 101.391V100.836C172.964 100.232 172.909 99.7005 172.8 99.2422C172.691 98.7839 172.529 98.3984 172.316 98.0859C172.102 97.7734 171.842 97.5391 171.534 97.3828C171.227 97.2214 170.876 97.1406 170.48 97.1406C170.084 97.1406 169.732 97.2214 169.425 97.3828C169.123 97.5391 168.865 97.7734 168.652 98.0859C168.443 98.3984 168.284 98.7839 168.175 99.2422C168.066 99.7005 168.011 100.232 168.011 100.836V101.391C168.011 101.99 168.066 102.521 168.175 102.984C168.284 103.443 168.446 103.831 168.659 104.148C168.873 104.461 169.133 104.698 169.441 104.859C169.748 105.021 170.099 105.102 170.495 105.102C170.891 105.102 171.243 105.021 171.55 104.859C171.857 104.698 172.115 104.461 172.323 104.148C172.532 103.831 172.691 103.443 172.8 102.984C172.909 102.521 172.964 101.99 172.964 101.391ZM185.366 105.047V106.805H177.584V105.305L181.264 101.359C181.634 100.948 181.926 100.586 182.139 100.273C182.353 99.9557 182.506 99.6719 182.6 99.4219C182.699 99.1667 182.748 98.9245 182.748 98.6953C182.748 98.3516 182.691 98.0573 182.577 97.8125C182.462 97.5625 182.293 97.3698 182.069 97.2344C181.85 97.099 181.579 97.0312 181.256 97.0312C180.912 97.0312 180.616 97.1146 180.366 97.2812C180.121 97.4479 179.933 97.6797 179.803 97.9766C179.678 98.2734 179.616 98.6094 179.616 98.9844H177.358C177.358 98.3073 177.519 97.6875 177.842 97.125C178.165 96.5573 178.621 96.1068 179.209 95.7734C179.798 95.4349 180.496 95.2656 181.303 95.2656C182.1 95.2656 182.772 95.3958 183.319 95.6562C183.871 95.9115 184.287 96.2812 184.569 96.7656C184.855 97.2448 184.998 97.8177 184.998 98.4844C184.998 98.8594 184.939 99.2266 184.819 99.5859C184.699 99.9401 184.527 100.294 184.303 100.648C184.084 100.997 183.819 101.352 183.506 101.711C183.194 102.07 182.847 102.443 182.467 102.828L180.491 105.047H185.366ZM192.431 97.375L189.337 106.805H186.845L191.072 95.4297H192.658L192.431 97.375ZM195.002 106.805L191.9 97.375L191.65 95.4297H193.252L197.502 106.805H195.002ZM194.861 102.57V104.406H188.853V102.57H194.861ZM201.848 95.4297V106.805H199.513V95.4297H201.848Z" fill="#4938CF"/>
<defs>
<filter id="filter0_d_5029_64429" x="104" y="0" width="160" height="160" filterUnits="userSpaceOnUse" color-interpolation-filters="sRGB">
<feFlood flood-opacity="0" result="BackgroundImageFix"/>
<feColorMatrix in="SourceAlpha" type="matrix" values="0 0 0 0 0 0 0 0 0 0 0 0 0 0 0 0 0 0 127 0" result="hardAlpha"/>
<feOffset dy="4"/>
<feGaussianBlur stdDeviation="15"/>
<feComposite in2="hardAlpha" operator="out"/>
<feColorMatrix type="matrix" values="0 0 0 0 0 0 0 0 0 0 0 0 0 0 0 0 0 0 0.15 0"/>
<feBlend mode="normal" in2="BackgroundImageFix" result="effect1_dropShadow_5029_64429"/>
<feBlend mode="normal" in="SourceGraphic" in2="effect1_dropShadow_5029_64429" result="shape"/>
</filter>
<linearGradient id="paint0_linear_5029_64429" x1="147.333" y1="43.5" x2="228.167" y2="118.5" gradientUnits="userSpaceOnUse">
<stop stop-color="#E7E4FF"/>
<stop offset="1" stop-color="#D3E8FF"/>
</linearGradient>
<linearGradient id="paint1_linear_5029_64429" x1="178.379" y1="46.4406" x2="197.873" y2="57.0078" gradientUnits="userSpaceOnUse">
<stop stop-color="#2E6DCC"/>
<stop offset="1" stop-color="#4938CF"/>
</linearGradient>
<linearGradient id="paint2_linear_5029_64429" x1="174.625" y1="62.3311" x2="194.697" y2="83.3285" gradientUnits="userSpaceOnUse">
<stop stop-color="#2E6DCC"/>
<stop offset="1" stop-color="#4938CF"/>
</linearGradient>
</defs>
</svg>
