<svg width="368" height="160" viewBox="0 0 368 160" fill="none" xmlns="http://www.w3.org/2000/svg">
<g opacity="0.6">
<path opacity="0.4" d="M366.093 75.1688V77.1919C345.693 77.1919 320.152 77.5291 314.799 78.8356C279.184 87.2652 279.816 105.81 267.13 105.81C257.31 105.81 238.343 78.2035 221.4 78.2035C204.457 78.2035 199.82 87.771 188.23 87.771C176.639 87.771 173.731 78.2035 147.22 78.2035C120.709 78.2035 113.502 96.074 98.2869 96.074C83.0716 96.074 66.8448 77.1919 48.1313 77.1919H0.335938V75.1688H48.342C67.0555 75.1688 83.1137 56.2867 98.4976 56.2867C113.881 56.2867 120.878 74.1573 147.431 74.1573C173.984 74.1573 176.934 64.6319 188.441 64.6319C199.947 64.6319 204.709 74.1573 221.611 74.1573C238.512 74.1573 257.52 46.5928 267.341 46.5928C279.985 46.5928 279.395 65.0112 315.01 73.5672C320.152 74.8316 345.693 75.1688 366.093 75.1688Z" fill="white"/>
<path opacity="0.6" d="M366.094 75.1705V77.1936C339.541 77.1936 333.303 110.659 311.302 110.659C295.455 110.659 279.354 82.5042 258.87 82.5042C239.314 82.5042 238.049 94.6848 226.037 94.6848C214.025 94.6848 207.197 77.3622 188.105 77.3622C165.64 77.3622 160.161 116.602 140.773 116.602C121.385 116.602 112.871 80.0596 94.4105 80.0596C75.9499 80.0596 74.8962 86.0025 59.2595 86.0025C43.6227 86.0025 29.419 77.1936 13.403 77.1936H0V75.1705H13.403C29.419 75.1705 43.6227 66.4038 59.2595 66.4038C74.8962 66.4038 76.1185 72.3045 94.4105 72.3045C112.703 72.3045 121.174 35.8047 140.773 35.8047C160.371 35.8047 165.64 75.0441 188.105 75.0441C207.029 75.0441 213.393 57.6793 226.037 57.6793C238.682 57.6793 239.314 69.8599 258.87 69.8599C279.354 69.8599 295.455 41.7475 311.302 41.7475C333.303 41.7897 339.541 75.1705 366.094 75.1705Z" fill="white"/>
<path d="M0.335938 76.7678V75.5033C4.42801 75.4819 8.49788 74.9005 12.4323 73.7752C16.3547 72.6073 20.109 70.9356 23.6014 68.8019C30.5558 64.5871 36.8779 59.15 44.6752 56.4526C48.5949 55.0756 52.7518 54.5023 56.898 54.7667C60.9983 55.1852 65.0005 56.282 68.7414 58.0121C76.2858 61.2575 83.3245 65.5565 90.9111 68.5068C98.3951 71.667 106.602 72.7165 114.64 71.5414C118.636 71.0117 122.505 69.7698 126.062 67.8746C129.583 65.6293 133.504 64.0838 137.611 63.3227C141.804 62.8099 146.057 63.4968 149.875 65.3036C153.669 66.9895 157.125 69.1812 160.834 70.8249C168.1 74.3772 176.31 75.5143 184.268 74.0703C192.078 71.9204 199.204 67.7985 204.962 62.1004C208.087 59.3569 211.576 57.0591 215.331 55.2725C219.213 53.5742 223.459 52.8785 227.68 53.2494C231.888 53.5774 235.96 54.8913 239.565 57.0848C243.048 59.3222 246.358 61.8158 249.47 64.5449C252.471 67.1946 255.889 69.3307 259.586 70.8671C263.327 72.1874 267.32 72.6344 271.261 72.1737C275.258 71.8413 279.188 70.9474 282.935 69.5184C286.729 68.0853 290.353 66.2309 294.273 64.7979C298.215 63.3363 302.376 62.5525 306.58 62.4797C310.776 62.5144 314.942 63.1967 318.929 64.5028C326.853 66.9052 334.187 70.6985 341.942 72.9323C349.697 75.1661 357.832 74.3232 366.05 74.5339H367.104V77.695H366.05C357.832 77.695 349.613 76.852 341.942 79.2966C334.271 81.7411 326.853 85.1972 318.929 87.7261C314.942 89.0321 310.776 89.7146 306.58 89.7492C302.376 89.716 298.211 88.9456 294.273 87.4732C290.353 86.0402 286.729 84.1436 282.935 82.7527C279.19 81.3103 275.259 80.4022 271.261 80.0553C267.317 79.608 263.323 80.0694 259.586 81.4039C255.889 82.9403 252.471 85.0764 249.47 87.7261C246.368 90.4546 243.056 92.935 239.565 95.1441C235.971 97.3687 231.895 98.6984 227.68 99.0217C223.459 99.3925 219.213 98.6969 215.331 96.9986C211.594 95.181 208.108 92.8858 204.962 90.1706C199.217 84.4466 192.088 80.3082 184.268 78.1586C176.31 76.7324 168.105 77.8687 160.834 81.4039C157.125 83.0898 153.669 85.2394 149.875 86.9253C146.06 88.7443 141.808 89.4457 137.611 88.9484C133.51 88.1684 129.592 86.6242 126.062 84.3965C122.497 82.5102 118.633 81.2553 114.64 80.6874C106.598 79.5278 98.3916 80.5919 90.9111 83.7643C83.3245 86.6724 76.2858 90.9715 68.7414 94.2168C65.0005 95.947 60.9983 97.0437 56.898 97.4622C52.7691 97.7232 48.6293 97.1645 44.7173 95.8185C36.8357 93.121 30.5136 87.5997 23.6435 83.4271C20.1422 81.3104 16.3902 79.6396 12.4745 78.4536C8.52072 77.357 4.43888 76.7901 0.335938 76.7678ZM0.335938 76.7678C4.43278 76.7562 8.51356 77.2805 12.4745 78.3272C16.4111 79.4914 20.1904 81.1333 23.7278 83.2163C30.7665 87.4311 37.1308 92.7417 44.8016 95.3127C48.6503 96.6123 52.7203 97.1282 56.7715 96.83C60.8077 96.3766 64.7395 95.2512 68.4042 93.5003C75.8222 90.2128 82.8187 85.8294 90.4896 82.7948C98.138 79.5317 106.534 78.424 114.767 79.5916C118.89 80.1399 122.885 81.4096 126.568 83.3428C129.985 85.4214 133.758 86.8503 137.695 87.5575C141.678 88.0152 145.709 87.3433 149.328 85.6187C152.994 83.9749 156.493 81.7833 160.244 80.0553C167.77 76.3735 176.271 75.1781 184.521 76.6413C192.554 78.8121 199.896 83.0057 205.847 88.822C208.882 91.4731 212.273 93.6863 215.921 95.397C219.563 96.9938 223.553 97.6322 227.511 97.2515C231.485 96.93 235.327 95.6735 238.723 93.5846C242.124 91.3917 245.35 88.9399 248.374 86.251C251.571 83.5158 255.185 81.3103 259.08 79.7181C263.125 78.2616 267.452 77.7568 271.724 78.2429C275.882 78.5626 279.971 79.4855 283.863 80.9825C287.782 82.4155 291.407 84.27 295.2 85.6609C302.782 88.3379 311.052 88.3379 318.634 85.6609C326.347 83.2585 333.681 79.4652 341.689 77.2314C345.716 76.0681 349.889 75.4862 354.08 75.5033H366.345L365.292 76.557V75.5033L366.345 76.557H354.08C349.889 76.5741 345.716 75.9922 341.689 74.8289C333.681 72.553 326.347 68.7597 318.634 66.3994C311.06 63.6809 302.775 63.6809 295.2 66.3994C291.407 67.7481 287.782 69.6027 283.863 71.0357C279.971 72.5327 275.882 73.4556 271.724 73.7752C267.455 74.2966 263.124 73.8057 259.08 72.3422C255.229 70.7099 251.67 68.4606 248.543 65.6829C245.508 63.007 242.282 60.556 238.891 58.3492C235.495 56.2603 231.654 55.0038 227.68 54.6824C223.722 54.322 219.737 54.9596 216.089 56.5369C212.458 58.2785 209.072 60.489 206.016 63.1119C200.079 68.9556 192.733 73.166 184.689 75.3347C176.44 76.798 167.939 75.6025 160.412 71.9207C156.619 70.1927 153.163 68.0011 149.454 66.3573C145.857 64.6107 141.837 63.9236 137.863 64.3764C133.907 65.1321 130.131 66.634 126.737 68.8019C123.053 70.735 119.059 72.0048 114.935 72.553C106.698 73.7271 98.2973 72.604 90.6581 69.3076C82.9873 66.273 75.9908 61.8897 68.5729 58.6022C64.9081 56.8513 60.9762 55.7259 56.9401 55.2725C52.8894 54.9954 48.8236 55.5108 44.9702 56.7898C37.215 59.3608 30.8508 64.7978 23.8964 68.9283C20.37 71.0226 16.5875 72.6518 12.643 73.7752C8.68806 74.8564 4.60453 75.3952 0.504499 75.3769L0.335938 76.7678Z" fill="white"/>
</g>
<g filter="url(#filter0_d_5029_64431)">
<circle cx="184" cy="76" r="50" fill="url(#paint0_linear_5029_64431)"/>
<circle cx="184" cy="76" r="48.5" stroke="white" stroke-width="3"/>
</g>
<path d="M176.504 51.3047C176.504 49.3156 177.294 47.4079 178.701 46.0014C180.107 44.5949 182.015 43.8047 184.004 43.8047C185.993 43.8047 187.901 44.5949 189.307 46.0014C190.714 47.4079 191.504 49.3156 191.504 51.3047V63.8048C191.504 65.7939 190.714 67.7016 189.307 69.1081C187.901 70.5146 185.993 71.3048 184.004 71.3048C182.015 71.3048 180.107 70.5146 178.701 69.1081C177.294 67.7016 176.504 65.7939 176.504 63.8048V51.3047Z" fill="white"/>
<path d="M172.75 60.0547C173.082 60.0547 173.399 60.1864 173.634 60.4208C173.868 60.6552 174 60.9732 174 61.3047V63.8047C174 66.4569 175.054 69.0004 176.929 70.8758C178.804 72.7512 181.348 73.8047 184 73.8047C186.652 73.8047 189.196 72.7512 191.071 70.8758C192.946 69.0004 194 66.4569 194 63.8047V61.3047C194 60.9732 194.132 60.6552 194.366 60.4208C194.601 60.1864 194.918 60.0547 195.25 60.0547C195.582 60.0547 195.899 60.1864 196.134 60.4208C196.368 60.6552 196.5 60.9732 196.5 61.3047V63.8047C196.5 66.9035 195.349 69.8919 193.27 72.1901C191.192 74.4883 188.333 75.9324 185.25 76.2423V81.3048H192.75C193.082 81.3048 193.399 81.4365 193.634 81.6709C193.868 81.9053 194 82.2233 194 82.5548C194 82.8863 193.868 83.2042 193.634 83.4387C193.399 83.6731 193.082 83.8048 192.75 83.8048H175.25C174.918 83.8048 174.601 83.6731 174.366 83.4387C174.132 83.2042 174 82.8863 174 82.5548C174 82.2233 174.132 81.9053 174.366 81.6709C174.601 81.4365 174.918 81.3048 175.25 81.3048H182.75V76.2423C179.667 75.9324 176.808 74.4883 174.73 72.1901C172.651 69.8919 171.5 66.9035 171.5 63.8047V61.3047C171.5 60.9732 171.632 60.6552 171.866 60.4208C172.101 60.1864 172.418 60.0547 172.75 60.0547Z" fill="white"/>
<path d="M173.183 103.828C173.183 103.625 173.152 103.443 173.089 103.281C173.032 103.115 172.922 102.964 172.761 102.828C172.599 102.688 172.373 102.549 172.081 102.414C171.79 102.279 171.412 102.138 170.948 101.992C170.433 101.826 169.943 101.638 169.48 101.43C169.021 101.221 168.615 100.979 168.261 100.703C167.912 100.422 167.636 100.096 167.433 99.7266C167.235 99.3568 167.136 98.9271 167.136 98.4375C167.136 97.9635 167.24 97.5339 167.448 97.1484C167.657 96.7578 167.948 96.4245 168.323 96.1484C168.698 95.8672 169.141 95.651 169.652 95.5C170.167 95.349 170.732 95.2734 171.347 95.2734C172.185 95.2734 172.917 95.4245 173.542 95.7266C174.167 96.0286 174.652 96.4427 174.995 96.9688C175.344 97.4948 175.519 98.0964 175.519 98.7734H173.191C173.191 98.4401 173.12 98.1484 172.98 97.8984C172.844 97.6432 172.636 97.4427 172.355 97.2969C172.079 97.151 171.73 97.0781 171.308 97.0781C170.902 97.0781 170.563 97.1406 170.292 97.2656C170.021 97.3854 169.818 97.5495 169.683 97.7578C169.547 97.9609 169.48 98.1901 169.48 98.4453C169.48 98.638 169.527 98.8125 169.62 98.9688C169.719 99.125 169.865 99.2708 170.058 99.4062C170.251 99.5417 170.487 99.6693 170.769 99.7891C171.05 99.9089 171.376 100.026 171.745 100.141C172.365 100.328 172.909 100.539 173.378 100.773C173.852 101.008 174.248 101.271 174.566 101.562C174.883 101.854 175.123 102.185 175.284 102.555C175.446 102.924 175.527 103.344 175.527 103.812C175.527 104.307 175.43 104.75 175.237 105.141C175.045 105.531 174.766 105.862 174.402 106.133C174.037 106.404 173.602 106.609 173.097 106.75C172.592 106.891 172.027 106.961 171.402 106.961C170.839 106.961 170.284 106.888 169.737 106.742C169.191 106.591 168.693 106.365 168.245 106.062C167.803 105.76 167.448 105.375 167.183 104.906C166.917 104.438 166.784 103.883 166.784 103.242H169.136C169.136 103.596 169.191 103.896 169.3 104.141C169.409 104.385 169.563 104.583 169.761 104.734C169.964 104.885 170.204 104.995 170.48 105.062C170.761 105.13 171.068 105.164 171.402 105.164C171.808 105.164 172.141 105.107 172.402 104.992C172.667 104.878 172.862 104.719 172.987 104.516C173.118 104.312 173.183 104.083 173.183 103.828ZM181.92 98.3516V99.9453H176.998V98.3516H181.92ZM178.217 96.2656H180.467V104.258C180.467 104.503 180.498 104.69 180.561 104.82C180.629 104.951 180.728 105.042 180.858 105.094C180.988 105.141 181.152 105.164 181.35 105.164C181.491 105.164 181.616 105.159 181.725 105.148C181.84 105.133 181.936 105.117 182.014 105.102L182.022 106.758C181.829 106.82 181.621 106.87 181.397 106.906C181.173 106.943 180.926 106.961 180.655 106.961C180.16 106.961 179.728 106.88 179.358 106.719C178.993 106.552 178.712 106.286 178.514 105.922C178.316 105.557 178.217 105.078 178.217 104.484V96.2656ZM183.439 102.664V102.5C183.439 101.88 183.528 101.31 183.705 100.789C183.882 100.263 184.14 99.8073 184.478 99.4219C184.817 99.0365 185.233 98.737 185.728 98.5234C186.223 98.3047 186.791 98.1953 187.431 98.1953C188.072 98.1953 188.642 98.3047 189.142 98.5234C189.642 98.737 190.061 99.0365 190.4 99.4219C190.744 99.8073 191.004 100.263 191.181 100.789C191.358 101.31 191.447 101.88 191.447 102.5V102.664C191.447 103.279 191.358 103.849 191.181 104.375C191.004 104.896 190.744 105.352 190.4 105.742C190.061 106.128 189.645 106.427 189.15 106.641C188.655 106.854 188.087 106.961 187.447 106.961C186.806 106.961 186.236 106.854 185.736 106.641C185.241 106.427 184.822 106.128 184.478 105.742C184.14 105.352 183.882 104.896 183.705 104.375C183.528 103.849 183.439 103.279 183.439 102.664ZM185.689 102.5V102.664C185.689 103.018 185.72 103.349 185.783 103.656C185.845 103.964 185.944 104.234 186.08 104.469C186.22 104.698 186.403 104.878 186.627 105.008C186.851 105.138 187.124 105.203 187.447 105.203C187.759 105.203 188.028 105.138 188.252 105.008C188.476 104.878 188.655 104.698 188.791 104.469C188.926 104.234 189.025 103.964 189.087 103.656C189.155 103.349 189.189 103.018 189.189 102.664V102.5C189.189 102.156 189.155 101.833 189.087 101.531C189.025 101.224 188.923 100.953 188.783 100.719C188.647 100.479 188.468 100.292 188.244 100.156C188.02 100.021 187.749 99.9531 187.431 99.9531C187.114 99.9531 186.843 100.021 186.619 100.156C186.4 100.292 186.22 100.479 186.08 100.719C185.944 100.953 185.845 101.224 185.783 101.531C185.72 101.833 185.689 102.156 185.689 102.5ZM195.88 99.9766V110.055H193.63V98.3516H195.716L195.88 99.9766ZM201.231 102.484V102.648C201.231 103.263 201.158 103.833 201.012 104.359C200.872 104.885 200.664 105.344 200.387 105.734C200.111 106.12 199.768 106.422 199.356 106.641C198.95 106.854 198.481 106.961 197.95 106.961C197.434 106.961 196.986 106.857 196.606 106.648C196.226 106.44 195.906 106.148 195.645 105.773C195.39 105.393 195.184 104.953 195.028 104.453C194.872 103.953 194.752 103.417 194.669 102.844V102.414C194.752 101.799 194.872 101.237 195.028 100.727C195.184 100.211 195.39 99.7656 195.645 99.3906C195.906 99.0104 196.223 98.7161 196.598 98.5078C196.979 98.2995 197.424 98.1953 197.934 98.1953C198.471 98.1953 198.942 98.2969 199.348 98.5C199.76 98.7031 200.104 98.9948 200.38 99.375C200.661 99.7552 200.872 100.208 201.012 100.734C201.158 101.26 201.231 101.844 201.231 102.484ZM198.973 102.648V102.484C198.973 102.125 198.942 101.794 198.88 101.492C198.822 101.185 198.729 100.917 198.598 100.688C198.473 100.458 198.307 100.281 198.098 100.156C197.895 100.026 197.648 99.9609 197.356 99.9609C197.049 99.9609 196.786 100.01 196.567 100.109C196.354 100.208 196.179 100.352 196.044 100.539C195.908 100.727 195.807 100.951 195.739 101.211C195.671 101.471 195.63 101.766 195.614 102.094V103.18C195.64 103.565 195.713 103.911 195.833 104.219C195.953 104.521 196.137 104.76 196.387 104.938C196.637 105.115 196.966 105.203 197.372 105.203C197.669 105.203 197.919 105.138 198.122 105.008C198.325 104.872 198.489 104.688 198.614 104.453C198.744 104.219 198.835 103.948 198.887 103.641C198.945 103.333 198.973 103.003 198.973 102.648Z" fill="white"/>
<defs>
<filter id="filter0_d_5029_64431" x="104" y="0" width="160" height="160" filterUnits="userSpaceOnUse" color-interpolation-filters="sRGB">
<feFlood flood-opacity="0" result="BackgroundImageFix"/>
<feColorMatrix in="SourceAlpha" type="matrix" values="0 0 0 0 0 0 0 0 0 0 0 0 0 0 0 0 0 0 127 0" result="hardAlpha"/>
<feOffset dy="4"/>
<feGaussianBlur stdDeviation="15"/>
<feComposite in2="hardAlpha" operator="out"/>
<feColorMatrix type="matrix" values="0 0 0 0 0 0 0 0 0 0 0 0 0 0 0 0 0 0 0.15 0"/>
<feBlend mode="normal" in2="BackgroundImageFix" result="effect1_dropShadow_5029_64431"/>
<feBlend mode="normal" in="SourceGraphic" in2="effect1_dropShadow_5029_64431" result="shape"/>
</filter>
<linearGradient id="paint0_linear_5029_64431" x1="231.692" y1="38.5" x2="138.664" y2="42.3822" gradientUnits="userSpaceOnUse">
<stop stop-color="#D36C2D"/>
<stop offset="1" stop-color="#9234D5"/>
</linearGradient>
</defs>
</svg>
