<svg width="102" height="102" viewBox="0 0 102 102" fill="none" xmlns="http://www.w3.org/2000/svg">
<path d="M101.188 50.5949C101.188 78.5393 78.5377 101.188 50.5945 101.188C22.6498 101.188 6.33661e-08 78.5393 6.33661e-08 50.5949C-0.00138336 22.6506 22.6498 0 50.5945 0C78.5377 0 101.188 22.6513 101.188 50.5949Z" fill="#23AD78"/>
<path d="M101.173 51.1035C101.075 51.0045 75.8754 25.8045 75.776 25.7066C69.3491 19.2034 60.4365 15.1616 50.5924 15.1616C31.0554 15.1616 15.1602 31.0568 15.1602 50.5937C15.1602 60.4371 19.2017 69.3493 25.7048 75.7767C25.8027 75.8759 25.9008 75.9739 26.0001 76.0719C26.0981 76.1712 50.7082 100.781 50.8074 100.879C50.9053 100.978 51.003 101.076 51.1023 101.174C78.6398 100.902 100.901 78.6417 101.173 51.1035Z" fill="#1A9256"/>
<path d="M64.3506 39.1806L43.2495 58.8761L36.8756 52.5022C36.2988 51.9254 35.3646 51.9254 34.788 52.5022C34.2113 53.0788 34.2113 54.0131 34.788 54.5897L42.1695 61.9722C42.4578 62.2598 42.8356 62.4049 43.2133 62.4049C43.5752 62.4049 43.9371 62.2729 44.2213 62.0076L66.3665 41.3389C66.962 40.7824 66.9937 39.8482 66.4386 39.2527C65.8817 38.6558 64.9489 38.6227 64.3506 39.1806Z" fill="#F4F6F9"/>
<path d="M50.5922 15.1616C31.0553 15.1616 15.1602 31.0568 15.1602 50.5937C15.1602 70.1306 31.0553 86.0256 50.5922 86.0256C70.1291 86.0256 86.0242 70.1306 86.0242 50.5937C86.0242 31.0568 70.1291 15.1616 50.5922 15.1616ZM50.5922 83.0728C32.6831 83.0728 18.1129 68.5026 18.1129 50.5937C18.1129 32.6846 32.6831 18.1144 50.5922 18.1144C68.5014 18.1144 83.0714 32.6845 83.0714 50.5937C83.0714 68.5029 68.5014 83.0728 50.5922 83.0728Z" fill="#F4F6F9"/>
</svg>
