<svg width="199" height="172" viewBox="0 0 199 172" fill="none" xmlns="http://www.w3.org/2000/svg">
<path d="M9.55678 93.0584C9.55678 93.0584 5.46106 94.4708 9.6362 103.222C13.8113 111.973 16.7433 116.345 16.7433 116.345C16.7433 116.345 17.4719 118.372 15.7763 118.638C14.0807 118.904 10.3821 118.209 9.56023 120.254C8.72106 122.374 10.2233 124.436 13.3279 126.294C16.4325 128.152 23.0906 132.468 23.688 132.855C24.2855 133.242 24.8518 134.188 23.726 134.554C22.6002 134.92 14.2188 135.566 14.7645 139.527C15.3101 143.488 24.8138 147.235 25.8429 147.663C26.8721 148.092 27.1103 148.544 27.0102 149.114C26.91 149.684 24.0748 149.635 21.6989 149.915C19.323 150.195 16.6155 150.951 17.1231 153.199C17.6308 155.447 23.1873 160.317 36.9525 162.043L43.3827 162.423L47.0329 157.081C54.1469 145.167 53.7325 137.794 52.2648 136.015C50.7971 134.237 48.5455 135.901 46.8603 137.6C45.175 139.299 43.469 141.565 42.9579 141.295C42.4468 141.026 42.2396 140.56 42.5366 139.482C42.8336 138.405 45.7241 128.608 42.9407 125.741C40.1572 122.875 34.4868 129.084 33.506 129.744C32.5252 130.403 32.1247 129.371 32.1903 128.666C32.2559 127.962 32.9431 120.033 33.3886 116.459C33.8341 112.884 33.1538 110.401 30.9678 109.759C28.8577 109.137 27.1276 112.477 25.874 113.651C24.6204 114.825 23.4567 113.005 23.4567 113.005C23.4567 113.005 21.8474 108.008 17.5168 99.3505C13.1863 90.6928 9.47389 93.1102 9.47389 93.1102" fill="#EBEBEB"/>
<path d="M43.6933 163.929C40.5369 157.547 35.1185 146.106 30.4185 136.302C25.7184 126.497 21.4396 117.653 18.3316 111.244C16.7707 108.053 15.5067 105.466 14.6261 103.671C14.1944 102.783 13.856 102.089 13.6212 101.599L13.3587 101.077C13.3035 100.956 13.2793 100.891 13.2793 100.891L13.3794 101.067L13.6523 101.595C13.894 102.072 14.2462 102.759 14.6883 103.64C15.5896 105.415 16.8777 107.994 18.4525 111.185C21.6123 117.584 25.9014 126.439 30.598 136.233C35.2946 146.026 40.6957 157.478 43.821 163.877" fill="#EBEDF9"/>
<path d="M14.709 121.417C14.8622 121.447 15.0116 121.493 15.1545 121.556C15.4376 121.652 15.8451 121.808 16.339 122.005C17.3336 122.402 18.6942 122.982 20.1826 123.652L23.9813 125.379L25.1382 125.893C25.2847 125.946 25.4249 126.016 25.5561 126.1C25.4027 126.074 25.2531 126.028 25.1106 125.966C24.8274 125.865 24.4199 125.71 23.9261 125.506C22.9349 125.102 21.5847 124.505 20.0928 123.835L16.2837 122.143L15.1268 121.635C14.9802 121.578 14.8401 121.505 14.709 121.417Z" fill="#EBEDF9"/>
<path d="M26.0154 125.7C25.9636 125.679 27.0515 122.823 28.4328 119.322C29.8142 115.82 30.9676 112.995 31.0194 113.012C31.0712 113.03 29.9834 115.889 28.602 119.394C27.2207 122.899 26.0638 125.721 26.0154 125.7Z" fill="#EBEDF9"/>
<path d="M32.5566 141.067C32.6341 140.928 32.7255 140.798 32.8295 140.677L33.6203 139.641C34.2833 138.778 35.1985 137.569 36.162 136.222C37.1255 134.875 37.9543 133.605 38.5483 132.689C38.828 132.261 39.0663 131.899 39.2389 131.605C39.3166 131.467 39.4105 131.338 39.5187 131.222C39.4625 131.37 39.392 131.512 39.308 131.646C39.1595 131.916 38.9385 132.299 38.6553 132.765C38.0924 133.701 37.274 134.976 36.3105 136.336C35.347 137.697 34.4111 138.888 33.717 139.731C33.3716 140.149 33.0781 140.487 32.8744 140.715C32.7827 140.845 32.6761 140.963 32.5566 141.067Z" fill="#EBEDF9"/>
<path d="M21.4785 139.444C21.625 139.435 21.7721 139.442 21.9171 139.465L23.1085 139.593C24.11 139.707 25.4914 139.879 27.0177 140.083C28.5441 140.287 29.9255 140.484 30.9235 140.636L32.1046 140.826C32.2507 140.841 32.3944 140.873 32.5328 140.922C32.3863 140.932 32.2392 140.925 32.0942 140.902L30.9063 140.774C29.9013 140.66 28.52 140.487 26.9936 140.284C25.4672 140.08 24.0858 139.883 23.0878 139.731L21.9067 139.541C21.7607 139.526 21.6169 139.494 21.4785 139.444Z" fill="#EBEDF9"/>
<path d="M25.5293 153.748C25.7174 153.74 25.9059 153.749 26.0922 153.776L27.6151 153.935C28.9033 154.076 30.6748 154.28 32.6329 154.525C34.591 154.77 36.366 154.998 37.6472 155.174L39.1633 155.395C39.3504 155.414 39.5353 155.45 39.7158 155.502C39.5276 155.511 39.3391 155.5 39.1529 155.471L37.63 155.316C36.3419 155.174 34.5703 154.971 32.6087 154.725C30.6472 154.48 28.8791 154.252 27.5979 154.073L26.0818 153.855C25.8947 153.837 25.7098 153.801 25.5293 153.748Z" fill="#EBEDF9"/>
<g opacity="0.3">
<path d="M197.759 118.615C197.759 118.615 203.062 59.1963 173.65 27.4708C147.704 -0.55601 109.323 -9.72436 80.6438 16.498C70.4178 25.8496 58.2225 35.4187 45.9062 41.4005C32.0915 48.1097 16.4653 50.1948 5.15294 76.0304C-6.15943 101.866 4.10824 142.581 23.0803 158.615C42.0523 174.649 74.2194 172.807 101.972 169.858C129.724 166.909 188.762 192.089 197.759 118.615Z" fill="url(#paint0_linear_2396_87114)"/>
<path opacity="0.7" d="M197.759 118.615C197.759 118.615 203.062 59.1963 173.65 27.4708C147.704 -0.556008 109.323 -9.72436 80.6438 16.498C70.4178 25.8496 58.2225 35.4187 45.9062 41.4005C32.0915 48.1097 16.4653 50.1948 5.15294 76.0304C-6.15943 101.866 4.10825 142.581 23.0803 158.615C42.0523 174.649 74.2194 172.807 101.972 169.858C129.724 166.909 188.762 192.089 197.759 118.615Z" fill="white"/>
</g>
<g opacity="0.3">
<path d="M163.51 66.4941H130.564V91.4195H163.51V66.4941Z" stroke="black" stroke-linecap="round" stroke-linejoin="round"/>
<path d="M161.719 68.5547H132.35V89.3627H161.719V68.5547Z" stroke="black" stroke-linecap="round" stroke-linejoin="round"/>
<path d="M141.928 71.832H152.145" stroke="black" stroke-linecap="round" stroke-linejoin="round"/>
<path d="M135.311 74.8516H158.76" stroke="black" stroke-linecap="round" stroke-linejoin="round"/>
<path d="M140.537 80.8862H153.535" stroke="black" stroke-linecap="round" stroke-linejoin="round"/>
<path d="M135.543 86.9248H140.653" stroke="black" stroke-linecap="round" stroke-linejoin="round"/>
<path d="M153.42 86.9248H158.527" stroke="black" stroke-linecap="round" stroke-linejoin="round"/>
</g>
<g opacity="0.3">
<path d="M172.456 96.6758H148.207V115.022H172.456V96.6758Z" stroke="black" stroke-linecap="round" stroke-linejoin="round"/>
<path d="M171.141 98.1924H149.523V113.509H171.141V98.1924Z" stroke="black" stroke-linecap="round" stroke-linejoin="round"/>
<path d="M156.574 100.606H164.092" stroke="black" stroke-linecap="round" stroke-linejoin="round"/>
<path d="M151.703 102.826H168.965" stroke="black" stroke-linecap="round" stroke-linejoin="round"/>
<path d="M155.547 107.27H165.118" stroke="black" stroke-linecap="round" stroke-linejoin="round"/>
<path d="M151.873 111.714H155.633" stroke="black" stroke-linecap="round" stroke-linejoin="round"/>
<path d="M165.029 111.714H168.79" stroke="black" stroke-linecap="round" stroke-linejoin="round"/>
</g>
<path d="M144.365 109.582L109.164 108.358C107.714 108.308 106.263 108.308 104.812 108.358L72.0195 109.582L73.4747 63.5395C73.5291 61.7965 73.5291 60.0511 73.4747 58.3035L72.0195 14.8584H144.365V109.582Z" fill="#263238" stroke="#263238" stroke-linecap="round" stroke-linejoin="round"/>
<path d="M145.527 13.2334H73.1816V107.957H145.527V13.2334Z" fill="white" stroke="#263238" stroke-linecap="round" stroke-linejoin="round"/>
<path d="M145.459 13.2402H73.0391V28.5402H145.459V13.2402Z" fill="#407BFF" stroke="#263238" stroke-linecap="round" stroke-linejoin="round"/>
<path d="M117.277 48.7663C119.209 44.5144 117.328 39.5018 113.076 37.5704C108.824 35.639 103.811 37.5201 101.88 41.772C99.9485 46.0239 101.83 51.0364 106.082 52.9679C110.333 54.8993 115.346 53.0182 117.277 48.7663Z" fill="#407BFF"/>
<path d="M109.578 39.5933C110.083 39.5933 110.567 39.7939 110.924 40.1509C111.281 40.508 111.482 40.9923 111.482 41.4973V47.3316H107.674V41.4973C107.674 40.9923 107.874 40.508 108.231 40.1509C108.589 39.7939 109.073 39.5933 109.578 39.5933Z" fill="white"/>
<path d="M108.735 43.5339C108.735 43.5645 108.729 43.595 108.718 43.6234C108.707 43.6519 108.69 43.6778 108.668 43.6996C108.647 43.7214 108.621 43.7387 108.593 43.7506C108.564 43.7624 108.534 43.7685 108.503 43.7685H107.674V43.2959H108.503C108.534 43.2959 108.565 43.3021 108.594 43.3141C108.622 43.3262 108.648 43.3438 108.669 43.366C108.691 43.3882 108.708 43.4145 108.719 43.4433C108.73 43.4722 108.736 43.503 108.735 43.5339Z" fill="#407BFF"/>
<path d="M108.735 44.595C108.735 44.6252 108.729 44.6551 108.717 44.683C108.705 44.7108 108.688 44.7361 108.667 44.7573C108.645 44.7785 108.62 44.7952 108.592 44.8065C108.564 44.8177 108.534 44.8233 108.503 44.8228H107.674V44.3672H108.503C108.534 44.3668 108.564 44.3723 108.592 44.3836C108.62 44.3948 108.645 44.4115 108.667 44.4327C108.688 44.4539 108.705 44.4792 108.717 44.507C108.729 44.5349 108.735 44.5648 108.735 44.595Z" fill="#407BFF"/>
<path d="M108.735 45.6555C108.735 45.6857 108.729 45.7157 108.717 45.7435C108.705 45.7714 108.688 45.7966 108.667 45.8178C108.645 45.839 108.62 45.8557 108.592 45.867C108.564 45.8782 108.534 45.8838 108.503 45.8833H107.674V45.4243H108.503C108.534 45.4239 108.564 45.4296 108.592 45.441C108.621 45.4525 108.646 45.4695 108.668 45.491C108.689 45.5126 108.707 45.5383 108.718 45.5665C108.729 45.5948 108.735 45.6251 108.735 45.6555Z" fill="#407BFF"/>
<path d="M111.483 43.2959V43.7583H110.667C110.605 43.7583 110.547 43.7339 110.503 43.6906C110.46 43.6472 110.436 43.5884 110.436 43.5271C110.436 43.4658 110.46 43.407 110.503 43.3636C110.547 43.3203 110.605 43.2959 110.667 43.2959H111.483Z" fill="#407BFF"/>
<path d="M111.483 44.3672V44.8228H110.667C110.607 44.8228 110.549 44.7988 110.506 44.7561C110.463 44.7133 110.439 44.6554 110.439 44.595C110.439 44.5346 110.463 44.4766 110.506 44.4339C110.549 44.3912 110.607 44.3672 110.667 44.3672H111.483Z" fill="#407BFF"/>
<path d="M108.735 42.4832C108.735 42.5132 108.729 42.543 108.717 42.5707C108.705 42.5983 108.688 42.6234 108.667 42.6443C108.645 42.6652 108.619 42.6816 108.591 42.6925C108.563 42.7034 108.533 42.7085 108.503 42.7076H107.674V42.252H108.503C108.534 42.2515 108.564 42.2572 108.592 42.2686C108.621 42.2801 108.646 42.2971 108.668 42.3187C108.689 42.3402 108.707 42.3659 108.718 42.3942C108.729 42.4224 108.735 42.4527 108.735 42.4832Z" fill="#407BFF"/>
<path d="M111.483 42.252V42.7076H110.667C110.637 42.7085 110.607 42.7034 110.579 42.6925C110.551 42.6816 110.525 42.6652 110.504 42.6443C110.482 42.6234 110.465 42.5983 110.453 42.5707C110.442 42.543 110.436 42.5132 110.436 42.4832C110.435 42.4527 110.441 42.4224 110.452 42.3942C110.464 42.3659 110.481 42.3402 110.502 42.3187C110.524 42.2971 110.549 42.2801 110.578 42.2686C110.606 42.2572 110.636 42.2515 110.667 42.252H111.483Z" fill="#407BFF"/>
<path d="M111.483 45.4246V45.8836H110.667C110.635 45.8875 110.602 45.8845 110.571 45.8748C110.539 45.8651 110.511 45.8488 110.486 45.8271C110.462 45.8055 110.442 45.7788 110.429 45.749C110.415 45.7191 110.408 45.6868 110.408 45.6541C110.408 45.6213 110.415 45.589 110.429 45.5591C110.442 45.5293 110.462 45.5027 110.486 45.481C110.511 45.4593 110.539 45.443 110.571 45.4333C110.602 45.4236 110.635 45.4206 110.667 45.4246H111.483Z" fill="#407BFF"/>
<path d="M109.579 50.9427C109.518 50.9418 109.46 50.9171 109.416 50.874C109.373 50.8308 109.349 50.7725 109.348 50.7114V47.9915C109.348 47.9301 109.372 47.8713 109.415 47.828C109.459 47.7846 109.518 47.7603 109.579 47.7603C109.64 47.7603 109.699 47.7846 109.742 47.828C109.786 47.8713 109.81 47.9301 109.81 47.9915V50.7114C109.809 50.7725 109.785 50.8308 109.741 50.874C109.698 50.9171 109.64 50.9418 109.579 50.9427Z" fill="white"/>
<path d="M112.472 48.0051C112.471 48.0662 112.446 48.1245 112.403 48.1676C112.36 48.2108 112.302 48.2354 112.241 48.2363H106.913C106.852 48.2363 106.793 48.212 106.749 48.1686C106.706 48.1252 106.682 48.0664 106.682 48.0051C106.682 47.9438 106.706 47.885 106.749 47.8416C106.793 47.7983 106.852 47.7739 106.913 47.7739H112.241C112.302 47.7739 112.361 47.7983 112.404 47.8416C112.447 47.885 112.472 47.9438 112.472 48.0051Z" fill="white"/>
<path d="M106.913 44.6558C106.974 44.6566 107.032 44.6813 107.075 44.7245C107.119 44.7676 107.143 44.8259 107.144 44.887V48.0014C107.144 48.0627 107.12 48.1215 107.076 48.1648C107.033 48.2082 106.974 48.2326 106.913 48.2326C106.852 48.2326 106.793 48.2082 106.749 48.1648C106.706 48.1215 106.682 48.0627 106.682 48.0014V44.887C106.682 44.8256 106.706 44.7668 106.749 44.7235C106.793 44.6801 106.852 44.6558 106.913 44.6558Z" fill="white"/>
<path d="M112.241 44.6558C112.302 44.6566 112.36 44.6813 112.403 44.7245C112.447 44.7676 112.471 44.8259 112.472 44.887V48.0014C112.472 48.0627 112.448 48.1215 112.404 48.1648C112.361 48.2082 112.302 48.2326 112.241 48.2326C112.18 48.2326 112.121 48.2082 112.077 48.1648C112.034 48.1215 112.01 48.0627 112.01 48.0014V44.887C112.011 44.8259 112.035 44.7676 112.078 44.7245C112.122 44.6813 112.18 44.6566 112.241 44.6558Z" fill="white"/>
<path d="M111.058 50.9424H108.1C108.039 50.9424 107.98 50.918 107.937 50.8747C107.894 50.8313 107.869 50.7725 107.869 50.7112C107.869 50.6499 107.894 50.5911 107.937 50.5477C107.98 50.5043 108.039 50.48 108.1 50.48H111.058C111.12 50.48 111.178 50.5043 111.222 50.5477C111.265 50.5911 111.29 50.6499 111.29 50.7112C111.29 50.7725 111.265 50.8313 111.222 50.8747C111.178 50.918 111.12 50.9424 111.058 50.9424Z" fill="white"/>
<path d="M104.672 53.3465C104.63 53.347 104.589 53.3351 104.553 53.3125C102.496 52.0258 101.01 49.9999 100.4 47.6513C99.7905 45.3027 100.104 42.8098 101.275 40.6849C101.307 40.6382 101.355 40.605 101.41 40.5918C101.465 40.5785 101.523 40.5862 101.573 40.6134C101.623 40.6405 101.66 40.6852 101.679 40.7386C101.697 40.7921 101.695 40.8505 101.673 40.9025C100.556 42.9257 100.256 45.3003 100.837 47.5375C101.418 49.7747 102.834 51.704 104.794 52.9283C104.835 52.9551 104.866 52.9943 104.883 53.0401C104.9 53.0859 104.902 53.1359 104.888 53.1827C104.874 53.2296 104.846 53.2708 104.807 53.3003C104.768 53.3297 104.721 53.346 104.672 53.3465Z" fill="#407BFF"/>
<path d="M109.579 54.7539C108.676 54.754 107.777 54.6258 106.91 54.3731C106.853 54.3558 106.804 54.3164 106.776 54.2636C106.747 54.2107 106.74 54.1486 106.757 54.0909C106.765 54.0622 106.779 54.0353 106.798 54.012C106.817 53.9886 106.84 53.9693 106.866 53.955C106.892 53.9408 106.921 53.9319 106.951 53.929C106.981 53.926 107.011 53.9291 107.039 53.9379C107.865 54.1772 108.72 54.2985 109.579 54.2983C111.27 54.3037 112.928 53.8323 114.363 52.9383C114.414 52.9063 114.476 52.896 114.535 52.9097C114.594 52.9234 114.646 52.96 114.678 53.0114C114.71 53.0628 114.72 53.1248 114.706 53.1838C114.692 53.2428 114.656 53.2939 114.604 53.3259C113.096 54.2624 111.355 54.7571 109.579 54.7539Z" fill="#407BFF"/>
<path d="M115.698 52.4317C115.666 52.4316 115.634 52.4246 115.604 52.4111C115.575 52.3977 115.549 52.378 115.528 52.3535C115.507 52.3326 115.49 52.3077 115.478 52.2803C115.467 52.2529 115.461 52.2234 115.461 52.1937C115.461 52.1639 115.467 52.1345 115.478 52.1071C115.49 52.0796 115.507 52.0548 115.528 52.0339C116.489 51.1883 117.26 50.1475 117.787 48.9808C118.315 47.8141 118.588 46.5484 118.588 45.2679C118.595 45.2127 118.621 45.1619 118.663 45.1251C118.705 45.0882 118.758 45.0679 118.814 45.0679C118.87 45.0679 118.923 45.0882 118.965 45.1251C119.006 45.1619 119.033 45.2127 119.04 45.2679C119.047 46.7645 118.698 48.2413 118.02 49.5757C117.478 50.6356 116.742 51.5847 115.851 52.3739C115.808 52.4106 115.754 52.4311 115.698 52.4317Z" fill="#407BFF"/>
<path d="M118.466 42.9014C118.417 42.9012 118.369 42.8852 118.33 42.8558C118.291 42.8264 118.262 42.7852 118.248 42.7382C118.076 42.1402 117.84 41.5623 117.544 41.0144C117.52 40.9616 117.517 40.9016 117.535 40.8465C117.554 40.7915 117.593 40.7456 117.644 40.7183C117.695 40.6909 117.755 40.6841 117.811 40.6994C117.867 40.7146 117.915 40.7507 117.945 40.8002C118.254 41.3759 118.501 41.9821 118.683 42.609C118.7 42.6667 118.694 42.7288 118.665 42.7816C118.636 42.8345 118.588 42.8739 118.53 42.8912C118.509 42.8979 118.488 42.9013 118.466 42.9014Z" fill="#407BFF"/>
<path d="M102.439 39.6069C102.395 39.6075 102.353 39.5957 102.316 39.5727C102.28 39.5498 102.25 39.5168 102.232 39.4776C102.214 39.4385 102.207 39.3949 102.213 39.3521C102.219 39.3093 102.237 39.2691 102.265 39.2363C103.152 38.1575 104.267 37.288 105.529 36.6899C106.791 36.0919 108.17 35.7801 109.567 35.7769C110.964 35.7736 112.344 36.079 113.609 36.6712C114.874 37.2633 115.993 38.1276 116.885 39.2023C116.91 39.2483 116.919 39.3016 116.909 39.3531C116.9 39.4047 116.873 39.4514 116.833 39.4854C116.793 39.5193 116.742 39.5385 116.69 39.5396C116.638 39.5406 116.586 39.5236 116.545 39.4913C115.696 38.4699 114.632 37.6485 113.428 37.0858C112.225 36.5232 110.912 36.2331 109.584 36.2363C108.256 36.2396 106.945 36.5361 105.744 37.1046C104.543 37.6731 103.483 38.4997 102.639 39.5253C102.615 39.554 102.584 39.5765 102.549 39.5907C102.514 39.6049 102.476 39.6104 102.439 39.6069Z" fill="#407BFF"/>
<path d="M120.21 42.429C120.161 42.4294 120.113 42.4136 120.074 42.3841C120.034 42.3546 120.006 42.3131 119.992 42.2658C119.222 39.6012 117.461 37.3331 115.069 35.9278C112.678 34.5226 109.839 34.0871 107.137 34.711C107.081 34.7185 107.024 34.7048 106.977 34.6725C106.93 34.6403 106.897 34.5917 106.885 34.5364C106.872 34.4812 106.88 34.4231 106.908 34.3736C106.936 34.3242 106.981 34.2868 107.035 34.269C109.85 33.6197 112.808 34.0737 115.299 35.5377C117.79 37.0017 119.625 39.3644 120.428 42.14C120.436 42.1686 120.438 42.1985 120.435 42.228C120.432 42.2576 120.422 42.2862 120.408 42.3121C120.393 42.3381 120.374 42.3608 120.35 42.3792C120.327 42.3975 120.3 42.4109 120.271 42.4188C120.251 42.4254 120.231 42.4289 120.21 42.429Z" fill="#407BFF"/>
<path d="M98.8015 43.0036H98.7505C98.7213 42.9972 98.6937 42.985 98.6693 42.9678C98.6449 42.9506 98.6242 42.9287 98.6083 42.9033C98.5925 42.878 98.5819 42.8498 98.5771 42.8203C98.5723 42.7908 98.5735 42.7606 98.5805 42.7316C98.9411 41.1806 99.6246 39.723 100.587 38.4541C101.549 37.1851 102.767 36.1333 104.163 35.3672C104.19 35.3493 104.219 35.3371 104.251 35.3314C104.282 35.3256 104.314 35.3265 104.345 35.334C104.376 35.3414 104.405 35.3552 104.43 35.3745C104.455 35.3938 104.476 35.4182 104.491 35.4461C104.507 35.474 104.516 35.5048 104.519 35.5365C104.521 35.5681 104.517 35.6 104.507 35.6301C104.496 35.6601 104.48 35.6876 104.458 35.7109C104.436 35.7341 104.41 35.7525 104.381 35.765C103.045 36.5019 101.88 37.5114 100.959 38.728C100.039 39.9446 99.3851 41.341 99.0395 42.8268C99.0275 42.8798 98.9969 42.9268 98.9532 42.9592C98.9096 42.9916 98.8558 43.0074 98.8015 43.0036Z" fill="#407BFF"/>
<path d="M101.759 53.3191C101.699 53.3184 101.641 53.294 101.599 53.2511C100.468 52.121 99.5899 50.7632 99.0236 49.2678C98.4574 47.7724 98.2156 46.1737 98.3146 44.5777C98.3131 44.5458 98.3183 44.5139 98.33 44.4842C98.3416 44.4544 98.3594 44.4274 98.3821 44.405C98.4049 44.3825 98.4321 44.3651 98.462 44.3539C98.4919 44.3427 98.5239 44.3378 98.5558 44.3398C98.5877 44.3417 98.6188 44.3503 98.6472 44.365C98.6755 44.3798 98.7005 44.4003 98.7204 44.4253C98.7403 44.4503 98.7547 44.4793 98.7627 44.5102C98.7707 44.5411 98.7721 44.5734 98.7668 44.6049C98.6834 45.9635 98.8564 47.3257 99.2768 48.6203C99.8009 50.2483 100.708 51.7268 101.922 52.9315C101.943 52.9524 101.96 52.9773 101.971 53.0047C101.983 53.0321 101.989 53.0616 101.989 53.0913C101.989 53.1211 101.983 53.1505 101.971 53.1779C101.96 53.2054 101.943 53.2302 101.922 53.2511C101.879 53.2942 101.82 53.3186 101.759 53.3191Z" fill="#407BFF"/>
<path d="M106.362 56.0835C106.341 56.0867 106.319 56.0867 106.297 56.0835C105.553 55.8576 104.834 55.5557 104.152 55.1825C104.099 55.1531 104.06 55.104 104.044 55.046C104.027 54.988 104.034 54.9258 104.064 54.8731C104.078 54.8471 104.097 54.8242 104.12 54.8057C104.143 54.7871 104.17 54.7734 104.198 54.7652C104.227 54.7569 104.257 54.7544 104.286 54.7578C104.315 54.7611 104.344 54.7703 104.37 54.7847C105.025 55.1434 105.715 55.4328 106.43 55.6483C106.459 55.6568 106.485 55.6709 106.508 55.6898C106.531 55.7086 106.55 55.7318 106.564 55.7581C106.578 55.7843 106.586 55.8131 106.589 55.8427C106.592 55.8723 106.589 55.9021 106.58 55.9305C106.564 55.9756 106.535 56.0146 106.496 56.042C106.457 56.0695 106.41 56.084 106.362 56.0835Z" fill="#407BFF"/>
<path d="M109.578 56.5561C109.238 56.5561 108.898 56.5561 108.558 56.5085C108.501 56.4987 108.451 56.4681 108.416 56.4227C108.381 56.3773 108.365 56.3206 108.37 56.2636C108.375 56.2067 108.402 56.1538 108.444 56.1154C108.486 56.077 108.541 56.0559 108.599 56.0563C110.186 56.203 111.786 55.9973 113.285 55.4539C114.784 54.9105 116.144 54.0428 117.268 52.9127C118.393 51.7827 119.254 50.4183 119.79 48.917C120.326 47.4156 120.524 45.8144 120.369 44.2277C120.365 44.168 120.383 44.1087 120.421 44.0624C120.459 44.0161 120.514 43.9864 120.573 43.9795C120.633 43.9738 120.693 43.9921 120.74 44.0303C120.786 44.0686 120.816 44.1236 120.822 44.1835C120.972 45.7506 120.794 47.3319 120.297 48.8259C119.801 50.3199 118.997 51.6936 117.938 52.8587C116.88 54.0238 115.589 54.9546 114.149 55.5913C112.709 56.2281 111.152 56.5567 109.578 56.5561Z" fill="#407BFF"/>
<path opacity="0.4" d="M124.331 64.689V64.8522C122.686 64.8522 120.625 64.8794 120.194 64.9848C117.321 65.6648 117.372 67.1608 116.348 67.1608C115.556 67.1608 114.026 64.9338 112.659 64.9338C111.292 64.9338 110.918 65.7056 109.983 65.7056C109.048 65.7056 108.814 64.9338 106.675 64.9338C104.537 64.9338 103.955 66.3754 102.728 66.3754C101.5 66.3754 100.191 64.8522 98.6818 64.8522H94.8262V64.689H98.6988C100.208 64.689 101.504 63.1658 102.745 63.1658C103.986 63.1658 104.55 64.6074 106.692 64.6074C108.834 64.6074 109.072 63.839 110 63.839C110.929 63.839 111.313 64.6074 112.676 64.6074C114.04 64.6074 115.573 62.3838 116.365 62.3838C117.385 62.3838 117.338 63.8696 120.211 64.5598C120.625 64.6618 122.686 64.689 124.331 64.689Z" fill="#407BFF"/>
<path opacity="0.6" d="M124.331 64.6888V64.852C122.189 64.852 121.686 67.5516 119.911 67.5516C118.633 67.5516 117.334 65.2804 115.682 65.2804C114.104 65.2804 114.002 66.263 113.033 66.263C112.064 66.263 111.513 64.8656 109.973 64.8656C108.161 64.8656 107.719 68.031 106.155 68.031C104.591 68.031 103.904 65.0832 102.415 65.0832C100.926 65.0832 100.841 65.5626 99.5792 65.5626C98.3178 65.5626 97.172 64.852 95.88 64.852H94.7988V64.6888H95.88C97.172 64.6888 98.3178 63.9816 99.5792 63.9816C100.841 63.9816 100.939 64.4576 102.415 64.4576C103.89 64.4576 104.574 61.5132 106.155 61.5132C107.736 61.5132 108.161 64.6786 109.973 64.6786C111.5 64.6786 112.013 63.2778 113.033 63.2778C114.053 63.2778 114.104 64.2604 115.682 64.2604C117.334 64.2604 118.633 61.9926 119.911 61.9926C121.686 61.996 122.189 64.6888 124.331 64.6888Z" fill="#407BFF"/>
<path d="M94.8262 64.8181V64.7161C95.1563 64.7144 95.4846 64.6675 95.802 64.5767C96.1184 64.4825 96.4212 64.3476 96.703 64.1755C97.264 63.8355 97.774 63.3969 98.403 63.1793C98.7192 63.0682 99.0545 63.022 99.389 63.0433C99.7197 63.0771 100.043 63.1655 100.344 63.3051C100.953 63.5669 101.521 63.9137 102.133 64.1517C102.736 64.4066 103.399 64.4913 104.047 64.3965C104.369 64.3538 104.681 64.2536 104.968 64.1007C105.252 63.9196 105.569 63.7949 105.9 63.7335C106.238 63.6922 106.581 63.7476 106.889 63.8933C107.195 64.0293 107.474 64.2061 107.773 64.3387C108.359 64.6253 109.022 64.717 109.664 64.6005C110.294 64.4271 110.869 64.0946 111.333 63.6349C111.585 63.4136 111.867 63.2282 112.17 63.0841C112.483 62.9471 112.825 62.891 113.166 62.9209C113.505 62.9474 113.834 63.0534 114.125 63.2303C114.405 63.4108 114.673 63.612 114.924 63.8321C115.166 64.0459 115.441 64.2182 115.74 64.3421C116.041 64.4486 116.363 64.4847 116.681 64.4475C117.004 64.4207 117.321 64.3486 117.623 64.2333C117.929 64.1177 118.222 63.9681 118.538 63.8525C118.856 63.7346 119.191 63.6714 119.531 63.6655C119.869 63.6683 120.205 63.7234 120.527 63.8287C121.166 64.0225 121.758 64.3285 122.383 64.5087C123.009 64.6889 123.665 64.6209 124.328 64.6379H124.413V64.8929H124.328C123.665 64.8929 123.002 64.8249 122.383 65.0221C121.764 65.2193 121.166 65.4981 120.527 65.7021C120.205 65.8075 119.869 65.8625 119.531 65.8653C119.191 65.8626 118.855 65.8005 118.538 65.6817C118.222 65.5661 117.929 65.4131 117.623 65.3009C117.321 65.1846 117.004 65.1113 116.681 65.0833C116.363 65.0472 116.041 65.0845 115.74 65.1921C115.441 65.316 115.166 65.4884 114.924 65.7021C114.673 65.9222 114.406 66.1223 114.125 66.3005C113.835 66.48 113.506 66.5872 113.166 66.6133C112.825 66.6432 112.483 66.5871 112.17 66.4501C111.868 66.3035 111.587 66.1183 111.333 65.8993C110.87 65.4376 110.295 65.1037 109.664 64.9303C109.022 64.8153 108.36 64.9069 107.773 65.1921C107.474 65.3281 107.195 65.5015 106.889 65.6375C106.582 65.7842 106.239 65.8408 105.9 65.8007C105.569 65.7378 105.253 65.6132 104.968 65.4335C104.681 65.2813 104.369 65.1801 104.047 65.1343C103.398 65.0408 102.736 65.1266 102.133 65.3825C101.521 65.6171 100.953 65.9639 100.344 66.2257C100.043 66.3653 99.7197 66.4538 99.389 66.4875C99.0559 66.5086 98.7219 66.4635 98.4064 66.3549C97.7706 66.1373 97.2606 65.6919 96.7064 65.3553C96.4239 65.1846 96.1212 65.0498 95.8054 64.9541C95.4864 64.8656 95.1572 64.8199 94.8262 64.8181ZM94.8262 64.8181C95.1567 64.8172 95.4859 64.8595 95.8054 64.9439C96.1229 65.0378 96.4278 65.1703 96.7132 65.3383C97.281 65.6783 97.7944 66.1067 98.4132 66.3141C98.7236 66.419 99.052 66.4606 99.3788 66.4365C99.7044 66.3999 100.022 66.3092 100.317 66.1679C100.916 65.9027 101.48 65.5491 102.099 65.3043C102.716 65.0411 103.393 64.9517 104.057 65.0459C104.39 65.0901 104.712 65.1926 105.009 65.3485C105.285 65.5162 105.589 65.6315 105.907 65.6885C106.228 65.7254 106.553 65.6712 106.845 65.5321C107.141 65.3995 107.423 65.2227 107.726 65.0833C108.333 64.7863 109.019 64.6899 109.684 64.8079C110.332 64.983 110.924 65.3213 111.405 65.7905C111.649 66.0044 111.923 66.1829 112.217 66.3209C112.511 66.4497 112.833 66.5012 113.152 66.4705C113.473 66.4446 113.783 66.3432 114.057 66.1747C114.331 65.9978 114.591 65.8 114.835 65.5831C115.093 65.3625 115.385 65.1846 115.699 65.0561C116.025 64.9386 116.374 64.8979 116.719 64.9371C117.054 64.9629 117.384 65.0373 117.698 65.1581C118.014 65.2737 118.307 65.4233 118.613 65.5355C119.224 65.7515 119.891 65.7515 120.503 65.5355C121.125 65.3417 121.717 65.0357 122.363 64.8555C122.688 64.7617 123.024 64.7147 123.362 64.7161H124.352L124.267 64.8011V64.7161L124.352 64.8011H123.362C123.024 64.8025 122.688 64.7556 122.363 64.6617C121.717 64.4781 121.125 64.1721 120.503 63.9817C119.892 63.7624 119.224 63.7624 118.613 63.9817C118.307 64.0905 118.014 64.2401 117.698 64.3557C117.384 64.4765 117.054 64.5509 116.719 64.5767C116.374 64.6188 116.025 64.5792 115.699 64.4611C115.388 64.3294 115.101 64.148 114.849 63.9239C114.604 63.7081 114.344 63.5103 114.07 63.3323C113.796 63.1638 113.486 63.0624 113.166 63.0365C112.846 63.0074 112.525 63.0589 112.231 63.1861C111.938 63.3266 111.665 63.5049 111.418 63.7165C110.939 64.1879 110.347 64.5276 109.698 64.7025C109.032 64.8206 108.346 64.7241 107.739 64.4271C107.433 64.2877 107.155 64.1109 106.855 63.9783C106.565 63.8374 106.241 63.782 105.92 63.8185C105.601 63.8795 105.297 64.0006 105.023 64.1755C104.726 64.3315 104.403 64.4339 104.071 64.4781C103.406 64.5728 102.729 64.4822 102.112 64.2163C101.494 63.9715 100.929 63.6179 100.331 63.3527C100.035 63.2115 99.718 63.1207 99.3924 63.0841C99.0656 63.0618 98.7376 63.1033 98.4268 63.2065C97.8012 63.4139 97.2878 63.8525 96.7268 64.1857C96.4423 64.3547 96.1372 64.4861 95.819 64.5767C95.4999 64.6639 95.1705 64.7074 94.8398 64.7059L94.8262 64.8181Z" fill="#407BFF"/>
<path opacity="0.3" d="M102.332 76.9562C102.332 77.3348 102.22 77.7049 102.01 78.0197C101.799 78.3344 101.5 78.5798 101.151 78.7247C100.801 78.8696 100.416 78.9075 100.045 78.8336C99.6733 78.7597 99.3323 78.5774 99.0646 78.3097C98.7969 78.042 98.6145 77.701 98.5407 77.3296C98.4668 76.9583 98.5047 76.5734 98.6496 76.2237C98.7945 75.8739 99.0398 75.5749 99.3546 75.3646C99.6694 75.1543 100.04 75.042 100.418 75.042C100.926 75.042 101.413 75.2437 101.772 75.6026C102.131 75.9616 102.332 76.4485 102.332 76.9562Z" fill="#407BFF"/>
<path opacity="0.3" d="M120.653 76.9562C120.653 77.3348 120.54 77.7049 120.33 78.0197C120.12 78.3344 119.821 78.5798 119.471 78.7247C119.121 78.8696 118.736 78.9075 118.365 78.8336C117.994 78.7597 117.653 78.5774 117.385 78.3097C117.117 78.042 116.935 77.701 116.861 77.3296C116.787 76.9583 116.825 76.5734 116.97 76.2237C117.115 75.8739 117.36 75.5749 117.675 75.3646C117.99 75.1543 118.36 75.042 118.738 75.042C119.246 75.042 119.733 75.2437 120.092 75.6026C120.451 75.9616 120.653 76.4485 120.653 76.9562Z" fill="#407BFF"/>
<path d="M118.738 77.5578V76.3848L119.942 76.9696L118.738 77.5578Z" fill="#407BFF"/>
<path d="M117.773 77.5578V76.3848L118.98 76.9696L117.773 77.5578Z" fill="#407BFF"/>
<path d="M100.418 76.3848V77.5578L99.2148 76.9696L100.418 76.3848Z" fill="#407BFF"/>
<path d="M101.385 76.3848V77.5578L100.178 76.9696L101.385 76.3848Z" fill="#407BFF"/>
<path d="M109.276 75.7251H108.545V78.2173H109.276V75.7251Z" fill="#407BFF"/>
<path d="M110.612 75.7251H109.881V78.2173H110.612V75.7251Z" fill="#407BFF"/>
<path d="M109.578 79.863C109.006 79.8636 108.446 79.6945 107.97 79.377C107.494 79.0595 107.122 78.6078 106.903 78.0792C106.683 77.5505 106.626 76.9687 106.737 76.4072C106.848 75.8457 107.123 75.3298 107.528 74.9248C107.932 74.5198 108.448 74.2439 109.009 74.132C109.571 74.0201 110.153 74.0772 110.682 74.2961C111.21 74.515 111.662 74.8858 111.981 75.3617C112.299 75.8376 112.468 76.3972 112.468 76.9696C112.468 77.7364 112.164 78.4718 111.622 79.0143C111.08 79.5568 110.345 79.8621 109.578 79.863ZM109.578 74.236C109.04 74.236 108.515 74.3955 108.067 74.6944C107.62 74.9932 107.271 75.4181 107.065 75.9151C106.86 76.4121 106.806 76.959 106.911 77.4866C107.016 78.0142 107.275 78.4989 107.655 78.8793C108.036 79.2597 108.52 79.5187 109.048 79.6237C109.575 79.7287 110.122 79.6748 110.619 79.4689C111.116 79.263 111.541 78.9144 111.84 78.4671C112.139 78.0198 112.298 77.4939 112.298 76.956C112.298 76.2346 112.012 75.5427 111.502 75.0326C110.992 74.5225 110.3 74.236 109.578 74.236Z" fill="#407BFF"/>
<path d="M124.328 71.5195H94.8262V71.6691H124.328V71.5195Z" fill="#DBDBDB"/>
<path d="M97.5972 71.5195H94.8262V71.6691H97.5972V71.5195Z" fill="#407BFF"/>
<path d="M98.018 71.594C98.0186 71.6782 97.9943 71.7607 97.948 71.831C97.9017 71.9013 97.8356 71.9563 97.758 71.989C97.6804 72.0217 97.5948 72.0306 97.5121 72.0146C97.4295 71.9986 97.3534 71.9584 97.2937 71.8991C97.2339 71.8398 97.1931 71.7641 97.1764 71.6815C97.1597 71.599 97.1679 71.5134 97.2 71.4355C97.2321 71.3577 97.2865 71.2911 97.3565 71.2442C97.4265 71.1974 97.5088 71.1724 97.593 71.1724C97.7051 71.1724 97.8127 71.2167 97.8923 71.2956C97.9719 71.3746 98.0171 71.4818 98.018 71.594Z" fill="#407BFF"/>
<path d="M94.883 72.4613C94.8819 72.388 94.9019 72.316 94.9408 72.2539C94.9583 72.226 94.9823 72.2028 95.0107 72.1863C95.0391 72.1697 95.0711 72.1602 95.104 72.1587C95.1364 72.1602 95.1679 72.1697 95.1958 72.1863C95.2237 72.2029 95.247 72.2261 95.2638 72.2539C95.3026 72.316 95.3226 72.388 95.3216 72.4613C95.3237 72.5347 95.3035 72.607 95.2638 72.6687C95.2477 72.6973 95.2246 72.7214 95.1966 72.7386C95.1686 72.7559 95.1368 72.7657 95.104 72.7673C95.0706 72.766 95.0382 72.7563 95.0097 72.739C94.9811 72.7218 94.9574 72.6976 94.9408 72.6687C94.901 72.607 94.8809 72.5347 94.883 72.4613ZM95.223 72.4613C95.2239 72.4075 95.2097 72.3545 95.1822 72.3083C95.174 72.2933 95.1623 72.2805 95.1481 72.271C95.1339 72.2615 95.1176 72.2557 95.1006 72.2539C95.0835 72.2554 95.0671 72.2611 95.0528 72.2706C95.0385 72.2802 95.0269 72.2931 95.019 72.3083C94.9887 72.3535 94.9733 72.4069 94.9748 72.4613C94.9728 72.5168 94.9882 72.5715 95.019 72.6177C95.0271 72.6325 95.0388 72.6449 95.0531 72.6538C95.0674 72.6627 95.0837 72.6679 95.1006 72.6687C95.1173 72.6676 95.1335 72.6623 95.1478 72.6534C95.162 72.6445 95.1738 72.6323 95.1822 72.6177C95.2112 72.5707 95.2265 72.5165 95.2264 72.4613H95.223Z" fill="#A6A6A6"/>
<path d="M95.5841 72.2979C95.6013 72.2979 95.6177 72.3047 95.6298 72.3168C95.6419 72.3289 95.6487 72.3453 95.6487 72.3625C95.6487 72.3796 95.6419 72.396 95.6298 72.4081C95.6177 72.4202 95.6013 72.427 95.5841 72.427C95.567 72.427 95.5506 72.4202 95.5385 72.4081C95.5263 72.396 95.5195 72.3796 95.5195 72.3625C95.5195 72.3453 95.5263 72.3289 95.5385 72.3168C95.5506 72.3047 95.567 72.2979 95.5841 72.2979ZM95.5841 72.6379C95.6013 72.6379 95.6177 72.6447 95.6298 72.6568C95.6419 72.6689 95.6487 72.6853 95.6487 72.7025C95.6479 72.7193 95.6408 72.7353 95.6289 72.7472C95.617 72.7592 95.601 72.7662 95.5841 72.767C95.567 72.767 95.5506 72.7602 95.5385 72.7481C95.5263 72.736 95.5195 72.7196 95.5195 72.7025C95.52 72.6944 95.522 72.6865 95.5255 72.6793C95.529 72.672 95.5338 72.6655 95.5398 72.6601C95.5458 72.6548 95.5528 72.6506 95.5604 72.648C95.568 72.6453 95.5761 72.6442 95.5841 72.6447V72.6379Z" fill="#A6A6A6"/>
<path d="M96.1723 72.6037C96.1723 72.6164 96.1673 72.6285 96.1584 72.6374C96.1495 72.6463 96.1373 72.6513 96.1247 72.6513V72.7193C96.1247 72.732 96.1197 72.7441 96.1108 72.753C96.1019 72.7619 96.0897 72.7669 96.0771 72.7669C96.0645 72.7669 96.0524 72.7619 96.0435 72.753C96.0345 72.7441 96.0295 72.732 96.0295 72.7193V72.6513H95.7575C95.7527 72.6535 95.7475 72.6546 95.7422 72.6546C95.7369 72.6546 95.7317 72.6535 95.7269 72.6513C95.7225 72.6472 95.719 72.6422 95.7166 72.6367C95.7141 72.6311 95.7129 72.6251 95.7129 72.619C95.7129 72.613 95.7141 72.607 95.7166 72.6014C95.719 72.5959 95.7225 72.5909 95.7269 72.5867L96.0465 72.1855H96.1111V72.5255C96.1163 72.5215 96.1221 72.5186 96.1284 72.5168C96.1347 72.5151 96.1413 72.5146 96.1477 72.5154C96.1542 72.5162 96.1605 72.5182 96.1661 72.5214C96.1718 72.5246 96.1768 72.5289 96.1808 72.534C96.1848 72.5392 96.1878 72.5451 96.1896 72.5513C96.1913 72.5576 96.1918 72.5642 96.191 72.5707C96.1902 72.5771 96.1882 72.5834 96.185 72.5891C96.1817 72.5947 96.1775 72.5997 96.1723 72.6037ZM96.0193 72.3419L95.8459 72.5561H96.0193V72.3419Z" fill="#A6A6A6"/>
<path d="M96.6916 72.5596C96.6851 72.6105 96.6603 72.6572 96.6218 72.6911C96.5833 72.725 96.5338 72.7437 96.4825 72.7437C96.4313 72.7437 96.3817 72.725 96.3432 72.6911C96.3048 72.6572 96.2799 72.6105 96.2734 72.5596C96.2736 72.5251 96.2824 72.4911 96.299 72.4608C96.3157 72.4306 96.3396 72.4049 96.3686 72.3862C96.3485 72.3625 96.3377 72.3323 96.338 72.3012C96.3433 72.2667 96.3608 72.2352 96.3873 72.2125C96.4138 72.1897 96.4476 72.1772 96.4825 72.1772C96.5175 72.1772 96.5512 72.1897 96.5777 72.2125C96.6042 72.2352 96.6217 72.2667 96.627 72.3012C96.6274 72.3323 96.6165 72.3625 96.5964 72.3862C96.6251 72.4053 96.6487 72.4311 96.6653 72.4613C96.6818 72.4915 96.6909 72.5252 96.6916 72.5596ZM96.5964 72.5596C96.5971 72.5365 96.5908 72.5137 96.5784 72.4941C96.5659 72.4746 96.5479 72.4593 96.5267 72.4501C96.5054 72.4409 96.4819 72.4384 96.4592 72.4427C96.4364 72.4471 96.4155 72.4582 96.3991 72.4745C96.3828 72.4909 96.3717 72.5118 96.3674 72.5345C96.363 72.5573 96.3656 72.5808 96.3747 72.602C96.3839 72.6233 96.3992 72.6413 96.4188 72.6538C96.4383 72.6662 96.4611 72.6725 96.4842 72.6718C96.514 72.6718 96.5425 72.66 96.5636 72.639C96.5846 72.6179 96.5964 72.5894 96.5964 72.5596ZM96.4332 72.3012C96.4341 72.3141 96.4399 72.3263 96.4493 72.3351C96.4588 72.3439 96.4713 72.3488 96.4842 72.3488C96.4969 72.3488 96.509 72.3438 96.5179 72.3349C96.5268 72.3259 96.5318 72.3138 96.5318 72.3012C96.5318 72.2886 96.5268 72.2765 96.5179 72.2676C96.509 72.2586 96.4969 72.2536 96.4842 72.2536C96.4713 72.2536 96.4588 72.2585 96.4493 72.2673C96.4399 72.2762 96.4341 72.2883 96.4332 72.3012Z" fill="#A6A6A6"/>
<path d="M78.543 26.1058V17.948H81.9901C82.5895 17.9298 83.1849 18.0239 83.7137 18.2204C84.1555 18.4024 84.4983 18.6803 84.6892 19.011C84.9105 19.4109 85.0159 19.8371 84.9995 20.2652C85.027 20.7089 84.8918 21.1502 84.6065 21.548C84.3655 21.8643 83.98 22.1163 83.5103 22.2646C82.9847 22.4206 82.4169 22.4963 81.8453 22.4868H80.6836V26.1058H78.543ZM80.694 21.4333H81.5075C81.8198 21.4432 82.1312 21.4031 82.4175 21.3162C82.5252 21.2788 82.6206 21.2264 82.6977 21.1623C82.7748 21.0982 82.832 21.0237 82.8657 20.9436C82.9586 20.7193 83.0005 20.4864 82.9898 20.2532C82.9969 20.0127 82.9657 19.7724 82.8967 19.5366C82.8727 19.4529 82.8242 19.3735 82.7542 19.3032C82.6843 19.233 82.5944 19.1734 82.4899 19.1281C82.1841 19.0268 81.8458 18.9816 81.5075 18.9967H80.694V21.4333Z" fill="white"/>
<path d="M81.2617 29.846L83.5744 25.5125L81.3324 21.686H83.2916L84.7795 24.2163L86.0857 21.686H87.9035L85.6783 25.7947L88.0617 29.846H86.116L84.4833 27.1029L83.0627 29.8436L81.2617 29.846Z" fill="white"/>
<path d="M98.1992 99.4868H118.133" stroke="#263238" stroke-linecap="round" stroke-linejoin="round"/>
<path d="M101.393 97.2428C101.393 97.2428 101.491 99.5072 104.453 95.468C107.414 91.4288 107.016 91.728 106.227 93.9924C105.623 95.56 104.823 97.045 103.847 98.4124C103.847 98.4124 107.397 92.7956 107.397 94.3698C107.397 95.944 104.045 102.649 104.735 102.057C105.425 101.466 107.594 98.511 107.594 98.511C107.594 98.511 107.298 100.48 108.084 99.5922C108.869 98.7048 109.76 96.9334 109.661 97.9194C109.563 98.9054 108.281 100.085 109.563 98.9054C110.845 97.7256 111.831 96.2432 111.535 97.3278C111.239 98.4124 110.45 98.8068 111.239 98.4124C112.028 98.018 116.461 90.6264 115.081 91.5138C113.701 92.4012 111.14 100.085 112.324 99.4936C113.507 98.902 114.884 95.9474 114.785 97.4264C114.687 98.9054 115.081 98.9054 115.465 98.4124" stroke="#263238" stroke-linecap="round" stroke-linejoin="round"/>
<path d="M180.171 159.185H24.9473" stroke="#263238" stroke-linecap="round" stroke-linejoin="round"/>
<path d="M180.171 162.435H24.9473" stroke="#263238" stroke-linecap="round" stroke-linejoin="round"/>
<path d="M171.667 123.332H138.755C138.236 123.331 137.734 123.518 137.341 123.858C136.948 124.197 136.691 124.667 136.617 125.181L131.693 158.841H170.831L173.819 125.678C173.845 125.379 173.809 125.079 173.712 124.795C173.616 124.512 173.462 124.252 173.259 124.031C173.057 123.81 172.811 123.634 172.537 123.514C172.263 123.393 171.967 123.331 171.667 123.332Z" fill="#263238" stroke="#263238" stroke-linecap="round" stroke-linejoin="round"/>
<path d="M127.101 117.838C127.101 117.838 118.196 122.258 115.139 123.478C112.083 124.699 111.331 125.246 111.059 125.994C110.787 126.742 98.8943 145.432 97.5377 147.132C96.1811 148.832 93.2537 152.5 93.6617 155.013C94.0697 157.526 97.3337 159.705 100.462 159.637C103.59 159.569 105.562 158.957 105.902 158.073C106.242 157.189 114.874 141.753 114.874 141.753L117.594 158.947H152.325C152.325 158.947 155.045 135.432 155.045 131.964C155.045 128.496 155.725 124.42 154.297 123.536C152.869 122.652 146.957 120.615 142.605 119.187C138.253 117.759 136.896 117.487 135.879 117.487C134.863 117.487 127.101 117.838 127.101 117.838Z" fill="white" stroke="#263238" stroke-linecap="round" stroke-linejoin="round"/>
<path d="M126.159 117.96C126.159 117.96 125.003 120.136 124.935 121.904C124.867 123.672 124.595 126.932 123.575 128.904C122.555 130.876 121.807 131.964 122.351 131.757C122.895 131.55 126.019 128.088 126.359 127.337C126.699 126.586 127.243 128.017 127.243 128.017C127.243 128.017 126.223 130.938 126.087 131.346C125.951 131.754 130.368 137.394 130.368 137.394C130.368 137.394 134.176 134.406 135.06 133.726C135.944 133.046 135.672 132.502 135.74 131.618C135.808 130.734 136.08 129.445 136.552 128.697C137.025 127.949 138.392 130.88 139.34 132.24C140.289 133.6 141.244 134.076 141.108 133.056C140.972 132.036 140.496 130.064 140.156 126.596C139.816 123.128 139.884 118.983 139 117.691C138.116 116.399 133.479 116.144 130.436 115.927C129.604 115.834 128.763 115.975 128.008 116.334C127.252 116.693 126.612 117.256 126.159 117.96Z" fill="white" stroke="#263238" stroke-linecap="round" stroke-linejoin="round"/>
<path d="M112.429 129.537L114.877 141.763L111.715 133.634" stroke="#263238" stroke-linecap="round" stroke-linejoin="round"/>
<path d="M126.498 121.237C126.498 121.237 127.45 126.538 128.334 130.614C128.82 132.935 129.503 135.21 130.374 137.414C130.374 137.414 134.862 129.87 136.154 125.929C136.888 123.755 137.456 121.528 137.854 119.269H126.498V121.237Z" stroke="#263238" stroke-linecap="round" stroke-linejoin="round"/>
<path d="M131.46 123.06L129.016 126.12L130.716 129.384L129.043 133.433C129.412 134.78 129.857 136.104 130.376 137.401C130.376 137.401 131.776 135.048 133.235 132.301L132.008 129.469L133.504 126.069L131.46 123.06Z" fill="#407BFF" stroke="#263238" stroke-linecap="round" stroke-linejoin="round"/>
<path d="M126.498 119.265V121.237C126.498 121.237 127.154 124.896 127.882 128.469L131.323 124.838L134.95 128.857C135.404 127.902 135.805 126.924 136.151 125.926C136.884 123.752 137.453 121.525 137.851 119.265H126.498Z" fill="white" stroke="#263238" stroke-linecap="round" stroke-linejoin="round"/>
<path d="M96.8672 149.144C96.8672 149.144 103.215 146.826 106.639 152.466" stroke="#263238" stroke-linecap="round" stroke-linejoin="round"/>
<path d="M106.753 150.726C106.753 150.726 103.206 151.528 101.313 154.551C99.4188 157.573 103.271 157.91 104.335 157.91C105.399 157.91 106.406 157.196 106.464 156.825C106.521 156.455 107.915 152.871 107.861 152.035C107.855 151.722 107.741 151.422 107.539 151.183C107.337 150.945 107.06 150.783 106.753 150.726Z" fill="white" stroke="#263238" stroke-linecap="round" stroke-linejoin="round"/>
<path d="M105.119 151.977C105.119 151.977 103.157 153.677 103.29 154.357C103.422 155.037 106.333 157.655 106.894 157.277C106.995 157.226 107.085 157.155 107.159 157.068C107.232 156.982 107.288 156.882 107.323 156.774C107.359 156.666 107.372 156.552 107.363 156.439C107.354 156.326 107.323 156.215 107.271 156.114C107.111 155.859 105.119 151.977 105.119 151.977Z" fill="white" stroke="#263238" stroke-linecap="round" stroke-linejoin="round"/>
<path d="M103.3 154.34C103.3 154.34 102.148 155.567 102.525 156.128C102.903 156.689 105.538 158.121 106.221 157.689C106.904 157.257 106.462 156.815 106.462 156.815L103.3 154.34Z" fill="white" stroke="#263238" stroke-linecap="round" stroke-linejoin="round"/>
<path d="M110.053 151.912L107.693 151.504L108.248 154.9L110.658 154.975L110.053 151.912Z" fill="white" stroke="#263238" stroke-linecap="round" stroke-linejoin="round"/>
<path d="M105.807 146.571L108.571 156.257L109.914 157.478V155.754L106.99 146.234C106.967 146.155 106.927 146.081 106.874 146.018C106.821 145.954 106.756 145.902 106.682 145.865C106.608 145.827 106.528 145.805 106.445 145.8C106.362 145.794 106.28 145.805 106.202 145.833C106.055 145.884 105.933 145.988 105.86 146.124C105.787 146.261 105.768 146.421 105.807 146.571Z" fill="#263238" stroke="#263238" stroke-linecap="round" stroke-linejoin="round"/>
<path d="M106.752 150.725C106.752 150.725 105.12 151.681 105.283 152.405C105.446 153.129 107.207 156.516 107.843 156.56C108.479 156.604 108.863 156.22 108.771 155.485C108.68 154.751 108.091 152.085 107.694 151.504C107.296 150.923 107.252 150.691 106.752 150.725Z" fill="white" stroke="#263238" stroke-linecap="round" stroke-linejoin="round"/>
<path d="M110.054 151.912C110.054 151.912 111.791 152.13 112.094 152.66C112.396 153.191 111.183 155.305 110.795 155.788C110.407 156.271 109.714 156.251 109.693 155.027C109.726 153.98 109.847 152.938 110.054 151.912Z" fill="white" stroke="#263238" stroke-linecap="round" stroke-linejoin="round"/>
<path d="M100.656 156.002H119.72C120.253 156.003 120.763 156.215 121.14 156.592C121.517 156.969 121.729 157.479 121.729 158.012C121.729 158.463 121.55 158.895 121.231 159.214C120.913 159.533 120.48 159.712 120.029 159.712H100.921C100.507 159.712 100.109 159.547 99.8155 159.254C99.5222 158.96 99.3574 158.563 99.3574 158.148V157.298C99.3574 157.127 99.391 156.959 99.4564 156.801C99.5217 156.644 99.6174 156.501 99.738 156.381C99.8587 156.26 100.002 156.165 100.159 156.1C100.317 156.035 100.486 156.002 100.656 156.002Z" fill="white" stroke="#263238" stroke-linecap="round" stroke-linejoin="round"/>
<path d="M134.581 151.62C134.581 151.62 129.62 151.076 128.396 150.668C127.172 150.26 125.2 149.92 124.52 150.464C123.84 151.008 120.512 154.884 120.44 155.356C120.369 155.829 119.692 157.396 120.032 157.804C120.317 158.089 120.668 158.299 121.052 158.416C121.052 158.416 125.472 159.64 125.945 159.708C126.418 159.776 130.974 159.572 130.974 159.572L133.354 158.688L136.682 158.62C136.682 158.62 136.75 159.708 136.818 157.056C136.886 154.404 134.581 151.62 134.581 151.62Z" fill="white" stroke="#263238" stroke-linecap="round" stroke-linejoin="round"/>
<path d="M121.062 158.42C121.062 158.42 121.131 156.856 121.471 156.176C121.811 155.496 125.683 152.031 125.683 152.031" stroke="#263238" stroke-linecap="round" stroke-linejoin="round"/>
<path d="M122.34 158.821C122.34 158.821 123.02 157.121 123.292 156.985C123.564 156.849 126.756 154.809 126.756 154.809" stroke="#263238" stroke-linecap="round" stroke-linejoin="round"/>
<path d="M124.662 159.297C124.662 159.297 124.798 158.617 125.138 158.481C125.478 158.345 128.334 157.053 128.334 157.053" stroke="#263238" stroke-linecap="round" stroke-linejoin="round"/>
<path d="M127.724 159.637L129.016 159.297L128.88 158.685L127.52 159.025" stroke="#263238" stroke-linecap="round" stroke-linejoin="round"/>
<path d="M150.149 129.731C150.149 129.731 146.548 137.275 146.749 139.931C146.949 142.586 147.84 146.996 147.84 146.996C147.84 146.996 142.131 149.236 140.159 150.056C138.187 150.875 134.58 151.62 134.58 151.62L136.413 158.824L136.144 159.572H155.918C155.918 159.572 157.414 159.3 157.686 158.96C157.958 158.62 158.23 158.484 158.366 157.396C158.502 156.308 159.386 146.795 159.182 144.136C158.978 141.478 156.19 127.691 155.85 126.263C155.51 124.835 154.902 123.883 154.29 123.543C153.678 123.203 151.026 122.934 151.026 122.934" fill="white"/>
<path d="M150.149 129.731C150.149 129.731 146.548 137.275 146.749 139.931C146.949 142.586 147.84 146.996 147.84 146.996C147.84 146.996 142.131 149.236 140.159 150.056C138.187 150.875 134.58 151.62 134.58 151.62L136.413 158.824L136.144 159.572H155.918C155.918 159.572 157.414 159.3 157.686 158.96C157.958 158.62 158.23 158.484 158.366 157.396C158.502 156.308 159.386 146.795 159.182 144.136C158.978 141.478 156.19 127.691 155.85 126.263C155.51 124.835 154.902 123.883 154.29 123.543C153.678 123.203 151.026 122.934 151.026 122.934" stroke="#263238" stroke-linecap="round" stroke-linejoin="round"/>
<path d="M148.316 147.132C148.316 147.132 153.549 147.404 156.136 149.032" stroke="#263238" stroke-linecap="round" stroke-linejoin="round"/>
<path d="M149.266 146.452C149.266 146.452 152.938 146.248 154.91 146.86" stroke="#263238" stroke-linecap="round" stroke-linejoin="round"/>
<path d="M148.249 129.52C148.249 129.52 146.413 133.804 146.345 135.436C146.277 137.068 146.141 138.02 146.141 138.02" stroke="#263238" stroke-linecap="round" stroke-linejoin="round"/>
<path d="M139.889 118.177C139.889 118.177 144.033 124.08 140.701 140.539" stroke="#263238" stroke-width="2" stroke-linecap="round" stroke-linejoin="round"/>
<path d="M142.672 141.015C142.672 140.612 142.552 140.217 142.328 139.882C142.104 139.546 141.785 139.285 141.412 139.13C141.04 138.976 140.63 138.936 140.234 139.014C139.838 139.093 139.475 139.287 139.189 139.573C138.904 139.858 138.71 140.221 138.631 140.617C138.552 141.013 138.593 141.423 138.747 141.796C138.901 142.169 139.163 142.487 139.498 142.711C139.834 142.935 140.228 143.055 140.632 143.055C141.173 143.055 141.692 142.84 142.074 142.458C142.457 142.075 142.672 141.556 142.672 141.015Z" fill="white" stroke="#263238" stroke-linecap="round" stroke-linejoin="round"/>
<path d="M125.741 118.789C125.741 118.789 123.637 120.149 123.297 125.654" stroke="#263238" stroke-width="2" stroke-linecap="round" stroke-linejoin="round"/>
<path d="M126.219 133.994C125.706 137.707 125.005 141.695 124.859 142.569C124.519 144.439 122.299 145.092 120.871 144.48" stroke="#263238" stroke-width="2" stroke-linecap="round" stroke-linejoin="round"/>
<path d="M120.897 134.239C120.431 132.158 120.145 130.353 120.247 129.526C120.723 125.722 123.307 125.654 123.307 125.654C123.307 125.654 126.367 126.062 126.568 129.326C126.589 130.889 126.475 132.451 126.228 133.994" stroke="#263238" stroke-width="2" stroke-linecap="round" stroke-linejoin="round"/>
<path d="M126.636 144.208C126.636 144.208 125.208 145.024 124.256 144.48C123.613 144.112 121.876 138.577 120.896 134.239" stroke="#263238" stroke-width="2" stroke-linecap="round" stroke-linejoin="round"/>
<path d="M127.132 143.471L126.57 143.713C126.3 143.83 126.175 144.144 126.291 144.415L126.298 144.43C126.415 144.701 126.729 144.826 127 144.709L127.562 144.467C127.832 144.35 127.957 144.036 127.841 143.765L127.834 143.75C127.717 143.479 127.403 143.354 127.132 143.471Z" stroke="#263238" stroke-linecap="round" stroke-linejoin="round"/>
<path d="M121.049 143.839L120.524 143.524C120.271 143.373 119.943 143.454 119.792 143.707L119.783 143.722C119.631 143.974 119.713 144.302 119.966 144.454L120.49 144.769C120.743 144.921 121.071 144.839 121.223 144.586L121.231 144.572C121.383 144.319 121.301 143.991 121.049 143.839Z" stroke="#263238" stroke-linecap="round" stroke-linejoin="round"/>
<path d="M123.306 102.343C123.306 102.343 122.218 104.924 122.422 106.556C122.626 108.188 124.802 109.956 124.802 109.956C124.802 109.956 125.55 102.683 125.55 102.411C125.55 102.139 124.187 101.527 123.306 102.343Z" fill="#263238" stroke="#263238" stroke-linecap="round" stroke-linejoin="round"/>
<path d="M122.523 111.588L123.968 110.578" stroke="#263238" stroke-width="2" stroke-linecap="round" stroke-linejoin="round"/>
<path d="M124.119 102.82C124.119 102.82 123.847 110.024 123.983 111.381C124.119 112.737 124.663 117.089 125.139 118.449C125.615 119.809 127.179 124.158 128.403 124.634C129.627 125.11 132.072 125.45 132.888 124.906C133.704 124.362 136.693 122.325 137.509 120.353C137.992 119.204 138.313 117.992 138.461 116.753C139.139 116.391 139.725 115.877 140.173 115.252C140.621 114.627 140.919 113.908 141.045 113.149C141.453 110.565 140.365 109.82 140.365 109.82L140.433 105.332C140.433 105.332 139.685 102.208 137.713 100.508C135.741 98.8076 133.432 98.6716 131.052 99.9636C128.672 101.256 124.119 102.82 124.119 102.82Z" fill="white" stroke="#263238" stroke-linecap="round" stroke-linejoin="round"/>
<path d="M136.897 102.412C136.897 102.412 136.965 100.644 135.268 101.256C133.572 101.868 133.16 103.024 130.644 104.044C128.128 105.064 124.8 103.908 123.647 103.228C122.494 102.548 121.675 101.596 123.239 99.8275C124.803 98.0595 128.472 96.2949 132.419 96.2949C136.366 96.2949 139.42 99.5555 140.712 100.916C142.004 102.276 142.208 103.976 141.732 105.196C141.256 106.417 140.372 109.82 140.372 109.82C140.372 109.82 139.828 109.752 139.624 110.565C139.42 111.377 139.488 112.265 138.604 112.333C137.72 112.401 137.788 110.024 137.788 110.024C137.788 110.024 135.615 109.344 135.343 107.78C135.071 106.216 136.897 103.908 136.897 102.412Z" fill="#263238" stroke="#263238" stroke-linecap="round" stroke-linejoin="round"/>
<path d="M128.8 112.696L122.514 111.588L122.877 114.406C122.9 114.582 122.978 114.745 123.101 114.873C123.223 115 123.383 115.084 123.557 115.114L127.379 115.715C127.589 115.749 127.804 115.7 127.979 115.578C128.153 115.457 128.274 115.272 128.314 115.063L128.8 112.696Z" stroke="#263238" stroke-width="2" stroke-linecap="round" stroke-linejoin="round"/>
<path d="M129.947 112.815L137.237 112.604L136.523 115.243C136.461 115.421 136.344 115.574 136.188 115.679C136.033 115.784 135.847 115.837 135.659 115.828L131.239 115.889C131.01 115.905 130.783 115.837 130.599 115.699C130.416 115.561 130.288 115.362 130.24 115.137L129.947 112.815Z" stroke="#263238" stroke-width="2" stroke-linecap="round" stroke-linejoin="round"/>
<path d="M128.811 112.696L129.946 112.815" stroke="#263238" stroke-width="2" stroke-linecap="round" stroke-linejoin="round"/>
<path d="M137.236 112.605L139.616 110.565" stroke="#263238" stroke-width="2" stroke-linecap="round" stroke-linejoin="round"/>
<path d="M130.916 111.993C130.916 111.993 132.956 110.432 134.86 111.381" stroke="#263238" stroke-width="2" stroke-linecap="round" stroke-linejoin="round"/>
<path d="M127.859 111.653C127.859 111.653 126.295 109.953 124.527 111.109" stroke="#263238" stroke-width="2" stroke-linecap="round" stroke-linejoin="round"/>
<path d="M128.266 117.565C128.266 117.565 127.926 118.993 128.266 119.265C128.845 119.585 129.513 119.704 130.167 119.605" stroke="#263238" stroke-linecap="round" stroke-linejoin="round"/>
<path d="M127.246 120.34C127.246 120.34 128.606 121.36 129.898 121.428C131.19 121.496 132.683 120.544 132.683 120.544" stroke="#263238" stroke-linecap="round" stroke-linejoin="round"/>
<path d="M132.275 113.421C132.275 113.421 133.091 114.373 134.451 113.353" stroke="#263238" stroke-linecap="round" stroke-linejoin="round"/>
<path d="M125.58 113.002C125.58 113.002 126.26 114.056 127.742 113.23" stroke="#263238" stroke-linecap="round" stroke-linejoin="round"/>
<path d="M83.4099 102.405C83.4099 102.405 83.8417 108.882 83.5153 109.423L82.5599 111.041C82.5599 111.041 82.9917 115.685 82.1281 116.223C81.459 116.581 80.7249 116.802 79.9691 116.872C79.9691 116.872 79.1055 120.326 78.7791 120.758C78.4527 121.19 76.5113 122.594 75.8653 122.798C75.2193 123.002 73.1657 123.138 68.3071 120.207C63.4485 117.277 61.6125 116.321 61.7213 114.703C61.8301 113.084 62.0613 111.248 62.0613 111.248C62.0613 111.248 62.6019 103.473 63.5743 101.099C64.5467 98.7262 76.8547 97.4274 79.5543 98.0768C82.2539 98.7262 83.4099 102.405 83.4099 102.405Z" fill="white" stroke="#263238" stroke-linecap="round" stroke-linejoin="round"/>
<path d="M70.8848 113.091L71.643 113.631C71.643 113.631 70.9936 116.222 71.303 117.412" stroke="#263238" stroke-linecap="round" stroke-linejoin="round"/>
<path d="M81.6779 110.922C81.5691 111.418 81.3073 111.779 81.0965 111.731C80.8857 111.683 80.8007 111.248 80.9129 110.752C81.0251 110.255 81.2835 109.895 81.4943 109.943C81.7051 109.99 81.7901 110.429 81.6779 110.922Z" fill="#263238"/>
<path d="M80.5781 108.939C80.5781 108.939 81.7545 107.763 82.7371 108.875" stroke="#263238" stroke-linecap="round" stroke-linejoin="round"/>
<path d="M79.0924 101.541C79.0924 101.541 80.4932 104.132 80.3878 104.673C80.2824 105.213 75.8522 106.509 75.8522 106.509C75.8522 106.509 75.4204 109.099 74.771 109.422L74.125 109.745C73.607 109.042 73.1723 108.281 72.8296 107.478C72.0748 105.859 70.9936 105.438 69.807 107.046C68.6204 108.654 69.5894 112.445 70.2388 112.768L70.8848 113.091C70.8848 113.091 70.3442 113.632 68.294 113.958C66.2438 114.284 64.7308 114.713 63.2212 114.281C61.7116 113.849 59.5492 109.745 58.8012 104.455C58.0532 99.1646 60.4196 94.6324 63.5612 93.235C66.7028 91.8376 73.819 93.1262 74.3562 93.4492C74.8934 93.7722 78.5688 92.0484 80.7278 93.1262C82.8868 94.204 82.7678 95.394 83.3186 96.1488C83.8694 96.9036 86.6642 95.9346 86.8818 98.6342C87.0994 101.334 86.0182 102.952 84.614 103.166C83.2098 103.381 79.0924 101.541 79.0924 101.541Z" fill="#263238" stroke="#263238" stroke-linecap="round" stroke-linejoin="round"/>
<path d="M53.5273 118.49C53.5273 118.49 43.1812 124.009 41.2092 125.1C39.2372 126.191 38.9414 127.171 38.8292 128.16C38.717 129.149 38.8292 162.449 38.8292 162.449H94.7149C94.7149 162.449 86.2387 137 85.9599 134.158C85.6811 131.315 85.0759 126.273 84.2871 125.681C83.4983 125.09 72.3599 120.163 72.3599 120.163C72.3599 120.163 69.6977 117.307 63.3941 117.307C57.0905 117.307 53.5273 118.49 53.5273 118.49Z" fill="#407BFF" stroke="#263238" stroke-linecap="round" stroke-linejoin="round"/>
<path d="M59.9316 138.764C60.224 138.88 60.5198 138.985 60.8156 139.084" stroke="#263238" stroke-linecap="round" stroke-linejoin="round"/>
<path d="M48.9004 129.625C48.9004 129.625 52.9804 135.317 58.553 138.125" stroke="#263238" stroke-linecap="round" stroke-linejoin="round"/>
<path d="M52.4414 136.225C52.4414 136.225 54.7058 138.492 59.4352 139.774" stroke="#263238" stroke-linecap="round" stroke-linejoin="round"/>
<path d="M80.5195 128.058C78.9453 129.846 76.7285 132.705 75.9941 135.337" stroke="#263238" stroke-linecap="round" stroke-linejoin="round"/>
<path d="M82.1989 126.273C82.1989 126.273 81.8861 126.576 81.3965 127.096" stroke="#263238" stroke-linecap="round" stroke-linejoin="round"/>
<path d="M76.5819 132.186C76.5819 132.186 75.1029 135.042 74.8105 136.816" stroke="#263238" stroke-linecap="round" stroke-linejoin="round"/>
<path d="M52.9355 118.98C52.9355 118.98 58.6509 118.783 64.0705 118.881C69.4901 118.98 73.0397 120.656 73.0397 120.656C73.0397 120.656 69.7859 116.716 68.3103 115.828C66.8347 114.941 62.2991 113.448 58.5557 114.645C56.2497 115.42 54.2705 116.946 52.9355 118.98Z" fill="#407BFF" stroke="#263238" stroke-linecap="round" stroke-linejoin="round"/>
<path d="M36.6833 162.411L31.4745 142.44C31.424 142.197 31.4281 141.946 31.4867 141.706C31.5453 141.465 31.6568 141.24 31.8131 141.048C31.9695 140.856 32.1667 140.701 32.3904 140.595C32.6142 140.489 32.8588 140.433 33.1065 140.434H74.5491C74.9298 140.434 75.2991 140.564 75.5958 140.803C75.8926 141.041 76.099 141.374 76.1811 141.746L80.7813 162.432" fill="#2515A1"/>
<path d="M36.6833 162.411L31.4745 142.44C31.424 142.197 31.4281 141.946 31.4867 141.706C31.5453 141.465 31.6568 141.24 31.8131 141.048C31.9695 140.856 32.1667 140.701 32.3904 140.595C32.6142 140.489 32.8588 140.433 33.1065 140.434H74.5491C74.9298 140.434 75.2991 140.564 75.5958 140.803C75.8926 141.041 76.099 141.374 76.1811 141.746L80.7813 162.432" stroke="#263238" stroke-linecap="round" stroke-linejoin="round"/>
<path d="M147.656 51.5499C144.634 49.818 141.471 48.2407 138.073 47.4897C137.602 47.3607 137.11 47.3188 136.624 47.366C136.381 47.3939 136.149 47.4789 135.945 47.614C135.742 47.7492 135.573 47.9307 135.453 48.1435C135.162 48.7488 135.453 49.4689 135.811 50.03C136.628 51.2671 137.852 52.164 139.085 52.9813C142.465 55.2212 146.092 57.0459 149.688 58.8661C149.246 56.286 148.327 54.0726 147.634 51.5499" fill="#407BFF"/>
<path d="M170.824 58.2076C171.814 61.5476 173.002 64.87 174.937 67.7638C175.19 68.1841 175.518 68.5541 175.905 68.8551C176.099 69.0045 176.325 69.1051 176.566 69.1481C176.807 69.1912 177.054 69.1756 177.288 69.1025C177.915 68.8683 178.216 68.1526 178.33 67.4943C178.596 66.0364 178.33 64.5386 178.008 63.0984C177.124 59.1221 175.755 55.3182 174.398 51.501C172.945 53.6791 172.066 55.919 170.824 58.2076Z" fill="#407BFF"/>
<path d="M147.611 51.4794C147.611 51.4794 147.845 74.6079 160.826 75.0629C173.806 75.518 174.349 51.6473 174.349 51.4794C174.349 51.4794 172.816 48.0333 160.98 48.1658C149.144 48.2984 147.611 51.4794 147.611 51.4794Z" fill="#407BFF"/>
<path d="M164.851 60.6645C164.787 61.5474 164.462 62.3914 163.918 63.0897C163.374 63.788 162.635 64.3092 161.794 64.5875C160.954 64.8657 160.05 64.8884 159.196 64.6528C158.343 64.4172 157.579 63.9338 157 63.2637C156.422 62.5937 156.055 61.7671 155.946 60.8885C155.837 60.0099 155.992 59.1188 156.389 58.3279C156.787 57.5371 157.41 56.8819 158.181 56.4453C158.951 56.0088 159.833 55.8104 160.716 55.8753C161.899 55.9624 163 56.5158 163.775 57.4138C164.55 58.3119 164.938 59.4811 164.851 60.6645Z" fill="#263238"/>
<path d="M163.641 60.5762C163.594 61.2193 163.357 61.834 162.961 62.3426C162.564 62.8511 162.026 63.2307 161.413 63.4332C160.801 63.6357 160.143 63.6522 159.521 63.4804C158.899 63.3087 158.343 62.9565 157.921 62.4683C157.5 61.9802 157.233 61.378 157.154 60.738C157.074 60.098 157.187 59.4489 157.477 58.8728C157.766 58.2967 158.22 57.8194 158.781 57.5013C159.342 57.1833 159.985 57.0387 160.628 57.0859C161.49 57.1503 162.291 57.5539 162.856 58.2082C163.421 58.8625 163.703 59.714 163.641 60.5762Z" fill="white"/>
<path d="M147.555 51.462C147.555 51.462 147.581 51.462 147.625 51.462L147.82 51.5283L148.575 51.7934L149.114 51.9878L149.773 52.191C150.241 52.3324 150.771 52.5135 151.376 52.6328L152.317 52.8714C152.644 52.9553 152.989 53.0172 153.347 53.0923C154.054 53.2557 154.827 53.3662 155.631 53.4987C159.147 54.0045 162.718 54.0045 166.234 53.4987C167.043 53.3706 167.811 53.2602 168.518 53.0967C168.876 53.0172 169.221 52.9553 169.548 52.8758L170.489 52.6328C171.094 52.4914 171.624 52.3103 172.097 52.191C172.331 52.1203 172.539 52.0584 172.751 51.9922L173.294 51.7978L174.045 51.5327L174.24 51.4664L174.31 51.4443C174.31 51.4443 174.288 51.4443 174.244 51.4753L174.05 51.5504L173.303 51.8287L172.764 52.0319C172.565 52.1026 172.322 52.1645 172.11 52.244C171.642 52.3854 171.112 52.5709 170.506 52.7167L169.565 52.9641C169.238 53.0481 168.894 53.1144 168.536 53.1939C167.825 53.3574 167.056 53.4722 166.247 53.6048C162.722 54.1231 159.139 54.1231 155.613 53.6048C154.8 53.4722 154.032 53.3574 153.32 53.1895C152.967 53.1144 152.618 53.0481 152.291 52.9641L151.35 52.7167C150.745 52.5709 150.219 52.3854 149.746 52.2396L149.092 52.0319L148.553 51.8287L147.807 51.546L147.612 51.4708L147.555 51.462Z" fill="#263238"/>
<g opacity="0.3">
<path d="M147.611 51.4801C147.611 51.4801 149.144 48.3035 160.98 48.1666C172.816 48.0296 174.349 51.4801 174.349 51.4801C174.349 51.4801 162.412 57.3694 147.611 51.4801Z" fill="black"/>
</g>
<path d="M151.681 67.941C151.672 67.9303 151.664 67.9184 151.659 67.9057L151.601 67.804L151.385 67.3976L151.235 67.106L151.067 66.7481C150.947 66.4919 150.815 66.2003 150.682 65.8645L150.47 65.3476L150.263 64.7821C150.108 64.3933 149.98 63.9648 149.821 63.5185C149.542 62.6349 149.273 61.6232 149.034 60.5629C148.796 59.5025 148.623 58.4864 148.482 57.5542C148.341 56.622 148.248 55.7869 148.195 55.0756C148.16 54.7222 148.138 54.4041 148.12 54.1213C148.102 53.8386 148.089 53.5956 148.08 53.3968V52.955V52.7915C148.08 52.7915 148.08 52.7915 148.08 52.8357V52.9506C148.08 53.0654 148.08 53.2156 148.115 53.3924C148.151 53.5691 148.142 53.8342 148.168 54.1125C148.195 54.3908 148.217 54.7134 148.252 55.0668C148.319 55.7737 148.429 56.6087 148.562 57.5409C148.694 58.4731 148.889 59.4804 149.118 60.5408C149.348 61.6011 149.626 62.5907 149.896 63.4876C150.046 63.9294 150.17 64.3712 150.338 64.7512L150.541 65.3211L150.749 65.838C150.872 66.1694 151.005 66.461 151.12 66.7216L151.279 67.0839L151.425 67.3799L151.623 67.7908L151.672 67.8968L151.681 67.941Z" fill="white"/>
<path d="M157.937 73.503C157.867 73.5005 157.798 73.4917 157.73 73.4765C157.542 73.4467 157.358 73.4024 157.177 73.3439C156.908 73.2633 156.645 73.1629 156.391 73.0435C156.083 72.8931 155.788 72.7188 155.507 72.5222C155.226 72.3227 154.962 72.1011 154.717 71.8595C154.516 71.6605 154.332 71.4463 154.164 71.2188C154.049 71.0692 153.946 70.9112 153.855 70.7461C153.816 70.6878 153.784 70.6256 153.758 70.5605C153.758 70.5605 153.921 70.808 154.2 71.1791C154.372 71.3968 154.558 71.6034 154.756 71.7976C155.002 72.0327 155.265 72.2498 155.543 72.4471C155.823 72.6419 156.119 72.8147 156.426 72.964C156.676 73.0862 156.932 73.1925 157.195 73.2821C157.646 73.4323 157.937 73.4853 157.937 73.503Z" fill="white"/>
<path d="M160.641 65.3437H160.517C160.438 65.3437 160.314 65.3437 160.159 65.3437C159.722 65.3363 159.287 65.2664 158.869 65.1361C158.244 64.9465 157.661 64.6391 157.151 64.2304C156.515 63.7391 156.013 63.0951 155.693 62.3583C155.372 61.6215 155.243 60.8157 155.317 60.0156C155.346 59.6674 155.409 59.3227 155.503 58.9862C155.59 58.6968 155.699 58.4147 155.83 58.1423C156.022 57.746 156.269 57.3786 156.563 57.0511C156.641 56.9629 156.724 56.8789 156.81 56.7992C156.872 56.7418 156.903 56.7153 156.908 56.7197C156.912 56.7241 156.788 56.8434 156.59 57.0776C156.308 57.4075 156.073 57.7747 155.892 58.1688C155.763 58.4393 155.658 58.7201 155.578 59.0083C155.489 59.3393 155.431 59.6781 155.406 60.02C155.335 60.806 155.462 61.5972 155.776 62.3212C156.091 63.0452 156.581 63.6789 157.204 64.1641C157.472 64.3778 157.759 64.5671 158.061 64.7296C158.328 64.8641 158.604 64.9793 158.887 65.0742C159.301 65.2065 159.73 65.2852 160.164 65.3084C160.469 65.3437 160.641 65.3349 160.641 65.3437Z" fill="white"/>
<path d="M160.08 27.4317C160.08 27.4317 148.761 27.2948 146.994 37.1072C145.227 46.9197 154.774 47.0876 157.527 47.2688C158.777 47.3527 161.445 47.3615 163.8 47.3174C169.018 47.229 172.703 46.2173 173.962 41.3795C174.112 40.8112 174.206 40.2297 174.244 39.6432C174.549 34.3415 170.957 27.171 160.08 27.4317Z" fill="#407BFF"/>
<path d="M168.287 42.3607L151.848 42.6169C151.436 42.6234 151.028 42.5483 150.645 42.3961C150.263 42.2439 149.915 42.0175 149.62 41.73C149.326 41.4426 149.091 41.0997 148.93 40.7211C148.768 40.3426 148.684 39.9358 148.68 39.5243C148.667 38.6966 148.983 37.8976 149.559 37.3028C150.135 36.708 150.923 36.3661 151.751 36.3521L168.199 36.118C168.611 36.1122 169.019 36.1876 169.401 36.34C169.784 36.4923 170.132 36.7186 170.427 37.0059C170.722 37.2932 170.957 37.6359 171.119 38.0142C171.281 38.3925 171.367 38.7991 171.371 39.2106C171.378 40.0368 171.058 40.8321 170.48 41.4225C169.902 42.0129 169.114 42.3502 168.287 42.3607Z" fill="#263238"/>
<path d="M155.259 39.2057C155.221 39.4006 155.126 39.5799 154.986 39.7207C154.846 39.8616 154.667 39.9577 154.472 39.9968C154.277 40.036 154.076 40.0165 153.892 39.9407C153.708 39.865 153.551 39.7365 153.441 39.5714C153.33 39.4063 153.271 39.2122 153.271 39.0136C153.271 38.815 153.33 38.6208 153.441 38.4558C153.551 38.2907 153.708 38.1622 153.892 38.0865C154.076 38.0108 154.278 37.9913 154.472 38.0305C154.732 38.0828 154.961 38.2357 155.108 38.4559C155.255 38.6761 155.309 38.9456 155.259 39.2057Z" fill="white"/>
<path d="M166.747 39.0203C166.709 39.2151 166.615 39.3943 166.475 39.5352C166.335 39.6761 166.157 39.7724 165.962 39.8119C165.768 39.8514 165.566 39.8323 165.382 39.757C165.199 39.6817 165.041 39.5536 164.931 39.389C164.82 39.2243 164.76 39.0305 164.76 38.832C164.759 38.6336 164.817 38.4394 164.927 38.2741C165.037 38.1088 165.194 37.9798 165.377 37.9034C165.56 37.827 165.762 37.8067 165.956 37.8451C166.217 37.8963 166.446 38.0489 166.595 38.2692C166.743 38.4895 166.798 38.7596 166.747 39.0203Z" fill="white"/>
<path d="M158.648 28.165H158.608H158.489C158.383 28.165 158.228 28.165 158.047 28.2004C157.485 28.2562 156.927 28.3492 156.377 28.4787C155.562 28.6718 154.769 28.9471 154.009 29.3005C153.077 29.7363 152.204 30.2886 151.411 30.944C149.976 32.1439 148.832 33.6547 148.067 35.362C147.835 35.8766 147.639 36.4066 147.479 36.9481C147.418 37.1425 147.387 37.2927 147.356 37.3899L147.32 37.5048V37.5446C147.32 37.5446 147.32 37.5446 147.32 37.5048L147.347 37.3855C147.369 37.2839 147.395 37.1293 147.453 36.9437C147.592 36.3964 147.772 35.8603 147.992 35.34C148.326 34.5614 148.742 33.8208 149.233 33.1309C150.943 30.7421 153.474 29.0683 156.342 28.4301C156.901 28.3057 157.468 28.223 158.039 28.1827C158.237 28.1827 158.396 28.1827 158.48 28.1827H158.639L158.648 28.165Z" fill="white"/>
<path d="M147.578 41.7421C147.505 41.6336 147.45 41.5143 147.414 41.3887C147.311 41.1015 147.235 40.8058 147.184 40.5051C147.138 40.1966 147.119 39.8847 147.127 39.5728C147.124 39.4433 147.139 39.3141 147.171 39.1885C147.202 39.1885 147.171 39.7805 147.277 40.5139C147.383 41.2473 147.604 41.7333 147.578 41.7421Z" fill="white"/>
<path d="M165.571 35.5433C165.571 35.5698 163.407 35.5919 160.738 35.5919C158.07 35.5919 155.9 35.5919 155.9 35.5433C155.9 35.4947 158.065 35.4991 160.738 35.4991C163.411 35.4991 165.571 35.5212 165.571 35.5433Z" fill="white"/>
<path d="M157.317 46.571C157.317 46.571 157.291 46.571 157.238 46.571H157.004C156.898 46.571 156.774 46.571 156.628 46.571C156.482 46.571 156.314 46.571 156.129 46.571C155.698 46.5674 155.267 46.5409 154.839 46.4915C154.314 46.4305 153.794 46.3406 153.279 46.222C152.766 46.1052 152.26 45.9577 151.764 45.7802C151.359 45.6337 150.962 45.4656 150.575 45.2765C150.407 45.197 150.262 45.1175 150.134 45.0468C150.005 44.9761 149.895 44.9187 149.807 44.8657L149.603 44.742L149.537 44.6934C149.537 44.6934 149.564 44.6934 149.612 44.7243L149.824 44.8303C149.913 44.8789 150.023 44.9408 150.156 45.0026C150.288 45.0645 150.434 45.144 150.597 45.2147C150.929 45.3693 151.331 45.5372 151.786 45.7007C152.282 45.8735 152.786 46.021 153.297 46.1425C153.809 46.2606 154.326 46.352 154.848 46.4164C155.325 46.4738 155.762 46.5048 156.129 46.5136C156.31 46.5136 156.478 46.5136 156.624 46.5136H157.313L157.317 46.571Z" fill="white"/>
<path d="M171.156 52.8936H171.116L170.988 52.9422L170.498 53.119C170.286 53.1941 170.025 53.2824 169.716 53.3752C169.407 53.468 169.058 53.5829 168.669 53.6801L168.055 53.8435L167.383 53.9982C166.941 54.1086 166.42 54.197 165.894 54.2986C164.749 54.4922 163.594 54.6279 162.435 54.705C161.277 54.7643 160.116 54.7643 158.958 54.705C158.423 54.6697 157.915 54.6432 157.443 54.5902L156.758 54.5195L156.126 54.4311C155.724 54.3825 155.366 54.3118 155.048 54.2588C154.73 54.2058 154.46 54.1484 154.239 54.0998L153.731 53.9849L153.599 53.954H153.555C153.555 53.954 153.555 53.954 153.603 53.954L153.736 53.9761L154.248 54.0733C154.469 54.1174 154.739 54.1705 155.057 54.2146C155.375 54.2588 155.733 54.3339 156.135 54.3781L156.767 54.4576C156.983 54.4841 157.208 54.5018 157.447 54.5239C157.92 54.5725 158.428 54.599 158.958 54.6299C160.027 54.6741 161.202 54.6741 162.431 54.6034C163.659 54.5327 164.825 54.3781 165.877 54.2058C166.402 54.1086 166.902 54.0247 167.366 53.9142C167.595 53.8612 167.807 53.817 168.037 53.764L168.651 53.6094C169.044 53.5166 169.393 53.4061 169.698 53.3178C170.003 53.2294 170.273 53.1455 170.489 53.0748L170.984 52.9157L171.112 52.876L171.156 52.8936Z" fill="white"/>
<path d="M162.102 61.9423C162.102 62.0759 161.993 62.1843 161.859 62.1843C161.725 62.1843 161.617 62.0759 161.617 61.9423C161.617 61.8898 161.634 61.8413 161.662 61.8017L159.117 59.2597C159.077 59.288 159.028 59.3048 158.976 59.3048C158.842 59.3048 158.733 59.1964 158.733 59.0628C158.733 58.9291 158.842 58.8208 158.976 58.8208C159.11 58.8208 159.218 58.9291 159.218 59.0628C159.218 59.109 159.205 59.1521 159.183 59.1888L161.733 61.7357C161.77 61.7132 161.813 61.7003 161.859 61.7003C161.993 61.7003 162.102 61.8086 162.102 61.9423Z" fill="#039FD3"/>
<path d="M158.976 62.1846C158.842 62.1846 158.733 62.0762 158.733 61.9426C158.733 61.809 158.842 61.7006 158.976 61.7006C159.028 61.7006 159.077 61.7174 159.117 61.7457L161.662 59.2037C161.634 59.164 161.617 59.1155 161.617 59.0631C161.617 58.9295 161.725 58.8211 161.859 58.8211C161.993 58.8211 162.102 58.9295 162.102 59.0631C162.102 59.1967 161.993 59.3051 161.859 59.3051C161.813 59.3051 161.77 59.2921 161.733 59.2697L159.183 61.8166C159.205 61.8533 159.218 61.8964 159.218 61.9426C159.218 62.0762 159.11 62.1846 158.976 62.1846Z" fill="#039FD3"/>
<path d="M158.208 60.6736C158.113 60.5791 158.113 60.4259 158.208 60.3314C158.302 60.2369 158.456 60.2369 158.55 60.3314C158.587 60.3685 158.61 60.4147 158.618 60.4627H162.218C162.226 60.4147 162.248 60.3685 162.286 60.3314C162.38 60.2369 162.534 60.2369 162.628 60.3314C162.723 60.4259 162.723 60.5791 162.628 60.6736C162.534 60.7681 162.38 60.7681 162.286 60.6736C162.253 60.641 162.231 60.6013 162.221 60.5595H158.615C158.604 60.6013 158.583 60.641 158.55 60.6736C158.456 60.7681 158.302 60.7681 158.208 60.6736Z" fill="#039FD3"/>
<path d="M160.245 58.2952C160.34 58.2007 160.493 58.2007 160.588 58.2952C160.683 58.3897 160.683 58.5429 160.588 58.6374C160.551 58.6745 160.505 58.697 160.457 58.7049V62.2999C160.505 62.3079 160.551 62.3304 160.588 62.3675C160.683 62.462 160.683 62.6152 160.588 62.7097C160.493 62.8042 160.34 62.8042 160.245 62.7097C160.151 62.6152 160.151 62.462 160.245 62.3675C160.278 62.3348 160.318 62.3134 160.36 62.3033V58.7015C160.318 58.6915 160.278 58.6701 160.245 58.6374C160.151 58.5429 160.151 58.3897 160.245 58.2952Z" fill="#039FD3"/>
<path d="M161.816 60.5024C161.816 61.292 161.177 61.932 160.389 61.932C159.6 61.932 158.961 61.292 158.961 60.5024C158.961 59.7128 159.6 59.0728 160.389 59.0728C161.177 59.0728 161.816 59.7128 161.816 60.5024Z" fill="#1D3B72"/>
<path d="M161.043 59.8481V61.1509H160.896C160.83 61.1509 160.775 61.0967 160.775 61.0298V59.9693C160.775 59.9024 160.83 59.8481 160.896 59.8481H161.043Z" fill="white"/>
<path d="M160.108 60.0709L159.781 61.0676C159.765 61.1173 159.718 61.1509 159.666 61.1509H159.469L159.952 59.8481L160.122 59.8966L160.108 60.0709ZM160.489 61.1509C160.437 61.1509 160.391 61.1174 160.374 61.0676L160.047 60.0709L159.952 59.8481H160.034C160.135 59.8481 160.225 59.9109 160.26 60.0056L160.688 61.1509H160.489ZM160.386 60.666V60.8763H159.698V60.666H160.386Z" fill="white"/>
<path d="M17.3556 40.7715H14.0059V55.7871H17.3556V40.7715Z" fill="#E0E0E0"/>
<path d="M8.17188 46.6044V49.9541H23.1875V46.6044H8.17188Z" fill="#E0E0E0"/>
<path d="M28.1491 48.3158C28.1357 48.2493 28.1278 48.1818 28.1254 48.114C28.1254 47.9668 28.1017 47.7698 28.0827 47.5205C28.0827 47.3875 28.0637 47.2427 28.0542 47.0837C28.0447 46.9246 28.002 46.7489 27.9735 46.5614C27.9153 46.126 27.8264 45.6952 27.7076 45.2723C27.4138 44.1037 26.9447 42.9864 26.3164 41.9582C24.8344 39.4816 22.5353 37.5992 19.8149 36.6351C17.0946 35.671 14.1232 35.6854 11.4124 36.676C10.2844 37.0693 9.22586 37.6391 8.27629 38.3639C7.7828 38.728 7.31409 39.1246 6.87326 39.5509C6.43724 39.9979 6.03194 40.4737 5.66013 40.9753C4.88959 42.0095 4.29152 43.1615 3.88912 44.3868C3.03756 46.9231 3.03756 49.6681 3.88912 52.2044C4.29167 53.4292 4.88887 54.5811 5.65776 55.6159C6.02983 56.1218 6.43509 56.6024 6.87088 57.0545C7.31364 57.4797 7.78307 57.8761 8.27629 58.2415C8.76001 58.6016 9.26763 58.9284 9.79566 59.2196C10.3179 59.4931 10.8581 59.7311 11.4124 59.9318C14.1243 60.9154 17.0938 60.9259 19.8126 59.9614C22.5314 58.997 24.8305 57.1176 26.3164 54.6449C26.9443 53.6182 27.4133 52.5025 27.7076 51.3355C27.8264 50.9126 27.9153 50.4819 27.9735 50.0464C28.002 49.8589 28.0352 49.6856 28.0542 49.5242C28.0732 49.3627 28.0732 49.2203 28.0827 49.0873C28.1017 48.8499 28.1159 48.641 28.1254 48.4938C28.1278 48.426 28.1357 48.3585 28.1491 48.292C28.1549 48.3592 28.1549 48.4267 28.1491 48.4938C28.1491 48.641 28.1491 48.8404 28.1325 49.0921C28.1325 49.2227 28.1325 49.3698 28.1183 49.5313C28.104 49.6927 28.0732 49.866 28.0471 50.0583C28.0016 50.4974 27.9223 50.9324 27.8097 51.3593C27.5303 52.543 27.0707 53.6768 26.447 54.7209C24.9595 57.2503 22.6336 59.1793 19.8727 60.1732C17.1117 61.167 14.09 61.1631 11.3316 60.1621C10.7662 59.9623 10.215 59.7243 9.68171 59.4499C9.14237 59.1545 8.62364 58.823 8.12911 58.4576C7.62795 58.0835 7.15211 57.6766 6.7047 57.2397C6.25823 56.78 5.84341 56.2907 5.46309 55.7749C4.67741 54.7181 4.06589 53.5423 3.65172 52.2923C2.78276 49.7019 2.78276 46.8988 3.65172 44.3085C4.06379 43.0575 4.67548 41.8814 5.46309 40.8258C5.84322 40.3113 6.25721 39.8228 6.70233 39.3634C7.15078 38.9276 7.62654 38.5208 8.12673 38.1455C9.09816 37.4104 10.1788 36.832 11.3293 36.4315C13.4577 35.6633 15.7531 35.4797 17.9765 35.8997C19.733 36.2363 21.3977 36.943 22.8598 37.9729C24.322 39.0028 25.548 40.3322 26.4565 41.8727C27.0806 42.9158 27.5402 44.0489 27.8192 45.2319C27.9316 45.6597 28.0109 46.0954 28.0566 46.5353C28.0827 46.7252 28.1135 46.9009 28.1278 47.0623C28.142 47.2237 28.1278 47.3686 28.142 47.5015C28.142 47.7531 28.1563 47.9526 28.1586 48.0998C28.1621 48.1719 28.1589 48.2442 28.1491 48.3158Z" fill="#E0E0E0"/>
<path d="M46.1327 85.0071C45.1595 82.2092 42.1476 80.0488 39.2475 80.6668C38.397 80.8846 37.5996 81.2729 36.9037 81.8082C36.2078 82.3436 35.6279 83.0147 35.1992 83.7809C34.874 84.2915 34.5893 84.8267 34.3477 85.3817C33.9828 84.8971 33.5844 84.4386 33.1555 84.0096C32.5656 83.3595 31.8502 82.8356 31.0525 82.4693C30.2547 82.1031 29.3911 81.902 28.5136 81.8784C25.5503 81.9222 23.0931 84.7005 22.767 87.6444C22.441 90.5882 23.8716 93.5174 25.9104 95.6729C28.6192 98.6898 32.3353 100.615 36.3621 101.089C39.5687 99.9597 43.3591 96.0865 44.8627 93.532C46.3662 90.9774 47.1107 87.8098 46.1327 85.0071Z" fill="#407BFF"/>
<path d="M46.2005 90.4028H46.1032L45.821 90.4466L44.7262 90.5877L40.707 91.0743L40.7654 91.0159C40.5562 92.354 40.3129 93.9354 40.0452 95.6481L40.0015 95.9304L39.8798 95.6725L36.7511 89.1669L35.7341 87.0454H35.9093L33.7878 91.8334V91.8771H33.7392L26.6545 92.6411L24.645 92.8454L24.1146 92.8892C24.0531 92.8946 23.9912 92.8946 23.9297 92.8892C23.9878 92.8695 24.0484 92.858 24.1097 92.8552L24.6401 92.7822L26.6399 92.5292L33.7197 91.6971L33.6467 91.7458L35.7536 86.9529L35.8363 86.7632L35.9288 86.9529L36.9263 89.1036C38.0405 91.4344 39.0964 93.6434 40.0355 95.619L39.8701 95.6433L40.6291 91.011V90.9575H40.6778L44.7067 90.5342L45.8064 90.4271H46.0934L46.2005 90.4028Z" fill="#FAFAFA"/>
<path d="M57.8926 57.7459H35.0271L34.9612 47.8011C34.9519 46.4805 35.2039 45.1712 35.7028 43.9485C36.2017 42.7257 36.9377 41.6138 37.8682 40.6767C38.7987 39.7397 39.9054 38.9959 41.1246 38.4884C42.3438 37.981 43.6513 37.7197 44.9719 37.7197H57.8926C60.5489 37.7197 63.0964 38.7749 64.9746 40.6532C66.8529 42.5314 67.9081 45.0789 67.9081 47.7352C67.9068 50.3906 66.8511 52.9369 64.9729 54.8141C63.0948 56.6913 60.5481 57.7459 57.8926 57.7459Z" fill="white"/>
<path d="M60.7315 43.2155C60.7315 43.2579 56.4089 43.2908 51.0786 43.2908C45.7484 43.2908 41.4258 43.2579 41.4258 43.2155C41.4258 43.1731 45.7437 43.1401 51.0786 43.1401C56.4136 43.1401 60.7315 43.1731 60.7315 43.2155Z" fill="#263238"/>
<path d="M60.7315 45.6027C60.7315 45.6451 56.4089 45.678 51.0786 45.678C45.7484 45.678 41.4258 45.6451 41.4258 45.6027C41.4258 45.5603 45.7437 45.5273 51.0786 45.5273C56.4136 45.5273 60.7315 45.5603 60.7315 45.6027Z" fill="#263238"/>
<path d="M60.7315 47.9894C60.7315 48.0318 56.4089 48.0647 51.0786 48.0647C45.7484 48.0647 41.4258 48.0318 41.4258 47.9894C41.4258 47.947 45.7437 47.9141 51.0786 47.9141C56.4136 47.9141 60.7315 47.947 60.7315 47.9894Z" fill="#263238"/>
<path d="M60.7315 50.3771C60.7315 50.4195 56.4089 50.4524 51.0786 50.4524C45.7484 50.4524 41.4258 50.4195 41.4258 50.3771C41.4258 50.3347 45.7437 50.3018 51.0786 50.3018C56.4136 50.3018 60.7315 50.3347 60.7315 50.3771Z" fill="#263238"/>
<path d="M51.1116 52.7642C50.986 52.7883 50.858 52.7978 50.7302 52.7924L49.6943 52.8207C48.8138 52.8207 47.6036 52.8207 46.2663 52.8207C44.9291 52.8207 43.7189 52.8207 42.8431 52.8207L41.8025 52.7924C41.6762 52.798 41.5498 52.7885 41.4258 52.7642C41.5502 52.7429 41.6763 52.7334 41.8025 52.7359L42.8431 52.7124C43.7189 52.7124 44.9291 52.7124 46.2663 52.7124C47.6036 52.7124 48.8138 52.7124 49.6943 52.7124L50.7302 52.7359C50.8579 52.7336 50.9856 52.7431 51.1116 52.7642Z" fill="#263238"/>
<path d="M40.0841 65.1011H54.2102C54.887 65.098 55.5576 65.229 56.1834 65.4865C56.8093 65.7441 57.3779 66.1231 57.8564 66.6016C58.3349 67.0801 58.7139 67.6487 58.9714 68.2745C59.229 68.9004 59.36 69.571 59.3568 70.2478V70.874C59.3568 72.2327 58.8171 73.5358 57.8563 74.4966C56.8956 75.4573 55.5925 75.9971 54.2338 75.9971H34.961V70.2478C34.9579 69.573 35.0881 68.9043 35.3442 68.28C35.6003 67.6557 35.9771 67.0882 36.4532 66.6099C36.9292 66.1317 37.495 65.7523 38.1181 65.4933C38.7412 65.2344 39.4093 65.1011 40.0841 65.1011Z" fill="white"/>
<path d="M55.6467 69.2306C55.6467 69.273 51.8468 69.3107 47.171 69.3107C42.4952 69.3107 38.6953 69.273 38.6953 69.2306C38.6953 69.1882 42.4952 69.1553 47.171 69.1553C51.8468 69.1553 55.6467 69.1929 55.6467 69.2306Z" fill="#263238"/>
<path d="M49.0346 71.882C48.9007 71.9031 48.7652 71.9125 48.6297 71.9102L47.5184 71.9338C46.5767 71.9338 45.2818 71.9573 43.8503 71.9573C42.4189 71.9573 41.124 71.9573 40.1869 71.9338L39.0757 71.9102C38.9386 71.9126 38.8015 71.9032 38.666 71.882C38.8011 71.8574 38.9384 71.8463 39.0757 71.849H40.1869C41.1287 71.849 42.4189 71.849 43.8503 71.849C45.2818 71.849 46.5814 71.849 47.5184 71.849H48.6297C48.7654 71.8464 48.9011 71.8575 49.0346 71.882Z" fill="#263238"/>
<defs>
<linearGradient id="paint0_linear_2396_87114" x1="170.686" y1="24.0333" x2="42.4934" y2="175.09" gradientUnits="userSpaceOnUse">
<stop stop-color="#4088F4"/>
<stop offset="1" stop-color="#4938CF"/>
</linearGradient>
</defs>
</svg>
